<svg xmlns="http://www.w3.org/2000/svg" xmlns:xlink="http://www.w3.org/1999/xlink" width="525" height="442" viewBox="0 0 525 442">
    <defs>
        <path id="a" d="M127.448 405.193C1.194 360.959-26.1 204.493 24.402 89.493c29.593-67.41 83.04-93.628 154.024-87.744 68.78 5.704 151.563-6.654 216.837 16.808C450.515 38.377 497.531 82.573 517.3 138.3c21.337 60.118-10.165 124.933-30.03 182.143-45.695 131.607-253.583 121.968-359.821 84.75z"/>
        <linearGradient id="c" x1=".001%" x2="99.993%" y1="50.021%" y2="50.021%">
            <stop offset="0%" stop-color="#2E4B9C"/>
            <stop offset="100%" stop-color="#7F9FF6"/>
        </linearGradient>
        <linearGradient id="d" x1="50%" x2="50%" y1="-2.202%" y2="135.161%">
            <stop offset="0%" stop-color="#FBB773"/>
            <stop offset="100%" stop-color="#FA6C69"/>
        </linearGradient>
        <linearGradient id="e" x1="0%" y1="49.965%" y2="49.965%">
            <stop offset="0%" stop-color="#B3E2FC"/>
            <stop offset="100%" stop-color="#2D9BEE"/>
        </linearGradient>
        <linearGradient id="f" x1="-.025%" x2="99.939%" y1="49.99%" y2="49.99%">
            <stop offset="0%" stop-color="#B3E2FC"/>
            <stop offset="100%" stop-color="#2D9BEE"/>
        </linearGradient>
        <linearGradient id="g" x1="0%" x2="100.012%" y1="49.994%" y2="49.994%">
            <stop offset="0%" stop-color="#B3E2FC"/>
            <stop offset="100%" stop-color="#2D9BEE"/>
        </linearGradient>
        <linearGradient id="h" x1=".007%" y1="50.021%" y2="50.021%">
            <stop offset="0%" stop-color="#FBB773"/>
            <stop offset="100%" stop-color="#FA6C69"/>
        </linearGradient>
        <linearGradient id="i" x1="-.014%" y1="49.963%" y2="49.963%">
            <stop offset="0%" stop-color="#FBB773"/>
            <stop offset="100%" stop-color="#FA6C69"/>
        </linearGradient>
        <linearGradient id="j" x1="52.401%" x2="43.314%" y1="8.115%" y2="133.812%">
            <stop offset="0%" stop-color="#2E4B9C"/>
            <stop offset="100%" stop-color="#182C8C"/>
        </linearGradient>
        <linearGradient id="k" x1="53.664%" x2="45.573%" y1="14.756%" y2="88.659%">
            <stop offset="0%" stop-color="#FBB773"/>
            <stop offset="100%" stop-color="#FA6C69"/>
        </linearGradient>
        <linearGradient id="l" x1="52.708%" x2="46.382%" y1="21.725%" y2="141.927%">
            <stop offset="0%" stop-color="#FBB773"/>
            <stop offset="100%" stop-color="#FA6C69"/>
        </linearGradient>
        <linearGradient id="m" x1=".013%" x2="100.09%" y1="50%" y2="50%">
            <stop offset="0%" stop-color="#182C8C"/>
            <stop offset="100%" stop-color="#001333"/>
        </linearGradient>
        <linearGradient id="n" x1=".123%" x2="100.069%" y1="50.087%" y2="50.087%">
            <stop offset="0%" stop-color="#182C8C"/>
            <stop offset="100%" stop-color="#001333"/>
        </linearGradient>
        <linearGradient id="o" x1="50.777%" x2="49.181%" y1="-37.139%" y2="142.47%">
            <stop offset="0%" stop-color="#FBB773"/>
            <stop offset="100%" stop-color="#FA6C69"/>
        </linearGradient>
        <linearGradient id="p" x1="47.972%" x2="52.804%" y1="110.267%" y2="-24.486%">
            <stop offset="0%" stop-color="#B3E2FC"/>
            <stop offset="100%" stop-color="#2D9BEE"/>
        </linearGradient>
        <linearGradient id="q" x1="49.998%" x2="49.998%" y1="-3.584%" y2="130.544%">
            <stop offset="0%" stop-color="#FBB773"/>
            <stop offset="100%" stop-color="#FA6C69"/>
        </linearGradient>
        <linearGradient id="r" x1="60.021%" x2="30.052%" y1="-.198%" y2="95.945%">
            <stop offset="0%" stop-color="#304DD9"/>
            <stop offset="100%" stop-color="#182C8C"/>
        </linearGradient>
        <linearGradient id="s" x1="54.883%" x2="36.402%" y1="8.115%" y2="133.812%">
            <stop offset="0%" stop-color="#2E4B9C"/>
            <stop offset="100%" stop-color="#182C8C"/>
        </linearGradient>
        <linearGradient id="t" x1="17.571%" x2="77.697%" y1="-49.619%" y2="116.527%">
            <stop offset="0%" stop-color="#B3E2FC"/>
            <stop offset="100%" stop-color="#2D9BEE"/>
        </linearGradient>
        <linearGradient id="u" x1=".006%" x2="99.991%" y1="49.967%" y2="49.967%">
            <stop offset="0%" stop-color="#182C8C"/>
            <stop offset="100%" stop-color="#001333"/>
        </linearGradient>
        <linearGradient id="v" x1=".012%" x2="99.995%" y1="49.967%" y2="49.967%">
            <stop offset="0%" stop-color="#182C8C"/>
            <stop offset="100%" stop-color="#001333"/>
        </linearGradient>
        <linearGradient id="w" x1="50.927%" x2="48.693%" y1="-29.991%" y2="179.43%">
            <stop offset="0%" stop-color="#FBB773"/>
            <stop offset="100%" stop-color="#FA6C69"/>
        </linearGradient>
        <linearGradient id="x" x1="50.082%" x2="50.082%" y1="-121.363%" y2="362.686%">
            <stop offset="0%" stop-color="#FBB773"/>
            <stop offset="100%" stop-color="#FA6C69"/>
        </linearGradient>
        <linearGradient id="y" x1="79.806%" x2="31.95%" y1="-111.438%" y2="147.696%">
            <stop offset="0%" stop-color="#304DD9"/>
            <stop offset="100%" stop-color="#182C8C"/>
        </linearGradient>
    </defs>
    <g fill="none" fill-rule="evenodd" transform="translate(0 -1)">
        <mask id="b" fill="#fff">
            <use xlink:href="#a"/>
        </mask>
        <use fill="#DAE3FC" fill-rule="nonzero" xlink:href="#a"/>
        <g fill-rule="nonzero" mask="url(#b)">
            <path fill="#FFF" d="M367.96 427.752h-48.763v-87.46h48.764z"/>
            <path fill="#FFF" d="M367.95 427.752h-24.377V306.07h24.377z"/>
            <path fill="#EFF9FE" d="M48.514 209.398H37.084v-25.98h11.428z"/>
            <path fill="#7F9FF6" d="M48.513 209.399H37.085v-13.68h11.428z" opacity=".45"/>
            <path fill="#EFF9FE" d="M21.324 209.39H-4.839v-42.875h26.163z"/>
            <path fill="#7F9FF6" d="M21.324 209.399H-4.839v-13.68h26.163z" opacity=".45"/>
            <path fill="#EFF9FE" d="M64.52 433.58h-75.164V201.262H64.52z"/>
            <path fill="#7F9FF6" d="M47.496 234.828h-7.609v-9.953h7.61zM39.887 245.38h7.609v9.953h-7.609zM39.887 265.885h7.609v9.953h-7.609zM39.887 286.391h7.609v9.953h-7.609zM39.887 306.886h7.609v9.953h-7.609zM39.887 327.392h7.609v9.953h-7.609z" opacity=".45"/>
            <path fill="#C9EFFF" d="M39.887 347.897h7.609v9.953h-7.609z"/>
            <path fill="#7F9FF6" d="M25.144 234.828h-7.61v-9.953h7.61zM17.524 245.38h7.609v9.953h-7.609zM17.524 265.885h7.609v9.953h-7.609zM17.524 286.391h7.609v9.953h-7.609zM17.524 306.886h7.609v9.953h-7.609z" opacity=".45"/>
            <path fill="#C9EFFF" d="M17.524 327.392h7.609v9.953h-7.609zM17.524 347.897h7.609v9.953h-7.609zM2.77 234.828h-7.608v-9.953H2.77zM-4.829 245.38H2.78v9.953h-7.609zM-4.829 265.885H2.78v9.953h-7.609zM-4.829 286.391H2.78v9.953h-7.609zM-4.829 306.886H2.78v9.953h-7.609zM-4.829 327.392H2.78v9.953h-7.609zM-4.829 347.897H2.78v9.953h-7.609z"/>
            <path fill="#EFF9FE" d="M426.737 217.422h-11.428v-25.98h11.428z"/>
            <path fill="#C9EFFF" d="M426.737 217.421h-11.428v-13.68h11.428z"/>
            <path fill="#EFF9FE" d="M399.557 217.412h-26.163v-42.874h26.163z"/>
            <path fill="#C9EFFF" d="M399.557 217.421h-26.163v-13.68h26.163z"/>
            <path fill="#EFF9FE" d="M442.745 441.602h-79.677V209.284h79.677z"/>
            <path fill="#C9EFFF" d="M425.71 242.851h-7.608v-9.953h7.609zM418.11 253.403h7.609v9.953h-7.609zM418.11 273.91h7.609v9.952h-7.609zM418.11 294.414h7.609v9.953h-7.609zM418.11 314.92h7.609v9.952h-7.609zM418.11 335.415h7.609v9.953h-7.609zM418.11 355.921h7.609v9.953h-7.609zM403.358 242.851h-7.61v-9.953h7.61zM395.747 253.403h7.609v9.953h-7.609zM395.747 273.91h7.609v9.952h-7.609zM395.747 294.414h7.609v9.953h-7.609zM395.747 314.92h7.609v9.952h-7.609z"/>
            <path fill="#7F9FF6" d="M395.747 335.415h7.609v9.953h-7.609zM395.747 355.921h7.609v9.953h-7.609z" opacity=".5"/>
            <path fill="#C9EFFF" d="M380.995 242.851h-7.61v-9.953h7.61zM373.384 253.403h7.609v9.953h-7.609zM373.384 273.91h7.609v9.952h-7.609z"/>
            <path fill="#7F9FF6" d="M373.384 294.414h7.609v9.953h-7.609zM373.384 314.92h7.609v9.952h-7.609zM373.384 335.415h7.609v9.953h-7.609zM373.384 355.921h7.609v9.953h-7.609z" opacity=".5"/>
            <path fill="#EFF9FE" d="M166.57 434.853h-48.764V297.818h48.763z"/>
            <path fill="#EFF9FE" d="M166.579 434.843h-24.377V244.942h24.377z"/>
            <path fill="#EFF9FE" d="M178.767 434.853H154.39V307.067h24.377z"/>
            <path fill="#FFF" d="M484.136 139.83h-58.473V85.938l58.473 27.607z"/>
            <path fill="#FFF" d="M412.686 127.33h84.407V413.69h-84.407z"/>
            <path fill="#EBF9FF" d="M425.653 121.482h58.472v5.846h-58.472z"/>
            <path fill="#7F9FF6" d="M433.833 244.41h8.617v13.3h-8.617zM433.833 221.975h8.617v13.3h-8.617zM433.833 199.55h8.617v13.3h-8.617zM433.833 177.124h8.617v13.3h-8.617zM433.833 154.688h8.617v13.3h-8.617zM450.591 244.41h8.617v13.3h-8.617zM450.591 221.975h8.617v13.3h-8.617zM450.591 199.55h8.617v13.3h-8.617zM450.591 177.124h8.617v13.3h-8.617zM450.591 154.688h8.617v13.3h-8.617zM467.34 244.41h8.617v13.3h-8.617zM467.34 221.975h8.617v13.3h-8.617zM467.34 199.55h8.617v13.3h-8.617zM467.34 177.124h8.617v13.3h-8.617zM467.34 154.688h8.617v13.3h-8.617z" opacity=".5"/>
            <path fill="#FFF" d="M78.894 42.465h9.443v74.711h-9.443z"/>
            <path fill="#7F9FF6" d="M78.894 110.246h9.443v6.921h-9.443z" opacity=".45"/>
            <path fill="#FFF" d="M97.21 81.907h17.176v43.711H97.21z"/>
            <path fill="#FFF" d="M124.912 433.579H56.445V115.484h68.466z"/>
            <path fill="#7F9FF6" d="M97.21 110.731h17.176v4.744H97.21z" opacity=".45"/>
            <path fill="#EBF9FF" d="M100.772 319.597h6.992v10.79h-6.992zM100.772 301.411h6.992v10.79h-6.992zM100.772 246.825h6.992v10.79h-6.992zM100.772 228.64h6.992v10.79h-6.992zM100.772 192.248h6.992v10.79h-6.992zM107.765 148.453h-6.992v-10.79h6.992zM87.188 283.215h6.992v10.79h-6.992zM87.188 228.64h6.992v10.79h-6.992zM87.188 210.444h6.992v10.79h-6.992zM87.188 174.053h6.992v10.79h-6.992zM87.188 155.867h6.992v10.79h-6.992zM73.593 319.597h6.992v10.79h-6.992zM73.593 283.215h6.992v10.79h-6.992zM73.593 246.825h6.992v10.79h-6.992zM73.593 210.444h6.992v10.79h-6.992zM73.593 155.867h6.992v10.79h-6.992z"/>
        </g>
        <path fill="#7F9FF6" fill-rule="nonzero" d="M518.136 115.58a5.502 5.502 0 0 0-5.5-5.505h-14.763a5.502 5.502 0 0 1-5.501-5.504 5.502 5.502 0 0 0-5.5-5.504h-9.719a5.502 5.502 0 0 0-5.453 5.504 5.502 5.502 0 0 1-5.5 5.504h-10.422a5.502 5.502 0 0 0-5.5 5.504 5.502 5.502 0 0 1-5.501 5.504h-14.488a5.512 5.512 0 0 0-5.51 5.505 5.516 5.516 0 0 0 5.51 5.513h105.84a5.512 5.512 0 0 0 5.5-5.513 5.502 5.502 0 0 0-5.5-5.505h-12.493a5.502 5.502 0 0 1-5.5-5.504zM73.127 156.352a5.968 5.968 0 0 0-5.965-5.96H51.172a5.959 5.959 0 0 1-5.956-5.96 5.968 5.968 0 0 0-5.966-5.97H28.725a5.968 5.968 0 0 0-5.957 5.97 5.959 5.959 0 0 1-5.957 5.96H5.573a5.954 5.954 0 0 0-5.957 5.96 5.968 5.968 0 0 1-5.956 5.97h-15.704A5.959 5.959 0 0 0-28 168.264a5.968 5.968 0 0 0 5.956 5.97h1.16a5.954 5.954 0 0 1 5.966 5.96A5.959 5.959 0 0 0-9 186.175h50.521a5.968 5.968 0 0 0 5.966-5.96 5.959 5.959 0 0 1 5.956-5.961h5.463a5.945 5.945 0 0 1 5.956 5.96 5.968 5.968 0 0 0 5.967 5.961h6.545a5.959 5.959 0 0 0 5.957-5.96 5.963 5.963 0 0 1 5.965-5.961h3.354a5.968 5.968 0 0 0 5.966-5.97 5.968 5.968 0 0 0-5.966-5.96H79.084a5.954 5.954 0 0 1-5.957-5.97zM13.24 168.264a5.968 5.968 0 0 1 5.966-5.96h4.92a5.968 5.968 0 0 1 5.966 5.96 5.968 5.968 0 0 1-5.965 5.97h-4.921a5.968 5.968 0 0 1-5.966-5.97z" mask="url(#b)"/>
        <path fill="url(#c)" fill-rule="nonzero" d="M252.089 357.071a697.425 697.425 0 0 0-201.885 25.81c-7.191 2.016-16.008 6.598-14.81 13.965.836 5.143 6.308 7.995 11.229 9.678 37.733 12.872 79.381 2.937 118.75 9.097 21.631 3.385 42.18 11.56 63.346 17.112 40.441 10.657 82.716 11.607 124.165 7.605 19.845-1.901 39.225-5.647 58.9-8.49 18.772-2.727 37.591-6.112 55.48-12.557a138.754 138.754 0 0 0 27.397-13.185c3.363-2.14 6.764-4.592 8.55-8.176 10.545-21.475-44.137-31.514-56.211-31.828-77.738-2.053-98.021-8.242-175.75-10.286l-19.161 1.255z"/>
        <ellipse cx="380.966" cy="30.012" fill="#7F9FF6" fill-rule="nonzero" rx="4.275" ry="4.278"/>
        <ellipse cx="51.667" cy="86.366" fill="#7F9FF6" fill-rule="nonzero" rx="4.275" ry="4.278"/>
        <path fill="#7F9FF6" fill-rule="nonzero" d="M132.996 34.955h-2.793v-2.852a2.138 2.138 0 1 0-4.275 0v2.852h-2.802a2.138 2.138 0 0 0 0 4.278h2.774v2.795a2.138 2.138 0 1 0 4.275 0v-2.795h2.793a2.138 2.138 0 0 0 0-4.278h.029zM429.72 54.187h-2.803V51.42a2.14 2.14 0 0 0-3.242-1.97 2.14 2.14 0 0 0-1.024 1.97v2.767h-2.802a2.137 2.137 0 0 0-1.97 3.244 2.137 2.137 0 0 0 1.97 1.024h2.803v2.804a2.14 2.14 0 0 0 3.242 1.971 2.14 2.14 0 0 0 1.023-1.97v-2.767h2.803a2.137 2.137 0 0 0 1.969-3.244 2.137 2.137 0 0 0-1.97-1.024v-.038zM240.499 253.185c-11.125 0-18.687-6.388-18.687-20.8s7.6-20.81 18.686-20.81c10.07 0 20.017 15.705 21.85 4.497v-44.005h-39.225c-19.18 0 0-10.99 0-22.131 0-11.142-6.374-18.7-20.786-18.7-14.411 0-20.786 7.558-20.786 18.7 0 11.141 19.18 22.13 0 22.13H142.05v105.265a15.368 15.368 0 0 0 4.493 10.87 15.347 15.347 0 0 0 10.859 4.502H262.32v-44.015c-1.805-11.208-11.751 4.497-21.821 4.497z"/>
        <path fill="#2E4B9C" fill-rule="nonzero" d="M343.384 194.188c0 11.142-6.375 18.7-20.786 18.7-14.412 0-20.786-7.558-20.786-18.7s19.18-22.121 0-22.121H262.32v44.005c-1.805 11.208-11.751-4.497-21.85-4.497-11.125 0-18.686 6.389-18.686 20.81s7.6 20.8 18.686 20.8c10.07 0 20.016-15.705 21.85-4.497v44.015h105.203c4.073 0 7.98-1.62 10.859-4.503a15.368 15.368 0 0 0 4.493-10.869V172.067h-39.491c-19.181 0 0 10.98 0 22.121z"/>
        <path fill="#7F9FF6" fill-rule="nonzero" d="M367.523 51.42H262.614v44.015c1.806 11.208 11.752-4.496 21.85-4.496 11.125 0 18.678 6.388 18.678 20.8 0 14.411-7.6 20.81-18.678 20.81-10.07 0-20.016-15.705-21.85-4.497v44.015h39.198c19.18 0 0 10.98 0 22.121 0 11.142 6.374 18.7 20.786 18.7 14.411 0 20.786-7.558 20.786-18.7s-19.181-22.121 0-22.121h39.491V66.792a15.368 15.368 0 0 0-4.493-10.869 15.347 15.347 0 0 0-10.859-4.503z"/>
        <path fill="#2E4B9C" fill-rule="nonzero" d="M284.436 90.939c-10.07 0-20.016 15.704-21.85 4.496V51.42H157.411a15.347 15.347 0 0 0-10.865 4.5 15.368 15.368 0 0 0-4.496 10.872v105.275h39.492c19.18 0 0-10.99 0-22.131 0-11.142 6.374-18.7 20.785-18.7 14.412 0 20.786 7.558 20.786 18.7 0 11.141-19.18 22.13 0 22.13h39.492v-44.014c1.805-11.208 11.751 4.496 21.85 4.496 11.125 0 18.677-6.388 18.677-20.81 0-14.42-7.572-20.8-18.696-20.8z"/>
        <path fill="#7F9FF6" fill-rule="nonzero" d="M422.3 277.53c.294 6.114.637 41.42.637 41.42s7.6 9.231 9.5 19.09a132.342 132.342 0 0 0 5.405 19.079l-7.724 6.027s-20.111-25.316-23.417-36.258c-3.306-10.942-2.508-37.217-2.508-37.217l18.107-12.14z"/>
        <path fill="#21397D" fill-rule="nonzero" d="M393.582 163.311c-4.893 6.968-4.893 18.794-5.092 28.69-.2 9.897 2.621 9.108 5.091 8.727 2.47-.38 15.257-2.851 15.257-2.851l-4.455-30.735-10.801-3.83z"/>
        <path fill="url(#d)" fill-rule="nonzero" d="M403.357 161.239c-8.075.542-9.405 7.728-9.747 17.111-.342 9.383 1.995 17.188 4.873 17.055 2.879-.133 5.539-.95 5.805 0s.95 12.12.95 12.12l11.98-1.996s-1.977-10.276-1.786-15.704c.19-5.429 12.863-30.269-12.075-28.586z"/>
        <path fill="#2E4B9C" fill-rule="nonzero" d="M405.2 156.904c-10.773 1.616-14.525 8.727-13.756 16.094.77 7.368 11.048 7.605 13.756 12.986 2.708 5.38 2.717 13.775 5.624 13.775 2.907 0 18.05-1.17 18.05-4.269s-4.076-24.431-6.593-29.86a16.309 16.309 0 0 0-17.081-8.726z"/>
        <path fill="url(#e)" fill-rule="nonzero" d="M393.582 225.16l-12.645-2.139-1.358 6.788 15.503 6.987z"/>
        <path fill="url(#f)" fill-rule="nonzero" d="M416.6 202.202c-4.522-1.854-14.564.076-19.95 8.603-5.386 8.528-7.6 17.844-5.33 22.112 2.271 4.269 6.1 11.627 4.94 23.462h23.836s.779-13.528 2.517-27.122c1.739-13.594-2.859-25.762-6.013-27.055z"/>
        <path fill="url(#g)" fill-rule="nonzero" d="M412.202 206.394c-7.078 0-6.736 8.509-3.363 18.376 2.517 7.368 3.8 8.917 1.206 11.047-2.594 2.13-13.224 9.259-13.224 9.259l1.843 6.065s16.255 1.046 25.479-8.556c5.235-5.409 2.09-36.134-11.941-36.19z"/>
        <path fill="url(#h)" fill-rule="nonzero" d="M396.821 245.076l-7.6 2.243s-4.864-2.633-7.096-1.121c-2.233 1.511-3.031 4.62-7.762 4.972-4.731.351-7.695-1.902-9.339 1.682-.788 1.711 8.028 3.366 10.783 3.527 2.755.162 12.93-3.802 14.62-4.06a1552.35 1552.35 0 0 1 8.237-1.178l-1.843-6.065z"/>
        <path fill="url(#i)" fill-rule="nonzero" d="M380.937 223.021l-10.384-2.405s-2.603-5-5.576-5.923c-2.974-.922-2.546 2.12-5.301.951-2.755-1.17-8.284-4.42-10.127-1.816-1.843 2.605 3.677 5.105 7.6 7.605 3.923 2.5 11.951 4.183 11.951 4.183l10.45 4.193 1.387-6.788z"/>
        <path fill="url(#j)" fill-rule="nonzero" d="M420.077 256.38s8.274 13.907-1.577 30.125c0 0-12.397 20.677-16.53 33.406a62.41 62.41 0 0 1-3.306 20.04c-3.686 11.131-8.236 28.3-8.236 28.3h-11.03a428.286 428.286 0 0 1 2.422-47.076c2.66-22.578 14.421-64.796 14.421-64.796h23.836z"/>
        <path fill="url(#k)" fill-rule="nonzero" d="M379.398 368.25s-.437 6.655-.884 9.175c-.446 2.519-14.553 7.605-20.434 8.974-5.88 1.369-5.301 5.437 0 5.437h28.5c2.793 0 2.499-5 2.062-10.457-.438-5.456 1.757-13.138 1.757-13.138l-11.001.01z"/>
        <path fill="url(#l)" fill-rule="nonzero" d="M430.118 363.146c3.392 4.981 4.75 6.902 5.454 8.366.702 1.464-4.998 13.242-6.907 15.162-1.91 1.92-5.444 2.643-4.75 4.117.693 1.473 3.24 1.026 7.647 1.026 4.409 0 9.558-7.985 13.386-11.788 3.829-3.802 6.65-5.428 3.088-9.506-3.563-4.078-10.185-13.385-10.185-13.385l-7.733 6.008z"/>
        <path fill="url(#m)" fill-rule="nonzero" d="M358.08 391.836h28.5c2.546 0 2.527-4.154 2.175-9.012-4.379 1.35-16.264 4.896-20.767 4.896a11.043 11.043 0 0 1-6.745-2.177c-1.206.352-2.298.656-3.192.856-5.861 1.321-5.272 5.437.029 5.437z"/>
        <path fill="url(#n)" fill-rule="nonzero" d="M446.382 368.441c-2.584 4.088-8.388 13.033-11.485 15.676a6.296 6.296 0 0 1-5.472 1.588 7.604 7.604 0 0 1-.76.95c-1.9 1.902-5.444 2.643-4.75 4.117.693 1.473 3.24 1.026 7.647 1.026 4.409 0 9.558-7.985 13.386-11.788 3.829-3.802 6.65-5.428 3.088-9.506-.476-.59-1.036-1.302-1.654-2.063z"/>
        <path fill="url(#o)" fill-rule="nonzero" d="M78.4 279.879a40.704 40.704 0 0 0-1.492 14.146c.742 6.882 4.551 7.253 7.116 7.253 2.565 0 6.963-2.576 7.02-6.654.058-4.079-2.773-14.707-2.773-14.707l-9.871-.038z"/>
        <path fill="url(#p)" fill-rule="nonzero" d="M88.27 190.129s-8.816 3.65-11.732 24.555c-2.916 20.905 0 65.167 0 65.167h11.733l4.522-32.589-4.523-57.133z"/>
        <path fill="url(#q)" fill-rule="nonzero" d="M114.263 149.926c2.85 1.968 5.13 10.837 5.13 17.302 0 6.464.19 14.83-5.13 14.64-5.32-.19-5.32.19-5.32 2.852 0 2.661-1.71 9.316-1.71 9.316l-14.44-3.232s3.42-11.598 3.61-15.4c.19-3.803-6.27-14.83-1.9-20.725 4.37-5.894 13.11-9.316 19.76-4.753z"/>
        <path fill="url(#r)" fill-rule="nonzero" d="M106.093 144.793s6.27-2.662 8.17-4.944c1.9-2.281 6.65-1.14 6.27 2.472a22.876 22.876 0 0 1-1.131 5.504s5.88 1.15 4.17 4.002-3.42 6.084-11.59 5.894c-8.17-.19-8.55 6.465-8.55 6.465s-3.8 12.928-7.685 12.928-9.794-10.837-7.135-18.442c0 0-4.56-8.176.76-11.978 5.32-3.803 12.54-1.14 16.72-1.901z"/>
        <path fill="#A4061F" fill-rule="nonzero" d="M128.047 266.256s-3.078 42.78-6.412 59.957c-3.335 17.179-18.412 51.335-18.412 51.335H85.838s6.385-30.468 8.608-47.123a158.655 158.655 0 0 0 .55-32.769s-7.828-8.622-6.554-28.187l39.605-3.213z"/>
        <path fill="#DF0023" fill-rule="nonzero" d="M128.047 266.256s6.65 49.434 4.684 64.948c-1.967 15.515-4.684 46.297-4.684 46.297h-15.295v-52.96l-5.054-29.841a32.273 32.273 0 0 1-6.365-12.663c-1.492-7.044 1.9-13.794 1.9-13.794l24.814-1.987z"/>
        <path fill="url(#s)" fill-rule="nonzero" d="M94.046 186.326c-5.766.143-13.376 13.433-13.623 29.66-.246 16.228 8.019 45.631 8.019 53.426 0 7.796 38.855 8.31 41.524 1.987 2.67-6.321-5.368-62.286-10.564-70.556-5.197-8.271-18.287-14.678-25.356-14.517z"/>
        <path fill="url(#t)" fill-rule="nonzero" d="M107.746 198.428c-6.575 2.671-5.472 16.37 0 26.057 5.472 9.687 11.637 25.972 20.947 25.002 9.31-.97 28.025-26.504 28.025-26.504l-8.018-8.023s-12.635 9.506-15.789 10.694c-3.154 1.189-10.231-33.31-25.165-27.226z"/>
        <path fill="url(#u)" fill-rule="nonzero" d="M98.74 377.5s2.66 4.659 11.248 7.32c8.588 2.662 11.665 2.463 10.849 5.125-.818 2.661-7.373 1.834-11.866 1.834-4.493 0-21.29.124-23.133.124-1.842 0 0-14.402 0-14.402H98.74z"/>
        <path fill="url(#v)" fill-rule="nonzero" d="M126.156 377.5s6.755 8.243 16.987 9.013c10.231.77 8.797 5.39 4.293 5.39H116.97a4.748 4.748 0 0 1-4.703-4.962l.485-9.402 13.404-.038z"/>
        <path fill="url(#w)" fill-rule="nonzero" d="M148.7 214.96s1.577-10.923 4.18-12.72c2.603-1.797 2.27 1.435 1.9 4.753-.37 3.318 5.206-8.327 10.089-7.862 4.883.466 9.481 7.159 4.921 14.669-4.56 7.51-14.62 7.605-14.62 7.605l-6.47-6.445z"/>
        <path fill="url(#x)" fill-rule="nonzero" d="M103.433 173.692s-1.34 2.624-5.13-1.52c-3.791-4.146-3.23-10.268.76-10.458 3.99-.19 4.37 2.472 4.37 2.472v9.506z"/>
        <path fill="url(#y)" fill-rule="nonzero" d="M107.422 155.06s1.54 14.525-2.08 14.26c-3.62-.267-5.748-10.458-5.748-10.458l7.829-3.802z"/>
    </g>
</svg>
