<svg xmlns="http://www.w3.org/2000/svg" xmlns:xlink="http://www.w3.org/1999/xlink" width="600" height="478" viewBox="0 0 600 478">
    <defs>
        <path id="a" d="M163.63 438.69C30.73 392.16 2 227.57 55.16 106.6c31.15-70.9 87.41-98.49 162.13-92.29 72.4 6 159.54-7 228.25 17.67C503.7 52.84 553.19 99.32 574 157.94c22.46 63.24-10.7 131.42-31.61 191.6-48.1 138.46-266.93 128.3-378.76 89.15z"/>
        <linearGradient id="c" x1=".001%" x2="99.993%" y1="50.021%" y2="50.021%">
            <stop offset="0%" stop-color="#2E4B9C"/>
            <stop offset="100%" stop-color="#7F9FF6"/>
        </linearGradient>
        <linearGradient id="d" x1=".007%" x2="99.993%" y1="49.899%" y2="49.899%">
            <stop offset="0%" stop-color="#182C8C"/>
            <stop offset="100%" stop-color="#001333"/>
        </linearGradient>
        <linearGradient id="e" x1="-.063%" x2="100.026%" y1="49.998%" y2="49.998%">
            <stop offset="0%" stop-color="#182C8C"/>
            <stop offset="100%" stop-color="#001333"/>
        </linearGradient>
        <linearGradient id="f" x1="50.786%" x2="47.85%" y1="-1.798%" y2="145.036%">
            <stop offset="0%" stop-color="#FBB773"/>
            <stop offset="100%" stop-color="#FA6C69"/>
        </linearGradient>
        <linearGradient id="g" x1="54.882%" x2="33.511%" y1="1.406%" y2="156.955%">
            <stop offset="0%" stop-color="#304DD9"/>
            <stop offset="100%" stop-color="#182C8C"/>
        </linearGradient>
        <linearGradient id="h" x1="54.653%" x2="40.019%" y1="-119.943%" y2="468.953%">
            <stop offset="0%" stop-color="#FBB773"/>
            <stop offset="100%" stop-color="#FA6C69"/>
        </linearGradient>
        <linearGradient id="i" x1="50.602%" x2="48.952%" y1="-22.046%" y2="164.585%">
            <stop offset="0%" stop-color="#FBB773"/>
            <stop offset="100%" stop-color="#FA6C69"/>
        </linearGradient>
        <linearGradient id="j" x1="75.693%" x2="5.823%" y1="-262.822%" y2="472.736%">
            <stop offset="0%" stop-color="#304DD9"/>
            <stop offset="100%" stop-color="#182C8C"/>
        </linearGradient>
        <linearGradient id="k" x1="49.992%" x2="49.992%" y1="-2.207%" y2="250.757%">
            <stop offset="0%" stop-color="#FBB773"/>
            <stop offset="100%" stop-color="#FA6C69"/>
        </linearGradient>
        <linearGradient id="l" x1="50.012%" x2="50.012%" y1="10.01%" y2="325.605%">
            <stop offset="0%" stop-color="#FBB773"/>
            <stop offset="100%" stop-color="#FA6C69"/>
        </linearGradient>
        <linearGradient id="m" x1="49.994%" x2="49.994%" y1="-529.767%" y2="854.875%">
            <stop offset="0%" stop-color="#FBB773"/>
            <stop offset="100%" stop-color="#FA6C69"/>
        </linearGradient>
        <linearGradient id="n" x1="49.835%" x2="49.835%" y1="-121.922%" y2="393.708%">
            <stop offset="0%" stop-color="#FBB773"/>
            <stop offset="100%" stop-color="#FA6C69"/>
        </linearGradient>
        <linearGradient id="o" x1="49.108%" x2="52.275%" y1="2.276%" y2="151.804%">
            <stop offset="0%" stop-color="#FBB773"/>
            <stop offset="100%" stop-color="#FA6C69"/>
        </linearGradient>
        <linearGradient id="p" x1="53.519%" x2="46.033%" y1="-55.248%" y2="132.698%">
            <stop offset="0%" stop-color="#304DD9"/>
            <stop offset="100%" stop-color="#182C8C"/>
        </linearGradient>
        <linearGradient id="q" x1="52.037%" x2="42.843%" y1="-1.091%" y2="207.884%">
            <stop offset="0%" stop-color="#304DD9"/>
            <stop offset="100%" stop-color="#182C8C"/>
        </linearGradient>
        <linearGradient id="r" x1="53.911%" x2="47.863%" y1="-62.519%" y2="124.977%">
            <stop offset="0%" stop-color="#304DD9"/>
            <stop offset="100%" stop-color="#182C8C"/>
        </linearGradient>
        <linearGradient id="s" x1="49.795%" x2="53.809%" y1=".379%" y2="536.853%">
            <stop offset="0%" stop-color="#FBB773"/>
            <stop offset="100%" stop-color="#FA6C69"/>
        </linearGradient>
        <linearGradient id="t" x1="49.988%" x2="49.988%" y1="23.629%" y2="130.034%">
            <stop offset="0%" stop-color="#FBB773"/>
            <stop offset="100%" stop-color="#FA6C69"/>
        </linearGradient>
        <linearGradient id="u" x1="49.991%" x2="49.991%" y1="-11.456%" y2="396.227%">
            <stop offset="0%" stop-color="#FBB773"/>
            <stop offset="100%" stop-color="#FA6C69"/>
        </linearGradient>
    </defs>
    <g fill="none" fill-rule="evenodd">
        <mask id="b" fill="#fff">
            <use xlink:href="#a"/>
        </mask>
        <use fill="#DAE3FC" fill-rule="nonzero" xlink:href="#a"/>
        <g fill-rule="nonzero" mask="url(#b)">
            <path fill="#FFF" d="M416.8 534.18h-51.33V390.03h51.33z"/>
            <path fill="#FFF" d="M416.79 534.19h-25.66V334.43h25.66z"/>
            <path fill="#EFF9FE" d="M80.54 232.73H68.51V205.4h12.03z"/>
            <path fill="#C9EFFF" d="M80.54 232.73H68.51v-14.39h12.03z"/>
            <path fill="#EFF9FE" d="M51.92 232.72H24.38v-45.1h27.54z"/>
            <path fill="#C9EFFF" d="M51.92 232.73H24.38v-14.39h27.54z"/>
            <path fill="#EFF9FE" d="M97.39 468.55H18.27V224.17h79.12z"/>
            <path fill="#C9EFFF" d="M79.47 259.48h-8.01v-10.47h8.01zM71.46 270.58h8.01v10.47h-8.01zM71.46 292.15h8.01v10.47h-8.01zM71.46 313.72h8.01v10.47h-8.01zM71.46 335.28h8.01v10.47h-8.01zM71.46 356.85h8.01v10.47h-8.01zM71.46 378.42h8.01v10.47h-8.01zM55.94 259.48h-8.01v-10.47h8.01zM47.92 270.58h8.01v10.47h-8.01zM47.92 292.15h8.01v10.47h-8.01zM47.92 313.72h8.01v10.47h-8.01zM47.92 335.28h8.01v10.47h-8.01zM47.92 356.85h8.01v10.47h-8.01zM47.92 378.42h8.01v10.47h-8.01zM32.39 259.48h-8.01v-10.47h8.01zM24.39 270.58h8.01v10.47h-8.01zM24.39 292.15h8.01v10.47h-8.01zM24.39 313.72h8.01v10.47h-8.01zM24.39 335.28h8.01v10.47h-8.01zM24.39 356.85h8.01v10.47h-8.01zM24.39 378.42h8.01v10.47h-8.01z"/>
            <path fill="#EFF9FE" d="M478.67 241.17h-12.03v-27.33h12.03z"/>
            <path fill="#C9EFFF" d="M478.67 241.17h-12.03v-14.39h12.03z"/>
            <path fill="#EFF9FE" d="M450.06 241.16h-27.54v-45.1h27.54z"/>
            <path fill="#C9EFFF" d="M450.06 241.17h-27.54v-14.39h27.54z"/>
            <path fill="#EFF9FE" d="M495.52 476.99h-83.87V232.61h83.87z"/>
            <path fill="#C9EFFF" d="M477.59 267.92h-8.01v-10.47h8.01zM469.59 279.02h8.01v10.47h-8.01zM469.59 300.59h8.01v10.47h-8.01zM469.59 322.16h8.01v10.47h-8.01zM469.59 343.73h8.01v10.47h-8.01zM469.59 365.29h8.01v10.47h-8.01zM469.59 386.86h8.01v10.47h-8.01zM454.06 267.92h-8.01v-10.47h8.01zM446.05 279.02h8.01v10.47h-8.01zM446.05 300.59h8.01v10.47h-8.01zM446.05 322.16h8.01v10.47h-8.01zM446.05 343.73h8.01v10.47h-8.01zM446.05 365.29h8.01v10.47h-8.01zM446.05 386.86h8.01v10.47h-8.01zM430.52 267.92h-8.01v-10.47h8.01zM422.51 279.02h8.01v10.47h-8.01zM422.51 300.59h8.01v10.47h-8.01zM422.51 322.16h8.01v10.47h-8.01zM422.51 343.73h8.01v10.47h-8.01zM422.51 365.29h8.01v10.47h-8.01zM422.51 386.86h8.01v10.47h-8.01z"/>
            <path fill="#EFF9FE" d="M204.81 469.88h-51.33V325.73h51.33z"/>
            <path fill="#EFF9FE" d="M204.82 469.88h-25.66V270.12h25.66z"/>
            <path fill="#EFF9FE" d="M217.65 469.89h-25.66V335.47h25.66z"/>
            <path fill="#FFF" d="M539.09 159.55h-61.55v-56.69l61.55 29.04z"/>
            <path fill="#FFF" d="M463.88 146.4h88.85v301.23h-88.85z"/>
            <path fill="#EBF9FF" d="M477.53 140.25h61.55v6.15h-61.55zM486.14 269.56h9.07v13.99h-9.07zM486.14 245.96h9.07v13.99h-9.07zM486.14 222.37h9.07v13.99h-9.07zM486.14 198.78h9.07v13.99h-9.07zM486.14 175.18h9.07v13.99h-9.07zM503.78 269.56h9.07v13.99h-9.07zM503.78 245.96h9.07v13.99h-9.07zM503.78 222.37h9.07v13.99h-9.07zM503.78 198.78h9.07v13.99h-9.07zM503.78 175.18h9.07v13.99h-9.07zM521.41 269.56h9.07v13.99h-9.07zM521.41 245.96h9.07v13.99h-9.07zM521.41 222.37h9.07v13.99h-9.07zM521.41 198.78h9.07v13.99h-9.07zM521.41 175.18h9.07v13.99h-9.07z"/>
            <path fill="#FFF" d="M112.52 57.13h9.94v78.59h-9.94z"/>
            <path fill="#EBF9FF" d="M112.52 128.43h9.94v7.28h-9.94z"/>
            <path fill="#FFF" d="M131.8 98.62h18.08v45.98H131.8z"/>
            <path fill="#FFF" d="M160.96 468.55H88.89V133.94h72.07z"/>
            <path fill="#EBF9FF" d="M131.8 128.94h18.08v4.99H131.8zM135.55 348.66h7.36v11.35h-7.36zM135.55 329.52h7.36v11.35h-7.36zM135.55 272.1h7.36v11.35h-7.36zM135.55 252.97h7.36v11.35h-7.36zM135.55 214.69h7.36v11.35h-7.36zM142.91 168.62h-7.36v-11.35h7.36zM121.25 310.38h7.36v11.35h-7.36zM121.25 252.97h7.36v11.35h-7.36zM121.25 233.83h7.36v11.35h-7.36zM121.25 195.55h7.36v11.35h-7.36zM121.25 176.42h7.36v11.35h-7.36zM106.94 348.66h7.36v11.35h-7.36zM106.94 310.38h7.36v11.35h-7.36zM106.94 272.1h7.36v11.35h-7.36zM106.94 233.83h7.36v11.35h-7.36zM106.94 176.42h7.36v11.35h-7.36z"/>
        </g>
        <path fill="#7F9FF6" fill-rule="nonzero" d="M574.88 134a5.79 5.79 0 0 0-5.79-5.79h-15.54a5.79 5.79 0 0 1-5.79-5.79 5.79 5.79 0 0 0-5.79-5.79h-10.23a5.79 5.79 0 0 0-5.79 5.79 5.79 5.79 0 0 1-5.79 5.79h-10.92a5.79 5.79 0 0 0-5.79 5.79 5.79 5.79 0 0 1-5.79 5.79h-15.25a5.8 5.8 0 0 0-5.8 5.8 5.8 5.8 0 0 0 5.8 5.79h111.41a5.79 5.79 0 0 0 5.79-5.79 5.8 5.8 0 0 0-5.79-5.8h-13.15a5.79 5.79 0 0 1-5.79-5.79zM106.45 176.93a6.28 6.28 0 0 0-6.28-6.27H83.34a6.27 6.27 0 0 1-6.27-6.27 6.28 6.28 0 0 0-6.28-6.28H59.71a6.28 6.28 0 0 0-6.27 6.28 6.27 6.27 0 0 1-6.27 6.27H35.34a6.27 6.27 0 0 0-6.27 6.27 6.28 6.28 0 0 1-6.27 6.28H6.27A6.27 6.27 0 0 0 0 189.48a6.28 6.28 0 0 0 6.27 6.28h1.22a6.28 6.28 0 0 1 6.28 6.24 6.27 6.27 0 0 0 6.23 6.3h53.18a6.27 6.27 0 0 0 6.28-6.3 6.27 6.27 0 0 1 6.27-6.27h5.75a6.27 6.27 0 0 1 6.27 6.27 6.27 6.27 0 0 0 6.25 6.3h6.89a6.27 6.27 0 0 0 6.27-6.27 6.28 6.28 0 0 1 6.28-6.27H127a6.28 6.28 0 0 0 6.28-6.28 6.28 6.28 0 0 0-6.28-6.27h-14.28a6.27 6.27 0 0 1-6.27-6.28zm-63 12.55a6.28 6.28 0 0 1 6.28-6.27h5.18a6.28 6.28 0 0 1 6.28 6.27 6.28 6.28 0 0 1-6.28 6.28h-5.22a6.28 6.28 0 0 1-6.28-6.28h.04z"/>
        <path fill="url(#c)" fill-rule="nonzero" d="M294.83 388.07a734.6 734.6 0 0 0-212.51 27.15c-7.57 2.12-16.85 6.94-15.59 14.69.88 5.41 6.64 8.42 11.82 10.18 39.72 13.54 83.56 3.09 125 9.57 22.77 3.56 44.4 12.16 66.68 18 42.57 11.21 87.07 12.21 130.7 8.05 20.89-2 41.29-5.94 62-8.93 19.76-2.87 39.57-6.43 58.4-13.2a146.7 146.7 0 0 0 28.84-13.88c3.54-2.25 7.12-4.83 9-8.6 11.14-22.67-46.42-33.23-59.18-33.56-81.83-2.16-103.18-8.67-185-10.82l-20.16 1.35z"/>
        <rect width="119.16" height="18.53" x="240.12" y="71.85" fill="#2E4B9C" fill-rule="nonzero" rx="9.26"/>
        <path fill="#2E4B9C" fill-rule="nonzero" d="M350 108.91H249.38a9.27 9.27 0 0 1-9.26-9.27 9.27 9.27 0 0 1 9.26-9.26H350a9.27 9.27 0 0 1 9.26 9.26 9.27 9.27 0 0 1-9.26 9.27z"/>
        <path fill="#7F9FF6" fill-rule="nonzero" d="M374.6 10.69c-17.55-19.09-48.85 19.84-48.85 10.68S316.59 0 299.7 0s-26.05 12.21-26.05 21.37-31.3-29.77-48.85-10.68 24.58 61.16 24.58 61.16H350s42.16-42.08 24.6-61.16zM350 108.91H249.38C240.45 127.59 108.8 210.7 108.8 282.48c0 71.78 12 146.32 190.9 146.32s190.9-74.54 190.9-146.32c0-71.78-131.6-154.89-140.6-173.57z"/>
        <path fill="#2E4B9C" fill-rule="nonzero" d="M290.63 357.24a63.46 63.46 0 0 1-31.1-13.51 53.74 53.74 0 0 1-14-17.5 13.91 13.91 0 0 1 7.21-19.13l1.46-.59a14.08 14.08 0 0 1 17.36 6 42.15 42.15 0 0 0 4 5.46 32.53 32.53 0 0 0 15.14 10.13v-44.26l-2.1-.93a108.16 108.16 0 0 1-16.19-7.69A62.51 62.51 0 0 1 259.06 265a46.25 46.25 0 0 1-9.06-13.2 38.9 38.9 0 0 1-3.38-16.43 41.75 41.75 0 0 1 3-15.85 40.72 40.72 0 0 1 8.74-13.28 47.37 47.37 0 0 1 13.87-9.67 58.38 58.38 0 0 1 18.4-5v-9.67A10.37 10.37 0 0 1 301 171.52c5.727 0 10.37 4.643 10.37 10.37V192a53 53 0 0 1 16.2 4.89 54 54 0 0 1 11.88 8 32.76 32.76 0 0 1 4 4.57 14.35 14.35 0 0 1-5.77 21.59 14.14 14.14 0 0 1-16.46-3.42 26.22 26.22 0 0 0-9.84-7v41.77c6.667 2.8 12.727 5.673 18.18 8.62a64.37 64.37 0 0 1 14 10 38.49 38.49 0 0 1 8.86 12.7 41.8 41.8 0 0 1 3 16.43 45.55 45.55 0 0 1-3.61 18.64 43.64 43.64 0 0 1-9.67 14 47.3 47.3 0 0 1-14.1 9.32 69 69 0 0 1-16.66 4.9v10.14A10.36 10.36 0 0 1 301 377.51c-5.723 0-10.364-4.637-10.37-10.36v-9.91zm-15.38-121.87a14.05 14.05 0 0 0 3.62 9.67c2.4 2.72 6.32 5.477 11.76 8.27v-34a24.27 24.27 0 0 0-11.18 6.06 13.68 13.68 0 0 0-4.2 10zm50.34 75a15.25 15.25 0 0 0-3.27-10c-2.173-2.667-5.823-5.307-10.95-7.92v35.65a22.92 22.92 0 0 0 10.26-6.64 16.31 16.31 0 0 0 3.96-11.06v-.03z"/>
        <path fill="url(#d)" fill-rule="nonzero" d="M185.27 419.73a5.34 5.34 0 0 0 1.3 5.47c2.43 2.29 27.43 8.17 28.91 11.8 1.48 3.63-2.45 3.43-8.33 3.43h-36.91c-3.27 0 0-20.66 0-20.66l15.03-.04z"/>
        <path fill="url(#e)" fill-rule="nonzero" d="M98.28 414.57a19.64 19.64 0 0 0-.63 5.16c.17 2.09 7.95 12.94 10.66 15.32 2.71 2.38.85 5.42-2.2 5.34-3.05-.08-24-18-26.31-20.66-2.31-2.66 10.38-12.36 10.38-12.36l8.1 7.2z"/>
        <path fill="#A4061F" fill-rule="nonzero" d="M112.46 311.13a30.77 30.77 0 0 0 0 28s9.07 23.43-5.8 43.34c-14.87 19.91-20.35 27.21-20.35 27.21l11.34 10.08s21.41-18.65 30.83-36c9.42-17.35 16.23-34 16.23-42.84 0-8.84-7.23-25-7.23-25l-25.02-4.79z"/>
        <path fill="#B3E2FC" fill-rule="nonzero" d="M105.66 311.88l5.54 1.99 5.54-6.53-5.86-2.21z"/>
        <path fill="url(#f)" fill-rule="nonzero" d="M143.29 197c8.47-2.12 17.36 3.38 19.06 19.9 1.7 16.52-6.78 17.37-9.53 17.37-2.75 0-4.88 12.7-4.88 12.7l-14.4-2.11s3.39-7.2 3.39-14-4.66-16.59-3.39-23.76c1.27-7.17 9.75-10.1 9.75-10.1z"/>
        <path fill="url(#g)" fill-rule="nonzero" d="M158.67 204.19s-8.94 7.28-14.1 8.69c-5.16 1.41-2.49 14.92-7.73 16.29-5.24 1.37-9-8.31-9-14.54 0 0-13.9-19.3 4.37-25.09 9.12-2.89 14-2.22 17.13-3.78 3.13-1.56 6.45-8.23 11.12-5.34 4.67 2.89 2.67 11.34.89 12.46 0 0 7.79-2.18 7.79 3.69s-10.47 7.62-10.47 7.62z"/>
        <path fill="url(#h)" fill-rule="nonzero" d="M145.75 221.78s-2.07 2.92-6.57 0-2.11-11.72.94-11.25a7.06 7.06 0 0 1 4.45 2.35l1.18 8.9z"/>
        <path fill="#2E4B9C" fill-rule="nonzero" d="M122 244.85c-11.3 5.29-25.67 21.09-27.94 34.11-2.27 13.02 2.27 27.88 11.6 32.92l5.22-6.75L122 244.85z"/>
        <path fill="#2E4B9C" fill-rule="nonzero" d="M158.57 315.41c-4.14 3.66-40.82.5-46.11-4.28-5.29-4.78 3-58.23 7.56-64.15 4.56-5.92 11.71-7.42 25.89-4.9 14.18 2.52 16.69 9.58 18 27 1.31 17.42-1.05 42.55-5.34 46.33z"/>
        <path fill="#2E4B9C" fill-rule="nonzero" d="M158.93 248.81c-9.89-5.11-13 18.22 0 23.26 13 5.04 31.39 4 38.45-8.32a120.12 120.12 0 0 0 10.33-23.94L196.87 234s-5 8.29-10.33 13c-5.33 4.71-14.6 8.55-27.61 1.81z"/>
        <path fill="#DF0023" fill-rule="nonzero" d="M130.8 315.88s-8.36 19.18 6.68 30.27c0 0 31.56 31 31.31 79.66h20.41s3.14-38.59-7.95-61c-11.09-22.41-24.44-43.91-25.7-48.92l-24.75-.01z"/>
        <path fill="url(#i)" fill-rule="nonzero" d="M198.67 235s-1.45-2.88-1.62-8.47c-.17-5.59-2.62-11.52 0-11.7 2.62-.18 4.54 2.8 4.71 5.59 0 0 7.51-16.94 9.78-16.94 2.27 0 2.24 4.66 0 10.13l-1.54 3.82s9.25 5.06 7 9.43-11 12-11 12l-7.33-3.86z"/>
        <path fill="url(#j)" fill-rule="nonzero" d="M141.22 208s2.88 10.49 4.53 10.49c1.65 0 2.25-10.49 2.25-10.49h-6.78z"/>
        <path fill="#B3E2FC" fill-rule="nonzero" d="M130.45 240.91l2.87-4.9a17 17 0 0 1 10.12 0c5.54 1.72 9.74 3.5 11.27 4.9V245l-24.26-4.09zM196.88 234.02l-2.53 3.81 12.23 5.51 1.13-3.53z"/>
        <path fill="url(#k)" fill-rule="nonzero" d="M443.54 375.65s1.91 8.8-2.29 24.85-8.42 31.74-8.42 31.74l-9.32-3.44s6.17-47.41 7-60l13.03 6.85z"/>
        <path fill="url(#l)" fill-rule="nonzero" d="M468.74 372.16s4.47 29 37.41 41l2.88-7s-18.73-19-24.79-24.06l-2.05-19.79-13.45 9.85z"/>
        <path fill="url(#m)" fill-rule="nonzero" d="M423.51 428.8c-4.9 2.14-27.8 3.13-27.8 5.87s2.74 5.72 9.46 5.72h23.89c6.72 0 3.77-8.15 3.77-8.15l-9.32-3.44z"/>
        <path fill="url(#n)" fill-rule="nonzero" d="M506.15 413.13a67.51 67.51 0 0 1 1.55 15.67c-.25 8.11 1.49 8.11 4.23 7.36 2.74-.75 7.71-21.15 8-27.12.29-5.97-10.93-2.91-10.93-2.91l-2.85 7z"/>
        <path fill="#2E4B9C" fill-rule="nonzero" d="M417.86 434.59c-5.38-.29-7.85-1.82-9-3.23-6.76.9-13.16 1.86-13.16 3.31 0 2.74 2.74 5.72 9.46 5.72h23.89c4.25 0 4.63-3.26 4.34-5.66-3.1.12-8.73.27-15.53-.14zM513.26 405.41A43.81 43.81 0 0 1 513 415a34.36 34.36 0 0 1-5.32 13.79c-.25 8.11 1.49 8.11 4.23 7.36 2.74-.75 7.71-21.15 8-27.12.09-3.45-3.54-3.88-6.65-3.62z"/>
        <path fill="url(#o)" fill-rule="nonzero" d="M498.46 314.33s-.07 4.18 1.81 5.68c1.88 1.5 2.87 3.49 5.11 4l2.25.5s3.24 5.12 7.11 2.75 2.62-6.49-1.24-9.86c-3.86-3.37-5.91-5.38-5.91-5.38l-9.13 2.31z"/>
        <path fill="url(#p)" fill-rule="nonzero" d="M437.68 242.63c-3.74 1.43-8.86 18-6.58 29.89 2.28 11.89-.12 20-.57 26.11-.45 6.11 3.1 7.6 13.23 8.61 7.24.72 16.9-1.53 21.83-2.87a3.86 3.86 0 0 0 2.82-4c-.39-5-.45-11.24 4-20.72 6.25-13.17 9.07-25.45 1.19-31.66-7.88-6.21-27.31-8.65-35.92-5.36z"/>
        <path fill="url(#q)" fill-rule="nonzero" d="M440.75 241.15c-8.08-6.72-29.93-31.59-32.51-37.79 0 0-7.75 1-9.81 4.65 0 0 3.64 14.1 18.06 33.14 14.42 19.04 21.42 26 26.58 19.25 5.16-6.75 3.07-14.76-2.32-19.25z"/>
        <path fill="url(#r)" fill-rule="nonzero" d="M473.65 248c9.68 10.38 25.17 33.09 33.94 64.06l-9.13 2.32s-10.4-24.22-17.19-31.74c-6.79-7.52-12.11-13.64-12.51-19.74-.4-6.1 4.89-14.9 4.89-14.9z"/>
        <path fill="url(#s)" fill-rule="nonzero" d="M408.24 203.36a28.34 28.34 0 0 0 0-8c-.64-4.5.78-5.17.14-6.62-.64-1.45-3.43-2.92-4.48 2.12l-1.06 5s-3.31-12.58-6.49-13c-3.18-.42-11.65 2.88-8.48 10.25S398.43 208 398.43 208l9.81-4.64z"/>
        <path fill="#2E4B9C" fill-rule="nonzero" d="M457.47 243.61c1.48 2.86 3.1 5.87 5.88 7.5s6.38 1.57 9.48.53a34.18 34.18 0 0 0 8.5-4.79A27.83 27.83 0 0 0 488 241c1.78-2.39 2.75-5.59 1.78-8.41-1-3-4.09-5.39-3.69-8.52.36-2.8 3.5-4.9 3.17-7.71-.26-2.16-2.48-3.5-4.54-4.19-2.06-.69-4.38-1.15-5.81-2.79-1.65-1.88-1.59-4.71-.95-7.12.64-2.41 1.79-4.71 2-7.19a12.56 12.56 0 0 0-4.41-10.18 23.3 23.3 0 0 0-10.23-5c-7.48-1.84-15.69-1.48-22.48 2.15-6.79 3.63-11.84 10.84-11.79 18.54 0 3.06.91 6.26 3.14 8.35s6 2.68 8.38.76l14.9 33.92z"/>
        <path fill="url(#t)" fill-rule="nonzero" d="M441.88 228.68c5.27 1 6.06.79 6.06 5.53 0 2.93.1 5.45.17 6.95a59.64 59.64 0 0 1 12.76 1.47h2.86a91.67 91.67 0 0 1 0-15.53c.79-6.58 16.06-32.91-10.79-35-11-.87-14.22 5.53-15.53 17.37-1.31 11.84-.79 18.16 4.47 19.21z"/>
        <path fill="#2E4B9C" fill-rule="nonzero" d="M457.47 243.61c-1.91-3.68-3.85-7.46-4.39-11.57-1.1-8.31 5.81-20.09-1.21-24.67-4.15-2.71-13.18-1.58-15.07-6.31l5.52-12.14 17.32-1.57 9.12 7.19 3.7 15.52-5.63 25-1.57 9.9-7.79-1.35z"/>
        <path fill="url(#u)" fill-rule="nonzero" d="M451.09 218.68a5.79 5.79 0 0 0 5.8-3.43c1.84-3.95 2.88-10.12-2.9-9.74-3.95.27-3.95 6.59-3.95 6.59l1.05 6.58z"/>
        <path fill="#2E4B9C" fill-rule="nonzero" d="M433.53 305a174 174 0 0 0-7.07 27.43c-2 13.31-5.46 34.81 0 40.95 5.46 6.14 16.18 10.57 34.19 7.85 18.01-2.72 37.46-10.92 37.8-17.41.34-6.49-8.19-13-15-26.27-6.81-13.27-7.73-27.51-17.85-33.2l-32.07.65z"/>
        <circle cx="430.49" cy="59.81" r="4.5" fill="#7F9FF6" fill-rule="nonzero"/>
        <circle cx="196.34" cy="103.31" r="4.5" fill="#7F9FF6" fill-rule="nonzero"/>
        <path fill="#7F9FF6" fill-rule="nonzero" d="M169.47 49.23h-2.94v-2.95a2.25 2.25 0 1 0-4.5 0v2.95h-2.95a2.25 2.25 0 1 0 0 4.5H162v2.94a2.25 2.25 0 1 0 4.5 0v-2.94h2.94a2.25 2.25 0 1 0 0-4.5h.03zM427.43 105.55h-2.95v-2.94a2.25 2.25 0 1 0-4.49 0v2.94H417a2.25 2.25 0 1 0 0 4.5h3v3a2.25 2.25 0 1 0 4.49 0v-3h2.95a2.25 2.25 0 1 0 0-4.5h-.01z"/>
    </g>
</svg>
