<svg xmlns="http://www.w3.org/2000/svg" width="32" height="33" viewBox="0 0 32 33">
    <g fill="#FFF" fill-rule="nonzero" transform="translate(0 .506)">
        <ellipse cx="11.311" cy="28.004" rx="3.871" ry="3.952"/>
        <path d="M23.712 24.014c-2.148-.216-4.061 1.387-4.272 3.58-.212 2.194 1.358 4.147 3.506 4.363.255.025.511.025.766 0 2.148-.216 3.718-2.17 3.506-4.363-.182-1.894-1.65-3.394-3.506-3.58zM31.678 8.973a1.009 1.009 0 0 0-.864-.46H26.53v-.077c0-4.641-3.684-8.404-8.229-8.404-4.545 0-8.23 3.762-8.23 8.403v.077H6.877l-1.09-5.064a1.132 1.132 0 0 0-1.09-.883H0v2.302h3.795L7.29 21.251c.092.539.554.93 1.09.921h19.653a1.133 1.133 0 0 0 1.09-.882l2.78-11.358a1.091 1.091 0 0 0-.225-.96zM18.3 14.537c-3.3 0-5.974-2.732-5.974-6.101 0-3.37 2.675-6.101 5.974-6.101 3.3 0 5.975 2.731 5.975 6.1-.02 3.361-2.683 6.08-5.975 6.102z"/>
        <path d="M17.399 8.55l-2.067-2.148-1.616 1.612 2.856 2.954c.208.217.492.341.789.345.294.015.58-.096.79-.306l4.734-4.567-1.54-1.688-3.946 3.799z"/>
    </g>
</svg>
