<svg xmlns="http://www.w3.org/2000/svg" width="255" height="199" viewBox="0 0 255 199">
    <defs>
        <linearGradient id="a" x1="50%" x2="50%" y1="0%" y2="100%">
            <stop offset="0%" stop-color="#486BB0"/>
            <stop offset="100%" stop-color="#223978"/>
        </linearGradient>
    </defs>
    <g fill="none" fill-rule="evenodd">
        <path fill="#E4E9F2" d="M212.383 176.74c56.823-29.68 56.823-77.8 0-107.48-56.82-29.68-148.946-29.68-205.768 0-1.294.675-3.169 1.71-5.624 3.104L1 173.64c2.452 1.392 4.324 2.425 5.616 3.1 56.821 29.68 148.946 29.68 205.766 0z" opacity=".4"/>
        <path fill="#2E4B9C" d="M157.709 12.496l-16.44-9.5h-.036l-.17-.102-.017.034c-8.176-4.621-19.385-3.939-31.803 3.24-11.617 6.7-22.213 17.886-30.202 30.828C69.808 51.898 64 69.153 64 84.617c0 14.427 5.042 24.554 13.202 29.294v.018l.05.018 16.695 9.543c8.244 5.261 19.884 4.794 32.795-2.668C151.736 106.38 172 71.252 172 42.365c.001-15.039-5.499-25.407-14.291-29.87"/>
        <path fill="url(#a)" d="M129.148 0c2.92 0 5.663.462 8.182 1.358a21.81 21.81 0 0 1 3.414 1.56l.001-.002s.002 0 .003.002l.015-.032.167.1h.035l5.264 3.05L157 12.282C153.91 10.78 150.422 10 146.63 10c-6.059 0-12.894 1.986-20.13 6.172-11.366 6.6-21.75 17.492-29.67 30.124l-.298.478.468.275c-9.093 14.85-14.79 32.018-14.79 47.413 0 13.738 4.534 23.563 11.94 28.538l-16.108-9.327-.046-.015v-.013c-.001-.002-.004-.002-.005-.003v-.003a21.169 21.169 0 0 1-3.115-2.233 23.212 23.212 0 0 1-3.651-3.999c-2.664-3.682-4.562-8.406-5.52-14.068v-.007l-.007-.038-.007-.038v-.004C65.236 90.53 65 87.59 65 84.45c0-2.401.138-4.85.408-7.321.887-8.163 3.19-16.626 6.593-24.831a110.392 110.392 0 0 1 7.625-15.002L79 36.934c7.957-12.931 18.514-24.088 30.074-30.775C116.294 1.974 123.106 0 129.148 0z"/>
        <path fill="#FFFFFE" d="M144.02 29.066L120 84.593l3.659 2.586L150.174 31zM108.732 68L102 82.356 108.268 86l6.43-14.026z"/>
        <path fill="#F1F0EC" d="M125.267 104L108 86.099l6.699-14.125 8.96 15.205L150.174 31 160 40.55 125.267 104"/>
        <path fill="#D4D5CF" d="M102 82l6.369 3.671L126 104l-6.368-3.633L102 82"/>
    </g>
</svg>
