<svg xmlns="http://www.w3.org/2000/svg" width="255" height="199" viewBox="0 0 255 199">
    <defs>
        <linearGradient id="a" x1="50%" x2="50%" y1="0%" y2="100%">
            <stop offset="0%" stop-color="#B04848"/>
            <stop offset="100%" stop-color="#782222"/>
        </linearGradient>
    </defs>
    <g fill="none" fill-rule="evenodd">
        <path fill="#E4E9F2" d="M212.383 176.74c56.823-29.68 56.823-77.8 0-107.48-56.82-29.68-148.946-29.68-205.768 0-1.294.675-3.169 1.71-5.624 3.104L1 173.64c2.452 1.392 4.324 2.425 5.616 3.1 56.821 29.68 148.946 29.68 205.766 0z" opacity=".4"/>
        <path fill="#DF0023" d="M157.709 12.496l-16.44-9.5h-.036l-.17-.102-.017.034c-8.176-4.621-19.385-3.939-31.803 3.24-11.617 6.7-22.213 17.886-30.202 30.828C69.808 51.898 64 69.153 64 84.617c0 14.427 5.042 24.554 13.202 29.294v.018l.05.018 16.695 9.543c8.244 5.261 19.884 4.794 32.795-2.668C151.736 106.38 172 71.252 172 42.365c.001-15.039-5.499-25.407-14.291-29.87"/>
        <path fill="#F1F0EC" d="M141.41 30.479l11.897 6.455L115.002 102l-12.586-3z"/>
        <path fill="#FFF" d="M141.41 30.479h-5.874L97 99h5.416z"/>
        <path fill="#F1F0EC" d="M100.275 66.24l14.727-17.19 35.414 20.966-13.208 17.364z"/>
        <path fill="#D4D5CF" d="M100.275 66.24l14.727-17.19-.642-.951-13.923 16.64z"/>
        <path fill="#FFF" d="M115.002 49.05l35.414 20.966.27-.581-36.326-21.336z"/>
        <path fill="#D4D5CF" d="M97 99l11.893 3h6.109l-12.586-3z"/>
        <path fill="url(#a)" d="M129.148 0c2.92 0 5.663.462 8.182 1.358a21.81 21.81 0 0 1 3.414 1.56l.001-.002.018-.03.167.1h.035l5.264 3.05L157 12.282C153.91 10.78 150.422 10 146.63 10c-6.059 0-12.894 1.986-20.13 6.172-11.511 6.684-22.015 17.77-29.973 30.61l.473.267c-9.093 14.85-14.79 32.018-14.79 47.413 0 13.738 4.33 24.052 11.737 29.028l-15.91-9.131-.046-.015v-.014c-1.098-.644-2.726-1.601-3.703-2.444-1.338-1.154-2.792-2.635-3.884-4.145-2.664-3.683-4.686-8.48-5.642-14.141l-.002-.007-.007-.038c0-.012-.004-.025-.006-.038A56.627 56.627 0 0 1 64 84.45c0-2.401.153-4.85.423-7.321.887-8.163 3.442-16.924 6.843-25.129 2.18-5.254 4.785-10.478 7.734-15.066 7.957-12.931 18.514-24.088 30.074-30.775C116.294 1.974 123.106 0 129.148 0z"/>
    </g>
</svg>
