<?xml version="1.0" standalone="no"?><!DOCTYPE svg PUBLIC "-//W3C//DTD SVG 1.1//EN" "http://www.w3.org/Graphics/SVG/1.1/DTD/svg11.dtd" ><svg xmlns="http://www.w3.org/2000/svg"><metadata>Generated by Glyphter</metadata><defs><font id="Ghazawy" horiz-adv-x="0"><font-face units-per-em="1024" ascent="1024" descent="0" font-family="Ghazawy" font-weight="normal" /><missing-glyph horiz-adv-x="0" /><glyph unicode="&#x0041;" d="M631.998,504.499C620.958,504.499,611.998,495.539,611.998,484.499C611.998,473.459,620.958,464.499,631.998,464.499C643.038,464.499,651.998,473.459,651.998,484.499C651.998,495.539,643.038,504.499,631.998,504.499C631.998,504.499,631.998,504.499,631.998,504.499M631.998,504.499M204.335,284.93C204.335,284.93,4.335,32.93,4.335,32.93C-0.439,26.922,-1.345,18.71,1.991,11.804C5.327,4.89,12.327,0.5,19.999,0.5C19.999,0.5,1003.998,0.5,1003.998,0.5C1011.67,0.5,1018.67,4.89,1022.006,11.804C1025.35,18.71,1024.436,26.922,1019.662,32.93C1019.662,32.93,819.662,284.93,819.662,284.93C815.874,289.71,810.1,292.5,803.998,292.5C803.998,292.5,628.802,292.5,628.802,292.5C628.802,292.5,778.374,527.093,778.374,527.093C813.458,579.695,831.998,641.039,831.998,704.499C831.998,880.945,688.452,1024.499,511.998,1024.499C335.545,1024.499,191.999,880.945,191.999,704.499C191.999,641.039,210.539,579.703,245.625,527.093C245.625,527.093,395.194,292.5,395.194,292.5C395.194,292.5,219.999,292.5,219.999,292.5C213.897,292.5,208.131,289.71,204.335,284.93C204.335,284.93,204.335,284.93,204.335,284.93M129.663,126.5C129.663,126.5,250.593,126.5,250.593,126.5C250.593,126.5,182.343,40.5,182.343,40.5C182.343,40.5,61.405,40.5,61.405,40.5C61.405,40.5,129.663,126.5,129.663,126.5M420.702,252.5C420.702,252.5,475.53,166.5,475.53,166.5C475.53,166.5,333.405,166.5,333.405,166.5C333.405,166.5,401.662,252.5,401.662,252.5C401.662,252.5,420.702,252.5,420.702,252.5M603.302,252.5C603.302,252.5,622.342,252.5,622.342,252.5C622.342,252.5,690.592,166.5,690.592,166.5C690.592,166.5,548.474,166.5,548.474,166.5C548.474,166.5,603.302,252.5,603.302,252.5M722.342,126.5C722.342,126.5,790.592,40.5,790.592,40.5C790.592,40.5,233.405,40.5,233.405,40.5C233.405,40.5,301.663,126.5,301.663,126.5C301.663,126.5,722.342,126.5,722.342,126.5M841.662,40.5C841.662,40.5,773.404,126.5,773.404,126.5C773.404,126.5,894.342,126.5,894.342,126.5C894.342,126.5,962.592,40.5,962.592,40.5C962.592,40.5,841.662,40.5,841.662,40.5M862.592,166.5C862.592,166.5,741.662,166.5,741.662,166.5C741.662,166.5,673.404,252.5,673.404,252.5C673.404,252.5,794.342,252.5,794.342,252.5C794.342,252.5,862.592,166.5,862.592,166.5M279.015,549.125C248.257,595.171,231.999,648.897,231.999,704.499C231.999,858.889,357.608,984.499,511.998,984.499C666.388,984.499,791.998,858.889,791.998,704.499C791.998,648.897,775.74,595.171,744.99,549.123C744.904,549.007,744.834,548.889,744.756,548.773C731.624,528.171,522.116,199.562,511.998,183.704C486.552,223.618,305.155,508.131,279.241,548.773C279.171,548.889,279.093,549.007,279.015,549.125C279.015,549.125,279.015,549.125,279.015,549.125M350.592,252.5C350.592,252.5,282.343,166.5,282.343,166.5C282.343,166.5,161.405,166.5,161.405,166.5C161.405,166.5,229.663,252.5,229.663,252.5C229.663,252.5,350.592,252.5,350.592,252.5M350.592,252.5M511.998,504.499C621.794,504.499,711.998,593.413,711.998,704.499C711.998,814.781,622.28,904.499,511.998,904.499C401.716,904.499,311.999,814.781,311.999,704.499C311.999,593.381,402.232,504.499,511.998,504.499C511.998,504.499,511.998,504.499,511.998,504.499M511.998,864.499C600.224,864.499,671.998,792.725,671.998,704.499C671.998,615.453,599.646,544.499,511.998,544.499C424.326,544.499,351.998,615.453,351.998,704.499C351.998,792.725,423.772,864.499,511.998,864.499C511.998,864.499,511.998,864.499,511.998,864.499M511.998,864.499M596.24,436.249C586.788,441.953,574.49,438.905,568.788,429.445C568.788,429.445,494.866,306.804,494.866,306.804C489.162,297.344,492.208,285.054,501.67,279.352C511.17,273.624,523.444,276.734,529.124,286.156C529.124,286.156,603.044,408.795,603.044,408.795C608.748,418.257,605.702,430.545,596.24,436.249C596.24,436.249,596.24,436.249,596.24,436.249M596.24,436.249" class="icon-address"/><glyph unicode="&#x0042;" d="M774.944,1009.024C774.944,1009.024,774.944,1009.024,774.944,1009.024C754.208,1028.992,720.672,1028.992,699.988,1009.024C699.988,1009.024,261.565,585.911,261.565,585.911C220.145,545.975,220.145,481.156,261.565,441.169C261.565,441.169,703.162,14.984,703.162,14.984C723.693,-4.779,756.819,-5.035,777.606,14.472C777.606,14.472,777.606,14.472,777.606,14.472C798.854,34.388,799.059,67.156,778.169,87.38C778.169,87.38,374,477.367,374,477.367C353.264,497.386,353.264,529.745,374,549.764C374,549.764,774.944,936.679,774.944,936.679C795.68,956.647,795.68,989.005,774.944,1009.024" class="icon-arrow-l"/><glyph unicode="&#x0043;" d="M245.86,15.86C245.86,15.86,245.86,15.86,245.86,15.86C266.34,-4.62,302.18,-4.62,322.66,15.86C322.66,15.86,762.98,440.82,762.98,440.82C803.94,481.78,803.94,543.22,762.98,584.18C762.98,584.18,322.66,1009.14,322.66,1009.14C302.18,1029.62,271.46,1029.62,245.86,1009.14C245.86,1009.14,245.86,1009.14,245.86,1009.14C225.38,988.66,225.38,957.94,245.86,937.46C245.86,937.46,650.34,548.34,650.34,548.34C670.82,527.86,670.82,497.14,650.34,476.66C650.34,476.66,250.98,87.54,250.98,87.54C225.38,67.06,225.38,36.34,245.86,15.86" class="icon-arrow-r"/><glyph unicode="&#x0044;" d="M864,766.08C864,766.08,860.416,102.336,860.416,102.336C860.288,45.696,815.36,-0.128,760.064,0C760.064,0,259.776,1.216,259.776,1.216C204.544,1.344,159.872,47.424,160,104.064C160,104.064,164.032,921.727,164.032,921.727C164.16,978.367,209.088,1024.191,264.32,1023.999C264.32,1023.999,564.48,1023.231,564.48,1023.231C619.776,1023.103,664.448,977.023,664.32,920.447C664.32,920.447,660.864,307.968,660.864,307.968C660.736,251.264,615.808,205.44,560.576,205.632C560.576,205.632,460.48,205.888,460.48,205.888C405.184,206.08,360.512,252.16,360.704,308.8C360.704,308.8,363.712,767.424,363.712,767.424C363.776,795.712,386.24,818.624,413.888,818.56C441.472,818.432,463.872,795.392,463.744,767.104C463.744,767.104,460.864,359.808,460.864,359.808C460.864,331.456,483.136,308.48,510.784,308.352C538.432,308.288,560.896,331.2,560.96,359.488C560.96,359.488,564.096,869.376,564.096,869.376C564.16,897.728,541.824,920.767,514.176,920.831C514.176,920.831,314.112,921.279,314.112,921.279C286.4,921.343,263.936,898.496,263.936,870.144C263.936,870.144,260.224,155.264,260.224,155.264C260.096,126.848,282.56,103.68,310.272,103.616C310.272,103.616,710.144,102.784,710.144,102.784C737.856,102.656,760.448,125.696,760.512,154.112C760.512,154.112,763.968,766.4,763.968,766.4C764.032,794.688,786.496,817.6,814.144,817.536C841.728,817.408,864.128,794.368,864,766.08C864,766.08,864,766.08,864,766.08" class="icon-attachment"/><glyph unicode="&#x0045;" d="M1004.992,781.014C992.334,793.683,977.329,800.012,959.992,800.012C959.992,800.012,64.005,800.012,64.005,800.012C46.66,800.012,31.666,793.683,18.998,781.014C6.329,768.332,0,753.337,0,736.004C0,718.673,6.329,703.679,18.998,691.007C18.998,691.007,466.993,243.012,466.993,243.012C479.675,230.343,494.67,224,512,224C529.33,224,544.339,230.343,556.997,243.012C556.997,243.012,1004.992,691.01,1004.992,691.01C1017.646,703.679,1024,718.673,1024,736.007C1024,753.337,1017.646,768.332,1004.992,781.014C1004.992,781.014,1004.992,781.014,1004.992,781.014" class="icon-caret-down"/><glyph unicode="&#x0046;" d="M330.955,361.961C330.955,361.961,872.442,361.961,872.442,361.961C886.34,361.449,898.764,370.534,902.524,383.921C902.524,383.921,1022.854,805.077,1022.854,805.077C1025.412,814.072,1023.637,823.759,1018.041,831.249C1012.115,839.161,1002.669,843.673,992.772,843.282C992.772,843.282,260.562,843.282,260.562,843.282C260.562,843.282,240.707,940.148,240.707,940.148C237.548,954.137,224.974,963.974,210.624,963.613C210.624,963.613,30.129,963.613,30.129,963.613C6.965,963.613,-7.504,938.554,4.077,918.489C9.462,909.193,19.389,903.447,30.129,903.447C30.129,903.447,185.656,903.447,185.656,903.447C189.567,886.3,288.238,440.476,293.953,414.605C230.268,386.839,220.522,300.562,276.385,259.289C292.178,247.617,311.341,241.42,330.955,241.63C330.955,241.63,872.442,241.63,872.442,241.63C895.605,241.63,910.075,266.689,898.493,286.754C893.108,296.05,883.181,301.796,872.442,301.796C872.442,301.796,330.955,301.796,330.955,301.796C307.791,301.796,293.321,326.854,304.903,346.919C310.288,356.215,320.215,361.961,330.955,361.961C330.955,361.961,330.955,361.961,330.955,361.961M273.798,783.117C273.798,783.117,953.063,783.117,953.063,783.117C953.063,783.117,850.481,422.126,850.481,422.126C850.481,422.126,353.818,422.126,353.818,422.126C353.818,422.126,273.798,783.117,273.798,783.117M300.872,151.383C300.872,81.922,376.079,38.483,436.244,73.228C496.409,107.973,496.409,194.792,436.244,229.537C422.526,237.449,406.974,241.63,391.12,241.63C341.273,241.63,300.872,201.229,300.872,151.383C300.872,151.383,300.872,151.383,300.872,151.383M391.12,181.465C414.284,181.465,428.753,156.406,417.172,136.341C405.59,116.276,376.65,116.276,365.068,136.341C362.421,140.914,361.037,146.088,361.037,151.383C361.037,167.988,374.514,181.465,391.12,181.465C391.12,181.465,391.12,181.465,391.12,181.465M722.029,151.383C722.029,81.922,797.235,38.483,857.4,73.228C917.565,107.973,917.565,194.792,857.4,229.537C843.683,237.449,828.13,241.63,812.276,241.63C762.429,241.63,722.029,201.229,722.029,151.383C722.029,151.383,722.029,151.383,722.029,151.383M812.276,181.465C835.44,181.465,849.91,156.406,838.328,136.341C826.746,116.276,797.807,116.276,786.225,136.341C783.578,140.914,782.194,146.088,782.194,151.383C782.194,167.988,795.671,181.465,812.276,181.465C812.276,181.465,812.276,181.465,812.276,181.465" class="icon-cart"/><glyph unicode="&#x0047;" d="M586.035,512C586.035,512,1024,74.035,1024,74.035C1024,74.035,949.914,0,949.914,0C949.914,0,512,437.965,512,437.965C512,437.965,74.035,0,74.035,0C74.035,0,0,74.035,0,74.035C0,74.035,437.914,512,437.914,512C437.914,512,0,949.965,0,949.965C0,949.965,74.035,1024,74.035,1024C74.035,1024,512,586.035,512,586.035C512,586.035,949.914,1024,949.914,1024C949.914,1024,1024,949.965,1024,949.965C1024,949.965,586.035,512,586.035,512" class="icon-close"/><glyph unicode="&#x0048;" d="M1024,819.2C1024,819.2,768,819.2,768,819.2C768,819.2,768,1024,768,1024C768,1024,256,1024,256,1024C256,1024,256,921.6,256,921.6C256,921.6,256,921.6,256,921.6C256,921.6,256,819.2,256,819.2C256,819.2,0,819.2,0,819.2C0,819.2,0,716.8,0,716.8C0,716.8,153.6,716.8,153.6,716.8C153.6,716.8,153.6,0,153.6,0C153.6,0,870.4,0,870.4,0C870.4,0,870.4,716.8,870.4,716.8C870.4,716.8,1024,716.8,1024,716.8C1024,716.8,1024,819.2,1024,819.2M665.6,921.6C665.6,921.6,665.6,819.2,665.6,819.2C665.6,819.2,358.4,819.2,358.4,819.2C358.4,819.2,358.4,921.6,358.4,921.6C358.4,921.6,665.6,921.6,665.6,921.6M768,102.4C768,102.4,256,102.4,256,102.4C256,102.4,256,716.8,256,716.8C256,716.8,768,716.8,768,716.8C768,716.8,768,102.4,768,102.4M563.2,614.4C563.2,614.4,563.2,204.8,563.2,204.8C563.2,204.8,665.6,204.8,665.6,204.8C665.6,204.8,665.6,614.4,665.6,614.4C665.6,614.4,563.2,614.4,563.2,614.4M358.4,614.4C358.4,614.4,358.4,204.8,358.4,204.8C358.4,204.8,460.8,204.8,460.8,204.8C460.8,204.8,460.8,614.4,460.8,614.4C460.8,614.4,358.4,614.4,358.4,614.4" class="icon-delete"/><glyph unicode="&#x0049;" d="M921.535,465.096C921.535,465.096,887.992,498.646,887.992,498.646C877.461,509.194,863.383,515.03,848.398,515.03C833.396,515.03,818.044,509.194,807.513,498.646C807.513,498.646,590.649,283.074,590.649,283.074C590.649,283.074,590.649,967.963,590.649,967.963C590.649,998.85,568.105,1024,537.227,1024C537.227,1024,489.765,1024,489.765,1024C458.895,1024,430.647,998.85,430.647,967.963C430.647,967.963,430.647,280.634,430.647,280.634C430.647,280.634,214.217,498.646,214.217,498.646C203.669,509.194,190.399,515.03,175.397,515.03C160.411,515.03,146.725,509.194,136.185,498.646C136.185,498.646,102.826,465.096,102.826,465.096C80.997,443.259,81.089,407.735,102.917,385.898C102.917,385.898,472.506,16.351,472.506,16.351C483.03,5.828,497.149,0,512.259,0C512.259,0,512.417,0,512.417,0C527.411,0,541.497,5.828,552.02,16.351C552.02,16.351,921.535,385.89,921.535,385.89C943.38,407.719,943.38,443.259,921.535,465.096C921.535,465.096,921.535,465.096,921.535,465.096" class="icon-down-arrow"/><glyph unicode="&#x004a;" d="M0,0.5C0,0.5,1005.312,0.5,1005.312,0.5C1005.312,0.5,1005.312,100.75,1005.312,100.75C1005.312,100.75,0,100.75,0,100.75C0,100.75,0,0.5,0,0.5C0,0.5,0,0.5,0,0.5M351.846,351.374C351.846,351.374,351.846,486.183,351.846,486.183C351.846,486.183,638.515,750.887,638.515,750.887C638.515,750.887,738.611,640.807,738.611,640.807C738.611,640.807,482.918,351.374,482.918,351.374C482.918,351.374,351.846,351.374,351.846,351.374C351.846,351.374,351.846,351.374,351.846,351.374M792.115,889.076C792.115,889.076,880.589,801.114,880.589,801.114C880.589,801.114,811.674,728.154,811.674,728.154C811.674,728.154,719.565,820.058,719.565,820.058C719.565,820.058,792.115,889.076,792.115,889.076C792.115,889.076,792.115,889.076,792.115,889.076M1024,786.676C1024,786.676,786.637,1024.5,786.637,1024.5C786.637,1024.5,251.341,528.474,251.341,528.474C251.341,528.474,251.341,251.124,251.341,251.124C251.341,251.124,525.978,251.124,525.978,251.124C525.978,251.124,1024,786.676,1024,786.676C1024,786.676,1024,786.676,1024,786.676" class="icon-edit"/><glyph unicode="&#x004b;" d="M605.252,0C605.252,0,605.252,460.8,605.252,460.8C605.252,460.8,745.165,460.8,745.165,460.8C745.165,460.8,768,665.6,768,665.6C768,665.6,605.252,665.6,605.252,665.6C605.252,665.6,605.252,765.338,605.252,765.338C605.252,818.074,606.583,870.4,680.277,870.4C680.277,870.4,754.927,870.4,754.927,870.4C754.927,870.4,754.927,1016.832,754.927,1016.832C754.927,1019.017,690.825,1024,625.971,1024C490.496,1024,405.675,939.145,405.675,783.36C405.675,783.36,405.675,665.6,405.675,665.6C405.675,665.6,256,665.6,256,665.6C256,665.6,256,460.8,256,460.8C256,460.8,405.675,460.8,405.675,460.8C405.675,460.8,405.675,0,405.675,0C405.675,0,605.252,0,605.252,0C605.252,0,605.252,0,605.252,0" class="icon-facebook"/><glyph unicode="&#x004c;" d="M716.8,512C716.8,512,1024,204.8,1024,204.8C1024,204.8,819.2,0,819.2,0C819.2,0,512,307.2,512,307.2C512,307.2,204.8,0,204.8,0C204.8,0,0,204.8,0,204.8C0,204.8,307.2,512,307.2,512C307.2,512,0,819.2,0,819.2C0,819.2,204.8,1024,204.8,1024C204.8,1024,512,716.8,512,716.8C512,716.8,819.2,1024,819.2,1024C819.2,1024,1024,819.2,1024,819.2C1024,819.2,716.8,512,716.8,512" class="icon-false"/><glyph unicode="&#x004d;" d="M449.209,792.175C454.536,792.243,459.589,794.77,462.867,799.004C464.916,803.785,464.916,809.248,462.867,814.028C450.575,855.617,429.336,894.065,400.722,926.708C378.46,950.747,345.543,961.81,313.31,956.073C308.666,954.161,304.979,950.474,303.066,945.83C303.066,945.83,303.066,938.318,303.066,938.318C303.066,934.903,303.066,932.172,303.066,928.757C303.066,928.757,303.066,928.757,303.066,928.757C303.066,901.441,314.13,875.285,333.797,856.369C365.621,827.755,403.044,806.106,443.746,792.858C443.746,792.858,449.209,792.175,449.209,792.175M354.967,878.222C354.967,878.222,354.967,878.222,354.967,878.222C348.343,885.187,343.017,893.314,339.261,902.124C339.261,902.124,339.261,902.124,339.261,902.124C339.261,902.124,339.261,907.587,339.261,907.587C339.602,908.679,339.602,909.909,339.261,911.001C339.261,911.001,339.261,911.001,339.261,911.001C339.261,911.001,339.261,915.782,339.261,918.513C356.333,917.557,372.382,910.25,384.333,898.026C401.542,879.246,415.2,857.53,424.624,833.833C399.152,844.691,375.591,859.715,354.967,878.222C354.967,878.222,354.967,878.222,354.967,878.222M973.001,780.566C973.001,780.566,709.398,780.566,709.398,780.566C720.87,788.214,731.592,796.955,741.494,806.516C796.673,855.344,806.917,937.567,765.396,998.414C704.139,1040.14,621.371,1029.896,572.133,974.512C547.343,947.196,526.992,916.055,512.037,882.319C497.081,916.055,476.73,947.196,451.941,974.512C402.703,1029.896,319.934,1040.14,258.677,998.414C217.156,937.567,227.4,855.344,282.579,806.516C292.481,796.955,303.203,788.214,314.676,780.566C314.676,780.566,51.073,780.566,51.073,780.566C41.649,780.566,34,772.917,34,763.493C34,763.493,34,594.131,34,594.131C34,584.707,41.649,577.059,51.073,577.059C51.073,577.059,85.218,577.059,85.218,577.059C85.218,577.059,85.218,84.681,85.218,84.681C85.56,37.833,123.734,0,170.582,0C170.582,0,853.491,0,853.491,0C900.339,0,938.514,37.833,938.855,84.681C938.855,84.681,938.855,577.059,938.855,577.059C938.855,577.059,973.001,577.059,973.001,577.059C982.425,577.059,990.073,584.707,990.073,594.131C990.073,594.131,990.073,763.493,990.073,763.493C990.073,772.917,982.425,780.566,973.001,780.566C973.001,780.566,973.001,780.566,973.001,780.566M596.717,950.61C633.185,991.926,693.691,1001.897,741.494,974.512C768.606,926.777,758.362,866.476,716.91,830.418C694.374,809.931,668.833,793.131,641.107,780.566C641.107,780.566,539.353,780.566,539.353,780.566C539.695,784.663,539.695,788.761,539.353,792.858C539.353,792.858,539.353,792.858,539.353,792.858C539.353,792.858,539.353,803.102,539.353,803.102C539.353,803.102,539.353,810.614,539.353,810.614C539.012,814.711,539.012,818.809,539.353,822.906C539.353,822.906,539.353,822.906,539.353,822.906C539.353,826.321,539.353,829.735,539.353,833.15C539.353,833.15,539.353,833.15,539.353,833.15C550.416,875.763,569.947,915.713,596.717,950.61C596.717,950.61,596.717,950.61,596.717,950.61M307.164,830.418C265.711,866.476,255.468,926.777,282.579,974.512C330.383,1001.897,390.889,991.926,427.356,950.61C458.633,916.26,481.92,875.49,495.647,831.101C495.647,824.955,495.647,819.491,500.427,814.028C500.359,812.458,500.359,810.819,500.427,809.248C500.427,809.248,500.427,796.955,500.427,796.955C500.769,792.653,500.769,788.283,500.427,783.98C500.427,783.98,382.284,783.98,382.284,783.98C355.036,795.59,329.7,811.228,307.164,830.418C307.164,830.418,307.164,830.418,307.164,830.418M68.145,610.521C68.145,610.521,68.145,747.103,68.145,747.103C68.145,747.103,409.6,747.103,409.6,747.103C409.6,747.103,409.6,610.521,409.6,610.521C409.6,610.521,68.145,610.521,68.145,610.521M443.746,34.145C443.746,34.145,170.582,34.145,170.582,34.145C142.583,34.145,119.705,56.681,119.364,84.681C119.364,84.681,119.364,577.059,119.364,577.059C119.364,577.059,443.746,577.059,443.746,577.059C443.746,577.059,443.746,34.145,443.746,34.145M443.746,746.42C443.746,746.42,580.328,746.42,580.328,746.42C580.328,746.42,580.328,609.838,580.328,609.838C580.328,609.838,443.746,609.838,443.746,609.838C443.746,609.838,443.746,746.42,443.746,746.42M546.182,34.145C546.182,34.145,477.891,34.145,477.891,34.145C477.891,34.145,477.891,577.059,477.891,577.059C477.891,577.059,546.182,577.059,546.182,577.059C546.182,577.059,546.182,34.145,546.182,34.145M904.71,84.681C904.368,56.681,881.491,34.145,853.491,34.145C853.491,34.145,580.328,34.145,580.328,34.145C580.328,34.145,580.328,577.059,580.328,577.059C580.328,577.059,904.71,577.059,904.71,577.059C904.71,577.059,904.71,84.681,904.71,84.681M955.928,610.521C955.928,610.521,614.473,610.521,614.473,610.521C614.473,610.521,614.473,747.103,614.473,747.103C614.473,747.103,955.928,747.103,955.928,747.103C955.928,747.103,955.928,610.521,955.928,610.521M574.864,792.175C574.864,792.175,580.328,792.175,580.328,792.175C622.122,804.263,660.774,825.228,693.691,853.637C718.139,876.719,728.724,910.933,721.69,943.781C719.983,949.244,716.022,953.751,710.763,956.073C678.052,963.039,643.975,952.727,620.619,928.757C592.005,896.114,570.767,857.666,558.475,816.077C556.016,811.365,556.016,805.765,558.475,801.053C561.821,795.248,568.172,791.765,574.864,792.175C574.864,792.175,574.864,792.175,574.864,792.175M643.155,902.124C655.106,914.348,671.155,921.655,688.227,922.611C686.588,905.948,679.35,890.309,667.74,878.222C647.594,860.739,624.444,847.081,599.449,837.93C610.239,861.968,625.536,883.753,644.521,902.124C644.521,902.124,643.155,902.124,643.155,902.124" class="icon-gift-box"/><glyph unicode="&#x004e;" d="M921.6,307.2C921.6,307.2,819.2,307.2,819.2,307.2C762.624,307.2,716.8,261.376,716.8,204.8C716.8,204.8,716.8,102.4,716.8,102.4C716.8,45.824,762.624,0,819.2,0C819.2,0,921.6,0,921.6,0C978.176,0,1024,45.824,1024,102.4C1024,102.4,1024,204.8,1024,204.8C1024,261.376,978.176,307.2,921.6,307.2M563.2,307.2C563.2,307.2,460.8,307.2,460.8,307.2C404.224,307.2,358.4,261.376,358.4,204.8C358.4,204.8,358.4,102.4,358.4,102.4C358.4,45.824,404.224,0,460.8,0C460.8,0,563.2,0,563.2,0C619.776,0,665.6,45.824,665.6,102.4C665.6,102.4,665.6,204.8,665.6,204.8C665.6,261.376,619.776,307.2,563.2,307.2M204.8,307.2C204.8,307.2,102.4,307.2,102.4,307.2C45.824,307.2,0,261.376,0,204.8C0,204.8,0,102.4,0,102.4C0,45.824,45.824,0,102.4,0C102.4,0,204.8,0,204.8,0C261.376,0,307.2,45.824,307.2,102.4C307.2,102.4,307.2,204.8,307.2,204.8C307.2,261.376,261.376,307.2,204.8,307.2M921.6,665.6C921.6,665.6,819.2,665.6,819.2,665.6C762.624,665.6,716.8,619.776,716.8,563.2C716.8,563.2,716.8,460.8,716.8,460.8C716.8,404.224,762.624,358.4,819.2,358.4C819.2,358.4,921.6,358.4,921.6,358.4C978.176,358.4,1024,404.224,1024,460.8C1024,460.8,1024,563.2,1024,563.2C1024,619.776,978.176,665.6,921.6,665.6M563.2,665.6C563.2,665.6,460.8,665.6,460.8,665.6C404.224,665.6,358.4,619.776,358.4,563.2C358.4,563.2,358.4,460.8,358.4,460.8C358.4,404.224,404.224,358.4,460.8,358.4C460.8,358.4,563.2,358.4,563.2,358.4C619.776,358.4,665.6,404.224,665.6,460.8C665.6,460.8,665.6,563.2,665.6,563.2C665.6,619.776,619.776,665.6,563.2,665.6M204.8,665.6C204.8,665.6,102.4,665.6,102.4,665.6C45.824,665.6,0,619.776,0,563.2C0,563.2,0,460.8,0,460.8C0,404.224,45.824,358.4,102.4,358.4C102.4,358.4,204.8,358.4,204.8,358.4C261.376,358.4,307.2,404.224,307.2,460.8C307.2,460.8,307.2,563.2,307.2,563.2C307.2,619.776,261.376,665.6,204.8,665.6M921.6,1024C921.6,1024,819.2,1024,819.2,1024C762.624,1024,716.8,978.176,716.8,921.6C716.8,921.6,716.8,819.2,716.8,819.2C716.8,762.624,762.624,716.8,819.2,716.8C819.2,716.8,921.6,716.8,921.6,716.8C978.176,716.8,1024,762.624,1024,819.2C1024,819.2,1024,921.6,1024,921.6C1024,978.176,978.176,1024,921.6,1024M563.2,1024C563.2,1024,460.8,1024,460.8,1024C404.224,1024,358.4,978.176,358.4,921.6C358.4,921.6,358.4,819.2,358.4,819.2C358.4,762.624,404.224,716.8,460.8,716.8C460.8,716.8,563.2,716.8,563.2,716.8C619.776,716.8,665.6,762.624,665.6,819.2C665.6,819.2,665.6,921.6,665.6,921.6C665.6,978.176,619.776,1024,563.2,1024M307.2,921.6C307.2,921.6,307.2,819.2,307.2,819.2C307.2,762.624,261.376,716.8,204.8,716.8C204.8,716.8,102.4,716.8,102.4,716.8C45.824,716.8,0,762.624,0,819.2C0,819.2,0,921.6,0,921.6C0,978.176,45.824,1024,102.4,1024C102.4,1024,204.8,1024,204.8,1024C261.376,1024,307.2,978.176,307.2,921.6" class="icon-grid"/><glyph unicode="&#x004f;" d="M941.693,936.095C891.039,989.957,818.027,1024.5,741.262,1024.5C696.035,1024.5,653.539,1013.373,612.715,991.118C571.858,968.897,538.646,938.45,512.5,899.811C486.354,938.45,453.108,968.897,412.25,991.118C371.393,1013.373,328.931,1024.5,283.738,1024.5C206.938,1024.5,133.927,989.957,83.273,936.095C32.619,882.232,0.5,803.794,0.5,721.225C0.5,664.427,11.696,609.336,25.554,567.83C32.415,547.248,42.791,524.959,56.581,502.26C70.542,479.288,83.273,460.105,94.162,444.882C105.05,429.658,120.581,410.612,141.539,388.664C162.531,366.717,179.666,349.445,192.193,337.157C204.72,324.835,223.8,306.676,248.854,283.295C277.697,256.329,298.279,236.293,311.489,223.561C324.425,211.103,343.096,191.954,367.604,166.763C417.166,115.871,453.518,68.937,487.958,15.143C494.375,5.108,502.67,0.5,512.466,0.5C522.808,0.5,531.785,5.006,538.066,15.143C560.116,50.676,585.579,87.028,615.412,122.868C645.518,159.049,670.571,187.107,690.574,207.177C710.883,227.521,740.033,255.886,777.75,292.067C801.029,314.458,819.666,331.286,832.193,343.574C844.72,355.896,861.07,372.861,881.242,394.535C901.381,416.176,917.321,434.813,928.619,450.138C940.191,465.84,952.41,484.818,966.2,507.517C994.36,553.904,1006.682,590.631,1016.854,642.173C1021.906,667.909,1024.466,694.294,1024.466,721.225C1024.5,803.794,992.346,882.232,941.693,936.095C941.693,936.095,941.693,936.095,941.693,936.095M959.135,661.492C948.622,596.536,917.048,532.843,864.346,470.038C841.341,442.663,799.118,399.041,737.439,340.093C705.422,309.475,679.719,284.455,659.546,264.555C639.954,245.202,615.822,219.022,587.115,186.083C558.648,153.451,533.731,121.093,512.466,89.486C490.143,120.513,464.406,151.984,435.154,184.342C405.594,216.974,382.862,241.72,365.966,258.104C349.07,274.488,323.367,298.962,288.073,332.481C288.073,332.481,250.493,368.184,250.493,368.184C250.493,368.184,216.189,401.567,216.189,401.567C201.341,416.005,189.906,427.747,182.431,436.69C175.194,445.326,165.535,456.59,153.554,470.653C141.573,484.681,132.357,497.003,126.315,506.936C113.823,527.45,92.626,558.102,84.912,583.634C84.912,583.634,72.385,625.208,72.385,625.208C63.271,655.519,60.404,686.682,60.404,721.225C60.404,786.795,82.215,843.013,125.769,889.264C169.904,936.095,222.196,959.51,283.738,959.51C326.746,959.51,366.512,947.222,403.034,922.032C439.523,896.875,467.649,863.698,485.808,821.919C491.064,809.801,499.973,803.794,512.5,803.794C525.027,803.794,534.721,809.392,540.285,821.919C558.682,863.288,584.965,896.875,621.454,922.032C657.942,947.222,698.254,959.51,741.262,959.51C802.804,959.51,855.096,936.095,898.685,889.844C942.273,843.593,964.05,787.376,964.05,721.225C964.016,700.745,962.241,680.846,959.135,661.492C959.135,661.492,959.135,661.492,959.135,661.492" class="icon-heart"/><glyph unicode="&#x0050;" d="M301.023,1018.222C217.669,1014.467,145.443,994.09,87.109,935.995C28.57,877.592,8.431,805.093,4.677,722.593C2.322,671.12,-11.366,282.204,28.365,180.213C55.16,111.401,107.93,58.494,177.392,31.597C209.784,19.002,246.751,10.468,301.023,7.976C754.689,-12.572,922.864,-1.376,993.794,180.213C1006.355,212.538,1015.025,249.47,1017.414,303.606C1038.167,758.433,1014.069,857.01,934.982,935.995C872.279,998.561,798.517,1041.125,301.023,1018.222M305.187,99.454C255.523,101.673,228.592,109.967,210.603,116.93C165.343,134.509,131.38,168.369,113.904,213.323C83.627,290.84,93.663,658.934,96.359,718.497C99.021,776.831,110.832,830.147,151.996,871.312C202.958,922.136,268.767,947.02,716.938,926.813C775.442,924.15,828.861,912.374,870.128,871.312C921.09,820.487,946.348,754.166,925.766,307.702C923.547,258.174,915.219,231.277,908.255,213.323C862.141,95.187,756.089,78.769,305.187,99.454M721.887,784.408C721.887,750.753,749.262,723.412,783.02,723.412C816.812,723.412,844.221,750.753,844.221,784.408C844.221,818.03,816.812,845.37,783.02,845.37C749.262,845.37,721.887,818.03,721.887,784.408M249.481,513.116C249.481,369.005,366.593,252.167,511.079,252.167C655.566,252.167,772.678,369.005,772.678,513.116C772.678,657.261,655.566,774.032,511.079,774.032C366.593,774.032,249.481,657.261,249.481,513.116M341.266,513.116C341.266,606.642,417.281,682.52,511.079,682.52C604.878,682.52,680.893,606.642,680.893,513.116C680.893,419.557,604.878,343.678,511.079,343.678C417.281,343.678,341.266,419.557,341.266,513.116" class="icon-instagram"/><glyph unicode="&#x0051;" d="M228.508,1024C228.508,1024,68.081,1024,68.081,1024C30.961,1024,1.009,993.707,1.521,956.587C1.521,956.587,1.521,797.013,1.521,797.013C1.009,759.893,30.961,729.6,68.081,729.6C68.081,729.6,228.508,729.6,228.508,729.6C265.628,729.6,295.58,759.893,295.068,797.013C295.068,797.013,295.068,956.587,295.068,956.587C295.58,993.707,265.628,1024,228.508,1024C228.508,1024,228.508,1024,228.508,1024M243.868,797.013C244.38,788.224,237.297,780.8,228.508,780.8C228.508,780.8,68.081,780.8,68.081,780.8C59.292,780.8,52.209,788.224,52.721,797.013C52.721,797.013,52.721,956.587,52.721,956.587C52.209,965.376,59.292,972.8,68.081,972.8C68.081,972.8,228.508,972.8,228.508,972.8C237.297,972.8,244.38,965.376,243.868,956.587C243.868,956.587,243.868,797.013,243.868,797.013M228.508,659.627C228.508,659.627,68.081,659.627,68.081,659.627C30.961,659.627,1.009,629.333,1.521,592.213C1.521,592.213,1.521,431.787,1.521,431.787C1.521,395.008,31.303,365.227,68.081,365.227C68.081,365.227,228.508,365.227,228.508,365.227C265.287,365.227,295.068,395.008,295.068,431.787C295.068,431.787,295.068,592.213,295.068,592.213C295.58,629.333,265.628,659.627,228.508,659.627C228.508,659.627,228.508,659.627,228.508,659.627M243.868,432.64C244.38,423.851,237.297,416.427,228.508,416.427C228.508,416.427,68.081,416.427,68.081,416.427C59.292,416.427,52.209,423.851,52.721,432.64C52.721,432.64,52.721,593.067,52.721,593.067C52.721,601.515,59.633,608.427,68.081,608.427C68.081,608.427,228.508,608.427,228.508,608.427C236.956,608.427,243.868,601.515,243.868,593.067C243.868,593.067,243.868,432.64,243.868,432.64M228.508,295.253C228.508,295.253,68.081,295.253,68.081,295.253C30.961,295.253,1.009,264.96,1.521,227.84C1.521,227.84,1.521,68.267,1.521,68.267C0.583,30.805,30.62,0,68.081,0C68.081,0,228.508,0,228.508,0C265.628,0,295.58,30.293,295.068,67.413C295.068,67.413,295.068,227.84,295.068,227.84C295.58,264.96,265.628,295.253,228.508,295.253C228.508,295.253,228.508,295.253,228.508,295.253M243.868,68.267C244.38,59.477,237.297,52.053,228.508,52.053C228.508,52.053,68.081,52.053,68.081,52.053C59.292,52.053,52.209,59.477,52.721,68.267C52.721,68.267,52.721,227.84,52.721,227.84C52.209,236.629,59.292,244.053,68.081,244.053C68.081,244.053,228.508,244.053,228.508,244.053C237.297,244.053,244.38,236.629,243.868,227.84C243.868,227.84,243.868,68.267,243.868,68.267M423.068,907.093C423.068,907.093,997.361,907.093,997.361,907.093C1011.697,906.581,1023.473,918.357,1022.961,932.693C1022.961,946.859,1011.527,958.293,997.361,958.293C997.361,958.293,423.068,958.293,423.068,958.293C409.159,957.867,397.895,946.603,397.468,932.693C397.468,918.528,408.903,907.093,423.068,907.093C423.068,907.093,423.068,907.093,423.068,907.093M997.361,846.507C997.361,846.507,423.068,846.507,423.068,846.507C403.356,846.507,391.068,825.173,400.881,808.107C405.489,800.171,413.937,795.307,423.068,795.307C423.068,795.307,997.361,795.307,997.361,795.307C1017.073,795.307,1029.361,816.64,1019.548,833.707C1014.94,841.643,1006.492,846.507,997.361,846.507C997.361,846.507,997.361,846.507,997.361,846.507M997.361,597.333C997.361,597.333,423.068,597.333,423.068,597.333C403.356,597.333,391.068,576,400.881,558.933C405.489,550.997,413.937,546.133,423.068,546.133C423.068,546.133,997.361,546.133,997.361,546.133C1017.073,546.133,1029.361,567.467,1019.548,584.533C1014.94,592.469,1006.492,597.333,997.361,597.333C997.361,597.333,997.361,597.333,997.361,597.333M997.361,482.133C997.361,482.133,423.068,482.133,423.068,482.133C403.356,482.133,391.068,460.8,400.881,443.733C405.489,435.797,413.937,430.933,423.068,430.933C423.068,430.933,997.361,430.933,997.361,430.933C1017.073,430.933,1029.361,452.267,1019.548,469.333C1014.94,477.269,1006.492,482.133,997.361,482.133C997.361,482.133,997.361,482.133,997.361,482.133M997.361,229.547C997.361,229.547,423.068,229.547,423.068,229.547C409.159,229.12,397.895,217.856,397.468,203.947C397.468,189.781,408.903,178.347,423.068,178.347C423.068,178.347,997.361,178.347,997.361,178.347C1011.697,177.835,1023.473,189.611,1022.961,203.947C1022.961,218.112,1011.527,229.547,997.361,229.547C997.361,229.547,997.361,229.547,997.361,229.547M997.361,117.76C997.361,117.76,423.068,117.76,423.068,117.76C403.356,117.76,391.068,96.427,400.881,79.36C405.489,71.424,413.937,66.56,423.068,66.56C423.068,66.56,997.361,66.56,997.361,66.56C1011.527,66.56,1022.961,77.995,1022.961,92.16C1023.473,106.496,1011.697,118.272,997.361,117.76C997.361,117.76,997.361,117.76,997.361,117.76" class="icon-list"/><glyph unicode="&#x0052;" d="M0,576C0,576,0,448,0,448C0,448,1024,448,1024,448C1024,448,1024,576,1024,576C1024,576,0,576,0,576" class="icon-minus"/><glyph unicode="&#x0053;" d="M879.795,532.078C879.795,532.078,172.73,1019.709,172.73,1019.709C165.245,1024.854,155.541,1025.39,147.544,1021.221C139.523,1017.003,134.5,1008.713,134.5,999.643C134.5,999.643,134.5,24.382,134.5,24.382C134.5,15.312,139.523,6.998,147.544,2.779C151.104,0.926,155.005,0,158.882,0C163.733,0,168.561,1.463,172.73,4.316C172.73,4.316,879.795,491.946,879.795,491.946C886.402,496.506,890.328,503.991,890.328,512.012C890.328,520.034,886.378,527.519,879.795,532.078C879.795,532.078,879.795,532.078,879.795,532.078" class="icon-play-button"/><glyph unicode="&#x0054;" d="M1024,576C1024,576,576,576,576,576C576,576,576,1024,576,1024C576,1024,448,1024,448,1024C448,1024,448,576,448,576C448,576,0,576,0,576C0,576,0,448,0,448C0,448,448,448,448,448C448,448,448,0,448,0C448,0,576,0,576,0C576,0,576,448,576,448C576,448,1024,448,1024,448C1024,448,1024,576,1024,576C1024,576,1024,576,1024,576" class="icon-plus"/><glyph unicode="&#x0055;" d="M1024,72.397C1024,72.397,951.603,0,951.603,0C951.603,0,734.362,217.19,734.362,217.19C734.362,217.19,806.758,289.638,806.758,289.638C806.758,289.638,1024,72.397,1024,72.397C1024,72.397,1024,72.397,1024,72.397M409.6,307.2C240.23,307.2,102.4,444.979,102.4,614.4C102.4,783.77,240.23,921.6,409.6,921.6C578.97,921.6,716.8,783.77,716.8,614.4C716.8,444.979,578.97,307.2,409.6,307.2C409.6,307.2,409.6,307.2,409.6,307.2C409.6,307.2,409.6,307.2,409.6,307.2M409.6,1024C183.398,1024,0,840.602,0,614.4C0,388.198,183.398,204.8,409.6,204.8C635.802,204.8,819.2,388.198,819.2,614.4C819.2,840.602,635.802,1024,409.6,1024C409.6,1024,409.6,1024,409.6,1024C409.6,1024,409.6,1024,409.6,1024" class="icon-search"/><glyph unicode="&#x0056;" d="M508.183,122.299C508.183,122.299,34.311,122.299,34.311,122.299C15.478,121.736,0.536,106.333,0.536,87.501C0.536,87.501,0.536,52.19,0.536,52.19C0.536,33.358,15.478,17.955,34.311,17.392C34.311,17.392,508.183,17.392,508.183,17.392C527.016,17.955,541.958,33.358,541.958,52.19C541.958,52.19,541.958,87.501,541.958,87.501C541.958,106.333,527.016,121.736,508.183,122.299C508.183,122.299,508.183,122.299,508.183,122.299M34.311,236.929C34.311,236.929,443.704,236.929,443.704,236.929C462.638,237.185,477.786,252.793,477.479,271.728C477.479,271.728,477.479,308.061,477.479,308.061C478.042,327.201,462.843,343.116,443.704,343.372C443.704,343.372,34.311,343.372,34.311,343.372C15.274,342.809,0.229,327.098,0.536,308.061C0.536,308.061,0.536,273.263,0.536,273.263C-0.334,253.868,14.864,237.492,34.311,236.929C34.311,236.929,34.311,236.929,34.311,236.929M34.311,456.467C34.311,456.467,380.248,456.467,380.248,456.467C399.285,456.722,414.535,472.228,414.535,491.265C414.535,491.265,414.535,526.063,414.535,526.063C414.842,545.203,399.387,560.862,380.248,560.862C380.248,560.862,34.311,560.862,34.311,560.862C15.376,560.606,0.229,544.998,0.536,526.063C0.536,526.063,0.536,491.265,0.536,491.265C0.536,472.433,15.478,457.029,34.311,456.467C34.311,456.467,34.311,456.467,34.311,456.467M34.311,700.567C34.311,700.567,316.792,700.567,316.792,700.567C335.726,700.823,350.874,716.431,350.567,735.366C350.567,735.366,350.567,768.629,350.567,768.629C350.874,787.564,335.726,803.172,316.792,803.428C316.792,803.428,34.311,803.428,34.311,803.428C15.376,803.172,0.229,787.564,0.536,768.629C0.536,768.629,0.536,733.831,0.536,733.831C1.098,715.51,15.99,700.823,34.311,700.567C34.311,700.567,34.311,700.567,34.311,700.567M34.311,922.152C34.311,922.152,252.824,922.152,252.824,922.152C271.861,922.152,287.162,937.913,286.599,956.95C286.599,956.95,286.599,989.702,286.599,989.702C287.162,1008.738,271.861,1024.5,252.824,1024.5C252.824,1024.5,34.311,1024.5,34.311,1024.5C15.376,1024.244,0.229,1008.636,0.536,989.702C0.536,989.702,0.536,954.903,0.536,954.903C1.354,936.787,16.144,922.408,34.311,922.152C34.311,922.152,34.311,922.152,34.311,922.152M1013.784,281.963C1013.784,281.963,989.733,308.061,989.733,308.061C976.785,321.725,955.088,321.725,942.141,308.061C942.141,308.061,824.952,188.314,824.952,188.314C824.952,188.314,824.952,973.326,824.952,973.326C824.952,992.158,810.009,1007.561,791.177,1008.124C791.177,1008.124,756.89,1008.124,756.89,1008.124C738.058,1007.561,723.115,992.158,723.115,973.326C723.115,973.326,723.115,186.779,723.115,186.779C723.115,186.779,606.438,308.061,606.438,308.061C600.092,314.509,591.444,318.194,582.386,318.296C573.277,318.45,564.526,314.714,558.334,308.061C558.334,308.061,534.282,283.498,534.282,283.498C519.646,269.578,519.646,246.243,534.282,232.324C534.282,232.324,750.237,10.739,750.237,10.739C756.429,4.087,765.18,0.351,774.289,0.505C783.347,0.607,791.996,4.291,798.341,10.739C798.341,10.739,1013.784,232.324,1013.784,232.324C1027.397,246.089,1027.397,268.197,1013.784,281.963C1013.784,281.963,1013.784,281.963,1013.784,281.963" class="icon-sort"/><glyph unicode="&#x0057;" d="M1002.88,618.88C1014.528,618.88,1024,628.352,1024,640C1024,640,1024,810.88,1024,810.88C1023.68,857.728,985.728,895.68,938.88,896C938.88,896,85.12,896,85.12,896C38.272,895.68,0.32,857.728,0,810.88C0,810.88,0,640,0,640C0,628.352,9.472,618.88,21.12,618.88C103.424,618.88,154.816,529.792,113.664,458.56C94.592,425.472,59.328,405.12,21.12,405.12C9.472,405.12,0,395.648,0,384C0,384,0,213.12,0,213.12C0.32,166.272,38.272,128.32,85.12,128C85.12,128,938.88,128,938.88,128C985.728,128.32,1023.68,166.272,1024,213.12C1024,213.12,1024,384,1024,384C1024,395.648,1014.528,405.12,1002.88,405.12C920.576,405.12,869.184,494.208,910.336,565.44C929.408,598.528,964.672,618.88,1002.88,618.88C1002.88,618.88,1002.88,618.88,1002.88,618.88M981.12,362.88C981.12,362.88,981.12,211.84,981.12,211.84C980.8,188.672,962.048,169.92,938.88,169.6C938.88,169.6,85.12,169.6,85.12,169.6C61.952,169.92,43.2,188.672,42.88,211.84C42.88,211.84,42.88,364.16,42.88,364.16C156.672,379.2,211.584,511.744,141.696,602.816C117.568,634.176,82.048,654.656,42.88,659.84C42.88,659.84,42.88,810.88,42.88,810.88C43.2,834.048,61.952,852.8,85.12,853.12C85.12,853.12,938.88,853.12,938.88,853.12C962.048,852.8,980.8,834.048,981.12,810.88C981.12,810.88,981.12,659.84,981.12,659.84C867.328,644.8,812.416,512.256,882.304,421.184C906.432,389.824,941.952,369.344,981.12,364.16C981.12,364.16,981.12,362.88,981.12,362.88M277.12,816C265.472,816,256,806.528,256,794.88C256,794.88,256,746.88,256,746.88C253.12,730.368,269.184,716.992,284.928,722.752C294.784,726.336,300.672,736.512,298.88,746.88C298.88,746.88,298.88,794.88,298.88,794.88C298.56,806.656,288.896,816,277.12,816C277.12,816,277.12,816,277.12,816M277.12,640C265.472,640,256,630.528,256,618.88C256,618.88,256,576,256,576C258.88,559.488,278.528,552.256,291.392,563.008C295.36,566.336,297.984,570.944,298.88,576C298.88,576,298.88,618.88,298.88,618.88C298.56,630.656,288.896,640,277.12,640C277.12,640,277.12,640,277.12,640M277.12,469.12C265.472,469.12,256,459.648,256,448C256,448,256,405.12,256,405.12C258.88,388.608,278.528,381.376,291.392,392.128C295.36,395.456,297.984,400.064,298.88,405.12C298.88,405.12,298.88,448,298.88,448C298.56,459.776,288.896,469.12,277.12,469.12C277.12,469.12,277.12,469.12,277.12,469.12M277.12,298.88C265.344,298.56,256,288.896,256,277.12C256,277.12,256,234.88,256,234.88C253.12,218.368,269.184,204.992,284.928,210.752C294.784,214.336,300.672,224.512,298.88,234.88C298.88,234.88,298.88,277.12,298.88,277.12C298.88,289.152,289.152,298.88,277.12,298.88C277.12,298.88,277.12,298.88,277.12,298.88M746.88,682.88C746.88,682.88,448,682.88,448,682.88C431.488,680,424.256,660.352,435.008,647.488C438.336,643.52,442.944,640.896,448,640C448,640,746.88,640,746.88,640C763.392,642.88,770.624,662.528,759.872,675.392C756.544,679.36,751.936,681.984,746.88,682.88C746.88,682.88,746.88,682.88,746.88,682.88M746.88,533.12C746.88,533.12,448,533.12,448,533.12C431.744,533.12,421.568,515.52,429.696,501.44C433.472,494.912,440.448,490.88,448,490.88C448,490.88,746.88,490.88,746.88,490.88C763.136,490.88,773.312,508.48,765.184,522.56C761.408,529.088,754.432,533.12,746.88,533.12C746.88,533.12,746.88,533.12,746.88,533.12M746.88,384C746.88,384,448,384,448,384C431.488,381.12,424.256,361.472,435.008,348.608C438.336,344.64,442.944,342.016,448,341.12C448,341.12,746.88,341.12,746.88,341.12C763.392,344,770.624,363.648,759.872,376.512C756.544,380.48,751.936,383.104,746.88,384C746.88,384,746.88,384,746.88,384" class="icon-ticket"/><glyph unicode="&#x0058;" d="M1024,765.135C1024,765.135,393.939,90.5,393.939,90.5C393.939,90.5,393.818,90.62,393.818,90.62C393.818,90.62,393.818,90.5,393.818,90.5C393.818,90.5,0,512.147,0,512.147C0,512.147,157.515,680.806,157.515,680.806C157.515,680.806,393.818,427.818,393.818,427.818C393.818,427.818,866.485,933.794,866.485,933.794C866.485,933.794,1024,765.135,1024,765.135" class="icon-true"/><glyph unicode="&#x0059;" d="M850.56,46.144C850.56,46.144,173.44,46.144,173.44,46.144C173.44,46.144,173.44,200.96,173.44,200.96C173.44,262.784,222.976,313.152,283.904,313.152C284.736,313.152,321.344,314.048,350.208,327.36C350.208,327.36,471.616,151.808,471.616,151.808C480.896,138.496,496,130.496,512,130.496C512,130.496,512,130.496,512.064,130.496C528.064,130.496,543.168,138.496,552.448,151.808C552.448,151.808,673.856,327.296,673.856,327.296C706.816,313.152,739.2,313.152,740.032,313.152C800.96,313.152,850.56,262.784,850.56,200.96C850.56,200.96,850.56,46.144,850.56,46.144C850.56,46.144,850.56,46.144,850.56,46.144M455.552,459.584C473.536,452.928,492.48,449.408,512,449.408C531.392,449.408,550.336,452.864,568.448,459.456C576.768,415.488,600.896,377.152,634.56,350.72C634.56,350.72,515.264,178.304,515.264,178.304C514.496,177.216,513.408,176.64,512,176.64C510.656,176.64,509.568,177.216,508.8,178.304C508.8,178.304,389.504,350.784,389.504,350.784C423.168,377.216,447.232,415.552,455.552,459.584C455.552,459.584,455.552,459.584,455.552,459.584M348.288,694.08C376.96,720,399.616,752.256,414.4,788.096C416.576,785.984,418.944,784,421.44,782.144C436.672,770.56,454.784,764.48,473.856,764.48C473.856,764.48,628.736,764.48,628.736,764.48C650.624,764.48,669.504,751.168,677.888,732.032C677.888,731.904,677.888,731.712,677.888,731.584C677.888,601.408,603.456,495.552,512,495.552C472.256,495.552,433.6,516.224,403.328,553.728C373.76,590.4,354.432,639.872,348.288,694.08C348.288,694.08,348.288,694.08,348.288,694.08M423.104,952.512C431.424,954.944,440.128,956.416,449.152,956.8C452.48,956.992,455.744,957.888,458.688,959.424C481.664,971.712,506.048,977.92,531.072,977.92C624.064,977.92,699.648,893.504,699.648,789.76C699.648,786.624,699.584,783.552,699.456,780.48C681.408,799.04,656.384,810.624,628.672,810.624C628.672,810.624,473.856,810.624,473.856,810.624C464.64,810.624,455.936,813.504,448.576,819.072C442.304,823.808,437.504,830.208,434.624,837.504C430.144,848.832,419.072,855.936,407.04,855.168C395.008,854.336,384.832,845.888,381.824,833.984C372.864,798.976,354.944,766.784,330.432,740.608C307.584,836.032,348.8,930.752,423.104,952.512C423.104,952.512,423.104,952.512,423.104,952.512M745.408,359.104C744.576,359.168,628.48,355.712,611.2,482.048C630.4,495.616,648.064,513.28,663.616,534.656C693.952,576.32,713.472,628.544,720.448,685.056C722.816,687.232,724.8,689.984,726.144,693.184C738.688,723.584,745.088,756.096,745.088,789.76C745.088,918.912,649.088,1024,531.072,1024C500.224,1024,470.272,1016.832,441.984,1002.56C431.232,1001.728,420.608,999.808,410.496,996.8C362.048,982.592,322.56,946.112,299.456,894.144C276.928,843.584,272.512,784.128,286.976,726.72C290.048,714.56,293.888,702.656,298.496,691.264C299.712,688.128,301.568,685.504,303.808,683.392C315.072,595.2,356.416,522.112,412.8,482.176C395.456,355.648,279.36,359.168,278.592,359.104C195.072,356.224,128,286.4,128,200.96C128,200.96,128,23.104,128,23.104C128,10.368,138.176,0,150.72,0C150.72,0,873.28,0,873.28,0C885.824,0,896,10.368,896,23.104C896,23.104,896,200.96,896,200.96C896,286.4,828.928,356.224,745.408,359.104C745.408,359.104,745.408,359.104,745.408,359.104C745.408,359.104,745.408,359.104,745.408,359.104" class="icon-user"/><glyph unicode="&#x005a;" d="M810.052,301.488C797.73,266.569,748.681,237.658,709.564,229.227C682.769,223.527,647.851,219.022,530.193,267.798C398.063,322.548,214.528,517.552,214.528,647.361C214.562,713.409,252.655,790.345,319.249,790.345C351.3,790.345,358.366,789.731,368.913,764.438C381.269,734.606,411.375,661.185,414.959,653.641C429.739,622.751,399.906,604.694,378.231,577.797C371.302,569.707,363.486,560.935,372.258,545.882C380.928,531.137,411.034,482.087,455.27,442.697C512.41,391.77,558.763,375.557,575.351,368.628C587.674,363.508,602.419,364.703,611.43,374.328C622.865,386.65,637.03,407.13,651.469,427.337C661.675,441.776,674.611,443.551,688.196,438.431C697.378,435.256,813.841,381.189,818.756,372.519C822.374,366.239,822.374,336.406,810.052,301.488M512.102,1024.5C512.102,1024.5,511.863,1024.5,511.863,1024.5C511.863,1024.5,511.863,1024.5,511.863,1024.5C229.581,1024.5,0,794.851,0,512.5C0,400.543,36.113,296.675,97.485,212.434C97.485,212.434,33.69,22.175,33.69,22.175C33.69,22.175,230.468,85.048,230.468,85.048C311.398,31.493,408.03,0.5,512.102,0.5C794.385,0.5,1024,230.149,1024,512.5C1024,794.851,794.385,1024.5,512.102,1024.5" class="icon-whatsapp"/><glyph unicode="&#x0061;" d="M384,224C384,224,291.556,245.333,291.556,245.333C291.556,245.333,327.111,387.556,327.111,387.556C277.333,408.889,227.556,437.333,177.778,472.889C177.778,472.889,78.222,373.333,78.222,373.333C78.222,373.333,7.111,437.333,7.111,437.333C7.111,437.333,113.778,544,113.778,544C56.889,608,14.222,693.333,0,785.778C0,785.778,92.444,800,92.444,800C128,600.889,305.778,451.556,512,451.556C718.222,451.556,896,600.889,931.556,800C931.556,800,1024,785.778,1024,785.778C1009.778,693.333,967.111,608,910.222,544C910.222,544,1009.778,444.444,1009.778,444.444C1009.778,444.444,945.778,380.444,945.778,380.444C945.778,380.444,846.222,472.889,846.222,472.889C803.556,437.333,746.667,401.778,689.778,387.556C689.778,387.556,725.333,245.333,725.333,245.333C725.333,245.333,632.889,224,632.889,224C632.889,224,597.333,366.222,597.333,366.222C540.444,359.111,476.444,359.111,419.556,366.222C419.556,366.222,384,224,384,224C384,224,384,224,384,224C384,224,384,224,384,224" class="icon-eye-close"/><glyph unicode="&#x0062;" d="M512,725.5C391.111,725.5,298.667,633.056,298.667,512.167C298.667,391.278,391.111,298.833,512,298.833C632.889,298.833,725.333,391.278,725.333,512.167C725.333,633.056,632.889,725.5,512,725.5C512,725.5,512,725.5,512,725.5M512,391.278C448,391.278,391.111,448.167,391.111,512.167C391.111,576.167,448,633.056,512,633.056C576,633.056,632.889,576.167,632.889,512.167C632.889,448.167,576,391.278,512,391.278C512,391.278,512,391.278,512,391.278M512,938.833C256,938.833,42.667,753.944,0,512.167C42.667,270.389,256,85.5,512,85.5C768,85.5,981.333,270.389,1024,512.167C981.333,753.944,768,938.833,512,938.833C512,938.833,512,938.833,512,938.833M512,177.944C312.889,177.944,142.222,313.056,92.444,512.167C142.222,704.167,312.889,846.389,512,846.389C711.111,846.389,881.778,711.278,931.556,512.167C881.778,320.167,711.111,177.944,512,177.944C512,177.944,512,177.944,512,177.944" class="icon-eye"/></font>
</defs>
</svg>
