<svg height="512pt" viewBox="-26 0 512 512" width="512pt" xmlns="http://www.w3.org/2000/svg"><path d="m229.777344 307.15625c8.28125 0 15.023437-6.742188 15.023437-15.023438 0-8.285156-6.742187-15.027343-15.023437-15.027343-8.285156 0-15.023438 6.742187-15.023438 15.027343 0 8.28125 6.738282 15.023438 15.023438 15.023438zm0 0"/><path d="m244.777344 249.6875c12.777344 4.527344 22.914062 14.667969 27.445312 27.445312h86.550782c-6.890626-59.648437-54.351563-107.105468-113.996094-114zm0 0"/><path d="m272.222656 307.132812c-6.195312 17.46875-22.878906 30.023438-42.445312 30.023438-24.828125 0-45.023438-20.199219-45.023438-45.023438 0-19.570312 12.550782-36.253906 30.023438-42.445312v-86.554688c-64.570313 7.460938-114.871094 62.460938-114.871094 129 0 71.609376 58.261719 129.867188 129.871094 129.867188 66.535156 0 121.535156-50.300781 128.996094-114.867188zm0 0"/><path d="m417.101562 126.019531 21.238282 21.238281 21.210937-21.210937-63.691406-63.691406-21.210937 21.210937 21.238281 21.242188-21.609375 21.609375c-27.328125-23.898438-59.640625-40.390625-94.472656-48.457031v-47.960938h30.035156v-30h-160.128906v30h30.035156v47.960938c-34.832032 8.066406-67.144532 24.558593-94.472656 48.457031l-21.609376-21.609375 21.238282-21.238282-21.210938-21.214843-63.691406 63.691406 21.214844 21.210937 21.238281-21.238281 21.609375 21.609375c-35.023438 40.046875-54.15625 90.800782-54.15625 144.503906 0 58.726563 22.871094 113.941407 64.398438 155.46875 41.53125 41.527344 96.742187 64.398438 155.472656 64.398438 58.726562 0 113.941406-22.871094 155.46875-64.398438 41.527344-41.527343 64.398437-96.742187 64.398437-155.46875 0-53.703124-19.132812-104.457031-54.15625-144.503906zm-187.324218 325.980469c-88.152344 0-159.871094-71.71875-159.871094-159.867188 0-88.152343 71.71875-159.871093 159.871094-159.871093 88.148437 0 159.867187 71.71875 159.867187 159.871093 0 88.148438-71.71875 159.867188-159.867187 159.867188zm0 0"/></svg>