<?xml version="1.0" encoding="utf-8"?>
<!-- Generator: Adobe Illustrator 23.0.0, SVG Export Plug-In . SVG Version: 6.00 Build 0)  -->
<svg version="1.1" id="Layer_1" xmlns="http://www.w3.org/2000/svg" xmlns:xlink="http://www.w3.org/1999/xlink" x="0px" y="0px"
	 viewBox="0 0 8.7 15" style="enable-background:new 0 0 8.7 15;" xml:space="preserve">
<style type="text/css">
	.st0{fill:#878B94;}
</style>
<g id="angle-arrow-down" transform="translate(0 -59.382)">
	<path id="Path_380" class="st0" d="M0.9,59.5l-0.8,0.8c-0.2,0.2-0.2,0.5,0,0.7c0,0,0,0,0,0l5.9,5.9l-5.9,5.9
		c-0.2,0.2-0.2,0.5,0,0.7c0,0,0,0,0,0l0.8,0.8c0.2,0.2,0.5,0.2,0.7,0c0,0,0,0,0,0l7-7c0.2-0.2,0.2-0.5,0-0.7c0,0,0,0,0,0l-7-7
		C1.4,59.3,1.1,59.3,0.9,59.5C0.9,59.5,0.9,59.5,0.9,59.5L0.9,59.5z"/>
</g>
</svg>
