<svg xmlns="http://www.w3.org/2000/svg" width="7.032" height="17" viewBox="0 0 7.032 17">
  <g id="attach" transform="translate(-7.18 1)">
    <g id="Group_120" data-name="Group 120" transform="translate(7.18 0)">
      <path id="Path_69" data-name="Path 69" d="M10.627,0C8.963,0,7.174.873,7.18,2.774h0l.05,12.34A1.733,1.733,0,0,0,8.389,16.67h0a4.22,4.22,0,0,0,3.29-.008h0A1.726,1.726,0,0,0,12.826,15.1h0l-.039-9.228a1.469,1.469,0,0,0-.956-1.324h0a2.981,2.981,0,0,0-2.356,0h0a1.356,1.356,0,0,0-.883,1.225h0l.03,7.783a.448.448,0,0,0,.492.387h0a.446.446,0,0,0,.487-.39h0l-.03-7.784a.589.589,0,0,1,.4-.549h0a1.8,1.8,0,0,1,1.376,0h0a.691.691,0,0,1,.464.651h0l.036,9.228a.959.959,0,0,1-.659.887h0a3.054,3.054,0,0,1-2.31,0h0a.966.966,0,0,1-.668-.883h0L8.159,2.769C8.154,1.4,9.4.779,10.63.776h0c1.231,0,2.561.617,2.564,1.982h0l.039,9.451a.449.449,0,0,0,.491.388h0a.446.446,0,0,0,.488-.391h0l-.037-9.451A2.456,2.456,0,0,0,13.052.691h0A4.314,4.314,0,0,0,10.627,0Z" transform="translate(-7.18 -1)" fill="#4c6baf"/>
    </g>
  </g>
</svg>
