<svg xmlns="http://www.w3.org/2000/svg" width="16" height="20" viewBox="0 0 16 20">
  <path id="notification_bell_1398_" data-name="notification_bell [#1398]" d="M8,20a3,3,0,0,1-3-3V16H1a1,1,0,1,1,0-2H2V8A5.935,5.935,0,0,1,3.513,3.856,5.979,5.979,0,0,1,7,2.079V0H9V2.079a5.981,5.981,0,0,1,3.487,1.777A5.935,5.935,0,0,1,14,8v6h1a1,1,0,0,1,0,2H11v1A3,3,0,0,1,8,20ZM7,16v1a1,1,0,0,0,2,0V16ZM8,4A4.115,4.115,0,0,0,5.25,5,3.878,3.878,0,0,0,4,8v6h8V8a3.878,3.878,0,0,0-1.25-3A4.116,4.116,0,0,0,8,4Z" fill="#878b94"/>
</svg>
