<svg xmlns="http://www.w3.org/2000/svg" width="20" height="19" viewBox="0 0 20 19">
  <path id="book_1207_" data-name="book [#1207]" d="M10,19a.976.976,0,0,1-.32-.054L1.36,16.062A2.049,2.049,0,0,1,0,14.116V2.056A2.029,2.029,0,0,1,2,0a1.957,1.957,0,0,1,.666.118L9.669,2.644a.974.974,0,0,0,.662,0L17.337.118A1.957,1.957,0,0,1,18,0a2.029,2.029,0,0,1,2,2.056v12.06a2.049,2.049,0,0,1-1.36,1.947l-8.32,2.884A.976.976,0,0,1,10,19ZM3,2.478A1.015,1.015,0,0,0,2,3.506v9.9a1.025,1.025,0,0,0,.676.971L9,16.6V4.533l-5.676-2A.969.969,0,0,0,3,2.478Zm14,0a.969.969,0,0,0-.326.057L11,4.533V16.6l6.324-2.225A1.025,1.025,0,0,0,18,13.407v-9.9A1.015,1.015,0,0,0,17,2.478Z" transform="translate(0 0)" fill="#4c6baf"/>
</svg>
