<svg xmlns="http://www.w3.org/2000/svg" width="20" height="20" viewBox="0 0 20 20">
  <path id="calendar_1322_" data-name="calendar [#1322]" d="M18.1,20H2.124a2.271,2.271,0,0,1-2.06-2.239L0,4A2,2,0,0,1,2,2h2V0h2V2h7.987V0h2V2c3.8,0,3.994.7,3.994,2.708,0,.37.01,4.332.019,7.827v.027c.007,2.7.013,5.03.013,5.2A2.069,2.069,0,0,1,18.1,20ZM2,10v7a1,1,0,0,0,1,1H16.973a1,1,0,0,0,1-1V10Zm.969-6A.971.971,0,0,0,2,4.971V8H17.97V5a1,1,0,0,0-1-1h-1V6h-2V4H5.99V6h-2V4Z" transform="translate(0)" fill="#181a1d"/>
</svg>
