<svg xmlns="http://www.w3.org/2000/svg" width="20" height="18.182" viewBox="0 0 20 18.182">
  <path id="camera_plus_946_" data-name="camera_plus [#946]" d="M3.636,18.182H1.818V16.364H0V14.546H1.818V12.728H3.636v1.818H5.455v1.818H3.636v1.817ZM20,16.364H16.364V14.546h1.818V5.455H3.636v5.454H1.818V3.636H6.364V0h9.091V3.636h1.818V1.818h1.818V3.636H20V16.363ZM8.182,1.818V3.636h5.454V1.818Zm2.727,14.091a3.636,3.636,0,1,1,3.637-3.636A3.64,3.64,0,0,1,10.909,15.909Zm0-5.454a1.818,1.818,0,1,0,1.819,1.818A1.82,1.82,0,0,0,10.909,10.455Z" fill="#fff"/>
</svg>
