<svg xmlns="http://www.w3.org/2000/svg" width="9.999" height="15" viewBox="0 0 9.999 15">
  <path id="tap_click_force_touch_1383_" data-name="tap_click_force_touch [#1383]" d="M8.006,15H3.874a.8.8,0,0,1-.7-.252l-1.845-3.3a.79.79,0,0,1,.1-1.036.864.864,0,0,1,1.286.108l.712.979V4.52A.841.841,0,0,1,4.276,3.7a.856.856,0,0,1,.858.821L5.14,8.666l3.69.327a1.59,1.59,0,0,1,1.136,1.831l-.284,2.958A1.615,1.615,0,0,1,8.006,15ZM7.691,6.164a.84.84,0,0,1-.854-.822V4.315A2.408,2.408,0,0,0,4.273,1.849,2.408,2.408,0,0,0,1.709,4.315V5.342a.84.84,0,0,1-.855.822A.84.84,0,0,1,0,5.342V4.315A4.2,4.2,0,0,1,1.335,1.079,4.373,4.373,0,0,1,4.273,0,4.373,4.373,0,0,1,7.211,1.079,4.2,4.2,0,0,1,8.546,4.315V5.342A.84.84,0,0,1,7.691,6.164Z" fill="#878b94"/>
</svg>
