<svg xmlns="http://www.w3.org/2000/svg" width="16" height="16" viewBox="0 0 16 16">
  <path id="comments" d="M13.955,16h0a2.132,2.132,0,0,1-.518-.065,13.348,13.348,0,0,0-3.021-.529,6.558,6.558,0,0,0-1.142.1,7.481,7.481,0,0,1-1.308.109A8.052,8.052,0,0,1,2.687,13.65,7.69,7.69,0,0,1,1.905,2.74a8.1,8.1,0,0,1,11.148-.953A7.709,7.709,0,0,1,15.668,9.8a5.54,5.54,0,0,0,.044,2.833l.222.855a1.968,1.968,0,0,1-.35,1.71A2.075,2.075,0,0,1,13.955,16Zm-3.54-2.194a16.628,16.628,0,0,1,3.537.594.416.416,0,0,0,.357-.133c.147-.194.04-.57-.073-.968-.024-.085-.05-.175-.073-.263a7.157,7.157,0,0,1-.04-3.654A6.123,6.123,0,0,0,12.04,3.019,6.512,6.512,0,0,0,3.105,3.8a6.088,6.088,0,0,0,.636,8.649,6.454,6.454,0,0,0,4.225,1.57,6.54,6.54,0,0,0,1.116-.1A7.668,7.668,0,0,1,10.415,13.806ZM11.9,9.552a1.6,1.6,0,1,1,1.6-1.6A1.6,1.6,0,0,1,11.9,9.552Zm-4,0a1.6,1.6,0,1,1,1.6-1.6A1.6,1.6,0,0,1,7.9,9.552Zm-4,0a1.6,1.6,0,1,1,1.6-1.6A1.6,1.6,0,0,1,3.9,9.552Z" transform="translate(0.001)" fill="#878b94"/>
</svg>
