<?xml version="1.0" encoding="utf-8"?>
<!-- Generator: Adobe Illustrator 23.0.0, SVG Export Plug-In . SVG Version: 6.00 Build 0)  -->
<svg version="1.1" id="Layer_1" xmlns="http://www.w3.org/2000/svg" xmlns:xlink="http://www.w3.org/1999/xlink" x="0px" y="0px"
	 viewBox="0 0 14 14" style="enable-background:new 0 0 14 14;" xml:space="preserve">
<style type="text/css">
	.st0{fill:#4C6BAF;}
</style>
<g>
	<path class="st0" d="M14,11.7V3.3C14.1,2,13.1,1,11.9,0.9c0,0,0,0,0,0l0,0h-1.8V0.5C10.1,0.2,9.9,0,9.6,0C9.4,0,9.2,0.2,9.2,0.4
		c0,0,0,0,0,0v0.5H4.8V0.5C4.8,0.2,4.6,0,4.4,0C4.2,0,3.9,0.2,3.9,0.4c0,0,0,0,0,0v0.5H2.2C0.9,1,0,2,0,3.2c0,0,0,0,0,0v8.4
		c-0.1,1.2,0.9,2.3,2.1,2.3c0,0,0,0,0,0h9.6C13,14,14,12.9,14,11.7C14,11.7,14,11.7,14,11.7z M11.8,13.1H2.2c-0.7,0-1.3-0.7-1.3-1.4
		V5.6h12.3l0,6.1C13.1,12.4,12.6,13,11.8,13.1z M13.1,4.7H0.9V3.3c0-0.7,0.6-1.4,1.3-1.4h1.8v0.5c0,0.2,0.2,0.4,0.4,0.5
		c0.2,0,0.4-0.2,0.5-0.4c0,0,0,0,0,0V1.9h4.4v0.5c0,0.2,0.2,0.4,0.4,0.5c0.2,0,0.4-0.2,0.5-0.4c0,0,0,0,0,0V1.9h1.8
		c0.7,0,1.3,0.7,1.3,1.4V4.7z"/>
	<path class="st0" d="M3.7,10.1c-0.3-0.4-0.9-0.4-1.2,0c0,0,0,0,0,0c-0.2,0.2-0.3,0.4-0.3,0.6c0,0.2,0.1,0.5,0.3,0.6
		c0.2,0.2,0.4,0.3,0.6,0.3c0.2,0,0.5-0.1,0.6-0.3C4.1,11,4.1,10.5,3.7,10.1C3.7,10.1,3.7,10.1,3.7,10.1z"/>
	<path class="st0" d="M3.7,7.3c-0.3-0.4-0.9-0.4-1.2,0c0,0,0,0,0,0c-0.4,0.4-0.3,0.9,0,1.3c0.2,0.2,0.4,0.3,0.6,0.3h0
		c0.2,0,0.5-0.1,0.6-0.3C4.1,8.2,4.1,7.7,3.7,7.3C3.7,7.3,3.7,7.3,3.7,7.3z"/>
	<path class="st0" d="M6.3,10.1c-0.3-0.4-0.9-0.4-1.2,0c0,0,0,0,0,0c-0.4,0.3-0.4,0.9,0,1.2c0,0,0,0,0,0c0.2,0.2,0.4,0.3,0.6,0.3
		c0.2,0,0.5-0.1,0.6-0.3C6.7,11,6.7,10.5,6.3,10.1C6.4,10.1,6.3,10.1,6.3,10.1z"/>
	<path class="st0" d="M6.3,7.3C6,6.9,5.4,6.9,5.1,7.3c0,0,0,0,0,0C4.7,7.6,4.7,8.2,5,8.5c0,0,0,0,0,0c0.2,0.2,0.4,0.3,0.6,0.3
		c0.2,0,0.5-0.1,0.6-0.3C6.7,8.2,6.7,7.7,6.3,7.3C6.4,7.3,6.3,7.3,6.3,7.3z"/>
	<path class="st0" d="M7.7,10.1C7.7,10.1,7.7,10.1,7.7,10.1c-0.4,0.4-0.4,0.9-0.1,1.3c0,0,0,0,0,0c0.2,0.2,0.4,0.3,0.6,0.3
		c0.5,0,0.9-0.4,0.9-0.9c0-0.2-0.1-0.5-0.3-0.7C8.6,9.8,8,9.7,7.7,10.1z"/>
	<path class="st0" d="M7.7,8.6c0.2,0.2,0.4,0.3,0.6,0.3c0.5,0,0.9-0.4,0.9-0.9c0-0.2-0.1-0.5-0.3-0.6C8.6,6.9,8,6.9,7.7,7.3
		c0,0,0,0,0,0C7.3,7.6,7.3,8.2,7.7,8.6C7.6,8.6,7.7,8.6,7.7,8.6z"/>
	<path class="st0" d="M11.6,10.1c-0.3-0.4-0.9-0.4-1.2,0c0,0,0,0,0,0c-0.2,0.2-0.3,0.4-0.3,0.6c0,0.2,0.1,0.5,0.3,0.6
		c0.2,0.2,0.4,0.3,0.6,0.3c0.2,0,0.5-0.1,0.6-0.3C11.9,11,11.9,10.5,11.6,10.1C11.6,10.1,11.6,10.1,11.6,10.1z"/>
	<path class="st0" d="M10.3,8.6c0.2,0.2,0.4,0.3,0.6,0.3c0.5,0,0.9-0.4,0.9-0.9c0-0.2-0.1-0.5-0.3-0.6c-0.3-0.4-0.9-0.4-1.2,0
		c0,0,0,0,0,0C9.9,7.6,9.9,8.2,10.3,8.6C10.3,8.6,10.3,8.6,10.3,8.6z"/>
</g>
</svg>
