<svg xmlns="http://www.w3.org/2000/svg" width="15.165" height="15" viewBox="0 0 15.165 15">
  <path id="desktop_232_" data-name="desktop [#232]" d="M11.364,15H3.785a.738.738,0,0,1-.747-.739.758.758,0,0,1,.747-.761H6.059a.758.758,0,0,0,.768-.739A.778.778,0,0,0,6.059,12H1.514A1.484,1.484,0,0,1,0,10.515l.005.015v-9L0,1.515A1.514,1.514,0,0,1,1.511,0H13.642l0,.015a1.518,1.518,0,0,1,1.518,1.513v9a1.5,1.5,0,0,1-1.518,1.485l0-.015H9.091a.753.753,0,0,0-.747.757v.007a.733.733,0,0,0,.747.735h2.274a.773.773,0,0,1,.768.757v.007A.753.753,0,0,1,11.364,15ZM2.279,1.5a.755.755,0,0,0-.758.75v7.5a.755.755,0,0,0,.758.751H12.891a.755.755,0,0,0,.758-.751V2.25a.755.755,0,0,0-.758-.75Z" fill="#4c6baf"/>
</svg>
