<?xml version="1.0" encoding="utf-8"?>
<!-- Generator: Adobe Illustrator 23.0.0, SVG Export Plug-In . SVG Version: 6.00 Build 0)  -->
<svg version="1.1" id="Layer_1" xmlns="http://www.w3.org/2000/svg" xmlns:xlink="http://www.w3.org/1999/xlink" x="0px" y="0px"
	 viewBox="0 0 11 20" style="enable-background:new 0 0 11 20;" xml:space="preserve">
<style type="text/css">
	.st0{fill:#4C6BAF;}
</style>
<g>
	<path class="st0" d="M5.5,6.5l1.7,1.7c0.1,0.1,0.1,0.2,0.1,0.4C7.3,8.8,7.1,9,6.8,9H4.7c-0.6,0-1,0.4-1,1s0.4,1,1,1h2.1
		c0.1,0,0.3,0.1,0.4,0.1c0.2,0.2,0.2,0.5,0,0.7l-1.7,1.7c-0.2,0.2-0.3,0.4-0.3,0.7c0,0.6,0.4,1,1,1c0.3,0,0.5-0.1,0.7-0.3l3.5-3.5
		l0,0c0.8-0.8,0.7-2,0-2.8L6.9,5c-0.4-0.4-1-0.4-1.4,0C5.1,5.4,5.1,6.1,5.5,6.5z"/>
	<path class="st0" d="M0,1v18c0,0.6,0.4,1,1,1c0.6,0,1-0.4,1-1V1c0-0.6-0.4-1-1-1C0.4,0,0,0.4,0,1z"/>
</g>
</svg>
