<?xml version="1.0" encoding="utf-8"?>
<!-- Generator: Adobe Illustrator 23.0.0, SVG Export Plug-In . SVG Version: 6.00 Build 0)  -->
<svg version="1.1" id="Layer_1" xmlns="http://www.w3.org/2000/svg" xmlns:xlink="http://www.w3.org/1999/xlink" x="0px" y="0px"
	 viewBox="0 0 20 11" style="enable-background:new 0 0 20 11;" xml:space="preserve">
<style type="text/css">
	.st0{fill:#4C6BAF;}
</style>
<g>
	<path class="st0" d="M6.5,5.5l1.7-1.7c0.1-0.1,0.2-0.1,0.4-0.1C8.8,3.7,9,3.9,9,4.2v2.1c0,0.6,0.4,1,1,1s1-0.4,1-1V4.2
		c0-0.1,0.1-0.3,0.1-0.4c0.2-0.2,0.5-0.2,0.7,0l1.7,1.7c0.2,0.2,0.4,0.3,0.7,0.3c0.6,0,1-0.4,1-1c0-0.3-0.1-0.5-0.3-0.7l-3.5-3.5
		l0,0c-0.8-0.8-2-0.7-2.8,0L5,4.1c-0.4,0.4-0.4,1,0,1.4C5.4,5.9,6.1,5.9,6.5,5.5z"/>
	<path class="st0" d="M1,11h18c0.6,0,1-0.4,1-1c0-0.6-0.4-1-1-1H1c-0.6,0-1,0.4-1,1C0,10.5,0.4,11,1,11z"/>
</g>
</svg>
