<?xml version="1.0" encoding="utf-8"?>
<!-- Generator: Adobe Illustrator 23.0.0, SVG Export Plug-In . SVG Version: 6.00 Build 0)  -->
<svg version="1.1" id="Layer_1" xmlns="http://www.w3.org/2000/svg" xmlns:xlink="http://www.w3.org/1999/xlink" x="0px" y="0px"
	 viewBox="0 0 20 11" style="enable-background:new 0 0 20 11;" xml:space="preserve">
<style type="text/css">
	.st0{fill:#4C6BAF;}
</style>
<g>
	<path class="st0" d="M13.5,5.5l-1.7,1.7c-0.1,0.1-0.2,0.1-0.4,0.1c-0.3,0-0.5-0.2-0.5-0.5V4.7c0-0.6-0.4-1-1-1s-1,0.4-1,1v2.1
		c0,0.1-0.1,0.3-0.1,0.4c-0.2,0.2-0.5,0.2-0.7,0L6.5,5.5C6.3,5.3,6,5.2,5.8,5.2c-0.6,0-1,0.4-1,1c0,0.3,0.1,0.5,0.3,0.7l3.5,3.5l0,0
		c0.8,0.8,2,0.7,2.8,0L15,6.9c0.4-0.4,0.4-1,0-1.4C14.6,5.1,13.9,5.1,13.5,5.5z"/>
	<path class="st0" d="M19,0H1C0.4,0,0,0.4,0,1c0,0.6,0.4,1,1,1h18c0.6,0,1-0.4,1-1C20,0.4,19.6,0,19,0z"/>
</g>
</svg>
