<svg xmlns="http://www.w3.org/2000/svg" width="16" height="16" viewBox="0 0 16 16">
  <path id="emoji_happy_circle_550_" data-name="emoji_happy_circle [#550]" d="M8,16a8,8,0,1,1,8-8A8.009,8.009,0,0,1,8,16ZM8,1.6A6.4,6.4,0,1,0,14.4,8,6.407,6.407,0,0,0,8,1.6Zm.05,11.608A3.934,3.934,0,0,1,4.077,9.879a.574.574,0,0,1,.116-.485.876.876,0,0,1,.68-.263h6.256a.842.842,0,0,1,.653.282.659.659,0,0,1,.142.549A3.843,3.843,0,0,1,10.5,12.4,4.03,4.03,0,0,1,8.05,13.208ZM11.2,8a1.6,1.6,0,1,1,1.6-1.6A1.6,1.6,0,0,1,11.2,8ZM4.8,8A1.6,1.6,0,1,1,6.4,6.4,1.6,1.6,0,0,1,4.8,8Z" fill="#878b94"/>
</svg>
