<?xml version="1.0" encoding="utf-8"?>
<!-- Generator: Adobe Illustrator 23.0.0, SVG Export Plug-In . SVG Version: 6.00 Build 0)  -->
<svg version="1.1" id="Layer_1" xmlns="http://www.w3.org/2000/svg" xmlns:xlink="http://www.w3.org/1999/xlink" x="0px" y="0px"
	 viewBox="0 0 17.1 17.2" style="enable-background:new 0 0 17.1 17.2;" xml:space="preserve">
<g>
	<path d="M16.1,5.4c1.3-1.3,1.2-3.3,0-4.5c-1.3-1.2-3.3-1.3-4.5,0c-0.5,0.5-1.5,2.3-2.5,3.7C8.7,5,8.4,5.5,8,5.9L6.7,4.7
		c-1-1-2.5-1-3.5,0L2.8,5C2,5.8,1.9,7.1,2.6,8L1.1,9.5c-0.2,0.2-0.2,0.6,0,0.9L6.7,16c0.2,0.2,0.6,0.2,0.9,0l1.5-1.5
		c1,0.6,2.2,0.5,3.1-0.3l0.4-0.4c0.9-1,0.9-2.4,0-3.3l-1.4-1.4c0.5-0.4,1.1-0.9,1.6-1.4C14.1,6.8,15.5,6,16.1,5.4z M7.2,14.3L2.9,10
		l0.5-0.5l4.3,4.3L7.2,14.3z M11.5,12.5l-0.7,0.7c-0.2,0.2-0.5,0.2-0.7,0L3.8,6.9c-0.2-0.2-0.2-0.5,0-0.7l0.7-0.7
		c0.2-0.2,0.5-0.2,0.7,0l6.3,6.2C11.7,12,11.7,12.3,11.5,12.5z M10.1,8C9.9,7.8,9.6,7.5,9.2,7.1L9.1,7c0,0-0.1-0.1-0.1-0.1
		c0.4-0.5,0.8-0.9,1-1.3l0.1-0.1c0.6-0.7,1-1.4,1.4-2.1c0.4-0.5,0.8-1.3,1-1.4c0.7-0.7,1.8-0.7,2.5,0c0.4,0.4,0.6,0.8,0.6,1.3
		S15.4,4.1,15,4.4c-0.3,0.3-0.8,0.7-1.5,1.1c-0.5,0.4-1.1,0.6-1.6,1.1S10.6,7.5,10.1,8z"/>
	<path d="M5.8,15.7H0.7C0.3,15.7,0,16,0,16.4c0,0.4,0.3,0.7,0.7,0.7h5.1c0.4,0,0.7-0.3,0.7-0.7C6.5,16,6.2,15.7,5.8,15.7z"/>
</g>
</svg>
