<?xml version="1.0" encoding="utf-8"?>
<!-- Generator: Adobe Illustrator 23.0.0, SVG Export Plug-In . SVG Version: 6.00 Build 0)  -->
<svg version="1.1" id="Layer_1" xmlns="http://www.w3.org/2000/svg" xmlns:xlink="http://www.w3.org/1999/xlink" x="0px" y="0px"
	 viewBox="0 0 16 12" style="enable-background:new 0 0 16 12;" xml:space="preserve">
<style type="text/css">
	.st0{fill:#878B94;}
</style>
<g>
	<path class="st0" d="M7.5,7.2c0.3,0.3,0.7,0.3,0.9,0c0,0,0,0,0,0c1.1-1,5-4.3,7.2-6.2c0.1-0.1,0.2-0.3,0-0.5
		c-0.2-0.3-0.6-0.5-1-0.5H1.3c-0.4,0-0.8,0.2-1,0.5C0.2,0.7,0.2,0.9,0.3,1C2.5,2.9,6.4,6.2,7.5,7.2z"/>
	<path class="st0" d="M15.8,2c-0.1-0.1-0.3,0-0.4,0c-1.5,1.2-3.4,2.8-4.8,4c-0.1,0.1-0.2,0.3,0,0.5c0,0,0,0,0,0
		c1.3,1.1,3.4,2.5,4.8,3.6c0.1,0.1,0.2,0.1,0.4,0C15.9,10.1,16,10,16,9.9V2.3C16,2.2,15.9,2.1,15.8,2z"/>
	<path class="st0" d="M0.5,10.2L0.5,10.2C2,9.1,4,7.7,5.3,6.6c0.1-0.1,0.2-0.3,0.1-0.5c0,0,0,0,0,0C3.9,4.9,2,3.3,0.6,2
		C0.5,2,0.3,1.9,0.2,2C0.1,2.1,0,2.2,0,2.3v7.6c0,0.1,0.1,0.2,0.2,0.3C0.3,10.2,0.4,10.2,0.5,10.2z"/>
	<path class="st0" d="M15.6,11.1L15.6,11.1c-1.4-1-4-2.9-5.5-4.1c-0.1-0.1-0.3-0.1-0.4,0C9.4,7.2,9.1,7.4,8.9,7.6
		c-0.5,0.5-1.3,0.5-1.9,0C6.9,7.4,6.6,7.2,6.3,6.9C6.2,6.8,6,6.8,5.9,6.9c-1.5,1.3-4.1,3.1-5.5,4.1c-0.2,0.1-0.2,0.3-0.1,0.5
		c0,0,0,0,0,0C0.6,11.8,1,12,1.3,12h13.3c0.4,0,0.7-0.2,1-0.4C15.8,11.4,15.8,11.2,15.6,11.1C15.6,11.1,15.6,11.1,15.6,11.1z"/>
</g>
</svg>
