<svg xmlns="http://www.w3.org/2000/svg" viewBox="0 0 20 20"><title>Asset 2</title><g id="Layer_2" data-name="Layer 2"><g id="Design"><path id="view_close" d="M20,10.22a11.54,11.54,0,0,0-20,0,11.54,11.54,0,0,0,20,0ZM10,14a9.58,9.58,0,0,1-7.6-3.78,9.53,9.53,0,0,1,15.2,0A9.57,9.57,0,0,1,10,14Zm2-3.78a2,2,0,1,1-2-2A2,2,0,0,1,12,10.22Zm5-5.81a13.79,13.79,0,0,0-1.88-1L18.29.29a1,1,0,1,1,1.42,1.42ZM.3,1.71A1,1,0,0,1,1.71.3L4.88,3.46A13.31,13.31,0,0,0,3,4.42ZM2.72,15.86a13.15,13.15,0,0,0,1.85,1L1.71,19.71A1,1,0,0,1,.29,18.29Zm17,2.44a1,1,0,1,1-1.41,1.41l-2.86-2.86a13,13,0,0,0,1.84-1Z"/></g></g></svg>