<svg xmlns="http://www.w3.org/2000/svg" width="14" height="8" viewBox="0 0 14 8">
  <path id="eye" d="M13.82,101.868c-.123-.144-3.062-3.514-6.818-3.514s-6.7,3.37-6.819,3.514a.742.742,0,0,0,0,.972c.123.144,3.062,3.514,6.819,3.514s6.7-3.37,6.819-3.514A.742.742,0,0,0,13.82,101.868Zm-5.671-1.489a.624.624,0,0,1,.787.35.612.612,0,0,1-.128.845.624.624,0,0,1-.787-.35A.612.612,0,0,1,8.149,100.379ZM7,105.133c-2.624,0-4.833-2-5.6-2.779A10.5,10.5,0,0,1,4.613,100.1a2.8,2.8,0,0,0-.469,1.552,2.858,2.858,0,0,0,5.716,0,2.8,2.8,0,0,0-.469-1.552,10.5,10.5,0,0,1,3.208,2.257C11.834,103.137,9.626,105.133,7,105.133Z" transform="translate(-0.002 -98.354)" fill="#878b94"/>
</svg>
