<svg xmlns="http://www.w3.org/2000/svg" width="16" height="11" viewBox="0 0 16 11">
  <path id="settings_1389_" data-name="settings [#1389]" d="M4,11A2.589,2.589,0,0,1,1.747,9.428H0V7.857H1.747A2.589,2.589,0,0,1,4,6.286,2.358,2.358,0,1,1,4,11ZM16,9.428H7.853A2.278,2.278,0,0,0,8,8.642c0-.27-.057-.786-.147-.786H16v1.57ZM12,4.714A2.382,2.382,0,0,1,9.6,2.357,2.382,2.382,0,0,1,12,0a2.588,2.588,0,0,1,2.253,1.571H16V3.142H14.253A2.589,2.589,0,0,1,12,4.714ZM8.138,3.143H0V1.571H8.147c-.091,0-.147.51-.147.786,0,.248.049.75.139.784Z" fill="#878b94"/>
</svg>
