<?xml version="1.0" encoding="utf-8"?>
<!-- Generator: Adobe Illustrator 23.0.0, SVG Export Plug-In . SVG Version: 6.00 Build 0)  -->
<svg version="1.1" id="Layer_1" xmlns="http://www.w3.org/2000/svg" xmlns:xlink="http://www.w3.org/1999/xlink" x="0px" y="0px"
	 viewBox="0 0 24 18.9" style="enable-background:new 0 0 24 18.9;" xml:space="preserve">
<g>
	<path d="M23.6,0H0.4C0.2,0,0,0.2,0,0.4v18.2c0,0.2,0.2,0.4,0.4,0.4h23.2c0.2,0,0.4-0.2,0.4-0.4V0.4C24,0.2,23.8,0,23.6,0z
		 M16.3,10.5l-3.6,3.2L8,8c0,0-0.1-0.1-0.1-0.1c0,0-0.1,0-0.1,0.1l-5.5,7.4v-13h19.4v13.6l-5.2-5.4C16.4,10.4,16.3,10.4,16.3,10.5z"
		/>
	<path d="M16,4c-1,0-1.9,0.8-1.9,1.9c0,0,0,0,0,0c0,1,0.8,1.9,1.9,1.9c1,0,1.9-0.8,1.9-1.9S17,4,16,4z"/>
</g>
</svg>
