<svg id="grid-world" xmlns="http://www.w3.org/2000/svg" width="14" height="14" viewBox="0 0 14 14">
  <path id="Path_67" data-name="Path 67" d="M13.983,6.533A7,7,0,0,0,7.467.016V0H6.533V.016A7,7,0,0,0,.016,6.533H0v.933H.016a7,7,0,0,0,6.517,6.517V14h.933v-.017a7,7,0,0,0,6.517-6.517H14V6.533Zm-9.6-5.007a7.42,7.42,0,0,0-1.1,2.207h-1.4A6.1,6.1,0,0,1,4.382,1.526ZM1.4,4.667H3.039a11.084,11.084,0,0,0-.23,1.867H.951A6.014,6.014,0,0,1,1.4,4.667Zm-.447,2.8H2.809a11.084,11.084,0,0,0,.23,1.867H1.4A6.014,6.014,0,0,1,.951,7.467Zm.935,2.8h1.4a7.4,7.4,0,0,0,1.1,2.207A6.092,6.092,0,0,1,1.886,10.267Zm4.647,2.74a3.947,3.947,0,0,1-2.287-2.74H6.533Zm0-3.674H3.984a10.431,10.431,0,0,1-.242-1.867H6.533Zm0-2.8H3.743a10.431,10.431,0,0,1,.242-1.867H6.533Zm0-2.8H4.247A3.944,3.944,0,0,1,6.533.994Zm5.58,0h-1.4a7.4,7.4,0,0,0-1.1-2.207A6.1,6.1,0,0,1,12.114,3.733ZM7.467.994A3.946,3.946,0,0,1,9.753,3.733H7.467Zm0,3.673h2.548a10.515,10.515,0,0,1,.243,1.867H7.467Zm0,2.8h2.791a10.346,10.346,0,0,1-.243,1.867H7.467Zm0,5.54v-2.74H9.753A3.95,3.95,0,0,1,7.467,13.007Zm2.151-.533a7.456,7.456,0,0,0,1.1-2.207h1.4A6.1,6.1,0,0,1,9.618,12.474ZM12.6,9.333H10.961a11.084,11.084,0,0,0,.23-1.867h1.857A5.987,5.987,0,0,1,12.6,9.333Zm-1.411-2.8a11.084,11.084,0,0,0-.23-1.867H12.6a6.014,6.014,0,0,1,.447,1.867Z" fill="#878b94"/>
</svg>
