<?xml version="1.0" encoding="utf-8"?>
<!-- Generator: Adobe Illustrator 23.0.0, SVG Export Plug-In . SVG Version: 6.00 Build 0)  -->
<svg version="1.1" id="Layer_1" xmlns="http://www.w3.org/2000/svg" xmlns:xlink="http://www.w3.org/1999/xlink" x="0px" y="0px"
	 viewBox="0 0 14 11" style="enable-background:new 0 0 14 11;" xml:space="preserve">
<style type="text/css">
	.st0{fill:#878B94;}
</style>
<path class="st0" d="M13.9,8C13,7.4,12,7.1,11,7V5c0.2-0.2,0-0.7,0-1V2c-0.1-1.1-0.9-1.9-2-2C7.9,0.1,7.1,0.9,7,2v2
	c0,0.3-0.2,0.8,0,1v1C6.4,5.6,5.2,6.1,5.1,6V4c0.2-0.1,1-0.7,1-1V2c-0.2-1-1-1.8-2-2c-1,0.2-1.8,1-2,2v1c0,0.3,0.8,0.9,1,1v2
	C2,6.1,1,6.4,0.1,7c-0.2,0.2,0,0.8,0,1v1h4v2h9.8V9C13.9,8.7,14.1,8.2,13.9,8z"/>
</svg>
