<svg xmlns="http://www.w3.org/2000/svg" width="14" height="20" viewBox="0 0 14 20">
  <path id="lock_open_704_" data-name="lock_open [#704]" d="M11,20H3a3,3,0,0,1-3-3V9A3,3,0,0,1,3,6V4.288a4.562,4.562,0,0,1,.749-2.5A3.948,3.948,0,0,1,5.78.2,3.813,3.813,0,0,1,7,0a4.15,4.15,0,0,1,3.749,2.687.93.93,0,0,1-.109.871A1.014,1.014,0,0,1,9.8,4a.949.949,0,0,1-.911-.6A2.066,2.066,0,0,0,7,2a1.954,1.954,0,0,0-.867.209A2.127,2.127,0,0,0,5,4.132V6h6a3,3,0,0,1,3,3v8A3,3,0,0,1,11,20ZM3,8A1,1,0,0,0,2,9v8a1,1,0,0,0,1,1h8a1,1,0,0,0,1-1V9a1,1,0,0,0-1-1Zm4,8a3,3,0,1,1,3-3A3,3,0,0,1,7,16Zm0-4a1,1,0,1,0,1,1A1,1,0,0,0,7,12Z" transform="translate(0 0)" fill="#4c6baf"/>
</svg>
