<svg xmlns="http://www.w3.org/2000/svg" width="10.669" height="15.488" viewBox="0 0 10.669 15.488">
  <g id="_003-facebook-placeholder-for-locate-places-on-maps" data-name="003-facebook-placeholder-for-locate-places-on-maps" transform="translate(-66.905)">
    <path id="Facebook_Places" d="M77.322,3.855a4.823,4.823,0,0,0-.25-.62A5.306,5.306,0,0,0,66.9,4.8v.661c0,.028.01.275.023.4.193,1.542,1.409,3.18,2.318,4.722.977,1.652,1.992,3.277,3,4.9.62-1.06,1.237-2.134,1.843-3.166.165-.3.357-.606.522-.9.11-.193.32-.385.417-.564.977-1.79,2.551-3.593,2.551-5.369v-.73A5.5,5.5,0,0,0,77.322,3.855ZM72.211,7.173A1.894,1.894,0,0,1,70.4,5.879a1.8,1.8,0,0,1-.051-.482V4.97A1.793,1.793,0,0,1,72.27,3.208,1.95,1.95,0,0,1,74.223,5.19,2,2,0,0,1,72.211,7.173Z" fill="#4c6baf"/>
  </g>
</svg>
