<?xml version="1.0" encoding="utf-8"?>
<!-- Generator: Adobe Illustrator 23.0.0, SVG Export Plug-In . SVG Version: 6.00 Build 0)  -->
<svg version="1.1" id="medical-insurance" xmlns="http://www.w3.org/2000/svg" xmlns:xlink="http://www.w3.org/1999/xlink" x="0px"
	 y="0px" viewBox="0 0 30 34" style="enable-background:new 0 0 30 34;" xml:space="preserve">
<style type="text/css">
	.st0{fill:#4C6BAF;}
</style>
<g>
	<path class="st0" d="M27.3,4.7c-4.5,0-8.8-1.6-12.2-4.6L15,0l-0.1,0.1C11.6,3,7.2,4.7,2.7,4.7H0v7.2c0,9.4,5.5,17.9,14,21.7l1,0.4
		l1-0.4c8.5-3.9,14-12.4,14-21.7V4.7H27.3z M18.2,20.1v3.7h-6.5v-3.7H8v-6.4h3.7V10h6.5v3.7H22l0,6.4H18.2z"/>
	<polygon class="st0" points="15.9,13.1 14.1,13.1 14.1,15.9 11.2,15.9 11.2,17.8 14.1,17.8 14.1,20.6 15.9,20.6 15.9,17.8 
		18.8,17.8 18.8,15.9 15.9,15.9 	"/>
</g>
</svg>
