<svg xmlns="http://www.w3.org/2000/svg" width="12" height="12" viewBox="0 0 12 12">
  <path id="messages_chat_1557_" data-name="messages_chat [#1557]" d="M11.668,12a.4.4,0,0,1-.1-.012,11.324,11.324,0,0,0-2.711-.413,6.887,6.887,0,0,0-.944.07l-.057.007a5.577,5.577,0,0,1-.752.063,4.464,4.464,0,0,1-1.168-.173,4.7,4.7,0,0,1-1.715-.874,5.921,5.921,0,0,0,.718.044A5.735,5.735,0,0,0,9.274,8.72a6.044,6.044,0,0,0,1.389-4.828,4.522,4.522,0,0,1,1.179,2.175,3.961,3.961,0,0,1-.028,2.076,6.084,6.084,0,0,0,.177,3.476.281.281,0,0,1-.051.248A.349.349,0,0,1,11.668,12ZM.306,9.571h0A.326.326,0,0,1,0,9.237,12.282,12.282,0,0,0,.442,6.592a7.188,7.188,0,0,0-.079-.955A4.873,4.873,0,0,1,.456,3.491,4.637,4.637,0,0,1,4.933,0,4.465,4.465,0,0,1,7.907,1.131,4.731,4.731,0,0,1,9.215,6.457a4.93,4.93,0,0,1-1.6,2.187A4.256,4.256,0,0,1,5,9.538a4.831,4.831,0,0,1-1.263-.173A4.768,4.768,0,0,0,2.493,9.2a7.235,7.235,0,0,0-1.926.311l-.189.05A.291.291,0,0,1,.306,9.571Z" fill="#fff"/>
</svg>
