<svg xmlns="http://www.w3.org/2000/svg" width="39.838" height="34.859" viewBox="0 0 39.838 34.859">
  <g id="movie-symbol-of-video-camera" transform="translate(0)">
    <g id="_x33__13_" transform="translate(0 0)">
      <g id="Group_301" data-name="Group 301">
        <path id="Path_383" data-name="Path 383" d="M37.349,53.189l-7.47,4.98a4.947,4.947,0,0,0-1.75-3.762,8.7,8.7,0,1,0-10.561-1.218H13A7.459,7.459,0,1,0,0,48.21a7.421,7.421,0,0,0,2.592,5.615A4.96,4.96,0,0,0,0,58.169v9.96a4.98,4.98,0,0,0,4.98,4.98H24.9a4.98,4.98,0,0,0,4.98-4.98l7.47,4.98a2.489,2.489,0,0,0,2.49-2.49V55.679A2.489,2.489,0,0,0,37.349,53.189Zm-29.879,0a4.98,4.98,0,1,1,4.98-4.98A4.98,4.98,0,0,1,7.47,53.189Zm16.184.014a6.238,6.238,0,1,1,6.238-6.238A6.238,6.238,0,0,1,23.654,53.2Z" transform="translate(0 -38.25)" fill="#878b94"/>
      </g>
    </g>
  </g>
</svg>
