<svg id="noun_bbq_645436" xmlns="http://www.w3.org/2000/svg" width="30" height="36" viewBox="0 0 30 36">
  <g id="Group_192" data-name="Group 192">
    <g id="Group_191" data-name="Group 191">
      <path id="Path_261" data-name="Path 261" d="M40.286,24.424H38.106c.014-.237.036-.472.036-.712A.713.713,0,0,0,37.429,23H14.571a.713.713,0,0,0-.714.712c0,.24.022.475.036.712H11.714a.712.712,0,1,0,0,1.424h2.344a12.135,12.135,0,0,0,7.649,9.171L18.175,46.282a.711.711,0,0,0,.469.891.721.721,0,0,0,.214.033.713.713,0,0,0,.681-.5l2.081-6.638a.848.848,0,0,0,.094.019H31.2l.164.491a3.549,3.549,0,1,0,1.779-.491,3.469,3.469,0,0,0-.424.043l-1.756-5.251a.774.774,0,0,0-.059-.1,12.138,12.138,0,0,0,7.039-8.927h2.344a.712.712,0,1,0,0-1.424Zm-10.677,10.9,1.115,3.335H22.061l1.009-3.219a12,12,0,0,0,6.531-.173C29.606,35.291,29.6,35.31,29.609,35.328Z" transform="translate(-11 -11.206)" fill="#4c6baf"/>
      <path id="Path_262" data-name="Path 262" d="M22.457,14.371a.737.737,0,0,0,.737-.737,4.083,4.083,0,0,1,.827-2.551,5.5,5.5,0,0,0,1.06-3.346.737.737,0,0,0-1.474,0,4.083,4.083,0,0,1-.827,2.551,5.5,5.5,0,0,0-1.06,3.346A.737.737,0,0,0,22.457,14.371Z" transform="translate(-14.093 -7)" fill="#4c6baf"/>
      <path id="Path_263" data-name="Path 263" d="M30.457,14.371a.737.737,0,0,0,.737-.737,4.083,4.083,0,0,1,.827-2.551,5.491,5.491,0,0,0,1.06-3.346.737.737,0,1,0-1.474,0,4.083,4.083,0,0,1-.827,2.551,5.5,5.5,0,0,0-1.06,3.346A.737.737,0,0,0,30.457,14.371Z" transform="translate(-16.401 -7)" fill="#4c6baf"/>
      <path id="Path_264" data-name="Path 264" d="M38.457,14.371a.737.737,0,0,0,.737-.737,4.088,4.088,0,0,1,.827-2.551,5.491,5.491,0,0,0,1.06-3.346.737.737,0,1,0-1.474,0,4.088,4.088,0,0,1-.827,2.551,5.491,5.491,0,0,0-1.06,3.346A.737.737,0,0,0,38.457,14.371Z" transform="translate(-18.709 -7)" fill="#4c6baf"/>
    </g>
  </g>
</svg>
