<svg xmlns="http://www.w3.org/2000/svg" width="15" height="15" viewBox="0 0 15 15">
  <path id="phone" d="M14.73,13c-.463,1.407-2.277,2.109-3.573,1.992A11.4,11.4,0,0,1,6,12.855,16.989,16.989,0,0,1,.664,6.489,5.342,5.342,0,0,1,.882.951,2.119,2.119,0,0,1,2.572,0C3.6-.047,3.744.541,4.1,1.457c.263.685.614,1.384.81,2.094.367,1.325-.916,1.38-1.078,2.463-.1.683.727,1.6,1.1,2.086a10.1,10.1,0,0,0,2.608,2.4c.569.359,1.488,1.006,2.14.649,1-.55.909-2.243,2.313-1.67a22.59,22.59,0,0,1,2.125,1.1c1.073.577,1.023,1.175.614,2.417h0" fill="#878b94"/>
</svg>
