<svg xmlns="http://www.w3.org/2000/svg" width="20" height="20" viewBox="0 0 20 20">
  <g id="Settings" transform="translate(-5 -5.167)">
    <path id="Path_62" data-name="Path 62" d="M23.484,15.834a8.857,8.857,0,0,0-.01-1.281L25,12.888l-.757-2.183-2.291-.366a8.665,8.665,0,0,0-1.458-1.612l-.1-2.306-2.076-1L16.427,6.8a8.85,8.85,0,0,0-.923-.113,8.757,8.757,0,0,0-1.333.016l-1.71-1.54-2.167.788L9.956,8.279A8.633,8.633,0,0,0,8.44,9.672L6.1,9.846l-.937,2.113,1.356,1.752a8.56,8.56,0,0,0-.1,2.368L5,17.557l.708,2.2,2.192.4a8.606,8.606,0,0,0,1.553,1.707L9.5,24.043l2.052,1.052L13.5,23.739a8.774,8.774,0,0,0,.88.1,8.617,8.617,0,0,0,1.754-.064l1.847,1.388,2.089-.976.12-2.133A8.672,8.672,0,0,0,21.574,20.7l2.29-.117.983-2.092-1.44-1.952C23.443,16.3,23.468,16.061,23.484,15.834Zm-8.628,5.525a5.906,5.906,0,0,1-5.972-6.29,6.086,6.086,0,0,1,6.27-5.991,5.982,5.982,0,0,1,5.972,6.29A5.808,5.808,0,0,1,14.856,21.359Z" transform="translate(0 0)" fill="#878b94"/>
  </g>
</svg>
