<svg xmlns="http://www.w3.org/2000/svg" width="20" height="20" viewBox="0 0 20 20">
  <path id="star_favorite_1498_" data-name="star_favorite [#1498]" d="M15.061,20a1.735,1.735,0,0,1-.842-.22l-3.376-1.85a1.744,1.744,0,0,0-1.685,0l-3.375,1.85a1.737,1.737,0,0,1-.843.22,1.793,1.793,0,0,1-1.362-.647,1.9,1.9,0,0,1-.421-1.562L3.8,13.875a1.935,1.935,0,0,0-.521-1.669L.548,9.433A1.924,1.924,0,0,1,.1,7.464a1.8,1.8,0,0,1,1.45-1.248l3.774-.572A1.82,1.82,0,0,0,6.69,4.613L8.376,1.051a1.779,1.779,0,0,1,3.247,0l1.688,3.562a1.817,1.817,0,0,0,1.364,1.031l3.774.572A1.8,1.8,0,0,1,19.9,7.463a1.925,1.925,0,0,1-.446,1.969L16.72,12.206a1.934,1.934,0,0,0-.52,1.669l.644,3.916a1.9,1.9,0,0,1-.421,1.562A1.793,1.793,0,0,1,15.061,20ZM10,15.2a4.1,4.1,0,0,1,1.967.506l2.29,1.254L13.819,14.3a4.515,4.515,0,0,1,1.215-3.9l1.853-1.881-2.561-.388a4.236,4.236,0,0,1-3.181-2.408L10,3.31,8.855,5.727A4.238,4.238,0,0,1,5.674,8.135l-2.561.388L4.965,10.4a4.519,4.519,0,0,1,1.216,3.9l-.438,2.656L8.033,15.7A4.1,4.1,0,0,1,10,15.2Z" fill="#4c6baf"/>
</svg>
