<?xml version="1.0" encoding="utf-8"?>
<!-- Generator: Adobe Illustrator 23.0.0, SVG Export Plug-In . SVG Version: 6.00 Build 0)  -->
<svg version="1.1" id="Layer_1" xmlns="http://www.w3.org/2000/svg" xmlns:xlink="http://www.w3.org/1999/xlink" x="0px" y="0px"
	 viewBox="0 0 20 20" style="enable-background:new 0 0 20 20;" xml:space="preserve">
<style type="text/css">
	.st0{fill:#4C6BAF;}
</style>
<path id="star_favorite_1498_" class="st0" d="M15.1,20c-0.3,0-0.6-0.1-0.8-0.2l-3.4-1.9c-0.5-0.3-1.2-0.3-1.7,0l-3.4,1.9
	C5.5,19.9,5.2,20,4.9,20c-0.5,0-1-0.2-1.4-0.6c-0.4-0.4-0.5-1-0.4-1.6l0.6-3.9c0.1-0.6-0.1-1.2-0.5-1.7L0.5,9.4
	C0,8.9-0.1,8.2,0.1,7.5c0.2-0.7,0.8-1.1,1.5-1.2l3.8-0.6c0.6-0.1,1.1-0.5,1.4-1l1.7-3.6c0.4-0.9,1.5-1.3,2.4-0.9
	c0.4,0.2,0.7,0.5,0.9,0.9l1.7,3.6c0.3,0.5,0.8,0.9,1.4,1l3.8,0.6c0.7,0.1,1.2,0.6,1.5,1.2c0.2,0.7,0.1,1.4-0.4,2l-2.7,2.8
	c-0.4,0.4-0.6,1.1-0.5,1.7l0.6,3.9c0.1,0.6-0.1,1.1-0.4,1.6C16.1,19.8,15.6,20,15.1,20z M8.9,5.7 M16.9,8.5"/>
</svg>
