<?xml version="1.0" encoding="utf-8"?>
<!-- Generator: Adobe Illustrator 23.0.0, SVG Export Plug-In . SVG Version: 6.00 Build 0)  -->
<svg version="1.1" id="Layer_1" xmlns="http://www.w3.org/2000/svg" xmlns:xlink="http://www.w3.org/1999/xlink" x="0px" y="0px"
	 viewBox="0 0 20 13" style="enable-background:new 0 0 20 13;" xml:space="preserve">
<style type="text/css">
	.st0{fill:#181A1D;}
</style>
<path class="st0" d="M20,11.5c-0.5-2.1-2-3.8-4.1-4.5c1.1-0.8,1.7-2.2,1.5-3.6C17,1.5,15.6,0.2,13.8,0c-0.2,0-0.3,0-0.5,0
	c-2.2-0.1-4,1.7-4.1,3.9c0,1.2,0.6,2.3,1.5,3C9.8,7.3,9,7.8,8.3,8.5L8.2,8.4C7.9,8.2,7.6,8.1,7.4,8c0.5-0.6,0.8-1.5,0.6-2.3
	c-0.2-1-1-1.8-2-2C5.8,3.6,5.6,3.6,5.3,3.6c-1.5,0-2.7,1.2-2.7,2.7C2.6,6.9,2.8,7.5,3.2,8c-1.4,0.6-2.5,1.7-3.1,3.1
	C-0.1,11.5,0,12,0.2,12.4C0.5,12.7,0.9,13,1.3,13h6.4c0,0,0,0,0,0c0.1,0,0.2,0,0.3,0h10.6c0.4,0,0.8-0.2,1.1-0.5
	C20,12.2,20.1,11.8,20,11.5z M10.6,3.9c0-1.5,1.3-2.6,2.7-2.6c1.5,0,2.7,1.1,2.7,2.6c0,1.5-1.3,2.6-2.7,2.6
	C11.9,6.5,10.6,5.4,10.6,3.9z M5.3,4.9c0.7,0,1.3,0.6,1.4,1.3c0,0.7-0.6,1.3-1.3,1.4h0h0C4.6,7.6,4,7,4,6.3C4,5.5,4.6,4.9,5.3,4.9z
	 M2.1,11.3C2,11,2,10.7,2.2,10.5c0.7-1,1.9-1.6,3.1-1.6c0,0,0,0,0,0c0,0,0,0,0,0c0,0,0,0,0,0c0,0,0,0,0,0c0.8,0,1.5,0.3,2.1,0.7
	c-0.4,0.6-0.6,1.2-0.8,1.9c0,0.1,0,0.1,0,0.2h-4C2.4,11.6,2.2,11.5,2.1,11.3z M18.3,11.4c-0.1,0.2-0.3,0.3-0.6,0.3H8.9
	c-0.2,0-0.4-0.1-0.6-0.3c0-0.1-0.1-0.1-0.1-0.2c0-0.1,0-0.1,0-0.2c0-0.1,0-0.1,0-0.2c0.4-0.9,1.1-1.7,2-2.2c0.9-0.5,2-0.8,3-0.8
	c1.1,0,2.1,0.3,3.1,0.8c0.9,0.5,1.6,1.3,2,2.2C18.4,11,18.4,11.2,18.3,11.4z"/>
</svg>
