<svg xmlns="http://www.w3.org/2000/svg" width="20" height="20.001" viewBox="0 0 20 20.001">
  <path id="user-blocked" d="M2.045,20H0a7.815,7.815,0,0,1,5.083-7.722,4.5,4.5,0,0,1-.995-2.807,3.888,3.888,0,0,1,1.2-2.814A4.129,4.129,0,0,1,8.177,5.5a4.069,4.069,0,0,1,2.891,1.2,4.016,4.016,0,0,1,1.2,2.857,4.217,4.217,0,0,1-1,2.706A7.824,7.824,0,0,1,16.355,20H14.311a6.243,6.243,0,0,0-1.785-4.627,6.193,6.193,0,0,0-4.306-1.645c-.007,0-.014-.036-.022-.087s-.014-.083-.021-.083-.013.022-.022.056-.015.056-.022.056a6.142,6.142,0,0,0-4.3,1.673A6.332,6.332,0,0,0,2.045,20Zm6.133-8.564h.043a2.044,2.044,0,1,0-.087,0h.044Zm6.039-4.363h0L12.772,5.657l2.169-2.121L12.772,1.415,14.217,0l2.169,2.122L18.554,0,20,1.415,17.832,3.536,20,5.657,18.555,7.071,16.386,4.95,14.217,7.072Z" fill="#4c6baf"/>
</svg>
