<?xml version="1.0" encoding="utf-8"?>
<!-- Generator: Adobe Illustrator 23.0.0, SVG Export Plug-In . SVG Version: 6.00 Build 0)  -->
<svg version="1.1" id="Layer_1" xmlns="http://www.w3.org/2000/svg" xmlns:xlink="http://www.w3.org/1999/xlink" x="0px" y="0px"
	 viewBox="0 0 20 20" style="enable-background:new 0 0 20 20;" xml:space="preserve">
<g>
	<path d="M10,0C4.5,0,0,4.5,0,10s4.5,10,10,10c5.5,0,10-4.5,10-10C20,4.5,15.5,0,10,0z M10,18c-4.4,0-8-3.6-8-8s3.6-8,8-8
		c4.4,0,8,3.6,8,8C18,14.4,14.4,18,10,18z"/>
	<polygon points="11.8,7 10,8.8 8.2,7 7,8.2 8.8,10 7,11.8 8.2,13 10,11.2 11.8,13 13,11.8 11.2,10 13,8.2 	"/>
</g>
</svg>
