<?xml version="1.0" encoding="UTF-8"?>
<svg width="14px" height="14px" viewBox="0 0 14 14" version="1.1" xmlns="http://www.w3.org/2000/svg" xmlns:xlink="http://www.w3.org/1999/xlink">
    <!-- Generator: Sketch 59.1 (86144) - https://sketch.com -->
    <title>delete [#1487]</title>
    <desc>Created with Sketch.</desc>
    <g id="Page-1" stroke="none" stroke-width="1" fill="none" fill-rule="evenodd">
        <g id="16.-Lease-your-property" transform="translate(-662.000000, -2207.000000)" fill="#FFFFFF">
            <g id="Group-17" transform="translate(623.000000, 2112.000000)">
                <g id="Group-15" transform="translate(0.000000, 84.000000)">
                    <g id="Group-14" transform="translate(39.000000, 7.000000)">
                        <path d="M4.9,15.2 L6.3,15.2 L6.3,9.6 L4.9,9.6 L4.9,15.2 Z M7.7,15.2 L9.1,15.2 L9.1,9.6 L7.7,9.6 L7.7,15.2 Z M3.5,16.6 L10.5,16.6 L10.5,8.2 L3.5,8.2 L3.5,16.6 Z M4.9,6.8 L9.1,6.8 L9.1,5.4 L4.9,5.4 L4.9,6.8 Z M10.5,6.8 L10.5,4 L3.5,4 L3.5,6.8 L0,6.8 L0,8.2 L2.1,8.2 L2.1,18 L11.9,18 L11.9,8.2 L14,8.2 L14,6.8 L10.5,6.8 Z" id="delete-[#1487]"></path>
                    </g>
                </g>
            </g>
        </g>
    </g>
</svg>