<?xml version="1.0" encoding="utf-8"?>
<!-- Generator: Adobe Illustrator 23.0.0, SVG Export Plug-In . SVG Version: 6.00 Build 0)  -->
<svg version="1.1" id="Layer_1" xmlns="http://www.w3.org/2000/svg" xmlns:xlink="http://www.w3.org/1999/xlink" x="0px" y="0px"
	 viewBox="0 0 154.5 28.8" style="enable-background:new 0 0 154.5 28.8;" xml:space="preserve">
<style type="text/css">
	.st0{fill:#FFFFFF;}
	.st1{fill:#FFD93B;}
</style>
<title>Asset 4</title>
<desc>Created with Sketch.</desc>
<g>
	<polygon id="Path" class="st0" points="22.1,9.6 20.4,9.6 20.4,22.5 28.1,22.5 28.1,21.1 22.1,21.1 	"/>
	<rect id="Rectangle" x="34.2" y="15.2" class="st0" width="4.6" height="1.4"/>
	<polygon class="st0" points="32.3,18.4 32.3,18.4 32.3,13.5 32.3,11 39.2,11 39.2,9.6 30.6,9.6 30.6,22.5 39.4,22.5 39.4,21.1 
		32.3,21.1 	"/>
	<path class="st0" d="M49.9,15.3c-0.8,2.2-1.4,4-1.7,5.2c-0.4-1.3-1-3-1.7-5.2l-2-5.7h-2.7v12.9h1.6v-6.4c0-2.3,0-4.1,0-5.2
		c0.2,0.5,0.4,1.2,0.6,1.9c0.3,0.7,0.4,1.2,0.6,1.6c0.4,1.1,0.6,1.7,0.6,1.8l2.3,6.4h1.5l2.3-6.4l0.7-1.9c0.5-1.2,0.8-2.4,1.1-3.3
		c0,2.3,0,4,0,5.2v6.4h1.6V9.6h-2.7L49.9,15.3z"/>
	<path id="Shape" class="st0" d="M62.9,21.3c-2.6,0-4.4-2.2-4.4-5.3c0-3.1,1.8-5.3,4.4-5.3s4.4,2.2,4.4,5.3
		C67.3,19.1,65.6,21.3,62.9,21.3 M62.9,9.3c-3.8,0-6.1,2.9-6.1,6.7s2.4,6.7,6.1,6.7c3.8,0,6.1-2.9,6.1-6.7S66.7,9.3,62.9,9.3"/>
	<path class="st0" d="M79.7,15.5c0,1.9,0,3.5,0.1,4.9c-0.4-0.7-0.9-1.5-1.5-2.4c-0.6-0.9-1-1.5-1.2-1.8c-0.1-0.1-0.2-0.3-0.4-0.6
		l-3.9-5.9h-1.9v12.9h1.6v-5.8c0-2,0-3.7-0.1-5c0.5,0.8,1.2,2,2.3,3.7c0.2,0.3,0.5,0.7,0.8,1.2l3.8,5.9h1.9V9.6h-1.6V15.5z"/>
	<path class="st0" d="M91.5,15.1c-0.7-0.1-1.4-0.3-2.1-0.5c-0.9-0.3-1.5-0.8-1.5-1.7c0-1.2,1.2-2.1,3-2.1c1.5,0,2.5,0.4,3.9,1.6
		l1-1.2c-1.3-1.2-3.1-1.9-4.9-1.9c-2.5,0-4.6,1.5-4.6,3.6c0,2,1.1,2.8,4.4,3.6c0.7,0.1,1.4,0.3,2.1,0.5c0.9,0.3,1.5,0.9,1.5,1.8
		c0,1.5-1.3,2.5-3.1,2.5c-0.7,0-1.4-0.1-2.1-0.4c-0.9-0.4-1.7-0.9-2.4-1.5l-1,1.2c0.8,0.7,1.7,1.3,2.6,1.7c0.9,0.4,1.8,0.5,2.8,0.5
		c2.8,0,4.7-1.6,4.7-4C95.9,16.7,94.8,15.9,91.5,15.1"/>
	<path class="st0" d="M103.7,9.6h-5.5V11h5.3c1.7,0,2.8,0.9,2.8,2.5s-1,2.5-2.8,2.5h-5.3v6.6h1.7v-5.2h3.9c2.5,0,4.2-1.4,4.2-3.9
		S106.2,9.6,103.7,9.6"/>
	<path class="st0" d="M115.8,17.8H111l0.6-1.7l0.4-1.1c0.1-0.4,0.3-1,0.7-1.9c0.3-0.9,0.5-1.6,0.7-2.3c0.3,1,0.9,2.8,1.8,5.2
		L115.8,17.8z M112.4,9.6l-4.7,12.9h1.7l1.2-3.3h5.8l1.2,3.3h1.7l-4.7-12.9H112.4z"/>
	<path class="st0" d="M125.8,21.3c-2.6,0-4.4-2.2-4.4-5.3c0-3.1,1.7-5.3,4.5-5.3c1.2,0,2.2,0.4,3.6,1.5l1-1.1
		c-1.5-1.3-2.8-1.8-4.5-1.8c-3.9,0-6.2,2.8-6.2,6.7s2.3,6.7,6.1,6.7c1.9,0,3.2-0.6,4.8-2.2l-1-1.1C128.2,20.7,127.3,21.3,125.8,21.3
		"/>
	<polygon class="st0" points="135.7,18.4 135.7,18.4 135.7,13.5 135.7,11 142.6,11 142.6,9.6 134,9.6 134,22.5 142.7,22.5 
		142.7,21.1 135.7,21.1 	"/>
	<rect x="137.5" y="15.2" class="st0" width="4.6" height="1.4"/>
	<path class="st0" d="M150,15.1c-0.7-0.1-1.4-0.3-2.1-0.5c-0.9-0.3-1.5-0.8-1.5-1.7c0-1.2,1.2-2.1,3-2.1c1.5,0,2.5,0.4,3.9,1.6
		l1-1.2c-1.3-1.2-3.1-1.9-4.9-1.9c-2.5,0-4.6,1.5-4.6,3.6c0,2,1.1,2.8,4.4,3.6c0.7,0.1,1.4,0.3,2.1,0.5c0.9,0.3,1.5,0.9,1.5,1.8
		c0,1.5-1.3,2.5-3.1,2.5c-0.7,0-1.4-0.1-2.1-0.4c-0.9-0.4-1.7-0.9-2.4-1.5l-1,1.2c0.8,0.7,1.7,1.3,2.6,1.7c0.9,0.4,1.8,0.5,2.8,0.5
		c2.8,0,4.8-1.6,4.8-4C154.4,16.7,153.3,15.9,150,15.1"/>
	<polygon class="st1" points="8.5,18.5 9.1,18.1 9.1,16.5 8.5,16.1 	"/>
	<polygon class="st1" points="15.3,28.8 0,28.8 0,0 10.9,0 7,3.7 7,26.2 	"/>
</g>
</svg>
