<?xml version="1.0" encoding="UTF-8"?>
<svg width="24px" height="24px" viewBox="0 0 24 24" version="1.1" xmlns="http://www.w3.org/2000/svg" xmlns:xlink="http://www.w3.org/1999/xlink">
    <!-- Generator: Sketch 59.1 (86144) - https://sketch.com -->
    <title>profile [#1341]</title>
    <desc>Created with Sketch.</desc>
    <g id="Page-1" stroke="none" stroke-width="1" fill="none" fill-rule="evenodd">
        <g id="01.-home" transform="translate(-1073.000000, -68.000000)" fill="#E7E7E7">
            <g id="Group-11" transform="translate(1065.000000, 60.000000)">
                <g id="Group-10">
                    <path d="M20,19.9999862 C17.3401958,19.9999862 15.1771456,17.8471837 15.1771456,15.1999806 C15.1771456,12.5527776 17.3401958,10.3999751 20,10.3999751 C22.6598042,10.3999751 24.8228544,12.5527776 24.8228544,15.1999806 C24.8228544,17.8471837 22.6598042,19.9999862 20,19.9999862 M24.5310717,20.8075871 C26.4445392,19.2751853 27.5598243,16.7971825 27.1498817,14.0839794 C26.6736248,10.9363757 24.0427577,8.41757283 20.8669081,8.0503724 C16.4841391,7.54277182 12.7657184,10.9387757 12.7657184,15.1999806 C12.7657184,17.4679833 13.8219235,19.4887856 15.4689283,20.8075871 C11.4225534,22.3207888 8.46855507,25.8739929 8.00556104,30.6691985 C7.93804108,31.3783993 8.49387505,32 9.21006894,32 C9.82377716,32 10.3470569,31.5391995 10.401314,30.9307988 C10.8848051,25.5751926 15.0047285,22.3999889 20,22.3999889 C24.9952715,22.3999889 29.1151949,25.5751926 29.598686,30.9307988 C29.6529431,31.5391995 30.1762228,32 30.7899311,32 C31.5061249,32 32.0619589,31.3783993 31.994439,30.6691985 C31.5314449,25.8739929 28.5774466,22.3207888 24.5310717,20.8075871" id="profile-[#1341]"></path>
                </g>
            </g>
        </g>
    </g>
</svg>