<svg xmlns="http://www.w3.org/2000/svg" width="60" height="70" fill="none" viewBox="0 0 60 70">
    <circle cx="32.5" cy="37.5" r="18.5" fill="#00BBF9" fill-opacity=".38"/>
    <circle cx="18.5" cy="18.5" r="18" stroke="#fff"/>
    <path fill="#FFD652" d="M37.072 28.31c.336-.836 1.52-.836 1.856 0l4.528 11.276c.143.356.477.6.86.625l12.123.822c.9.061 1.265 1.187.573 1.765l-9.324 7.79c-.295.247-.422.64-.329 1.012l2.965 11.783c.22.875-.738 1.57-1.502 1.091l-10.29-6.46c-.325-.204-.739-.204-1.064 0l-10.29 6.46c-.764.48-1.722-.216-1.502-1.09L28.641 51.6c.093-.372-.034-.765-.329-1.011l-9.324-7.79c-.692-.579-.326-1.705.573-1.766l12.123-.822c.383-.026.717-.269.86-.625l4.528-11.275z"/>
</svg>
