<svg xmlns="http://www.w3.org/2000/svg" width="98" height="79" fill="none" viewBox="0 0 98 79">
    <path fill="#00BBF9" fill-opacity=".28" d="M20.872 31.157c1.236-7.725 10.95-15.977 18.543-16.152.53 0 1.06-.176 1.413-.527.353-.175.707-.351.883-.878 2.65-4.916 1.236-8.778-3.179-11.938-5.121-3.687-13.245 0-17.307 3.335-10.244 8.428-20.663 23-20.134 36.87C-.675 51.172-.322 61.179 2.328 69.43c1.766 5.267 6.887 7.9 12.186 8.252 5.298.351 16.248 1.931 21.016-1.229 4.768-3.16 5.122-9.305 5.651-14.572.53-5.794 2.12-16.68-2.825-21.244-4.945-4.39-19.074.351-17.485-9.48z"/>
    <path stroke="#81CBE3" stroke-opacity=".52" d="M93.527 14.873v0c.432 0 .822-.144 1.06-.381l.058-.057.073-.036c.347-.173.525-.271.631-.59l.014-.04.02-.037c1.28-2.375 1.548-4.434 1.02-6.251-.532-1.83-1.894-3.502-4.05-5.044v-.001c-2.385-1.717-5.516-1.749-8.627-.89-3.103.857-6.088 2.577-8.072 4.206-5.08 4.18-10.207 9.887-13.994 16.263-3.79 6.38-6.217 13.394-5.957 20.201l.002.057-.01.055c-1.753 9.236-1.4 19.156 1.22 27.316 1.68 5.005 6.567 7.565 11.744 7.908l-.034.5.034-.5c.807.054 1.733.135 2.743.222 2.351.205 5.151.45 7.936.48 1.982.021 3.932-.066 5.673-.35 1.746-.286 3.246-.763 4.355-1.498m4.161-61.533l-3.885 61.95m3.885-61.95h-.011c-3.955.092-8.389 2.272-11.972 5.367-3.582 3.094-6.409 7.183-7.054 11.202-.462 2.577.12 4.322 1.459 5.474 1.287 1.108 3.193 1.588 5.186 1.885.938.14 1.92.242 2.895.344l.215.022c1.05.11 2.087.222 3.076.382 1.992.324 3.688.833 4.811 1.828m1.395-26.504l-1.395 26.504m-2.766 35.029l.276.416m-.276-.416s0 0 0 0l.276.416m-.276-.416c2.252-1.493 3.48-3.698 4.21-6.219.658-2.269.901-4.747 1.137-7.146l.083-.839m-5.154 14.62c4.516-2.993 5.072-8.664 5.568-13.73l.083-.842m-.497-.048v.003l.497.045m-.497-.048c.045-.501.099-1.038.155-1.604.272-2.728.61-6.12.483-9.411-.154-3.994-.99-7.672-3.302-9.81m2.664 20.825V62.2l.497.05m0 0l-3.161-20.873"/>
</svg>
