<svg xmlns="http://www.w3.org/2000/svg" width="22" height="20" fill="none" viewBox="0 0 22 20">
    <path fill="#00BBF9" fill-opacity=".28" d="M9.098 1.854c.599-1.843 3.205-1.843 3.804 0l1.017 3.129c.267.824 1.035 1.382 1.902 1.382h3.29c1.937 0 2.742 2.479 1.175 3.618l-2.661 1.933c-.701.51-.995 1.412-.727 2.236l1.017 3.13c.598 1.842-1.51 3.374-3.078 2.235l-2.661-1.933c-.701-.51-1.65-.51-2.352 0l-2.661 1.933c-1.567 1.139-3.676-.393-3.078-2.236l1.017-3.128c.268-.825-.026-1.727-.727-2.237L1.714 9.983C.147 8.844.952 6.365 2.89 6.365h3.29c.866 0 1.634-.558 1.901-1.382l1.017-3.129z"/>
</svg>
