<?xml version="1.0" encoding="utf-8"?>
<!-- Generator: Adobe Illustrator 21.0.0, SVG Export Plug-In . SVG Version: 6.00 Build 0)  -->
<svg version="1.1" id="Layer_1" xmlns="http://www.w3.org/2000/svg" xmlns:xlink="http://www.w3.org/1999/xlink" x="0px" y="0px"
	 viewBox="0 0 100 125" style="enable-background:new 0 0 100 125;" xml:space="preserve">
<g>
	<path d="M39.3,17.3h34.2c3.4,0,6.1,2.7,6.1,6.1v14.2c0,0.3,0.2,0.5,0.5,0.5s0.5-0.2,0.5-0.5V23.4c0-3.9-3.2-7.1-7.1-7.1H39.3
		c-0.3,0-0.5,0.2-0.5,0.5S39,17.3,39.3,17.3z"/>
	<path d="M33.5,17.3h2.1c0.3,0,0.5-0.2,0.5-0.5s-0.2-0.5-0.5-0.5h-2.1c-0.3,0-0.5,0.2-0.5,0.5S33.2,17.3,33.5,17.3z"/>
	<path d="M84.5,78.5V23.4c0-5.8-4.7-10.5-10.5-10.5H26.4c-5.8,0-10.6,4.7-10.6,10.5v55.1c-2.6,0-4.7,2.1-4.7,4.7s2.1,4.7,4.7,4.7
		h68.4c2.6,0,4.6-2.1,4.6-4.7C88.8,80.7,86.9,78.7,84.5,78.5z M26.4,14.9H74c4.7,0,8.5,3.8,8.5,8.5v17.5H55.2h-10H17.8V23.4
		C17.8,18.7,21.7,14.9,26.4,14.9z M54.2,49.2h-8v-6.3h8V49.2z M17.8,42.9h26.4v7.3c0,0.6,0.4,1,1,1h10c0.6,0,1-0.4,1-1v-2.5h6
		c0.6,0,1-0.4,1-1s-0.4-1-1-1h-6v-2.8h26.3v35.6H57.4c1.9-0.9,3.6-2.1,5.1-3.6c1.5-1.5,2.6-3.2,3.5-5.1c0.2,0.1,0.4,0.2,0.6,0.2
		c4,0,7.3-3.3,7.3-7.3c0-3.7-2.8-6.8-6.4-7.2v-0.9c0-0.6-0.4-1-1-1H32.6c-0.6,0-1,0.4-1,1v7.9c0,7.1,4.2,13.1,10.2,15.9h-24V42.9z
		 M49.1,78.1c-8.5,0-15.5-7-15.5-15.5v-6.9h31.9v6.9c0,4.1-1.5,8-4.4,10.9c-2.9,3-6.8,4.6-11,4.6H49.1z M67.5,57.6
		c2.5,0.4,4.4,2.5,4.4,5.2c0,3-2.3,5.3-5.2,5.3c0.6-1.8,0.9-3.6,0.8-5.5V57.6z M84.2,85.9H15.8c-1.5,0-2.7-1.2-2.7-2.7
		s1.2-2.7,2.7-2.7h1h66.7h0.6c1.5,0,2.7,1.2,2.7,2.7C86.8,84.7,85.7,85.9,84.2,85.9z"/>
	<path d="M26.3,27.8c1.4,0,2.5-1.1,2.5-2.5s-1.1-2.5-2.5-2.5s-2.5,1.1-2.5,2.5S24.9,27.8,26.3,27.8z M26.3,24.8
		c0.2,0,0.5,0.3,0.5,0.5s-0.3,0.5-0.5,0.5s-0.5-0.3-0.5-0.5S26.1,24.8,26.3,24.8z"/>
	<path d="M26.3,36.1c1.4,0,2.5-1.1,2.5-2.5s-1.1-2.5-2.5-2.5s-2.5,1.1-2.5,2.5S24.9,36.1,26.3,36.1z M26.3,33.1
		c0.2,0,0.5,0.3,0.5,0.5s-0.3,0.5-0.5,0.5s-0.5-0.3-0.5-0.5S26.1,33.1,26.3,33.1z"/>
</g>
</svg>
