<?xml version="1.0" encoding="utf-8"?>
<!-- Generator: Adobe Illustrator 19.0.0, SVG Export Plug-In . SVG Version: 6.00 Build 0)  -->
<svg version="1.1" id="Layer_1" xmlns="http://www.w3.org/2000/svg" xmlns:xlink="http://www.w3.org/1999/xlink" x="0px" y="0px"
	 viewBox="-322 131.5 50 62.5" style="enable-background:new -322 131.5 50 62.5;" xml:space="preserve">
<path d="M-276.4,139.2h-40.4c-0.3,0-0.5,0.2-0.5,0.5v48.5c0,0.3,0.2,0.5,0.5,0.5h40.4c0.3,0,0.5-0.2,0.5-0.5v-48.5
	C-275.9,139.4-276.2,139.2-276.4,139.2z M-316.3,150.2h11.6c0,2.1,3.6,3.7,8.1,3.7s8.1-1.6,8.1-3.7h11.6v32.4h-39.4V150.2z
	 M-289.5,150.2c0,1.3-3,2.7-7.1,2.7s-7.1-1.4-7.1-2.7H-289.5z M-276.9,140.2v9h-27.3c0,0,0,0,0,0h-12.1v-9H-276.9z M-316.3,187.7
	v-4.1h39.4v4.1H-316.3z"/>
<path d="M-314.2,146.8h12.9c0.3,0,0.5-0.2,0.5-0.5v-3.1c0-0.3-0.2-0.5-0.5-0.5h-12.9c-0.3,0-0.5,0.2-0.5,0.5v3.1
	C-314.7,146.5-314.4,146.8-314.2,146.8z M-313.7,143.6h11.9v2.1h-11.9V143.6z"/>
<path d="M-284.1,147C-284.1,147-284.1,147-284.1,147c0.6,0.6,1.4,1,2.3,1c1.8,0,3.3-1.5,3.3-3.3c0-0.9-0.4-1.7-0.9-2.3c0,0,0,0,0,0
	c0,0,0,0,0,0c-0.6-0.6-1.4-0.9-2.3-0.9c-1.8,0-3.3,1.5-3.3,3.3C-285.1,145.6-284.7,146.4-284.1,147C-284.1,147-284.1,147-284.1,147z
	 M-281.8,147c-0.4,0-0.9-0.1-1.2-0.4l3.1-3.1c0.2,0.3,0.4,0.8,0.4,1.2C-279.6,145.9-280.6,147-281.8,147z M-281.8,142.4
	c0.4,0,0.9,0.1,1.2,0.4l-3.1,3.1c-0.2-0.3-0.4-0.8-0.4-1.2C-284.1,143.5-283.1,142.4-281.8,142.4z"/>
<path d="M-288.7,147.2c1.4,0,2.5-1.1,2.5-2.5s-1.1-2.5-2.5-2.5s-2.5,1.1-2.5,2.5C-291.2,146.1-290.1,147.2-288.7,147.2z
	 M-288.7,143.2c0.8,0,1.5,0.7,1.5,1.5c0,0.8-0.7,1.5-1.5,1.5s-1.5-0.7-1.5-1.5C-290.2,143.9-289.5,143.2-288.7,143.2z"/>
<path d="M-294.8,147.2c1.4,0,2.5-1.1,2.5-2.5s-1.1-2.5-2.5-2.5c-1.4,0-2.5,1.1-2.5,2.5C-297.3,146.1-296.2,147.2-294.8,147.2z
	 M-294.8,143.2c0.8,0,1.5,0.7,1.5,1.5c0,0.8-0.7,1.5-1.5,1.5c-0.8,0-1.5-0.7-1.5-1.5C-296.3,143.9-295.6,143.2-294.8,143.2z"/>
</svg>
