<?xml version="1.0" encoding="utf-8"?>
<!-- Generator: Adobe Illustrator 19.0.0, SVG Export Plug-In . SVG Version: 6.00 Build 0)  -->
<svg version="1.1" id="Layer_1" xmlns="http://www.w3.org/2000/svg" xmlns:xlink="http://www.w3.org/1999/xlink" x="0px" y="0px"
	 viewBox="-297 101 100 125" style="enable-background:new -297 101 100 125;" xml:space="preserve">
<path d="M-211.8,206.1v-90.8c0-0.6-0.5-1.2-1.2-1.2h-68.1c-0.6,0-1.2,0.5-1.2,1.2v90.8c0,0.6,0.5,1.2,1.2,1.2h68.1
	C-212.3,207.2-211.8,206.7-211.8,206.1z M-214.1,204.9h-65.8v-8.2h65.8L-214.1,204.9L-214.1,204.9z M-214.1,194.4h-65.8v-66.9h65.8
	L-214.1,194.4L-214.1,194.4z M-214.1,125.2h-65.8v-8.7h65.8L-214.1,125.2L-214.1,125.2z"/>
<path d="M-247,183c12.1,0,22-9.9,22-22c0-12.1-9.9-22-22-22c-12.1,0-22,9.9-22,22C-269,173.1-259.1,183-247,183z M-247,141.3
	c10.9,0,19.7,8.8,19.7,19.7c0,10.9-8.8,19.7-19.7,19.7s-19.7-8.8-19.7-19.7S-257.9,141.3-247,141.3z"/>
<path d="M-247,189.4c15.7,0,28.4-12.7,28.4-28.4s-12.7-28.4-28.4-28.4s-28.4,12.7-28.4,28.4S-262.7,189.4-247,189.4z M-247,134.9
	c14.4,0,26.1,11.7,26.1,26.1c0,14.4-11.7,26.1-26.1,26.1s-26.1-11.7-26.1-26.1C-273.1,146.6-261.4,134.9-247,134.9z"/>
<path d="M-225.3,122.1h4.5c0.6,0,1.2-0.5,1.2-1.2s-0.5-1.2-1.2-1.2h-4.5c-0.6,0-1.2,0.5-1.2,1.2S-225.9,122.1-225.3,122.1z"/>
<path d="M-236.1,122.1h4.5c0.6,0,1.2-0.5,1.2-1.2s-0.5-1.2-1.2-1.2h-4.5c-0.6,0-1.2,0.5-1.2,1.2S-236.8,122.1-236.1,122.1z"/>
<path d="M-234.8,165.5c0.6,0,1.2-0.5,1.2-1.2v-6.7c0-0.6-0.5-1.2-1.2-1.2c-0.6,0-1.2,0.5-1.2,1.2v6.7
	C-236,165-235.4,165.5-234.8,165.5z"/>
</svg>
