<?xml version="1.0" encoding="utf-8"?>
<!-- Generator: Adobe Illustrator 19.0.0, SVG Export Plug-In . SVG Version: 6.00 Build 0)  -->
<svg version="1.1" id="Layer_1" xmlns="http://www.w3.org/2000/svg" xmlns:xlink="http://www.w3.org/1999/xlink" x="0px" y="0px"
	 viewBox="-297 101 100 125" style="enable-background:new -297 101 100 125;" xml:space="preserve">
<path d="M-205.4,125H-288c-0.7,0-1.2,0.5-1.2,1.2v69.6c0,0.7,0.5,1.2,1.2,1.2h82.5c0.7,0,1.2-0.5,1.2-1.2v-69.6
	C-204.2,125.5-204.7,125-205.4,125z M-206.7,194.5h-80.1v-67h80.1V194.5z"/>
<circle cx="-213.9" cy="150.8" r="1.8"/>
<circle cx="-213.9" cy="157.6" r="1.8"/>
<circle cx="-213.9" cy="164.4" r="1.8"/>
<circle cx="-213.9" cy="171.2" r="1.8"/>
<path d="M-266.8,158.2c3.2,0,6.1-1.2,8.3-3.4c2.2-2.2,3.4-5.1,3.4-8.3c0-3.2-1.2-6.1-3.4-8.3c-4.7-4.7-12.1-4.7-16.7,0
	c-2.2,2.2-3.4,5.1-3.4,8.3c0,3.2,1.2,6.1,3.4,8.3C-272.9,157-270,158.2-266.8,158.2z M-273.4,139.9c1.8-1.8,4.2-2.7,6.6-2.7
	s4.8,0.9,6.6,2.7c1.7,1.7,2.7,4.2,2.7,6.6c0,2.4-1,4.8-2.7,6.6c-1.7,1.8-4.2,2.7-6.6,2.7s-4.8-1-6.6-2.7c-1.8-1.7-2.7-4.2-2.7-6.6
	C-276.1,143.9-275.1,141.6-273.4,139.9z"/>
<path d="M-266.8,163.1c-3.2,0-6.1,1.2-8.3,3.4c-4.7,4.7-4.7,12.1,0,16.7c2.3,2.3,5.3,3.4,8.3,3.4s6-1.1,8.3-3.4
	c4.7-4.7,4.7-12.1,0-16.7C-260.7,164.4-263.6,163.1-266.8,163.1z M-260.2,181.6c-3.7,3.7-9.6,3.7-13.2,0c-3.7-3.7-3.7-9.6,0-13.2
	c1.7-1.7,4.2-2.7,6.6-2.7s4.8,1,6.6,2.7C-256.5,171.9-256.5,177.9-260.2,181.6z"/>
<path d="M-235.9,158.2c3.2,0,6.1-1.2,8.3-3.4c2.2-2.2,3.4-5.1,3.4-8.3c0-3.2-1.2-6.1-3.4-8.3c-4.7-4.7-12.1-4.7-16.7,0
	c-2.2,2.2-3.4,5.1-3.4,8.3c0,3.2,1.2,6.1,3.4,8.3C-242,157-239.1,158.2-235.9,158.2z M-242.5,139.9c1.8-1.8,4.2-2.7,6.6-2.7
	c2.4,0,4.8,0.9,6.6,2.7c1.7,1.7,2.7,4.2,2.7,6.6c0,2.4-1,4.8-2.7,6.6c-1.7,1.8-4.2,2.7-6.6,2.7c-2.4,0-4.8-1-6.6-2.7
	c-1.8-1.7-2.7-4.2-2.7-6.6C-245.2,143.9-244.4,141.6-242.5,139.9z"/>
<path d="M-235.9,163.1c-3.2,0-6.1,1.2-8.3,3.4c-4.7,4.7-4.7,12.1,0,16.7c2.3,2.3,5.3,3.4,8.3,3.4c3.1,0,6-1.1,8.3-3.4
	c4.7-4.7,4.7-12.1,0-16.7C-229.8,164.4-232.9,163.1-235.9,163.1z M-229.3,181.6c-3.7,3.7-9.6,3.7-13.2,0c-3.7-3.7-3.7-9.6,0-13.2
	c1.7-1.7,4.2-2.7,6.6-2.7c2.4,0,4.8,1,6.6,2.7C-225.8,171.9-225.8,177.9-229.3,181.6z"/>
</svg>
