<?xml version="1.0" encoding="utf-8"?>
<!-- Generator: Adobe Illustrator 21.0.0, SVG Export Plug-In . SVG Version: 6.00 Build 0)  -->
<svg version="1.1" id="Layer_1" xmlns="http://www.w3.org/2000/svg" xmlns:xlink="http://www.w3.org/1999/xlink" x="0px" y="0px"
	 viewBox="0 0 66 82.5" style="enable-background:new 0 0 66 82.5;" xml:space="preserve">
<g>
	<path d="M16.7,15.5l1.9-1.8l1.9,1.9c0.3,0.3,0.8,0.3,1.1,0c0.3-0.3,0.3-0.8,0-1.1L19.2,12c-0.3-0.3-0.8-0.3-1.1,0l-2.5,2.4
		c-0.3,0.3-0.3,0.8,0,1.1C15.9,15.8,16.4,15.8,16.7,15.5z"/>
	<path d="M29.3,15.6c0.3,0.3,0.8,0.3,1.1,0l2.5-2.4c0.3-0.3,0.3-0.8,0-1.1c-0.3-0.3-0.8-0.3-1.1,0l-1.9,1.8L28,12
		c-0.3-0.3-0.8-0.3-1.1,0c-0.3,0.3-0.3,0.8,0,1.1L29.3,15.6z"/>
	<path d="M59,34l-9.7-0.1c-0.5,0-0.8,0.4-0.8,0.8l-0.1,17.9c0,0.4,0.4,0.8,0.8,0.8l9.7,0.1c0.4,0,0.8-0.4,0.8-0.8l0.1-17.9
		C59.8,34.4,59.4,34,59,34z M58.1,51.9L50,51.8l0.1-16.2l8.1,0.1L58.1,51.9z"/>
	<path d="M54,49.4c1.4,0,2.5-1,2.5-2.4s-1.1-2.5-2.4-2.5c-1.4,0-2.5,1.1-2.5,2.4C51.6,48.3,52.7,49.4,54,49.4z M54.1,46.2
		c0.4,0,0.8,0.4,0.8,0.8c0,0.4-0.4,0.8-0.8,0.8c-0.5,0-0.8-0.4-0.8-0.8S53.7,46.2,54.1,46.2z"/>
	<path d="M54.1,42.9c1.3,0,2.4-1.1,2.5-2.4c0-1.4-1.1-2.5-2.4-2.5c-1.4,0-2.5,1.1-2.5,2.4C51.7,41.8,52.8,42.9,54.1,42.9z
		 M54.1,39.7c0.4,0,0.8,0.4,0.8,0.8c0,0.4-0.4,0.8-0.8,0.8c-0.4,0-0.8-0.4-0.8-0.8C53.3,40.1,53.7,39.7,54.1,39.7z"/>
	<path d="M41.3,21.8L7.2,21.5c-0.4,0-0.8,0.4-0.8,0.8L6.1,64.5c0,0.1,0,0.2,0.1,0.3c0,0.4,0.4,0.7,0.7,0.7h16.9c0.1,0,0.1,0,0.2,0
		s0.1,0,0.2,0h16.4c0.1,0.1,0.3,0.1,0.4,0.1c0.4,0,0.8-0.4,0.8-0.8l0.3-42.2C42.1,22.2,41.7,21.8,41.3,21.8z M40.5,23.4L40.2,64
		H24.8l0.3-40.7L40.5,23.4z M23.4,23.2L23.2,64H7.7L8,23.1L23.4,23.2z"/>
</g>
</svg>
