<?xml version="1.0" encoding="utf-8"?>
<!-- Generator: Adobe Illustrator 19.0.0, SVG Export Plug-In . SVG Version: 6.00 Build 0)  -->
<svg version="1.1" id="Layer_1" xmlns="http://www.w3.org/2000/svg" xmlns:xlink="http://www.w3.org/1999/xlink" x="0px" y="0px"
	 viewBox="-314 121.5 66 82.5" style="enable-background:new -314 121.5 66 82.5;" xml:space="preserve">
<g>
	<path d="M-267.8,130.8h-26.4c-2.5,0-4.5,2-4.5,4.5v54.8c0,2.5,2,4.5,4.5,4.5h26.5c2.5,0,4.5-2,4.5-4.5v-54.8
		C-263.2,132.8-265.3,130.8-267.8,130.8z M-294.2,132.9h26.5c1.3,0,2.4,1.1,2.4,2.4v17.3h-31.4v-17.3
		C-296.7,134-295.6,132.9-294.2,132.9z M-267.8,192.5h-26.4c-1.3,0-2.4-1.1-2.4-2.4v-35.4h31.3v35.4
		C-265.3,191.4-266.4,192.5-267.8,192.5z"/>
	<path d="M-291.4,146.8c0.6,0,1-0.5,1-1v-5.6c0-0.6-0.5-1-1-1c-0.6,0-1,0.5-1,1v5.6C-292.5,146.3-292,146.8-291.4,146.8z"/>
	<path d="M-291.4,157.1c-0.6,0-1,0.5-1,1v8.4c0,0.6,0.5,1,1,1c0.6,0,1-0.5,1-1v-8.4C-290.4,157.6-290.9,157.1-291.4,157.1z"/>
</g>
</svg>
