<?xml version="1.0" encoding="utf-8"?>
<!-- Generator: Adobe Illustrator 21.0.0, SVG Export Plug-In . SVG Version: 6.00 Build 0)  -->
<svg version="1.1" id="Layer_1" xmlns="http://www.w3.org/2000/svg" xmlns:xlink="http://www.w3.org/1999/xlink" x="0px" y="0px"
	 viewBox="0 0 100 125" style="enable-background:new 0 0 100 125;" xml:space="preserve">
<title>ВЕШАЛКА</title>
<path d="M88.3,78.7l-36-24.2c-0.3-0.2-0.5-0.3-0.8-0.4v-4.9c4-0.7,7-3.8,7-7.7c0-4.3-3.8-7.8-8.5-7.8c-4.7,0-8.5,3.5-8.5,7.8
	c0,0.8,0.7,1.5,1.5,1.5s1.5-0.7,1.5-1.5c0-2.7,2.4-4.8,5.5-4.8s5.5,2.1,5.5,4.8s-2.4,4.8-5.5,4.8c-0.8,0-1.5,0.7-1.5,1.5v6.3
	c-0.3,0.1-0.5,0.2-0.7,0.4L11.7,78.7c-0.9,0.6-1.5,1.5-1.7,2.6s0,2.1,0.7,3.1c0.8,1.1,2,1.7,3.3,1.7h72.2c2.2,0,4-1.8,4-4
	C90.1,80.7,89.5,79.5,88.3,78.7z M86.1,83H13.9c-0.3,0-0.7-0.2-0.9-0.4c-0.2-0.3-0.2-0.5-0.2-0.8c0.1-0.3,0.2-0.5,0.5-0.6l36.1-24.2
	c0.4-0.2,0.8-0.3,1.1,0l36.1,24.2c0.3,0.2,0.5,0.5,0.5,0.9C87.1,82.6,86.7,83,86.1,83z"/>
</svg>
