<?xml version="1.0" encoding="utf-8"?>
<!-- Generator: Adobe Illustrator 19.0.0, SVG Export Plug-In . SVG Version: 6.00 Build 0)  -->
<svg version="1.1" id="Layer_1" xmlns="http://www.w3.org/2000/svg" xmlns:xlink="http://www.w3.org/1999/xlink" x="0px" y="0px"
	 viewBox="-343 158.1 7.9 9.9" style="enable-background:new -343 158.1 7.9 9.9;" xml:space="preserve">
<style type="text/css">
	.st0{fill:#FFFFFF;}
</style>
<g>
	<g>
		<path d="M-341.1,164.6c0,0.1,0.1,0.1,0.1,0.1c0.1,0,0.1-0.1,0.1-0.1v-3.6h0.1v-0.2h-0.4v0.2h0.1V164.6z"/>
		<path d="M-340.5,164.6c0,0.1,0.1,0.1,0.1,0.1c0.1,0,0.1-0.1,0.1-0.1v-3.6h0.1v-0.2h-0.4v0.2h0.1V164.6z"/>
		<path d="M-339.8,164.6c0,0.1,0.1,0.1,0.1,0.1c0.1,0,0.1-0.1,0.1-0.1v-3.6h0.1v-0.2h-0.4v0.2h0.1V164.6z"/>
		<path d="M-339.2,164.6c0,0.1,0.1,0.1,0.1,0.1c0.1,0,0.1-0.1,0.1-0.1v-3.6h0.1v-0.2h-0.4v0.2h0.1V164.6z"/>
		<path d="M-338.5,164.6c0,0.1,0.1,0.1,0.1,0.1c0.1,0,0.1-0.1,0.1-0.1v-3.6h0.1v-0.2h-0.4v0.2h0.1V164.6z"/>
		<path d="M-337.9,164.6c0,0.1,0.1,0.1,0.1,0.1s0.1-0.1,0.1-0.1v-3.6h0.1v-0.2h-0.4v0.2h0.1V164.6z"/>
		<path d="M-337.2,164.6c0,0.1,0.1,0.1,0.1,0.1c0.1,0,0.1-0.1,0.1-0.1v-3.6h0.1v-0.2h-0.4v0.2h0.1
			C-337.2,160.9-337.2,164.6-337.2,164.6z"/>
		<path d="M-336.4,160.7v0.1h-0.1v-0.4h-5c0,0-0.1,0-0.1,0.1v4.2h-0.3v0.2h0.3v0.2h5c0,0,0.1,0,0.1-0.1v-4h0.1v0.1l0.4,0v-0.3
			L-336.4,160.7z M-336.7,164.9h-4.7c0,0-0.1,0-0.1-0.1v-4.3c0,0,0-0.1,0.1-0.1h4.6c0,0,0.1,0,0.1,0.1L-336.7,164.9L-336.7,164.9z"
			/>
		<path d="M-337.7,160.1C-337.7,160.2-337.7,160.2-337.7,160.1c0.1,0.1,0.1,0,0.1,0c0-0.1,0-0.1,0.1-0.2c0-0.1,0.1-0.1,0.1-0.2
			c0-0.1,0-0.2-0.1-0.2c0,0-0.1-0.1-0.1-0.2c0-0.1,0-0.1,0.1-0.2c0-0.1,0.1-0.1,0.1-0.2c0,0,0-0.1-0.1-0.1c0,0-0.1,0-0.1,0.1
			c0,0.1,0,0.1-0.1,0.2c0,0.1-0.1,0.1-0.1,0.2c0,0.1,0,0.2,0.1,0.2c0,0,0.1,0.1,0.1,0.2c0,0.1,0,0.1-0.1,0.2
			C-337.7,160-337.7,160-337.7,160.1z"/>
		<path d="M-337.3,160.1C-337.3,160.2-337.3,160.2-337.3,160.1c0.1,0.1,0.1,0,0.1,0c0-0.1,0-0.1,0.1-0.2c0-0.1,0.1-0.1,0.1-0.2
			c0-0.1,0-0.2-0.1-0.2c0-0.1-0.1-0.1-0.1-0.2c0-0.1,0-0.1,0.1-0.2c0-0.1,0.1-0.1,0.1-0.2c0,0,0-0.1-0.1-0.1c0,0-0.1,0-0.1,0.1
			c0,0.1,0,0.1-0.1,0.2c0,0.1-0.1,0.1-0.1,0.2c0,0.1,0,0.2,0.1,0.2c0,0,0.1,0.1,0.1,0.2c0,0.1,0,0.1-0.1,0.2
			C-337.3,160-337.3,160-337.3,160.1z"/>
		<path d="M-337,160.1C-337,160.2-337,160.2-337,160.1c0.1,0.1,0.1,0,0.1,0c0-0.1,0-0.1,0.1-0.2c0-0.1,0.1-0.1,0.1-0.2
			c0-0.1,0-0.2-0.1-0.2c0-0.1-0.1-0.1-0.1-0.2c0-0.1,0-0.1,0.1-0.2c0-0.1,0.1-0.1,0.1-0.2c0,0,0-0.1-0.1-0.1c0,0-0.1,0-0.1,0.1
			c0,0.1,0,0.1-0.1,0.2c0,0.1-0.1,0.1-0.1,0.2c0,0.1,0,0.2,0.1,0.2c0,0,0.1,0.1,0.1,0.2c0,0.1,0,0.1-0.1,0.2
			C-336.9,160-337,160-337,160.1z"/>
	</g>
	<path class="st0" d="M-341.6,164.8c0,0-0.1,0.2,0.3,0.2v0.1h-0.4v-0.3L-341.6,164.8z"/>
	<path class="st0" d="M-336.5,160.7c0,0,0-0.3-0.3-0.3v-0.1h0.4v0.3L-336.5,160.7z"/>
</g>
</svg>
