<?xml version="1.0" encoding="utf-8"?>
<!-- Generator: Adobe Illustrator 19.0.0, SVG Export Plug-In . SVG Version: 6.00 Build 0)  -->
<svg version="1.1"
	 id="Layer_1" xmlns:rdf="http://www.w3.org/1999/02/22-rdf-syntax-ns#" xmlns:cc="http://creativecommons.org/ns#" xmlns:dc="http://purl.org/dc/elements/1.1/"
	 xmlns="http://www.w3.org/2000/svg" xmlns:xlink="http://www.w3.org/1999/xlink" x="0px" y="0px" viewBox="-297 101 100 125"
	 style="enable-background:new -297 101 100 125;" xml:space="preserve">
<g transform="translate(0,-952.36218)">
	<path d="M-213.9,1077.1c0,0-18.4,1.4-36.8,7.7c-9.2,3.2-18.4,7.5-25.3,13.6c-6.8,6-11.4,13.9-11.4,23.7c-0.1,0.1-0.3,0.3-0.5,0.4
		c-0.5,0.4-1.1,1-1.7,1.7c-0.6,0.7-1.3,1.4-1.8,2.2c-0.5,0.7-1,1.4-1.1,2.2c-0.1,0.5,0.2,0.9,0.6,1c0.1,0,0.1,0,0.2,0h85
		c0.5,0,0.8-0.4,0.8-0.8v-5.4h2c0.5,0,0.8-0.4,0.8-0.9c0-0.1,0-0.1,0-0.2l-7.6-34l3.6-0.8c0.5-0.1,0.7-0.5,0.7-1l-0.1-0.6l3.5-0.8
		c1.1-0.2,1.7-1.4,1.5-2.4c-0.2-0.7-0.8-1.2-1.5-1.4c0,0,0,0-0.1,0c-0.1-0.1-0.3-0.2-0.5-0.2c0,0,0,0,0,0c-0.1,0-0.2,0-0.4,0.1
		l-3.4,0.8l-0.1-0.3c-0.1-0.5-0.5-0.8-1-0.7c0,0,0,0,0,0l-3.6,0.8l-0.9-4.2C-213.1,1077.3-213.4,1077-213.9,1077.1L-213.9,1077.1z
		 M-214.5,1078.8l0.9,4.1c0,0.1,0,0.1,0,0.2l1.1,4.8c0,0.1,0,0.1,0.1,0.2l7.5,33.6h-1.7h-0.1l-78.9-0.2c0.1-9.1,4.3-16.2,10.7-21.9
		c6.7-5.9,15.7-10.2,24.8-13.3C-232.6,1080.3-215.6,1078.9-214.5,1078.8L-214.5,1078.8z M-209,1082.9l0.1,0.2c0,0,0,0.1,0,0.1
		l0.4,1.8l0.1,0.6c0,0.1,0,0.1,0.1,0.2l0.1,0.3l-2.8,0.6l-0.7-3.2L-209,1082.9L-209,1082.9z M-203.6,1082.9
		C-203.6,1082.9-203.6,1082.9-203.6,1082.9C-203.6,1082.9-203.5,1082.9-203.6,1082.9c0.3,0,0.4,0.1,0.4,0.2c0,0.2,0,0.3-0.2,0.4
		l-3.4,0.8l-0.1-0.6L-203.6,1082.9L-203.6,1082.9z M-222,1084.3c0,0-11,0.8-22,4.6c-5.5,1.9-11,4.4-15.2,8.1
		c-4.2,3.6-7,8.4-6.9,14.4c0,0.5,0.4,0.8,0.8,0.8l22.8,0c0.1,0,0.1,0,0.2,0h9l17.2,0c0.5,0,0.8-0.4,0.8-0.9c0-0.1,0-0.1,0-0.2
		l-5.9-26.3C-221.2,1084.5-221.6,1084.2-222,1084.3L-222,1084.3z M-222.6,1086.1l5.5,24.5l-15.3,0v-2.7h0.1c1.6,0,2.8-1.3,2.8-2.8
		s-1.3-2.8-2.8-2.8h-10.9c-1.6,0-2.8,1.3-2.8,2.8s1.3,2.8,2.8,2.8h0.1v2.7l-21.2,0c0.2-5,2.5-9,6.2-12.3c3.9-3.4,9.2-6,14.6-7.8
		C-233.3,1087-223.7,1086.1-222.6,1086.1L-222.6,1086.1z M-243.1,1103.8h10.9c0.7,0,1.2,0.5,1.2,1.2c0,0.7-0.5,1.2-1.2,1.2h-10.9
		c-0.7,0-1.2-0.5-1.2-1.2C-244.3,1104.3-243.8,1103.8-243.1,1103.8z M-241.3,1107.8h7.2v2.7h-7.2V1107.8z M-286.2,1123.3l78.7,0.1
		v4.5h-82.8c0.1-0.2,0.1-0.3,0.3-0.6c0.5-0.6,1.1-1.3,1.7-2c0.6-0.6,1.2-1.2,1.6-1.7C-286.5,1123.5-286.4,1123.4-286.2,1123.3
		L-286.2,1123.3z"/>
</g>
</svg>
