<?xml version="1.0" encoding="utf-8"?>
<!-- Generator: Adobe Illustrator 21.0.0, SVG Export Plug-In . SVG Version: 6.00 Build 0)  -->
<svg version="1.1" id="Layer_1" xmlns="http://www.w3.org/2000/svg" xmlns:xlink="http://www.w3.org/1999/xlink" x="0px" y="0px"
	 viewBox="0 0 100 125" style="enable-background:new 0 0 100 125;" xml:space="preserve">
<g>
	<path d="M43.7,74.9c0,0.1,0.2,0.3,0.6,0.3h11.3c0.4,0,0.6-0.2,0.6-0.3c0-0.4,0.3-0.7,0.7-0.7h33.3V25c0-1.8-1.5-3.3-3.3-3.3H13
		c-1.8,0-3.3,1.5-3.3,3.3v49.2H43C43.4,74.2,43.7,74.5,43.7,74.9z M11.7,25c0-0.7,0.6-1.2,1.2-1.2H87c0.7,0,1.3,0.6,1.3,1.2v47.8
		H11.7L11.7,25L11.7,25z"/>
	<path d="M94.8,78.2c3.2,0,5-1.3,5-1.3l0,0v-2H57c0,0.6-0.6,1-1.3,1H44.4c-0.7,0-1.3-0.5-1.3-1H0.3v2l0,0c0,0,1.8,1.3,5,1.3H94.8z"
		/>
</g>
<g>
	<path d="M49.3,54c-0.2,0-0.4-0.1-0.5-0.2l-7.1-7.5c-0.3-0.3-0.3-0.8,0-1.1c0.3-0.3,0.8-0.3,1.1,0l6.5,6.9L64,33.9
		c0.3-0.3,0.7-0.4,1.1-0.1c0.3,0.3,0.4,0.7,0.1,1.1L49.9,53.7C49.7,53.8,49.5,53.9,49.3,54C49.3,54,49.3,54,49.3,54z"/>
</g>
</svg>
