<?xml version="1.0" encoding="utf-8"?>
<!-- Generator: Adobe Illustrator 19.0.0, SVG Export Plug-In . SVG Version: 6.00 Build 0)  -->
<svg version="1.1" id="Layer_1" xmlns="http://www.w3.org/2000/svg" xmlns:xlink="http://www.w3.org/1999/xlink" x="0px" y="0px"
	 viewBox="-297 101 100 125" style="enable-background:new -297 101 100 125;" xml:space="preserve">
<path d="M-283.7,191.1h73.4c0.6,0,1-0.4,1-1v-62.6h1.2c0.6,0,1-0.4,1-1v-8.8c0-0.6-0.4-1-1-1h-9.8v-2c0-1.9-1.6-3.5-3.5-3.5h-2.4
	c-0.6,0-1,0.4-1,1c0,0.6,0.4,1,1,1h2.4c0.8,0,1.5,0.7,1.5,1.5v2h-7.5v-3.5c0-0.6-0.4-1-1-1s-1,0.4-1,1v3.5h-7.5v-2
	c0-0.8,0.7-1.5,1.5-1.5h2.4c0.6,0,1-0.4,1-1c0-0.6-0.4-1-1-1h-2.4c-1.9,0-3.5,1.6-3.5,3.5v2h-17.1v-2c0-1.9-1.6-3.5-3.5-3.5h-2.4
	c-0.6,0-1,0.4-1,1c0,0.6,0.4,1,1,1h2.4c0.8,0,1.5,0.7,1.5,1.5v2h-7.5v-3.5c0-0.6-0.4-1-1-1c-0.6,0-1,0.4-1,1v3.5h-7.5v-2
	c0-0.8,0.7-1.5,1.5-1.5h2.4c0.6,0,1-0.4,1-1c0-0.6-0.4-1-1-1h-2.4c-1.9,0-3.5,1.6-3.5,3.5v2h-9.1c-0.6,0-1,0.4-1,1v8.8
	c0,0.6,0.4,1,1,1h1.2v62.6C-284.7,190.6-284.3,191.1-283.7,191.1z M-211.3,189.1h-71.4v-47.8h71.4L-211.3,189.1L-211.3,189.1z
	 M-211.3,139.3h-71.4v-11.9h71.4L-211.3,139.3L-211.3,139.3z M-284.9,125.4v-6.8h75.9v6.8L-284.9,125.4L-284.9,125.4z"/>
<path d="M-262.8,136.8c1.9,0,3.4-1.5,3.4-3.4c0-1.9-1.5-3.4-3.4-3.4c-1.9,0-3.4,1.5-3.4,3.4S-264.6,136.8-262.8,136.8z M-262.8,132
	c0.8,0,1.4,0.6,1.4,1.4s-0.6,1.4-1.4,1.4s-1.4-0.6-1.4-1.4S-263.5,132-262.8,132z"/>
<path d="M-252.3,136.8c1.9,0,3.4-1.5,3.4-3.4c0-1.9-1.5-3.4-3.4-3.4c-1.9,0-3.4,1.5-3.4,3.4S-254.1,136.8-252.3,136.8z M-252.3,132
	c0.8,0,1.4,0.6,1.4,1.4s-0.6,1.4-1.4,1.4c-0.8,0-1.4-0.6-1.4-1.4S-253,132-252.3,132z"/>
<path d="M-241.7,136.8c1.9,0,3.4-1.5,3.4-3.4c0-1.9-1.5-3.4-3.4-3.4c-1.9,0-3.4,1.5-3.4,3.4S-243.6,136.8-241.7,136.8z M-241.7,132
	c0.8,0,1.4,0.6,1.4,1.4s-0.6,1.4-1.4,1.4c-0.8,0-1.4-0.6-1.4-1.4S-242.5,132-241.7,132z"/>
<path d="M-231.2,136.8c1.9,0,3.4-1.5,3.4-3.4c0-1.9-1.5-3.4-3.4-3.4c-1.9,0-3.4,1.5-3.4,3.4S-233.1,136.8-231.2,136.8z M-231.2,132
	c0.8,0,1.4,0.6,1.4,1.4s-0.6,1.4-1.4,1.4c-0.8,0-1.4-0.6-1.4-1.4S-232,132-231.2,132z"/>
<path d="M-272.1,154v26.2c0,0.6,0.4,1,1,1h48.3c0.6,0,1-0.4,1-1V154c1.8-0.3,3.3-1.9,3.3-3.8v-0.9c0-0.6-0.4-1-1-1s-1,0.4-1,1v0.9
	c0,0.8-0.5,1.5-1.3,1.8v-4.6c0-0.6-0.4-1-1-1h-48.3c-0.6,0-1,0.4-1,1v4.6c-0.8-0.2-1.5-0.9-1.5-1.8v-0.2c0-0.6-0.4-1-1-1
	c-0.6,0-1,0.4-1,1v0.2C-275.6,152.1-274.1,153.8-272.1,154z M-270.1,148.3h46.3v3.7h-46.3C-270.1,152-270.1,148.3-270.1,148.3z
	 M-270.1,154h46.3v25.2h-46.3C-270.1,179.2-270.1,154-270.1,154z"/>
</svg>
