<?xml version="1.0" encoding="utf-8"?>
<!-- Generator: Adobe Illustrator 21.0.0, SVG Export Plug-In . SVG Version: 6.00 Build 0)  -->
<svg version="1.1" id="Layer_1" xmlns="http://www.w3.org/2000/svg" xmlns:xlink="http://www.w3.org/1999/xlink" x="0px" y="0px"
	 viewBox="0 0 333 416.2" style="enable-background:new 0 0 333 416.2;" xml:space="preserve">
<style type="text/css">
	.st0{fill:#FFFFFF;stroke:#000000;stroke-width:5.5;stroke-linecap:round;stroke-linejoin:round;stroke-miterlimit:10;}
</style>
<g>
	<g>
		<path d="M281.2,227V118c3-4,6-9,7-13c3-11-2-17-13-14c-5,2-10,4-13,7h-118c-4-3-8-5-13-7c-11-3-16,3-13,14c1,4,4,9,7,13v5h-6
			c-3-3-8-6-12-7c-11-3-17,3-14,14c2,4,4,9,7,12v96.6c0.1,0,0.3,0,0.4,0c1.5,0.1,3.1,0.2,4.6,0.5V140c-3-3-6-7-7-12c-2-7,0-9,7-7
			c5,1,9,3,12,7h123c3-4,7-6,11-7c8-2,10,0,8,7c-2,5-4,9-7,12v114c3,3,5,7,7,12c2,7,0,9-8,7c-4-1-8-3-11-7H240
			c0,0.1,0.1,0.2,0.1,0.4c0.8,2.3,0.9,4.6,0.5,6.8c2.9,2.2,6.5,4.1,9.5,4.8c11,3,17-3,14-14c-2-4-4-9-7-12v-5h5c3,3,8,5,13,6
			c11,3,16-2,13-13C287.2,235,284.2,231,281.2,227z M276.2,249c-5-2-8-4-12-7h-7V142c3-3,5-8,7-12c3-11-3-17-14-14c-4,1-9,4-12,7
			h-108v-7c-4-4-6-8-7-12c-2-7,0-10,7-8c4,2,8,4,12,7h122c4-3,7-5,12-7c7-2,9,1,7,8c-1,4-3,8-7,12v113c4,4,6,8,7,12
			C285.2,248,283.2,250,276.2,249z"/>
		<path d="M255.3,279c-1.6,0-3.4-0.3-5.3-0.8c-2.9-0.7-6.5-2.5-9.6-4.8l-0.1-0.1l0-0.2c0.4-2.3,0.3-4.5-0.5-6.7l0-0.1
			c0-0.1,0-0.1,0-0.2c0-0.1-0.1-0.1-0.1-0.2v-0.3h0.6l0.1,0.1c2.6,3.5,6.2,5.7,10.9,6.9c4.1,1,6.5,1,7.6-0.2c1-1,1-3.1,0.1-6.5
			c-1.7-4.3-3.7-8.7-6.9-11.9l-0.1-0.1V139.9l0.1-0.1c3.2-3.2,5.2-7.6,6.9-11.9c1-3.4,0.9-5.4-0.1-6.5c-1.1-1.1-3.5-1.2-7.6-0.2
			c-4.7,1.2-8.3,3.4-10.9,6.9l-0.1,0.1H117.1l-0.1-0.1c-2.7-3.6-6.5-5.8-11.8-6.9c-3.5-1-5.6-1-6.6,0.1c-1,1-1,3.2-0.1,6.6
			c0.8,4.1,3.2,8.1,6.9,11.9l0.1,0.1v99.5l-0.3-0.1c-1.4-0.3-2.9-0.4-4.4-0.5l-0.2,0l-0.6,0v-96.7c-2.4-2.4-4.1-6.1-5.8-9.5
			c-0.4-0.8-0.8-1.7-1.2-2.4c-1.5-5.5-0.8-9.9,1.8-12.5c2.6-2.6,7.1-3.3,12.5-1.8c3.9,1,8.9,3.9,12,7h5.6v-4.7
			c-1.7-2.3-5.8-8.1-7-13c-1.5-5.7-1-10.2,1.6-12.7c2.4-2.4,6.5-3,11.7-1.6c5.6,2.2,9.4,4.3,13,7h117.8c3-3,8.1-5,13-7
			c5.3-1.4,9.3-0.9,11.8,1.5c2.6,2.6,3.1,7.1,1.6,12.8c-1.2,5-5.3,10.7-7,13v108.8c3,3.9,6,8,6.9,13c1.5,5.5,1,9.6-1.3,12
			s-6.5,2.8-12,1.3c-3.3-0.7-9.3-2.3-13-6h-4.6v4.6c2.4,2.4,4.1,6.1,5.8,9.5c0.4,0.8,0.8,1.7,1.2,2.4c1.5,5.5,0.8,9.9-1.8,12.5
			C260.8,278.1,258.3,279,255.3,279z M240.9,273.1c3,2.3,6.5,4,9.3,4.7c5.2,1.4,9.5,0.8,12-1.7c2.5-2.5,3.1-6.8,1.7-12
			c-0.4-0.7-0.8-1.6-1.2-2.4c-1.7-3.5-3.4-7.1-5.8-9.5l-0.1-0.1v-5.4h5.4l0.1,0.1c2.7,2.7,7.4,4.8,12.9,5.9c5.3,1.5,9.3,1,11.5-1.2
			c2.2-2.2,2.6-6.2,1.2-11.5c-0.9-5-3.9-9-6.9-12.9l0-0.1V117.9l0-0.1c3.6-4.7,6.1-9.4,7-12.9c1.5-5.5,1-9.9-1.4-12.3
			c-2.3-2.3-6.2-2.8-11.3-1.4c-4.9,1.9-9.9,4-12.9,6.9l-0.1,0.1H144.1l-0.1,0c-3.6-2.7-7.4-4.7-12.9-7c-5-1.4-8.9-0.9-11.2,1.4
			c-2.4,2.4-2.9,6.8-1.4,12.3c0.9,3.5,3.4,8.2,7,12.9l0,0.1v5.3h-6.4l-0.1-0.1c-3.1-3.1-8.1-6-11.9-6.9c-5.2-1.4-9.5-0.8-12,1.7
			s-3.1,6.8-1.7,12c0.4,0.7,0.8,1.6,1.2,2.4c1.7,3.5,3.4,7.1,5.8,9.5l0.1,0.1v96.5l0.3,0c1.4,0.1,2.8,0.2,4.2,0.4v-98.7
			c-3.8-3.8-6.2-7.9-7-12.1c-1-3.7-1-5.9,0.2-7.1c1.2-1.2,3.4-1.2,7.1-0.2c5.4,1.1,9.3,3.3,12.1,7h122.8c2.7-3.5,6.3-5.8,11.1-7
			c4.3-1.1,6.9-1,8.1,0.3c1.2,1.2,1.2,3.4,0.2,7c-1.7,4.3-3.8,8.8-7,12v113.8c3.2,3.2,5.3,7.7,7,12c1,3.6,1,5.8-0.2,7
			c-1.3,1.3-3.8,1.4-8.1,0.3c-4.5-1.1-8-3.3-10.7-6.5C241.1,268.8,241.2,270.9,240.9,273.1z M279.2,249.5c-0.9,0-1.9-0.1-3-0.2
			l-0.1,0c-4.8-1.9-7.8-3.9-12-7H257V141.9l0.1-0.1c2.4-2.4,4.1-6,5.8-9.5c0.4-0.8,0.8-1.7,1.2-2.5c1.4-5.2,0.8-9.4-1.7-12
			c-2.5-2.5-6.8-3.1-12-1.7c-3.8,1-8.8,3.9-11.9,6.9l-0.1,0.1H130v-7.1c-3.6-3.6-5.9-7.5-7-12c-1.1-3.9-1-6.5,0.4-7.8
			c1.3-1.3,3.6-1.4,6.9-0.5c4,2,8,4,12,7h121.8c4.2-3.1,7.2-5,12-7c3.4-1,5.7-0.8,6.9,0.5c1.4,1.4,1.5,3.9,0.4,7.8
			c-1.1,4.5-3.4,8.4-7,12v112.8c3.6,3.6,5.9,7.5,7,12c1,3.6,1,5.9-0.1,7.2C282.5,249,281.2,249.5,279.2,249.5z M276.3,248.8
			c3.5,0.5,5.6,0.2,6.7-1c1-1.2,1-3.3,0-6.7c-1.1-4.4-3.4-8.3-6.9-11.9l-0.1-0.1V115.9l0.1-0.1c3.6-3.6,5.8-7.4,6.9-11.9
			c1-3.7,1-6.1-0.3-7.4c-1.1-1.1-3.3-1.2-6.4-0.3c-4.8,1.9-7.8,3.8-11.9,7l-0.1,0H142.1l-0.1,0c-4-3-8-5-12-7
			c-3.1-0.9-5.3-0.8-6.4,0.4c-1.2,1.2-1.3,3.7-0.3,7.3c1.1,4.4,3.4,8.3,6.9,11.9l0.1,0.1v6.9h107.6c3.1-3.1,8.2-6,12-7
			c5.4-1.5,9.8-0.8,12.5,1.8s3.3,7.1,1.8,12.5c-0.4,0.8-0.8,1.7-1.2,2.5c-1.7,3.5-3.4,7.1-5.8,9.5v99.6h6.8l0.1,0
			C268.5,244.9,271.5,246.8,276.3,248.8z"/>
	</g>
	<g>
		<path d="M188.2,207c6-6,6-15,0-20c-5-5-14-5-19,0c-6,5-6,14,0,20C174.2,212,183.2,212,188.2,207z M172.2,191c4-4,9-4,13,0
			c3,3,3,9,0,12c-4,4-9,4-13,0C169.2,200,169.2,194,172.2,191z"/>
		<path d="M178.7,211c-3.6,0-7.1-1.3-9.7-3.8c-3.1-3.1-4.7-7.1-4.6-11.2c0.2-3.6,1.8-6.9,4.6-9.2c5-5,14.3-5,19.3,0
			c2.8,2.3,4.4,5.6,4.6,9.2c0.2,4-1.5,8.1-4.6,11.2C185.8,209.7,182.3,211,178.7,211z M178.7,183.5c-3.4,0-6.9,1.2-9.3,3.7
			c-2.7,2.2-4.3,5.4-4.4,8.9c-0.2,3.9,1.4,7.8,4.4,10.8c4.9,4.9,13.8,4.9,18.6,0c3-3,4.6-6.9,4.4-10.8c-0.2-3.5-1.7-6.6-4.4-8.9
			C185.6,184.7,182.1,183.5,178.7,183.5z M178.7,206.3c-2.3,0-4.6-1-6.7-3.1c-3.1-3.1-3.1-9.2,0-12.4c4.1-4.1,9.2-4.1,13.4,0
			c3.1,3.1,3.1,9.2,0,12.4C183.3,205.2,181,206.3,178.7,206.3z M178.7,188.3c-2.2,0-4.4,1-6.3,2.9c-2.9,2.9-2.9,8.8,0,11.6
			c3.9,3.9,8.7,3.9,12.6,0c2.9-2.9,2.9-8.8,0-11.6C183.1,189.2,180.9,188.3,178.7,188.3z"/>
	</g>
</g>
<g>
	<g>
		<g>
			<path d="M224,335.8l-120.8-1c-25.1-0.5-45.4-19.6-47.1-44.4c0-0.1,0-0.1,0-0.2v-2.1c0-16.1,4.7-53.5,47.8-53.5h109
				c22.1-0.6,30.1,7.5,32.9,14.4c2.9,7,1.1,15.5-2.6,21.1c14.2,4.6,20.2,18.6,19.7,30.8C261.6,322.2,246.3,335.8,224,335.8z
				 M61.5,290.2c1.6,21.9,19.5,38.7,41.7,39.1l120.8,1c19.5,0,32.2-11.4,33.2-29.7c0.5-11.3-5.3-23.7-19.3-26.1H106.5
				c-7.2,0-10.4,5.7-10.4,11.3c0,5.9,3.6,12.3,11.5,12.3h114.2c1.5,0,2.8,1.2,2.8,2.8s-1.2,2.8-2.8,2.8H107.6
				c-11.2,0-17-8.9-17-17.8c0-8.4,5.5-16.8,15.9-16.8H237c3.3-3.7,6.2-11.5,3.5-18c-3.1-7.5-12.7-11.3-27.7-10.9l-109.1,0
				c-36.8,0-42.3,30.1-42.3,48V290.2z"/>
		</g>
		<g>
			<path class="st0" d="M64.2,300.8"/>
		</g>
	</g>
</g>
</svg>
