<?xml version="1.0" encoding="utf-8"?>
<!-- Generator: Adobe Illustrator 19.0.0, SVG Export Plug-In . SVG Version: 6.00 Build 0)  -->
<svg version="1.1" id="Layer_1" xmlns="http://www.w3.org/2000/svg" xmlns:xlink="http://www.w3.org/1999/xlink" x="0px" y="0px"
	 viewBox="-297 101 100 125" style="enable-background:new -297 101 100 125;" xml:space="preserve">
<style type="text/css">
	.st0{stroke:#000000;stroke-width:0.5;stroke-miterlimit:10;}
</style>
<g>
	<path class="st0" d="M-206.1,140.6h-3c-0.5-8.7-7.7-15.6-16.5-15.6s-16,6.9-16.5,15.6h-3c-0.5,0-0.9,0.4-0.9,0.9v23
		c0,0.5,0.4,0.9,0.9,0.9s0.9-0.4,0.9-0.9v-22.1h2.9c0,0,0,0,0,0c0.3,0,0.6-0.2,0.8-0.4c0.1-0.1,0.2-0.3,0.2-0.5c0,0,0,0,0,0
		c0-8.1,6.6-14.7,14.7-14.7c8.1,0,14.7,6.6,14.7,14.7c0,0.5,0.4,0.9,0.9,0.9h2.9v42.1h-2.9c-0.5,0-0.9,0.4-0.9,0.9
		c0,8.1-6.6,14.7-14.7,14.7c-8.1,0-14.7-6.6-14.7-14.7c0,0,0,0,0,0c0-0.3-0.1-0.5-0.3-0.6c-0.2-0.2-0.4-0.3-0.6-0.3c0,0,0,0,0,0
		h-2.9v-4.5c0-0.5-0.4-0.9-0.9-0.9s-0.9,0.4-0.9,0.9v5.4c0,0.5,0.4,0.9,0.9,0.9h3c0.5,8.7,7.7,15.6,16.5,15.6s16-6.9,16.5-15.6h3
		c0.5,0,0.9-0.4,0.9-0.9v-44C-205.2,141-205.6,140.6-206.1,140.6z"/>
	<path class="st0" d="M-225.5,183.5c6,0,10.9-4.9,10.9-10.9c0-6-4.9-10.9-10.9-10.9c-3.8,0-7.4,2-9.4,5.3c-4.9,0-10.9-0.3-14.9-1.2
		c-0.6-0.1-1.3-0.3-2-0.4l-0.1,0c-7.7-1.7-18.3-4.1-26.7-4.1c-2,0-3.7,0.1-5.3,0.4c-3.2,0.5-5.3,3.5-4.8,6.7
		c0.5,2.8,2.9,4.9,5.8,4.9c0.3,0,0.6,0,0.9-0.1c1-0.2,2.1-0.2,3.5-0.2c7,0,16.9,2.2,24.1,3.8l0.2,0c0.7,0.2,1.3,0.3,1.9,0.4
		c5,1.1,12.1,1.4,17.7,1.5C-232.7,181.6-229.2,183.5-225.5,183.5z M-225.5,163.4c5,0,9.1,4.1,9.1,9.1s-4.1,9.1-9.1,9.1
		c-2.6,0-5.1-1.2-6.9-3.1c3.9,0,6.8-0.1,7.1-0.2c3.2-0.2,5.7-2.9,5.6-6.1c-0.1-3.1-2.7-5.6-5.8-5.6c-0.1,0-0.2,0-0.3,0
		c0,0-2.9,0.1-6.9,0.1C-231,164.7-228.3,163.4-225.5,163.4z M-253.9,174.8l-0.2,0c-7.3-1.6-17.3-3.9-24.5-3.9
		c-1.4,0-2.7,0.1-3.8,0.3c-0.2,0-0.4,0.1-0.6,0.1c-2,0-3.6-1.4-3.9-3.4c-0.4-2.2,1.1-4.2,3.3-4.6c1.5-0.2,3.2-0.4,5-0.4
		c8.2,0,18.6,2.3,26.3,4.1l0.1,0c0.7,0.2,1.3,0.3,2,0.4c4.6,1,11.7,1.2,16.9,1.2c4.4,0,7.6-0.1,7.6-0.2c2.2-0.1,4.1,1.6,4.2,3.8
		c0.1,2.2-1.6,4.1-3.8,4.2c-0.4,0-3.5,0.2-7.9,0.2c-5.6,0-13.4-0.2-18.7-1.4C-252.6,175.1-253.2,175-253.9,174.8z"/>
	<path class="st0" d="M-227.2,175.3c0.5,0,0.9-0.4,0.9-0.9V172h0.9c0.5,0,0.9-0.4,0.9-0.9s-0.4-0.9-0.9-0.9h-1.8
		c-0.5,0-0.9,0.4-0.9,0.9v3.4C-228.1,174.9-227.7,175.3-227.2,175.3z"/>
	<path class="st0" d="M-225,133.1c-1.9,0-3.5,1.5-3.5,3.4s1.5,3.4,3.5,3.4s3.5-1.5,3.5-3.4S-223.1,133.1-225,133.1z M-225,138.2
		c-0.9,0-1.6-0.7-1.6-1.6s0.7-1.6,1.6-1.6c0.9,0,1.6,0.7,1.6,1.6S-224.1,138.2-225,138.2z"/>
	<path class="st0" d="M-225,154.1c1.9,0,3.5-1.5,3.5-3.4s-1.5-3.4-3.5-3.4s-3.5,1.5-3.5,3.4C-228.4,152.6-226.9,154.1-225,154.1z
		 M-225,149c0.9,0,1.6,0.7,1.6,1.6s-0.7,1.6-1.6,1.6c-0.9,0-1.6-0.7-1.6-1.6S-225.9,149-225,149z"/>
	<path class="st0" d="M-228.8,143.6c0-1.9-1.5-3.4-3.5-3.4s-3.5,1.5-3.5,3.4s1.5,3.4,3.5,3.4S-228.8,145.5-228.8,143.6z
		 M-233.8,143.6c0-0.9,0.7-1.6,1.6-1.6c0.9,0,1.6,0.7,1.6,1.6s-0.7,1.6-1.6,1.6C-233.1,145.2-233.8,144.5-233.8,143.6z"/>
	<path class="st0" d="M-240.2,153.2c0,1.9,1.5,3.4,3.5,3.4s3.5-1.5,3.5-3.4s-1.5-3.4-3.5-3.4S-240.2,151.3-240.2,153.2z
		 M-235.1,153.2c0,0.9-0.7,1.6-1.6,1.6s-1.6-0.7-1.6-1.6s0.7-1.6,1.6-1.6S-235.1,152.3-235.1,153.2z"/>
	<path class="st0" d="M-217.8,153.2c0,1.9,1.5,3.4,3.5,3.4s3.5-1.5,3.5-3.4s-1.5-3.4-3.5-3.4S-217.8,151.3-217.8,153.2z
		 M-214.4,151.6c0.9,0,1.6,0.7,1.6,1.6c0,0.9-0.7,1.6-1.6,1.6c-0.9,0-1.6-0.7-1.6-1.6C-216,152.3-215.3,151.6-214.4,151.6z"/>
	<path class="st0" d="M-218.9,140.2c-1.9,0-3.5,1.5-3.5,3.4s1.5,3.4,3.5,3.4s3.5-1.5,3.5-3.4C-215.4,141.7-217,140.2-218.9,140.2z
		 M-218.9,145.2c-0.9,0-1.6-0.7-1.6-1.6s0.7-1.6,1.6-1.6c0.9,0,1.6,0.7,1.6,1.6S-218,145.2-218.9,145.2z"/>
	<path class="st0" d="M-220.6,189.4h-8.7c-0.5,0-0.9,0.4-0.9,0.9s0.4,0.9,0.9,0.9h8.7c0.5,0,0.9-0.4,0.9-0.9
		C-219.7,189.8-220.1,189.4-220.6,189.4z"/>
	<path class="st0" d="M-220.6,193.1h-8.7c-0.5,0-0.9,0.4-0.9,0.9s0.4,0.9,0.9,0.9h8.7c0.5,0,0.9-0.4,0.9-0.9
		C-219.7,193.5-220.1,193.1-220.6,193.1z"/>
</g>
</svg>
