<?xml version="1.0" encoding="utf-8"?>
<!-- Generator: Adobe Illustrator 19.0.0, SVG Export Plug-In . SVG Version: 6.00 Build 0)  -->
<svg version="1.1" id="Layer_1" xmlns="http://www.w3.org/2000/svg" xmlns:xlink="http://www.w3.org/1999/xlink" x="0px" y="0px"
	 viewBox="-315 123 64 80" style="enable-background:new -315 123 64 80;" xml:space="preserve">
<g>
	<path d="M-279.5,172.5v-20.3c0-2.2-1.8-4-4-4c-2.2,0-4,1.8-4,4v20.3c-1.9,1.3-3,3.4-3,5.7c0,3.9,3.1,7,7,7c3.9,0,7-3.1,7-7
		C-276.5,175.9-277.6,173.8-279.5,172.5z M-283.5,184.2c-3.3,0-6-2.7-6-6c0-2.1,1-3.9,2.8-5.1l0.2-0.1v-20.8c0-1.7,1.3-3,3-3
		c1.7,0,3,1.3,3,3V173l0.2,0.1c1.7,1.1,2.8,3,2.8,5.1C-277.5,181.5-280.2,184.2-283.5,184.2z"/>
	<path d="M-270.1,143.7c-2.2,0-4,1.8-4,4c0,2.2,1.8,4,4,4c2.2,0,3.9-1.8,3.9-4C-266.2,145.4-268,143.7-270.1,143.7z M-270.1,150.6
		c-1.6,0-3-1.3-3-3s1.3-3,3-3c1.6,0,2.9,1.3,2.9,3S-268.5,150.6-270.1,150.6z"/>
	<path d="M-270.1,142.9c0.3,0,0.5-0.2,0.5-0.5v-2.2c0-0.3-0.2-0.5-0.5-0.5s-0.5,0.2-0.5,0.5v2.2
		C-270.6,142.7-270.4,142.9-270.1,142.9z"/>
	<path d="M-262.8,147.1h-2.2c-0.3,0-0.5,0.2-0.5,0.5s0.2,0.5,0.5,0.5h2.2c0.3,0,0.5-0.2,0.5-0.5S-262.5,147.1-262.8,147.1z"/>
	<path d="M-270.1,152.3c-0.3,0-0.5,0.2-0.5,0.5v2.2c0,0.3,0.2,0.5,0.5,0.5s0.5-0.2,0.5-0.5v-2.2
		C-269.6,152.5-269.9,152.3-270.1,152.3z"/>
	<path d="M-277.5,148.1h2.2c0.3,0,0.5-0.2,0.5-0.5s-0.2-0.5-0.5-0.5h-2.2c-0.3,0-0.5,0.2-0.5,0.5S-277.8,148.1-277.5,148.1z"/>
	<path d="M-274.1,144.3c0.1,0.1,0.2,0.1,0.4,0.1c0.1,0,0.3,0,0.4-0.1c0.2-0.2,0.2-0.5,0-0.7l-1.6-1.6c-0.2-0.2-0.5-0.2-0.7,0
		c-0.2,0.2-0.2,0.5,0,0.7L-274.1,144.3z"/>
	<path d="M-266.8,144.3c0.1,0.1,0.2,0.1,0.4,0.1c0.1,0,0.3,0,0.4-0.1l1.6-1.6c0.2-0.2,0.2-0.5,0-0.7c-0.2-0.2-0.5-0.2-0.7,0
		l-1.6,1.6C-267,143.8-267,144.1-266.8,144.3z"/>
	<path d="M-266.1,150.9c-0.2-0.2-0.5-0.2-0.7,0c-0.2,0.2-0.2,0.5,0,0.7l1.6,1.6c0.1,0.1,0.2,0.1,0.4,0.1s0.3,0,0.4-0.1
		c0.2-0.2,0.2-0.5,0-0.7L-266.1,150.9z"/>
	<path d="M-273.4,150.9c-0.2-0.2-0.5-0.2-0.7,0l-1.6,1.6c-0.2,0.2-0.2,0.5,0,0.7c0.1,0.1,0.2,0.1,0.4,0.1s0.3,0,0.4-0.1l1.6-1.6
		C-273.2,151.4-273.2,151.1-273.4,150.9z"/>
	<path d="M-268.4,143.3c0.1,0,0.1,0,0.2,0c0.2,0,0.4-0.1,0.5-0.3l0.8-2.1c0.1-0.3,0-0.5-0.3-0.6c-0.3-0.1-0.5,0-0.6,0.3l-0.8,2.1
		C-268.8,142.9-268.7,143.2-268.4,143.3z"/>
	<path d="M-263.1,149.8l-2.1-0.8c-0.3-0.1-0.5,0-0.6,0.3c-0.1,0.3,0,0.5,0.3,0.6l2.1,0.8c0.1,0,0.1,0,0.2,0c0.2,0,0.4-0.1,0.5-0.3
		C-262.7,150.2-262.8,149.9-263.1,149.8z"/>
	<path d="M-271.8,151.9c-0.3-0.1-0.5,0-0.6,0.3l-0.8,2.1c-0.1,0.3,0,0.5,0.3,0.6c0.1,0,0.1,0,0.2,0c0.2,0,0.4-0.1,0.5-0.3l0.8-2.1
		C-271.5,152.3-271.6,152-271.8,151.9z"/>
	<path d="M-277.2,145.4l2.1,0.8c0.1,0,0.1,0,0.2,0c0.2,0,0.4-0.1,0.5-0.3c0.1-0.3,0-0.5-0.3-0.6l-2.1-0.8c-0.3-0.1-0.5,0-0.6,0.3
		C-277.6,145-277.4,145.3-277.2,145.4z"/>
	<path d="M-272.7,143.1c0.1,0.2,0.3,0.3,0.5,0.3c0.1,0,0.1,0,0.2,0c0.3-0.1,0.4-0.4,0.3-0.7l-0.9-2c-0.1-0.3-0.4-0.4-0.7-0.3
		c-0.3,0.1-0.4,0.4-0.3,0.7L-272.7,143.1z"/>
	<path d="M-265.9,145.7c0.1,0.2,0.3,0.3,0.5,0.3c0.1,0,0.1,0,0.2,0l2-0.9c0.3-0.1,0.4-0.4,0.3-0.7c-0.1-0.3-0.4-0.4-0.7-0.3l-2,0.9
		C-265.9,145.2-266,145.5-265.9,145.7z"/>
	<path d="M-267.6,152.1c-0.1-0.3-0.4-0.4-0.7-0.3c-0.3,0.1-0.4,0.4-0.3,0.7l0.9,2c0.1,0.2,0.3,0.3,0.5,0.3c0.1,0,0.1,0,0.2,0
		c0.3-0.1,0.4-0.4,0.3-0.7L-267.6,152.1z"/>
	<path d="M-275.1,149.2l-2,0.9c-0.3,0.1-0.4,0.4-0.3,0.7c0.1,0.2,0.3,0.3,0.5,0.3c0.1,0,0.1,0,0.2,0l2-0.9c0.3-0.1,0.4-0.4,0.3-0.7
		C-274.5,149.2-274.8,149.1-275.1,149.2z"/>
	<rect x="-291.5" y="152.7" width="3" height="1"/>
	<rect x="-291.5" y="154.7" width="3" height="1"/>
	<rect x="-291.5" y="156.7" width="3" height="1"/>
	<rect x="-291.5" y="158.7" width="3" height="1"/>
	<rect x="-291.5" y="160.7" width="3" height="1"/>
	<rect x="-291.5" y="162.7" width="3" height="1"/>
	<rect x="-291.5" y="164.7" width="3" height="1"/>
	<rect x="-291.5" y="166.7" width="3" height="1"/>
	<rect x="-291.5" y="168.7" width="3" height="1"/>
	<rect x="-291.5" y="170.7" width="3" height="1"/>
	<path d="M-282,174v-16.8c0-0.8-0.7-1.5-1.5-1.5s-1.5,0.7-1.5,1.5V174c-1.8,0.6-3,2.3-3,4.2c0,2.5,2,4.5,4.5,4.5
		c2.5,0,4.5-2,4.5-4.5C-279,176.3-280.2,174.6-282,174z M-283.5,181.7c-1.9,0-3.5-1.6-3.5-3.5c0-1.6,1.1-3,2.6-3.4l0.4-0.1v-17.5
		c0-0.3,0.2-0.5,0.5-0.5c0.3,0,0.5,0.2,0.5,0.5v17.5l0.4,0.1c1.5,0.4,2.6,1.8,2.6,3.4C-280,180.2-281.6,181.7-283.5,181.7z"/>
</g>
</svg>
