<?xml version="1.0" encoding="utf-8"?>
<!-- Generator: Adobe Illustrator 19.0.0, SVG Export Plug-In . SVG Version: 6.00 Build 0)  -->
<svg version="1.1" id="Layer_1" xmlns="http://www.w3.org/2000/svg" xmlns:xlink="http://www.w3.org/1999/xlink" x="0px" y="0px"
	 viewBox="-297 101 100 125" style="enable-background:new -297 101 100 125;" xml:space="preserve">
<polygon points="-262.1,154.3 -261.9,154.1 -241.9,142.6 -241.6,142.5 -241.9,142 -242.1,142.2 -262.1,153.7 -262.3,153.8 "/>
<polygon points="-252.5,158.3 -252.3,158.7 -252,158.6 -232,147 -231.8,146.9 -232.1,146.5 -232.3,146.6 -252.3,158.1 "/>
<path d="M-292,125.2v46.6c0,0.3,0.2,0.6,0.6,0.6h7.9l-1.9,3c-0.5,0.8,0.1,1.9,1.1,1.9h1c0.6,0,1.3-0.3,1.6-0.9l2.2-3.5l0.3-0.5h19
	l0.3,1c0.3,1.1,1.4,1.9,2.4,1.9h20.7c1.1,0,2.2-0.9,2.4-1.9l0.3-1h20.2l0.3,0.5l2.2,3.5c0.3,0.5,0.9,0.9,1.6,0.9h1
	c1,0,1.6-1.1,1.1-1.9l-1.9-3h7.1c0.3,0,0.6-0.2,0.6-0.6v-46.6c0-0.3-0.2-0.6-0.6-0.6h-88.9C-291.8,124.7-292,124.9-292,125.2z
	 M-282.6,175.9c-0.1,0.2-0.5,0.4-0.8,0.4h-1c-0.3,0-0.4-0.2-0.2-0.4l2.2-3.5h2L-282.6,175.9z M-236.9,174.3h-20.6
	c-0.6,0-1.3-0.5-1.5-1.2l-0.2-0.8h24l-0.2,0.8C-235.6,173.8-236.3,174.3-236.9,174.3z M-208.7,175.9c0.1,0.2,0,0.4-0.2,0.4h-1
	c-0.3,0-0.6-0.2-0.8-0.4l-2.2-3.5h2L-208.7,175.9z M-203.5,170.9H-290c-0.3,0-0.6-0.2-0.6-0.6v-43.6c0-0.3,0.2-0.6,0.6-0.6h85.9
	c0.3,0,0.6,0.2,0.6,0.6L-203.5,170.9L-203.5,170.9z"/>
<circle cx="-256.6" cy="173.4" r="0.5"/>
</svg>
