<?xml version="1.0" encoding="utf-8"?>
<!-- Generator: Adobe Illustrator 19.0.0, SVG Export Plug-In . SVG Version: 6.00 Build 0)  -->
<svg version="1.1"
	 id="Layer_1" xmlns:sodipodi="http://sodipodi.sourceforge.net/DTD/sodipodi-0.dtd" xmlns:rdf="http://www.w3.org/1999/02/22-rdf-syntax-ns#" xmlns:cc="http://creativecommons.org/ns#" xmlns:inkscape="http://www.inkscape.org/namespaces/inkscape" xmlns:dc="http://purl.org/dc/elements/1.1/" xmlns:svg="http://www.w3.org/2000/svg"
	 xmlns="http://www.w3.org/2000/svg" xmlns:xlink="http://www.w3.org/1999/xlink" x="0px" y="0px" viewBox="-297 101 100 125"
	 style="enable-background:new -297 101 100 125;" xml:space="preserve">
<g transform="translate(0,-952.36218)">
	<path d="M-247,1069.3c-17.1,0-32.7,7-43.5,18.6c-0.8,0.8-0.7,2.1,0.1,2.8s2.1,0.7,2.8-0.1c10-10.8,24.5-17.3,40.5-17.3
		s30.5,6.5,40.5,17.3c0.8,0.8,2,0.9,2.8,0.1s0.9-2,0.1-2.8C-214.3,1076.3-229.9,1069.3-247,1069.3z M-247,1086.3
		c-12.3,0-23.8,5.2-31.5,13.7c-0.8,0.7-0.9,2-0.2,2.8c0.7,0.8,2,0.9,2.8,0.2c0.1-0.1,0.2-0.2,0.3-0.3c6.9-7.6,17.4-12.3,28.5-12.3
		c11.1,0,21.6,4.8,28.5,12.3c0.8,0.7,2.1,0.7,2.8-0.2c0.6-0.7,0.7-1.8,0.1-2.5C-223.2,1091.6-234.7,1086.3-247,1086.3z M-247,1102.3
		c-7.7,0-14.7,3.3-19.5,8.7c-0.7,0.8-0.7,2.1,0.2,2.8s2.1,0.7,2.8-0.2c4-4.5,9.9-7.3,16.5-7.3s12.5,2.8,16.5,7.3
		c0.7,0.8,2,0.9,2.8,0.2s0.9-2,0.2-2.8C-232.3,1105.6-239.3,1102.3-247,1102.3z M-247,1119.3c-4.9,0-9,4.1-9,9s4.1,9,9,9s9-4.1,9-9
		S-242.1,1119.3-247,1119.3z M-247,1123.3c2.8,0,5,2.2,5,5s-2.2,5-5,5s-5-2.2-5-5S-249.8,1123.3-247,1123.3z"/>
</g>
</svg>
