<?xml version="1.0" encoding="UTF-8"?>
<svg width="406px" height="336px" viewBox="0 0 406 336" version="1.1" xmlns="http://www.w3.org/2000/svg" xmlns:xlink="http://www.w3.org/1999/xlink">
    <!-- Generator: Sketch 55 (78076) - https://sketchapp.com -->
    <title>Group 23</title>
    <desc>Created with Sketch.</desc>
    <defs>
        <path d="M260.101816,3.69482223e-13 C256.78418,3.69482223e-13 254.094326,2.6865 254.094326,6 L254.094326,92.217 C254.094326,95.5305 256.78418,98.217 260.101816,98.217 L275.578614,98.217 L260.349625,127.05 L311.743708,98.217 L393.768483,98.217 C397.08612,98.217 399.775974,95.5305 399.775974,92.217 L399.775974,6 C399.775974,2.6865 397.08612,3.69482223e-13 393.768483,3.69482223e-13 L260.101816,3.69482223e-13 Z" id="path-1"></path>
        <filter x="-7.2%" y="-5.9%" width="114.4%" height="116.5%" filterUnits="objectBoundingBox" id="filter-2">
            <feOffset dx="0" dy="3" in="SourceAlpha" result="shadowOffsetOuter1"></feOffset>
            <feGaussianBlur stdDeviation="3" in="shadowOffsetOuter1" result="shadowBlurOuter1"></feGaussianBlur>
            <feColorMatrix values="0 0 0 0 0   0 0 0 0 0   0 0 0 0 0  0 0 0 0.0475852273 0" type="matrix" in="shadowBlurOuter1"></feColorMatrix>
        </filter>
    </defs>
    <g id="Page-1" stroke="none" stroke-width="1" fill="none" fill-rule="evenodd">
        <g id="error" transform="translate(-835.000000, -195.000000)">
            <g id="Group-23" transform="translate(835.000000, 198.000000)">
                <path d="M151.538951,332.619 C67.8455955,332.619 1.43529633e-12,328.578 1.43529633e-12,323.595 C1.43529633e-12,318.612 67.8455955,314.571 151.538951,314.571 C235.232307,314.571 303.077903,318.612 303.077903,323.595 C303.077903,328.578 235.232307,332.619 151.538951,332.619" id="Fill-4" fill="#A5A5A5"></path>
                <path d="M3.72164045,239.958 L3.72164045,270.9285 C3.72164045,273.8925 6.14716479,276.309 9.11186142,276.309 L293.967543,276.309 C296.936745,276.309 299.357764,273.8925 299.357764,270.9285 L299.357764,239.958 L3.72164045,239.958" id="Fill-5" fill="#F2F2EF"></path>
                <path d="M299.357764,68.9085 C299.357764,65.946 296.936745,63.525 293.967543,63.525 L9.11186142,63.525 C6.14566292,63.525 3.72013858,65.946 3.72013858,68.9085 L3.72013858,239.958 L299.357764,239.958 L299.357764,68.9085" id="Fill-6" fill="#4B4554"></path>
                <polygon id="Fill-7" fill="#D2D2CC" points="101.320835 307.488 203.008127 307.488 203.008127 276.3075 101.320835 276.3075"></polygon>
                <polygon id="Fill-8" fill="#F2F2EF" points="76.885367 322.0875 226.046854 322.0875 226.046854 307.491 76.885367 307.491"></polygon>
                <polygon id="Fill-9" fill="#B7B7B2" points="101.320835 287.577 203.008127 287.577 203.008127 276.3075 101.320835 276.3075"></polygon>
                <polygon id="Fill-10" fill="#A1B1B9" points="19.0046966 224.1795 284.131779 224.1795 284.131779 78.8835 19.0046966 78.8835"></polygon>
                <polyline id="Fill-11" fill="#EF5357" points="123.438914 107.3835 104.98991 125.811 86.5409064 107.3835 79.1607041 114.7545 97.6097079 133.182 79.1607041 151.608 86.5409064 158.979 104.98991 140.5545 123.438914 158.979 130.819116 151.608 112.370112 133.182 130.819116 114.7545 123.438914 107.3835"></polyline>
                <polyline id="Fill-12" fill="#EF5357" points="223.917199 114.7545 216.536996 107.3835 198.087993 125.811 179.638989 107.3835 172.258787 114.7545 190.70779 133.182 172.258787 151.608 179.638989 158.979 198.087993 140.5545 216.536996 158.979 223.917199 151.608 205.468195 133.182 223.917199 114.7545"></polyline>
                <path d="M191.06073,203.994 C152.019551,177.069 112.47224,203.721 112.075745,203.994 L106.955861,196.587 C107.400416,196.2795 152.082629,166.1745 196.180614,196.587 L191.06073,203.994" id="Fill-13" fill="#EF5357"></path>
                <g id="Fill-14">
                    <use fill="black" fill-opacity="1" filter="url(#filter-2)" xlink:href="#path-1"></use>
                    <use fill="#FFFFFE" fill-rule="evenodd" xlink:href="#path-1"></use>
                </g>
                <path d="M289.499436,57.0546024 C289.642494,57.2005812 289.711236,57.3781229 289.711236,57.5813096 L289.711236,58.583434 C289.711236,58.790566 289.642494,58.9641624 289.499436,59.1160592 C289.358237,59.2620379 289.194742,59.337 289.003379,59.337 L278.404111,59.337 C278.21089,59.337 278.04368,59.2620379 277.902481,59.1160592 C277.764997,58.9641624 277.696255,58.790566 277.696255,58.583434 L277.696255,40.590566 C277.696255,40.3854067 277.764997,40.2098376 277.902481,40.0579408 C278.04368,39.9119621 278.21089,39.837 278.404111,39.837 L288.793438,39.837 C288.984801,39.837 289.152011,39.9119621 289.289495,40.0579408 C289.430694,40.2098376 289.499436,40.3854067 289.499436,40.590566 L289.499436,41.5926904 C289.499436,41.7958771 289.430694,41.9734188 289.289495,42.1193976 C289.152011,42.2693217 288.984801,42.3442838 288.793438,42.3442838 L280.185829,42.3442838 L280.185829,48.2228877 L288.215634,48.2228877 C288.408854,48.2228877 288.574207,48.2958771 288.713548,48.4438285 C288.854748,48.5937527 288.92349,48.7693217 288.92349,48.974481 L288.92349,49.9766055 C288.92349,50.1797921 288.854748,50.3573338 288.713548,50.5052853 C288.574207,50.6532367 288.408854,50.7301715 288.215634,50.7301715 L280.185829,50.7301715 L280.185829,56.8297162 L289.003379,56.8297162 C289.194742,56.8297162 289.358237,56.9027056 289.499436,57.0546024 Z" id="Fill-18" fill="#3B3A39"></path>
                <path d="M299.961691,48.974481 L304.844516,48.974481 C306.231426,48.974481 307.305361,48.7081684 308.064275,48.1814613 C308.827281,47.6508088 309.20776,46.7907178 309.20776,45.6031608 C309.20776,44.4156039 308.827281,43.5752398 308.064275,43.084041 C307.305361,42.5908695 306.231426,42.3442838 304.844516,42.3442838 L299.961691,42.3442838 L299.961691,48.974481 Z M304.987707,39.837 C305.934815,39.837 306.826693,39.9474704 307.661294,40.1703839 C308.499986,40.3932974 309.236399,40.7365448 309.870532,41.2020986 C310.506711,41.6656798 311.014017,42.261431 311.38836,42.9854067 C311.764749,43.7093824 311.952943,44.5813096 311.952943,45.6031608 C311.952943,47.1083202 311.56019,48.3057405 310.78082,49.1973945 C310.003495,50.0870759 309.003201,50.720308 307.792212,51.091173 L312.151365,58.4177284 L312.239326,58.7234947 L312.051132,59.1555129 L311.605193,59.337 L310.361474,59.337 C309.978948,59.337 309.694611,59.2442838 309.510508,59.0568786 C309.326405,58.8734188 309.199578,58.7136313 309.1198,58.583434 L304.932476,51.4797921 L299.961691,51.4797921 L299.961691,58.583434 C299.961691,58.790566 299.886004,58.9641624 299.73463,59.1160592 C299.579165,59.2620379 299.395062,59.337 299.182321,59.337 L297.999969,59.337 C297.789273,59.337 297.60517,59.2620379 297.449705,59.1160592 C297.298332,58.9641624 297.220599,58.790566 297.220599,58.583434 L297.220599,40.590566 C297.220599,40.3854067 297.298332,40.2098376 297.449705,40.0579408 C297.60517,39.9119621 297.789273,39.837 297.999969,39.837 L304.987707,39.837 L304.987707,39.837 Z" id="Fill-19" fill="#3B3A39"></path>
                <path d="M320.987908,48.974481 L325.868687,48.974481 C327.255598,48.974481 328.331578,48.7081684 329.090493,48.1814613 C329.853498,47.6508088 330.231932,46.7907178 330.231932,45.6031608 C330.231932,44.4156039 329.853498,43.5752398 329.090493,43.084041 C328.331578,42.5908695 327.255598,42.3442838 325.868687,42.3442838 L320.987908,42.3442838 L320.987908,48.974481 Z M326.013924,39.837 C326.961033,39.837 327.850865,39.9474704 328.685466,40.1703839 C329.526203,40.3932974 330.26057,40.7365448 330.896749,41.2020986 C331.530882,41.6656798 332.038189,42.261431 332.414577,42.9854067 C332.78892,43.7093824 332.977115,44.5813096 332.977115,45.6031608 C332.977115,47.1083202 332.586407,48.3057405 331.807037,49.1973945 C331.027667,50.0870759 330.029419,50.720308 328.818429,51.091173 L333.177583,58.4177284 L333.265543,58.7234947 L333.077349,59.1555129 L332.629364,59.337 L331.387691,59.337 C331.00312,59.337 330.720828,59.2442838 330.536725,59.0568786 C330.352622,58.8734188 330.22375,58.7136313 330.143972,58.583434 L325.956648,51.4797921 L320.987908,51.4797921 L320.987908,58.583434 C320.987908,58.790566 320.912221,58.9641624 320.758802,59.1160592 C320.603337,59.2620379 320.419234,59.337 320.208538,59.337 L319.026187,59.337 C318.813445,59.337 318.629342,59.2620379 318.473877,59.1160592 C318.322503,58.9641624 318.246816,58.790566 318.246816,58.583434 L318.246816,40.590566 C318.246816,40.3854067 318.322503,40.2098376 318.473877,40.0579408 C318.629342,39.9119621 318.813445,39.837 319.026187,39.837 L326.013924,39.837 L326.013924,39.837 Z" id="Fill-20" fill="#3B3A39"></path>
                <path d="M350.176415,47.3144292 C350.140003,46.4648521 350.002023,45.7245885 349.758642,45.0936385 C349.515261,44.4607707 349.177977,43.9372164 348.742957,43.5210578 C348.309853,43.1068171 347.800094,42.7942187 347.215596,42.5870983 C346.629182,42.3818958 345.985276,42.2764178 345.281962,42.2764178 C344.578648,42.2764178 343.930909,42.3818958 343.346411,42.5870983 C342.75808,42.7942187 342.250237,43.1068171 341.815217,43.5210578 C341.382114,43.9372164 341.040997,44.4607707 340.786117,45.0936385 C340.535071,45.7245885 340.400923,46.4648521 340.38176,47.3144292 C340.345348,48.1256507 340.326184,48.8831743 340.326184,49.587 C340.326184,50.2927435 340.345348,51.0502671 340.38176,51.8614886 C340.400923,52.7110657 340.535071,53.4513293 340.786117,54.0822793 C341.040997,54.7151471 341.382114,55.2406192 341.815217,55.65486 C342.250237,56.0691007 342.75808,56.3797813 343.346411,56.5888194 C343.930909,56.7959398 344.578648,56.8995 345.281962,56.8995 C345.985276,56.8995 346.629182,56.7959398 347.215596,56.5888194 C347.800094,56.3797813 348.309853,56.0691007 348.742957,55.65486 C349.177977,55.2406192 349.515261,54.7151471 349.758642,54.0822793 C350.002023,53.4513293 350.140003,52.7110657 350.176415,51.8614886 C350.214742,51.0502671 350.233906,50.2927435 350.233906,49.587 C350.233906,48.8831743 350.214742,48.1256507 350.176415,47.3144292 Z M337.809968,47.1782667 C337.829132,46.1656782 338.005439,45.2125409 338.338891,44.3207726 C338.670426,43.4270865 339.153355,42.6503851 339.787679,41.9925862 C340.420087,41.3328694 341.194308,40.8073973 342.114174,40.4200055 C343.032123,40.0326137 344.088052,39.837 345.281962,39.837 C346.472038,39.837 347.527967,40.0326137 348.444001,40.4200055 C349.365783,40.8073973 350.140003,41.3328694 350.772411,41.9925862 C351.404819,42.6503851 351.887748,43.4270865 352.2212,44.3207726 C352.554651,45.2125409 352.729042,46.1656782 352.748206,47.1782667 C352.803781,48.7853674 352.803781,50.3905504 352.748206,51.9976511 C352.711795,53.0102396 352.527822,53.9633769 352.19437,54.8551452 C351.860919,55.7488312 351.377989,56.5293682 350.745582,57.1986739 C350.113174,57.8660618 349.342786,58.3896161 348.432502,58.7693367 C347.520302,59.1471397 346.472038,59.337 345.281962,59.337 C344.088052,59.337 343.039789,59.1471397 342.125672,58.7693367 C341.217304,58.3896161 340.445,57.8660618 339.812593,57.1986739 C339.180185,56.5293682 338.697255,55.7488312 338.363804,54.8551452 C338.030352,53.9633769 337.848296,53.0102396 337.809968,51.9976511 C337.758225,50.3905504 337.758225,48.7853674 337.809968,47.1782667 L337.809968,47.1782667 Z" id="Fill-21" fill="#3B3A39"></path>
                <path d="M363.040342,48.974481 L367.921122,48.974481 C369.308032,48.974481 370.381967,48.7081684 371.142927,48.1814613 C371.905932,47.6508088 372.284367,46.7907178 372.284367,45.6031608 C372.284367,44.4156039 371.905932,43.5752398 371.142927,43.084041 C370.381967,42.5908695 369.308032,42.3442838 367.921122,42.3442838 L363.040342,42.3442838 L363.040342,48.974481 Z M368.066359,39.837 C369.013467,39.837 369.903299,39.9474704 370.7379,40.1703839 C371.576592,40.3932974 372.313005,40.7365448 372.947138,41.2020986 C373.583317,41.6656798 374.090623,42.261431 374.467012,42.9854067 C374.841355,43.7093824 375.029549,44.5813096 375.029549,45.6031608 C375.029549,47.1083202 374.638841,48.3057405 373.859471,49.1973945 C373.080101,50.0870759 372.081853,50.720308 370.870863,51.091173 L375.230017,58.4177284 L375.317978,58.7234947 L375.129783,59.1555129 L374.681799,59.337 L373.440125,59.337 C373.055554,59.337 372.771217,59.2442838 372.58916,59.0568786 C372.405056,58.8734188 372.276184,58.7136313 372.196406,58.583434 L368.009082,51.4797921 L363.040342,51.4797921 L363.040342,58.583434 C363.040342,58.790566 362.964656,58.9641624 362.811236,59.1160592 C362.655771,59.2620379 362.471668,59.337 362.260972,59.337 L361.078621,59.337 C360.86588,59.337 360.681776,59.2620379 360.526311,59.1160592 C360.374938,58.9641624 360.299251,58.790566 360.299251,58.583434 L360.299251,40.590566 C360.299251,40.3854067 360.374938,40.2098376 360.526311,40.0579408 C360.681776,39.9119621 360.86588,39.837 361.078621,39.837 L368.066359,39.837 L368.066359,39.837 Z" id="Fill-22" fill="#3B3A39"></path>
            </g>
        </g>
    </g>
</svg>