<svg xmlns="http://www.w3.org/2000/svg" viewBox="0 0 79.3 72.9"><title>Asset 1</title><g id="4958987b-fae9-4b59-8463-9a0ca8baa291" data-name="Layer 2"><g id="cb2ba4ac-ae31-411c-b9dc-eceb41d30fb9" data-name="Layer 1"><g id="a3e411f4-89f2-445c-9df5-03d6c29d3b54" data-name="OBJECTS"><polygon points="69.9 51.4 65.5 42.7 55.1 39.8 60.5 30.9 65.1 36.8 72.9 33.3 66 34.5 64.1 25.1 73.4 7.8 56.6 24.2 49.3 23.3 43.1 13.8 35.6 0 38 14.5 38.3 23.4 43.3 29.5 36.4 30.4 4.9 9.8 19.7 22.2 14.6 25.9 23.2 25.1 30.5 31.2 36.1 36.1 32.6 37.3 33.2 39.9 32.8 38.3 15.3 42.8 0 58.4 15.1 45.7 33.9 43.1 34.8 47.4 40.1 61 27 64.8 36.2 72.9 32.5 66.7 43.9 62.2 38.6 45.2 43.8 42.3 49.2 49.3 52.4 44.1 63 45.8 68.9 53.6 79.3 55 69.9 51.4" style="fill:#414042"/><polygon points="55 15.4 56.5 7.7 61.8 4.7 53.3 6 51.4 13.8 43.1 13.8 45.9 18 55 15.4" style="fill:#414042"/></g></g></g></svg>