<?xml version="1.0" encoding="UTF-8"?>
<svg width="20px" height="20px" viewBox="0 0 20 20" version="1.1" xmlns="http://www.w3.org/2000/svg" xmlns:xlink="http://www.w3.org/1999/xlink">
    <!-- Generator: Sketch 55 (78076) - https://sketchapp.com -->
    <title>delete [#1487] copy 3</title>
    <desc>Created with Sketch.</desc>
    <g id="Page-1" stroke="none" stroke-width="1" fill="none" fill-rule="evenodd">
        <g id="My-Orders-Copy" transform="translate(-1160.000000, -773.000000)" fill="#FFFFFF">
            <g id="Group-7-Copy-3" transform="translate(535.000000, 718.000000)">
                <path d="M632,71 L634,71 L634,63 L632,63 L632,71 Z M636,71 L638,71 L638,63 L636,63 L636,71 Z M630,73 L640,73 L640,61 L630,61 L630,73 Z M632,59 L638,59 L638,57 L632,57 L632,59 Z M640,59 L640,55 L630,55 L630,59 L625,59 L625,61 L628,61 L628,75 L642,75 L642,61 L645,61 L645,59 L640,59 Z" id="delete-[#1487]-copy-3"></path>
            </g>
        </g>
    </g>
</svg>