<?xml version="1.0" encoding="utf-8"?>
<!-- Generator: Adobe Illustrator 22.0.1, SVG Export Plug-In . SVG Version: 6.00 Build 0)  -->
<svg version="1.1" id="Layer_1" xmlns="http://www.w3.org/2000/svg" xmlns:xlink="http://www.w3.org/1999/xlink" x="0px" y="0px"
	 viewBox="0 0 250 250" style="enable-background:new 0 0 250 250;" xml:space="preserve">
<style type="text/css">
	.st0{fill:#fff;}
</style>
<g>
	<g>
		<path class="st0" d="M132.8,1.6c1.7,0,3.4,0,5.2,0c0.6,0.4,1.1,0.8,1.7,1c28.4,13.1,56.8,26.2,85.2,39.3c1.2,0.5,1.8,1.3,2.3,2.5
			c7.3,21.4,14.7,42.7,22.1,64c0.5,1.5,0.5,3-0.3,4.5c-13.6,28.5-27.2,57-40.7,85.5c-7.8,16.3-15.5,32.6-23.3,48.9
			c-0.3,0.6-0.8,1.5-1.1,1.5c-1.8,0-3.8,0.2-5.3-0.6c-11.2-5.2-22.2-10.5-33.3-15.8c-0.8-0.4-1.9-0.7-2.8-0.6
			c-9,0.4-18.1,0.9-27.1,1.4c-18.8,1-37.6,2-56.4,3c-14.2,0.8-28.3,1.5-42.5,2.3c-2.5,0.1-5.1,0.2-7.7,0.3c0-0.5-0.1-0.9-0.1-1.2
			c-0.6-12.1-1.1-24.2-1.7-36.4C5.9,181,5,160.8,4.1,140.5C2.8,111,1.5,81.4,0.1,51.9c-0.1-3-0.4-6-0.6-9c0-2.9,0-5.7,0-8.6
			c4.8-0.3,9.7-0.7,14.5-1c12.6-0.8,25.2-1.7,37.8-2.5c16-1.1,32.1-2.2,48.1-3.2c0.7,0,1.7,0.3,2.2,0.9c3.6,3.2,7.2,6.5,10.8,9.8
			c0.4,0.4,0.9,0.8,1.4,1.2c0.4-0.7,0.6-1.2,0.9-1.7c4-8.3,8.1-16.5,12.1-24.8C129.2,9.1,131,5.4,132.8,1.6z M10.6,44.3
			c2.8,61.1,5.5,122.1,8.2,183.2c44.2-2.3,88.2-4.7,132.4-7c-0.2-4.5-0.4-8.8-0.6-13.1c-0.8-13.8-1.5-27.6-2.3-41.5
			c-0.6-11.8-1.2-23.5-1.8-35.3c-0.9-16.2-1.8-32.3-2.7-48.5c0-0.7-0.4-1.6-0.9-2C128,66.5,113.1,52.9,98.2,39.4
			c-0.5-0.5-1.4-0.8-2.1-0.7c-7.9,0.4-15.8,0.9-23.6,1.5c-7.1,0.5-14.3,1-21.4,1.4c-9.6,0.6-19.2,1.3-28.8,1.9
			C18.5,43.7,14.6,44,10.6,44.3z M155.4,96.2c0.2,3.9,0.5,7.5,0.6,11.1c0,1.4,0.5,2.1,1.8,2.7c13.9,6.6,27.8,13.3,41.8,19.9
			c0.7,0.3,1.4,0.7,2.1,1.1c-1.2,2.4-2.3,4.7-3.4,7.1c-13.9-6.7-27.7-13.2-41.7-19.9c0.2,4.5,0.4,8.6,0.6,12.7c0,1.1,0.6,1.6,1.5,2
			c7.3,3.5,14.5,6.9,21.8,10.4c4.1,2,8.2,3.9,12.4,6c-1.2,2.4-2.3,4.7-3.4,7.1c-10.6-5-21.1-10.1-31.8-15.2
			c0.2,4.1,0.5,7.8,0.7,11.5c0,1.1,0.4,1.6,1.4,2c7.6,3.6,15.3,7.3,22.9,10.9c0.7,0.3,1.3,0.7,2,1c-1.2,2.4-2.3,4.7-3.4,7.1
			c-7.5-3.6-14.8-7-22.3-10.6c0.3,6.7,0.7,13.1,1,19.6c0.5,9.9,1.1,19.9,1.6,29.8c0.3,5,0.5,9.9,0.8,14.9c0,0.6,0.3,1.5,0.7,1.7
			c4.9,2.5,9.9,4.8,15,7.2c0.3-0.5,0.5-0.9,0.7-1.3c19.6-41.1,39.2-82.3,58.8-123.4c0.5-1.1,0.5-1.9,0.1-3.1
			c-6.5-18.8-13-37.5-19.4-56.3c-0.4-1.1-0.9-1.8-2-2.3c-24.4-11.2-48.8-22.5-73.1-33.7c-1.4-0.7-2.9-1.3-4.4-2
			c-5.4,11.1-10.7,22-16,32.9c0.4,0.4,0.7,0.7,1,1c9.8,8.9,19.5,17.8,29.3,26.7c0.9,0.8,1.3,1.7,1.3,2.9c0,2.5,0.3,4.9,0.3,7.4
			c0,1.5,0.5,2.3,1.9,3c17.1,8.1,34.2,16.3,51.3,24.5c0.6,0.3,1.3,0.6,2,1c-1.2,2.5-2.3,4.7-3.4,7.1
			C189.4,112.4,172.6,104.4,155.4,96.2z"/>
		<path class="st0" d="M120.6,97.4c0.1,2.6,0.3,5.1,0.4,7.9c-29.5,1.6-59,3.1-88.7,4.7c-0.2-2.6-0.3-5.1-0.5-7.9
			C61.4,100.6,90.9,99,120.6,97.4z"/>
		<path class="st0" d="M122.6,136.9c0.1,2.8,0.3,5.2,0.4,7.9c-29.5,1.6-59.1,3.1-88.7,4.7c-0.2-2.7-0.3-5.2-0.5-7.9
			C63.5,140,92.9,138.4,122.6,136.9z"/>
		<path class="st0" d="M121.6,116.6c0.1,2.7,0.2,5.2,0.4,7.9c-29.6,1.6-59.1,3.1-88.7,4.7c-0.2-2.7-0.3-5.2-0.4-7.9
			C62.4,119.8,91.9,118.2,121.6,116.6z"/>
		<path class="st0" d="M123.7,156.1c0.1,2.7,0.2,5.2,0.4,7.9c-29.6,1.6-59.1,3.1-88.7,4.7c-0.2-2.7-0.3-5.2-0.5-7.9
			C64.5,159.2,94,157.6,123.7,156.1z"/>
	</g>
</g>
</svg>
