<?xml version="1.0" encoding="utf-8"?>
<!-- Generator: Adobe Illustrator 22.0.1, SVG Export Plug-In . SVG Version: 6.00 Build 0)  -->
<svg version="1.1" id="Layer_1" xmlns="http://www.w3.org/2000/svg" xmlns:xlink="http://www.w3.org/1999/xlink" x="0px" y="0px"
	 viewBox="0 0 250 250" style="enable-background:new 0 0 250 250;" xml:space="preserve">
<style type="text/css">
	.st0{fill:#fff;}
</style>
<path class="st0" d="M222.7,250c-22.9-22.9-45.9-45.9-69.2-69.2c1.5-1.3,3.3-2.8,5.1-4.5c-0.7-0.8-1.1-1.3-1.6-1.8
	c-3.3-3.3-6.5-6.8-10-9.9c-13.6-12.2-29.5-17-47.1-11.9C55.2,165.7,9.6,138.3,1.3,92.4C-6.7,48,23.8,8.9,64.8,2.3
	c41.9-6.7,81.4,21,88.7,62.5c2.2,12.6,1.7,25.2-2.5,37.3c-2.8,7.9-2.6,15.7-0.7,23.6c1.6,6.7,4.4,12.9,8.1,18.7
	c0.3,0.4,0.5,0.9,0.9,1.2c4.9,4.9,9.7,9.7,14.8,14.8c1.8-2.1,3.5-4.2,5.1-6c23.6,23.6,46.7,46.7,69.5,69.5
	C240.1,232.6,231.3,241.3,222.7,250z M77.9,132.8c28.7,0,52.9-22.3,53.7-52.1c0.8-29.4-21.8-53-50.3-54.7
	c-29.8-1.7-55,21.1-56.4,50.7C23.4,106.7,46.7,132.3,77.9,132.8z"/>
</svg>
