<?xml version="1.0" encoding="utf-8"?>
<!-- Generator: Adobe Illustrator 22.0.1, SVG Export Plug-In . SVG Version: 6.00 Build 0)  -->
<svg version="1.1" id="Layer_1" xmlns="http://www.w3.org/2000/svg" xmlns:xlink="http://www.w3.org/1999/xlink" x="0px" y="0px"
	 viewBox="0 0 250 250" style="enable-background:new 0 0 250 250;" xml:space="preserve">
<style type="text/css">
	.st0{fill:#fff;}
</style>
<g>
	<g>
		<path class="st0" d="M160,87.8c0,3.7,0,7.3-0.1,11.2c-41.8-0.1-83.6-0.3-125.7-0.4c0-3.7,0-7.3-0.1-11.2
			C76.1,87.5,117.9,87.6,160,87.8z"/>
		<path class="st0" d="M159.8,143.7c0,3.9-0.1,7.4-0.1,11.2c-41.9-0.1-83.7-0.3-125.8-0.4c0-3.9,0-7.4-0.1-11.2
			C75.9,143.4,117.7,143.5,159.8,143.7z"/>
		<path class="st0" d="M159.9,115c0,3.9-0.1,7.4-0.1,11.2c-41.9-0.1-83.7-0.3-125.7-0.4c0-3.8,0-7.4,0-11.2
			C76.1,114.7,117.8,114.9,159.9,115z"/>
		<path class="st0" d="M106,169.6c-0.3,3.9-0.6,7.4-0.9,11.2c-24-0.3-47.9-0.6-71.9-0.9c0.3-3.9,0.5-7.4,0.8-11.2
			C58.1,169,82,169.3,106,169.6z"/>
	</g>
	<path class="st0" d="M171.4,249.6c-50.2,0-100.5,0-150.7,0c-0.3-0.1-0.6-0.3-0.9-0.3c-8.6-1.8-14.2-7-16.9-15.3
		c-0.4-1.1-0.6-2.3-0.9-3.5c0-69.5,0-139,0-208.5C2,21.6,2.2,21.3,2.2,21C4.3,9.7,13,2.4,24.5,2.4c40.9,0,81.9,0,122.8,0
		c6.3,0,11.8,2.2,16.3,6.7c6.7,6.7,13.4,13.3,20,20c4.3,4.4,6.5,9.6,6.5,15.8c0,18.2,0,36.4,0,54.7c0,0.7,0,1.4,0,2.5
		c0.8-0.7,1.3-1.1,1.7-1.6c6.8-6.8,13.4-13.6,20.3-20.3c6-5.9,13.3-7.7,21.4-5.4c15.8,4.6,20.8,24.4,9.2,36.1
		c-17,17.1-34.1,34.2-51.2,51.2c-1,1-1.4,2-1.4,3.4c0,20.9,0,41.8,0,62.7c0,9.1-5.9,17.2-14.5,20.2
		C174.3,248.9,172.8,249.2,171.4,249.6z M132.3,16.9c-1,0-1.7,0-2.5,0c-34.8,0-69.6,0-104.5,0c-6.3,0-9.1,2.7-9.1,9
		c0,66.8,0,133.5-0.1,200.3c0,5.1,2.7,9.2,9,9.1c22.3-0.2,44.5-0.1,66.8-0.1c25.1,0,50.2,0,75.4,0c5.5,0,8.3-2.8,8.3-8.3
		c0-15.6,0-31.1,0-46.7c0-0.6-0.1-1.2-0.1-1.7c-1.5,0.8-2.8,1.7-4.2,2.2c-9.7,3.3-19.4,6.5-29.2,9.8c-3.1,1-5.9,0.9-8.3-1.5
		c-2.4-2.4-2.5-5.2-1.4-8.3c3.2-9.6,6.4-19.2,9.7-28.8c0.6-1.7,1.6-3.3,2.8-4.5c9.8-9.9,19.7-19.7,29.5-29.6c0.7-0.7,1.3-2,1.3-3
		c0.1-17.4,0.1-34.9,0-52.3c0-0.7-0.1-1.4-0.1-2.2c-0.9,0-1.6,0-2.3,0c-10.9,0-21.9-0.2-32.8,0.1c-5.7,0.1-8.3-4-8.3-8.3
		c0.2-10.9,0.1-21.9,0.1-32.8C132.3,18.5,132.3,17.8,132.3,16.9z M204.6,108.6c-11.5,11.5-23.1,23-34.3,34.3
		c3.3,3.3,6.6,6.6,9.8,9.9c11.3-11.3,22.9-22.9,34.3-34.3C211.2,115.2,207.9,111.9,204.6,108.6z M146.9,16.9c0,9.7,0,19.2,0,28.8
		c9.7,0,19.2,0,28.8,0c0.3-2.7-0.5-4.7-2.3-6.5c-6.7-6.6-13.3-13.3-20-20C151.6,17.5,149.5,16.7,146.9,16.9z M225.3,108.1
		c2.5-2.5,5.1-5,7.5-7.6c2.6-2.8,2.5-6.9,0-9.7c-2.5-2.7-6.7-3.4-9.5-0.9c-2.9,2.5-5.4,5.6-7.9,8.3
		C218.4,101.2,221.8,104.6,225.3,108.1z M150.5,172.6c4.4-1.5,8.4-3,12.4-4.1c3-0.8,4.9-2.9,6.6-4.8c-3.4-3.4-6.8-6.8-10.2-10.2
		c-1.2,1.3-3,2.5-3.7,4.2C153.6,162.4,152.2,167.3,150.5,172.6z"/>
</g>
</svg>
