<?xml version="1.0" encoding="utf-8"?>
<!-- Generator: Adobe Illustrator 21.1.0, SVG Export Plug-In . SVG Version: 6.00 Build 0)  -->
<svg version="1.1" id="Capa_1" xmlns="http://www.w3.org/2000/svg" xmlns:xlink="http://www.w3.org/1999/xlink" x="0px" y="0px"
	 viewBox="0 0 402.6 402.6" style="enable-background:new 0 0 402.6 402.6;" xml:space="preserve">
<style type="text/css">
	.st0{fill:#FFFFFF;}
</style>
<g>
	<path class="st0" d="M400.9,11.4C397.6,4,392,0.3,384,0.3H18.6C10.6,0.3,5,4,1.7,11.4c-3.2,7.8-1.9,14.5,4,20l140.8,140.8v138.8
		c0,5,1.8,9.2,5.4,12.9l73.1,73.1c3.4,3.6,7.7,5.4,12.9,5.4c2.3,0,4.7-0.5,7.1-1.4c7.4-3.2,11.1-8.9,11.1-16.8V172.2L396.9,31.4
		C402.8,25.9,404.1,19.2,400.9,11.4z"/>
</g>
</svg>
