<?xml version="1.0" encoding="utf-8"?>
<!-- Generator: Adobe Illustrator 24.0.2, SVG Export Plug-In . SVG Version: 6.00 Build 0)  -->
<svg version="1.1" id="Layer_1" xmlns="http://www.w3.org/2000/svg" xmlns:xlink="http://www.w3.org/1999/xlink" x="0px" y="0px"
	 viewBox="0 0 23.2 22" style="enable-background:new 0 0 23.2 22;" xml:space="preserve">
<path id="Shape" d="M20.6,22H2.5v-4.5H0v-6h2.5v-2c0-2.2,1.8-4,4-4h4.5V3.9c-0.9-0.2-1.5-1-1.5-1.9c0-1.1,0.9-2,2-2s2,0.9,2,2
	c0,0.9-0.6,1.7-1.5,2v1.6h4.5c2.2,0,4,1.8,4,4v2h2.5v6h-2.5V22z M13.6,17.5V21h2v-3.5H13.6z M10.6,17.5V21h2v-3.5H10.6z M7.6,17.5
	V21h2v-3.5H7.6z M14.9,10c-1,0-1.7,0.8-1.7,1.8s0.8,1.7,1.8,1.7c1,0,1.7-0.8,1.7-1.7C16.6,10.8,15.8,10,14.9,10L14.9,10z M8.3,10
	c-1,0-1.7,0.8-1.7,1.8c0,1,0.8,1.7,1.8,1.7c1,0,1.7-0.8,1.7-1.7C10.1,10.8,9.3,10,8.3,10z"/>
</svg>
