<?xml version="1.0" encoding="utf-8"?>
<!-- Generator: Adobe Illustrator 24.0.2, SVG Export Plug-In . SVG Version: 6.00 Build 0)  -->
<svg version="1.1" id="Layer_1" xmlns="http://www.w3.org/2000/svg" xmlns:xlink="http://www.w3.org/1999/xlink" x="0px" y="0px"
	 viewBox="0 0 25.2 22.3" style="enable-background:new 0 0 25.2 22.3;" xml:space="preserve">
<path id="_" d="M23.7,0l1.5,1.3l-4,5l-0.5,0.6L20,6.5l-3.2-1.6l-3.5,5.3l-0.6,0.9l-0.9-0.6L8.4,7.9l-3.4,2.6l-0.4,0.3l-0.5-0.1l-4-1
	l0.5-2l3.5,0.9l3.6-2.7l0.6-0.4l0.6,0.4l3.1,2.4l3.4-5.1l0.5-0.7l0.8,0.4l3.3,1.6L23.7,0z M16.5,12.9l0.8,1.1l3.2,4.8l3.1-3.9
	l1.5,1.3l-4,5l-0.8,1.1l-0.8-1.1l-3.3-4.8l-3.1,3.9L12.6,21l-0.8-0.6l-3.4-2.6l-3.4,2.6l-0.5,0.3L4,20.5l-4-2l0.9-1.8l3.4,1.7
	l3.5-2.6l0.6-0.4l0.6,0.4l3.2,2.4l3.4-4.3L16.5,12.9z"/>
</svg>
