<svg xmlns="http://www.w3.org/2000/svg" width="14" height="11.308" viewBox="0 0 14 11.308">
  <path id="camera" d="M11.375,11.308H2.625A2.628,2.628,0,0,1,0,8.682V3.231A1.616,1.616,0,0,1,1.077,1.716v-.1a.539.539,0,0,1,.538-.538H2.692a.539.539,0,0,1,.539.538h.976L4.9.37A.817.817,0,0,1,5.654,0H9.423a.839.839,0,0,1,.757.37l.69,1.246h.5A2.628,2.628,0,0,1,14,4.241V8.682A2.628,2.628,0,0,1,11.375,11.308ZM7.538,2.12a3.8,3.8,0,1,0,3.8,3.8A3.807,3.807,0,0,0,7.538,2.12ZM2.154,1.885a.808.808,0,1,0,.808.807A.808.808,0,0,0,2.154,1.885ZM7.538,8.514A2.591,2.591,0,1,1,10.13,5.923,2.594,2.594,0,0,1,7.538,8.514Z" fill="#020202"/>
</svg>
