<?xml version="1.0" encoding="utf-8"?>
<!-- Generator: Adobe Illustrator 24.0.2, SVG Export Plug-In . SVG Version: 6.00 Build 0)  -->
<svg version="1.1" id="Layer_1" xmlns="http://www.w3.org/2000/svg" xmlns:xlink="http://www.w3.org/1999/xlink" x="0px" y="0px"
	 viewBox="0 0 17 14" style="enable-background:new 0 0 17 14;" xml:space="preserve">
<path id="Shape" d="M15.4,14c-0.9,0-1.6-0.7-1.6-1.6c0-0.8,0.5-1.5,1.3-1.6V4.1c0-1.2-1-2.2-2.3-2.2h-2.3v1.3H10L9.9,3.1L8.3,1.8
	L8,1.6l0.3-0.3l1.6-1.3L10,0h0.5v1.3h2.3c1.6,0,2.9,1.3,2.9,2.9v6.7c0.9,0.2,1.4,1,1.3,1.9C16.8,13.5,16.2,14,15.4,14z M15.4,11.5
	c-0.5,0-1,0.4-1,1c0,0.5,0.4,1,1,1s1-0.4,1-1S15.9,11.5,15.4,11.5C15.4,11.5,15.4,11.5,15.4,11.5z M9.9,0.9L9,1.6l0.9,0.7V0.9z
	 M7,14H6.5v-1.3H4.2c-1.6,0-2.9-1.3-2.9-2.9V3.2C0.5,3,0,2.4,0,1.6C0,0.7,0.7,0,1.6,0c0.9,0,1.6,0.7,1.6,1.6c0,0.8-0.5,1.4-1.3,1.6
	v6.7c0,1.2,1,2.2,2.3,2.2h2.3v-1.3H7l0.1,0.1l1.6,1.3L9,12.4l-0.3,0.2L7,14L7,14z M7.1,11.7v1.4L8,12.4L7.1,11.7z M1.6,0.6
	c-0.5,0-1,0.4-1,0.9c0,0,0,0,0,0c0,0.5,0.4,1,1,1c0.5,0,1-0.4,1-0.9C2.6,1.1,2.2,0.7,1.6,0.6C1.7,0.6,1.6,0.6,1.6,0.6z M8.4,10H7.8
	V7.3H5.1V6.7h2.7V4h0.6v2.7h2.7v0.6H8.4V10z"/>
</svg>
