<?xml version="1.0" encoding="utf-8"?>
<!-- Generator: Adobe Illustrator 24.0.2, SVG Export Plug-In . SVG Version: 6.00 Build 0)  -->
<svg version="1.1" id="Layer_1" xmlns="http://www.w3.org/2000/svg" xmlns:xlink="http://www.w3.org/1999/xlink" x="0px" y="0px"
	 viewBox="0 0 28 20" style="enable-background:new 0 0 28 20;" xml:space="preserve">
<path id="_" d="M3,0h22v13.6l2.3,2.3c0.5,0.5,0.8,1.1,0.8,1.7c0,0.6-0.3,1.2-0.7,1.7c-0.4,0.5-1,0.7-1.7,0.7H2.4
	c-0.6,0-1.2-0.3-1.7-0.7c-0.5-0.4-0.7-1-0.7-1.7c0-0.7,0.3-1.3,0.8-1.8L3,13.6V0z M5,2v11h18V2H5z M4.4,15l-2.3,2.3
	C2,17.4,2,17.5,2,17.6C2,17.8,2.1,18,2.3,18c0,0,0.1,0,0.1,0h23.3c0.2,0,0.3-0.1,0.4-0.3c0,0,0-0.1,0-0.1c0-0.1,0-0.3-0.1-0.4
	L23.6,15H4.4z"/>
</svg>
