<?xml version="1.0" encoding="utf-8"?>
<!-- Generator: Adobe Illustrator 24.0.2, SVG Export Plug-In . SVG Version: 6.00 Build 0)  -->
<svg version="1.1" id="Layer_1" xmlns="http://www.w3.org/2000/svg" xmlns:xlink="http://www.w3.org/1999/xlink" x="0px" y="0px"
	 viewBox="0 0 20.7 18.4" style="enable-background:new 0 0 20.7 18.4;" xml:space="preserve">
<g>
	<path d="M19.9,2.7L7.2,0C6.7-0.1,6.2,0.3,6,0.8L5.8,2.3l14.6,3.1l0.2-1.5C20.8,3.3,20.4,2.8,19.9,2.7z"/>
	<path d="M14.6,5.8c-0.1-0.5-0.7-0.8-1.2-0.7l-2.4,0.7L5.3,4.5L4.6,7.5L0.7,8.5C0.2,8.7-0.1,9.2,0,9.8l2.2,7.9
		c0.1,0.5,0.7,0.8,1.2,0.7L16,14.9c0.5-0.1,0.8-0.7,0.7-1.2l-0.4-1.4l1.4,0.3c0.5,0.1,1.1-0.2,1.2-0.8l0.9-4.2l-5.1-1.1L14.6,5.8z
		 M0.8,9.6c0-0.1,0-0.2,0.1-0.2l3.5-1l8.2-2.3l0.9-0.2c0,0,0,0,0,0c0.1,0,0.2,0.1,0.2,0.1l0.1,0.4l0.3,1.2L1.3,11.1L0.8,9.6z
		 M16,9.8l0.3-1.5c0-0.2,0.3-0.4,0.5-0.3l1.5,0.3c0.2,0,0.4,0.3,0.3,0.5l-0.3,1.5c0,0.2-0.3,0.4-0.5,0.3l-1.5-0.3
		C16.1,10.2,16,10,16,9.8z M16,13.9c0,0.1,0,0.2-0.1,0.2L3.2,17.6c0,0,0,0,0,0c-0.1,0-0.2-0.1-0.2-0.1l-1.3-4.6l12.9-3.6l0.8,2.8
		L16,13.9z"/>
	<path d="M5.3,14.2C5.2,14,5,13.8,4.8,13.9l-1.5,0.4C3.1,14.4,3,14.6,3,14.8l0.4,1.5c0.1,0.2,0.3,0.3,0.5,0.3l1.5-0.4
		c0.2-0.1,0.3-0.3,0.3-0.5L5.3,14.2z"/>
</g>
</svg>
