<?xml version="1.0" encoding="iso-8859-1"?>
<!-- Generator: Adobe Illustrator 19.0.0, SVG Export Plug-In . SVG Version: 6.00 Build 0)  -->
<svg version="1.1" id="Layer_1" xmlns="http://www.w3.org/2000/svg" xmlns:xlink="http://www.w3.org/1999/xlink" x="0px" y="0px"
	 viewBox="0 0 512.043 512.043" style="enable-background:new 0 0 512.043 512.043;" xml:space="preserve">
<g transform="translate(0 -1)">
	<g>
		<g>
			<path d="M170.667,171.709h42.667c11.782,0,21.333-9.551,21.333-21.333c0-11.782-9.551-21.333-21.333-21.333h-42.667
				c-11.782,0-21.333,9.551-21.333,21.333C149.333,162.158,158.885,171.709,170.667,171.709z"/>
			<path d="M341.333,235.709H170.667c-11.782,0-21.333,9.551-21.333,21.333c0,11.782,9.551,21.333,21.333,21.333h170.667
				c11.782,0,21.333-9.551,21.333-21.333C362.667,245.261,353.115,235.709,341.333,235.709z"/>
			<path d="M341.333,342.376H170.667c-11.782,0-21.333,9.551-21.333,21.333s9.551,21.333,21.333,21.333h170.667
				c11.782,0,21.333-9.551,21.333-21.333S353.115,342.376,341.333,342.376z"/>
			<path d="M443.218,136.923c-0.026-0.033-0.052-0.066-0.078-0.099c-0.435-0.522-0.891-1.036-1.388-1.533l-128-128
				c-0.497-0.497-1.011-0.953-1.533-1.388c-0.032-0.027-0.066-0.052-0.099-0.078c-4.375-3.606-9.535-5.071-14.529-4.782H85.333
				C73.551,1.043,64,10.594,64,22.376v469.333c0,11.782,9.551,21.333,21.333,21.333h341.333c11.782,0,21.333-9.551,21.333-21.333
				V151.452C448.289,146.459,446.825,141.298,443.218,136.923z M375.163,129.043H320V73.879L375.163,129.043z M106.667,470.376
				V43.709h170.667v106.667c0,11.782,9.551,21.333,21.333,21.333h106.667v298.667H106.667z"/>
		</g>
	</g>
</g>
<g>
</g>
<g>
</g>
<g>
</g>
<g>
</g>
<g>
</g>
<g>
</g>
<g>
</g>
<g>
</g>
<g>
</g>
<g>
</g>
<g>
</g>
<g>
</g>
<g>
</g>
<g>
</g>
<g>
</g>
</svg>
