<?xml version="1.0" encoding="utf-8"?>
<!-- Generator: Adobe Illustrator 24.0.2, SVG Export Plug-In . SVG Version: 6.00 Build 0)  -->
<svg version="1.1" id="Layer_1" xmlns="http://www.w3.org/2000/svg" xmlns:xlink="http://www.w3.org/1999/xlink" x="0px" y="0px"
	 viewBox="0 0 12 12" style="enable-background:new 0 0 12 12;" xml:space="preserve">
<g id="duration">
	<g id="Oval_8">
		<path d="M6,12c-3.3,0-6-2.7-6-6s2.7-6,6-6s6,2.7,6,6S9.3,12,6,12z M6,1C3.2,1,1,3.2,1,6c0,2.8,2.3,5,5,5c2.8,0,5-2.3,5-5
			C11,3.2,8.8,1,6,1z"/>
	</g>
	<g id="Path_5">
		<path d="M8.8,7H5.4C5.2,7,5,6.8,5,6.6V2.7c0-0.3,0.2-0.5,0.5-0.5s0.5,0.2,0.5,0.5v3.4h2.8c0.3,0,0.5,0.2,0.5,0.5
			C9.2,6.8,9,7,8.8,7z"/>
	</g>
</g>
</svg>
