<?xml version="1.0" encoding="utf-8"?>
<!-- Generator: Adobe Illustrator 24.0.2, SVG Export Plug-In . SVG Version: 6.00 Build 0)  -->
<svg version="1.1" id="Layer_1" xmlns="http://www.w3.org/2000/svg" xmlns:xlink="http://www.w3.org/1999/xlink" x="0px" y="0px"
	 viewBox="0 0 26 23" style="enable-background:new 0 0 26 23;" xml:space="preserve">
<path id="_" d="M7,0c2.1,0,4.1,0.4,6,1.2C14.9,0.4,16.9,0,19,0c1,0,2,0.1,3,0.3c0.8,0.1,1.7,0.4,2.5,0.7l0.9,0.3L26,1.6V22H14.8
	c-0.4,0.6-1,1-1.8,1c-0.7,0-1.4-0.4-1.8-1H0V1.6l0.6-0.3C2.6,0.5,4.8,0,7,0z M7,2C5.3,2,3.6,2.4,2,3v16.1c1.6-0.6,3.3-0.9,5-0.9
	c1.7,0,3.4,0.3,5,0.9V3C10.4,2.4,8.7,2,7,2z M19,2c-1.7,0-3.4,0.4-5,1v16.1c1.6-0.6,3.3-0.9,5-0.9c1.7,0,3.4,0.3,5,0.9V3
	C22.4,2.4,20.7,2,19,2z"/>
</svg>
