<?xml version="1.0" encoding="utf-8"?>
<!-- Generator: Adobe Illustrator 24.0.2, SVG Export Plug-In . SVG Version: 6.00 Build 0)  -->
<svg version="1.1" id="Layer_1" xmlns="http://www.w3.org/2000/svg" xmlns:xlink="http://www.w3.org/1999/xlink" x="0px" y="0px"
	 viewBox="0 0 26 26" style="enable-background:new 0 0 26 26;" xml:space="preserve">
<path id="_" d="M18,0h2v1.4c0.8,0.2,1.6,0.5,2.3,1l0.9-1l1.4,1.4l-1,0.9c0.5,0.7,0.8,1.4,1,2.3H26v2h-1.4c-0.2,0.8-0.5,1.6-1,2.3
	l1,1.1l-1.5,1.4l-0.9-1c-0.7,0.4-1.4,0.8-2.3,0.9V14h-2v-1.4c-0.8-0.2-1.6-0.5-2.3-1l-1,1.1l-1.5-1.5l1.1-1c-0.5-0.7-0.8-1.4-1-2.3
	H12V6h1.4c0.2-0.8,0.5-1.6,0.9-2.3l-1-0.9l1.4-1.5l1.1,1c0.7-0.5,1.4-0.8,2.3-1L18,0z M21.6,4.4C20.9,3.7,20,3.3,19,3.3
	c-1,0-1.9,0.4-2.6,1.1C15.7,5.1,15.3,6,15.3,7c0,1,0.4,1.9,1.1,2.6c0.7,0.7,1.6,1.1,2.6,1.1c1,0,1.9-0.4,2.6-1.1
	C22.3,8.9,22.7,8,22.7,7C22.7,6,22.3,5.1,21.6,4.4z M6,9.3L6.8,11c0.5-0.1,1.1-0.2,1.7-0.2c0.6,0,1.1,0.1,1.7,0.2l0.7-1.8l1.9,0.8
	l-0.8,1.8c1,0.6,1.8,1.4,2.4,2.4l1.8-0.8l0.8,1.9L15,15.9c0.1,0.5,0.2,1.1,0.2,1.7c0,0.6-0.1,1.1-0.2,1.7l1.8,0.8L16,21.8l-1.8-0.7
	c-0.6,0.9-1.4,1.7-2.4,2.3l0.8,1.8L10.8,26l-0.7-1.8c-0.5,0.1-1.1,0.2-1.7,0.2c-0.6,0-1.1-0.1-1.7-0.2L6,26l-1.8-0.8l0.7-1.8
	c-0.9-0.6-1.7-1.4-2.3-2.3l-1.8,0.7L0,20l1.8-0.8c-0.1-0.5-0.2-1.1-0.2-1.7c0-0.6,0.1-1.1,0.2-1.7L0,15.3l0.8-1.9l1.8,0.8
	c0.6-1,1.4-1.8,2.3-2.4L4.2,10L6,9.3z M8.4,12.8c-1.3,0-2.5,0.5-3.4,1.4c-0.9,0.9-1.4,2.1-1.4,3.4c0,1.3,0.5,2.5,1.4,3.4
	c0.9,0.9,2.1,1.4,3.4,1.4c1.3,0,2.5-0.5,3.4-1.4c0.9-0.9,1.4-2.1,1.4-3.4c0-1.3-0.5-2.5-1.4-3.4C10.9,13.3,9.7,12.8,8.4,12.8z"/>
</svg>
