<?xml version="1.0" encoding="utf-8"?>
<!-- Generator: Adobe Illustrator 24.0.2, SVG Export Plug-In . SVG Version: 6.00 Build 0)  -->
<svg version="1.1" id="Layer_1" xmlns="http://www.w3.org/2000/svg" xmlns:xlink="http://www.w3.org/1999/xlink" x="0px" y="0px"
	 viewBox="0 0 22 23" style="enable-background:new 0 0 22 23;" xml:space="preserve">
<style type="text/css">
	.st0{fill:#2C2D30;}
</style>
<g>
	<g id="Events_Conernets">
		<path id="_" class="st0" d="M4,0h2v1h10V0h2v1h4v22H0V1h4V0z M2,3v2h18V3h-2v1h-2V3H6v1H4V3H2z M2,7v14h18V7H2z M8,9h2v2H8V9z
			 M12,9h2v2h-2V9z M16,9h2v2h-2V9z M4,13h2v2H4V13z M8,13h2v2H8V13z M12,13h2v2h-2V13z M16,13h2v2h-2V13z M4,17h2v2H4V17z M8,17h2
			v2H8V17z M12,17h2v2h-2V17z"/>
	</g>
</g>
</svg>
