<?xml version="1.0" encoding="utf-8"?>
<!-- Generator: Adobe Illustrator 24.0.2, SVG Export Plug-In . SVG Version: 6.00 Build 0)  -->
<svg version="1.1" id="Layer_1" xmlns="http://www.w3.org/2000/svg" xmlns:xlink="http://www.w3.org/1999/xlink" x="0px" y="0px"
	 viewBox="0 0 9.8 9.8" style="enable-background:new 0 0 9.8 9.8;" xml:space="preserve">
<style type="text/css">
	.st0{fill:#7D8897;}
</style>
<g>
	<g id="featured">
		<path id="_" class="st0" d="M1.4,1.4C2.3,0.5,3.6,0,4.9,0c1.3,0,2.5,0.5,3.4,1.4c0.9,0.9,1.4,2.1,1.4,3.4c0,1.3-0.5,2.5-1.4,3.4
			C7.4,9.3,6.2,9.8,4.9,9.8c-1.3,0-2.5-0.5-3.4-1.4C0.5,7.4,0,6.2,0,4.9C0,3.6,0.5,2.3,1.4,1.4z M7.8,2C7,1.2,6,0.7,4.9,0.8
			C3.8,0.7,2.7,1.2,2,2C1.2,2.7,0.7,3.8,0.8,4.9C0.7,6,1.2,7,2,7.8C2.7,8.6,3.8,9,4.9,9C6,9,7,8.6,7.8,7.8C8.6,7,9,6,9,4.9
			C9,3.8,8.6,2.7,7.8,2z M4.5,2.6h0.8v0.8H4.5V2.6z M4.5,4.1h0.8v3H4.5V4.1z"/>
	</g>
</g>
</svg>
