<?xml version="1.0" encoding="utf-8"?>
<!-- Generator: Adobe Illustrator 24.0.2, SVG Export Plug-In . SVG Version: 6.00 Build 0)  -->
<svg version="1.1" id="Layer_1" xmlns="http://www.w3.org/2000/svg" xmlns:xlink="http://www.w3.org/1999/xlink" x="0px" y="0px"
	 viewBox="0 0 19.8 19.8" style="enable-background:new 0 0 19.8 19.8;" xml:space="preserve">
<style type="text/css">
	.st0{fill:#3BD788;}
</style>
<g>
	<g id="flight">
		<path id="Shape" class="st0" d="M18.6,0c-1.5,0-4.1,1.8-4.6,2.3L11.4,5L1.8,3.7c-0.1,0-0.2,0-0.3,0.1L0.1,5.3C0,5.4,0,5.5,0,5.6
			c0,0.1,0.1,0.2,0.2,0.3l7.4,2.9l-3.8,3.9H2c-0.1,0-0.2,0-0.3,0.1l-1.6,1.3C0,14.2,0,14.4,0,14.5c0,0.1,0.1,0.3,0.3,0.3l3.8,0.9
			L5,19.5c0,0.1,0.1,0.2,0.3,0.3c0.1,0,0.3,0,0.4-0.1L7,18.5c0.1-0.1,0.1-0.2,0.1-0.3V16l3.9-3.8l2.8,7.4c0,0.1,0.2,0.2,0.3,0.2
			c0,0,0.1,0,0.1,0c0.1,0,0.2,0,0.3-0.1l1.4-1.4c0.1-0.1,0.1-0.2,0.1-0.3l-1.3-9.6l2.7-2.7c0.5-0.6,3.2-4.2,2-5.5
			C19.3,0.1,18.9,0,18.6,0z"/>
	</g>
</g>
</svg>
