<?xml version="1.0" encoding="utf-8"?>
<!-- Generator: Adobe Illustrator 24.0.2, SVG Export Plug-In . SVG Version: 6.00 Build 0)  -->
<svg version="1.1" id="Layer_1" xmlns="http://www.w3.org/2000/svg" xmlns:xlink="http://www.w3.org/1999/xlink" x="0px" y="0px"
	 viewBox="0 0 12.3 9.3" style="enable-background:new 0 0 12.3 9.3;" xml:space="preserve">
<style type="text/css">
	.st0{fill:#2C2D30;}
</style>
<g>
	<g id="funding_type">
		<path id="_" class="st0" d="M11.3,0l0.3,1.9h-0.9L10.6,1L5.7,1.9H0.5L11.3,0z M0,2.3h12.3v7H0V2.3z M2.2,3.2c0,0.1,0,0.1,0,0.2
			c0,0.6-0.5,1.1-1.1,1.1c0,0,0,0,0,0c-0.1,0-0.1,0-0.2,0v2.7c0.1,0,0.1,0,0.2,0c0.6,0,1.1,0.5,1.1,1.1c0,0,0,0,0,0
			c0,0.1,0,0.1,0,0.2h7.9c0-0.1,0-0.1,0-0.2c0-0.6,0.5-1.1,1.1-1.1c0,0,0,0,0,0c0.1,0,0.1,0,0.2,0V4.5c-0.1,0-0.1,0-0.2,0
			c-0.6,0-1.1-0.5-1.1-1.1c0,0,0,0,0,0c0-0.1,0-0.1,0-0.2H2.2z M4.6,4.3c0.8-0.9,2.2-0.9,3.1,0c0,0,0,0,0,0c0.9,0.8,0.9,2.2,0,3.1
			c0,0,0,0,0,0c-0.8,0.9-2.2,0.9-3.1,0c0,0,0,0,0,0C3.7,6.5,3.7,5.1,4.6,4.3C4.6,4.3,4.6,4.3,4.6,4.3z M7.1,4.9
			C6.5,4.4,5.7,4.4,5.2,5c-0.5,0.5-0.5,1.3,0,1.8c0.5,0.5,1.4,0.4,1.9-0.1C7.5,6.1,7.5,5.4,7.1,4.9z"/>
	</g>
</g>
</svg>
