<?xml version="1.0" encoding="utf-8"?>
<!-- Generator: Adobe Illustrator 24.0.2, SVG Export Plug-In . SVG Version: 6.00 Build 0)  -->
<svg version="1.1" id="Layer_1" xmlns="http://www.w3.org/2000/svg" xmlns:xlink="http://www.w3.org/1999/xlink" x="0px" y="0px"
	 viewBox="0 0 12.9 12.9" style="enable-background:new 0 0 12.9 12.9;" xml:space="preserve">
<style type="text/css">
	.st0{fill:#535B66;}
</style>
<g>
	<g id="gender">
		<path id="_" class="st0" d="M9.4,0h3.5v3.5h-1V1.7l-1.7,1.7c0.5,0.6,0.7,1.3,0.7,2.1c0,0.9-0.4,1.8-1,2.5L9.6,8.3
			c0-0.2,0.1-0.5,0.1-0.8c0-0.3,0-0.5-0.1-0.8c0.2-0.4,0.3-0.8,0.3-1.2c0-0.7-0.3-1.3-0.7-1.8C8.7,3.3,8,3,7.4,3
			C6.7,3,6.1,3.3,5.6,3.7C5.1,4.2,4.9,4.8,4.9,5.5c0,0.7,0.3,1.3,0.8,1.8C6,7.7,6.5,7.9,7.1,8C7,8.3,6.8,8.5,6.6,8.8
			c-0.1,0-0.1,0.1-0.2,0.1C5.9,8.7,5.3,8.4,4.9,8c-0.7-0.6-1-1.5-1-2.5c0-0.9,0.4-1.8,1-2.5c0.6-0.7,1.5-1,2.5-1
			c0.8,0,1.5,0.2,2.1,0.7L11.2,1H9.4V0z M6.3,4.1C6.9,4.3,7.4,4.6,7.8,5c0.7,0.6,1,1.5,1,2.5c0,0.9-0.4,1.8-1,2.5
			c-0.6,0.7-1.5,1-2.5,1c-0.8,0-1.5-0.2-2.1-0.7l-0.8,0.8l1,1l-0.7,0.8l-1-1l-1,1L0,12.1l1-1l-1-1l0.8-0.7l1,1l0.8-0.8
			C2.1,9,1.9,8.3,1.9,7.5c0-0.9,0.4-1.8,1-2.5l0.3-0.3c0,0.2-0.1,0.5-0.1,0.8c0,0.3,0,0.5,0.1,0.8C3,6.7,2.9,7.1,2.9,7.5
			c0,0.7,0.3,1.3,0.7,1.8C4.1,9.7,4.7,10,5.4,10C6,10,6.7,9.7,7.1,9.3c0.5-0.5,0.7-1.1,0.7-1.8c0-0.7-0.3-1.3-0.8-1.8
			C6.7,5.3,6.2,5.1,5.7,5c0.1-0.3,0.2-0.6,0.4-0.8C6.2,4.2,6.3,4.2,6.3,4.1z"/>
	</g>
</g>
</svg>
