<svg xmlns="http://www.w3.org/2000/svg" viewBox="0 0 220.73 220.71"><title>global</title><g id="Layer_2" data-name="Layer 2"><g id="Layer_1-2" data-name="Layer 1"><path d="M110.3,0c61.4-.29,111.46,50.74,110.41,112.24-1,59.77-50.22,108.17-109.56,108.47A110.45,110.45,0,0,1,0,109.35C.51,48.86,50.22-.24,110.3,0ZM111,151.35c.67-2.87.25-5.8,2-8.29a6.47,6.47,0,0,0,1.1-2.9,2.24,2.24,0,0,0-.94-1.86,4.07,4.07,0,0,0-5.69,2.69,22.68,22.68,0,0,1-.77,2.42c-.43,1-1,1.78-2.39,1.25a5.87,5.87,0,0,0-2.37-.2,6.74,6.74,0,0,1-6.65-3.93,14.92,14.92,0,0,1-1.52-10,17.52,17.52,0,0,0,.16-5.31c-.15-1.13-.5-2.1.55-2.91.85-.64,1.63-1.59,2.58-1.82,1.3-.31,1.5-.69.69-1.72l1.58-.13c2.39-.28,4.74-1,7.08.5,1,.68,1.91-.22,1.65-1.49-.07-.34-.23-.67-.27-1a10.64,10.64,0,0,1,0-1.34c1.08,2.19,1.57,2.41,3.07,1.79,2.24-.94,4.42-.26,6.29.84,1.26.74,2.18,1.49,3.67,0,.59,1.62,1.08,3,1.56,4.29a39.16,39.16,0,0,0,1.81,4.89c.29.56,1.36.8,2.12,1a2.86,2.86,0,0,0,.75-1.63c.14-2.42.14-4.85.2-7.28a1.39,1.39,0,0,0-1.14-1.6,2.43,2.43,0,0,1-1.65-3.55,5.75,5.75,0,0,1,3.59-3.73,11.24,11.24,0,0,0,3.2-1.58c1.83-1.3,3.38-2.84,3.09-5.34l1.52-1.38L134,100.74c0-2,.21-3.85,1.27-5a8.69,8.69,0,0,0,2.93.08,2.11,2.11,0,0,0,1-1.73c-.19-1.24.47-1.59,1.34-2a23.58,23.58,0,0,1,4.11-1.66c1.36-.27,1.17-1.11,1.44-2s.76-2.16,1.43-2.36c2.85-.86,4.93-3.22,7.87-3.87a4.28,4.28,0,0,0,2.08-1.37,1.83,1.83,0,0,0,.26-1.69,36.23,36.23,0,0,0-2.62-3.4,2.13,2.13,0,0,0,.93,0,19.2,19.2,0,0,0,2-1c-.52-.44-1-1.13-1.58-1.26a7.59,7.59,0,0,0-7.1,2.22c-.62.57-1.14,1.25-1.71,1.88a5,5,0,0,1,3.77-5c2.61-.78,5.32-1.25,8-1.82,2.38-.51,4.67-.49,6.6,1.52,1.81-2.16,3.82-3.85,6.7-4.22.45-.06,1-.92,1.13-1.5a8.82,8.82,0,0,0,.05-2.25c-2.53,0-2.92-1.9-3.38-3.82l-.72.55.06-.38a5.57,5.57,0,0,0-1.88-.44c-3.06.44-4.21-.27-5.15-3.28a5.11,5.11,0,0,0-1-2.28,13.69,13.69,0,0,1-3.66-4.64,2,2,0,0,0-1.64-.5,8.69,8.69,0,0,1-4.25,2.8,15.58,15.58,0,0,0-1.87.94c-.34-1.92-2.08-1.54-3.09-2.24.66-1.3.07-3.91-1.16-4.59-3.69-2-7.51-3.7-11.8-4-2.8-.19-3.6.84-2.63,3.45a4.16,4.16,0,0,1,.46,1.41,5,5,0,0,1-.5,2.37c-1.62,2.42-1.66,2.48.71,4.17.2.15.4.3.59.46,1.42,1.21,1.49,2.73.07,3.95a29.6,29.6,0,0,1-2.68,1.91,2.68,2.68,0,0,0-1.12,3.61c.29.67.8,1.25,1.14,1.91.18.34.38.87.24,1.15-.9,1.8-4.38,2.19-5.44.49a21.64,21.64,0,0,1-2.2-5c-1-3.22-3.49-3.92-6-3-3.91-3.53-8.56-4.5-13.57-4.12-.41-2.58-1.07-3.4-2.87-3.85a12.63,12.63,0,0,1,3.85-9.52,3.13,3.13,0,0,0,.52-.73,1.74,1.74,0,0,1,1.89-1c3.28.17,5.84-1,7.24-4.19a16.7,16.7,0,0,1,1-1.7,2.69,2.69,0,0,1,3.79-1.23,12.36,12.36,0,0,0,2.36.91c2.13.46,3.41-1.07,2.67-3.13a6.75,6.75,0,0,0-.59-1c.88-.95.75-2.18-.34-3.33s-3.21-1.1-5,.53a2.47,2.47,0,0,1-.36,1.44c-.78,1-1.63,1.89-2.5,2.79-1,1.06-1.89,1-2.65-.27a20.11,20.11,0,0,1-1-2.32c-.72-1.61-1.62-1.74-2.78-.41l-.26.31-4.87-2.46c-.05-1,.19-2-.21-2.55a6.28,6.28,0,0,0-6.81-1.76A3,3,0,0,0,95,23.65c-.1.48.56,1.36,1.1,1.7,1,.6,2.14.83,3.13,1.38a15.58,15.58,0,0,1,2.16,1.69l-.21.47c-.65.22-1.29.46-1.94.67-2,.69-2.22,1-1.89,3.18a12,12,0,0,1,0,1.8l-.45.1-1.68-4a13.25,13.25,0,0,1-1.95.33c-2.52.05-5.05,0-7.58.06s-3.64-1.31-3-3.7c.23-.81.16-1.33-.53-1.78-.85-.54-1.29-1.89-2.73-1.26-4.87,2.14-9.95,3.92-14.61,6.45A84.91,84.91,0,0,0,39.28,52.3c-2.44,3-4.59,6.24-7.12,9.7,2.5.49,2.66,2.4,3.08,4.12l2-.59L37.55,68c2.87,2.14,5.69,4.1,8.32,6.28,1.48,1.22,1.14,2.47-.57,3.44L43,76l-.51.32,1,4.44a18.79,18.79,0,0,0-.77,3c-.24,2.43-.43,4.87-.46,7.31,0,2.62.21,5.35,2.11,7.29a15.09,15.09,0,0,1,2,3.16c1.58,2.59,3.2,5.16,6.07,6.62a8.82,8.82,0,0,1,4,4.26c1.38,2.88,3,5.64,4.57,8.43.62,1.12,1.54,2.16.1,3.46,1,.69,1.78,1.35,2.67,1.88A3.5,3.5,0,0,1,66,129.35a3.27,3.27,0,0,0,.37,1.43c.13.24.53.33.81.49.14-.27.41-.55.4-.83a3.75,3.75,0,0,0-.31-1.6c-1.62-3.19-3.35-6.32-4.94-9.52-.83-1.68-1.45-3.47-2.28-5.5,2.23.55,3.83,1,3.48,3.36a2.16,2.16,0,0,0,.5,1.38c1,1.4,2.1,2.76,3.19,4.12,1.34,1.67,2.83,3.23,4,5a11.8,11.8,0,0,0,3.05,3.68c2.69,1.83,3.73,4.78,4.07,7.87a7.15,7.15,0,0,0,4.29,6c2.44,1.23,4.78,2.67,7.14,4.06,2.14,1.26,4.31,2,6.81,1a4.48,4.48,0,0,1,5.53,1.83c2.65,3.61,6.25,5.06,10.66,4.92.3.68.59,1.41.93,2.13a17.86,17.86,0,0,0,7.47,7.89c.37.21,1,0,1.51,0,.75,2.29,2.44,3.86,3.88,3.5,1.27-.31,2.06-2.22,1.76-4.32-1.82.68-3.83,1-5.12-.63a29,29,0,0,1-3.07-5.71c-.12-.26.44-1.21.72-1.22,1.4-.08,1.33-.92,1.17-1.88a12.87,12.87,0,0,0-4-7.07c-1.39,1.5-2.93,1.32-4.52.14l-.59,1.58Zm15.16,49.44a89.24,89.24,0,0,0,50.32-27c-2.05-.62-3.88-1.2-5.72-1.73-.91-.26-1.58-.55-1.68-1.73a3,3,0,0,0-1.26-1.74c-1.83-1.38-3.78-2.59-5.61-4a4.21,4.21,0,0,0-5-.18c-.64.35-1.27.72-1.65.94-2.56-1.38-5-2.54-7.24-4s-4.39-.67-4.83,2c-.1.59-.15,1.19-.23,1.79l-.57-.14a21.1,21.1,0,0,0,.84-2.93,3,3,0,0,0-.37-2c-.23-.32-1.2-.31-1.72-.13a9.39,9.39,0,0,0-2.35,1.27,22.48,22.48,0,0,0-2.93,2.3,15.81,15.81,0,0,0-2,2.54,7.48,7.48,0,0,0-.63,1.45l-3-1.2c.44,3.75.85,7.25,1.28,10.75a7.24,7.24,0,0,1-2.35,6.6,14,14,0,0,0-2.7,3.17c-1.59,2.77-1.37,4.39.82,6.08A10.93,10.93,0,0,0,126.11,200.79Z"/><path d="M80.91,29c-1.79.34-3.57.62-5.33,1-1.21.28-1.8,1-1.09,2.27a6,6,0,0,1,.28,1.42c-2.3-1.49-3.67-4.07-6.69-3.62v-.4c2.22-1,4.38-2.1,6.66-2.87C78.07,25.68,79.07,26.16,80.91,29Z"/></g></g></svg>