<?xml version="1.0" encoding="utf-8"?>
<!-- Generator: Adobe Illustrator 24.0.2, SVG Export Plug-In . SVG Version: 6.00 Build 0)  -->
<svg version="1.1" id="Layer_1" xmlns="http://www.w3.org/2000/svg" xmlns:xlink="http://www.w3.org/1999/xlink" x="0px" y="0px"
	 viewBox="0 0 13 13.4" style="enable-background:new 0 0 13 13.4;" xml:space="preserve">
<path id="_" d="M6.5,0l0.4,0.6c0.2,0.3,0.4,0.5,0.5,0.8c0.1,0.2,0.3,0.5,0.4,0.7C7.9,2.4,8,2.6,8,2.9c0,0.4-0.2,0.8-0.4,1.1
	C7.3,4.2,6.9,4.4,6.5,4.4c-0.4,0-0.8-0.2-1.1-0.4C5.2,3.7,5,3.3,5,2.9c0-0.3,0.1-0.5,0.2-0.8c0.1-0.2,0.2-0.5,0.4-0.7l0.5-0.8L6.5,0
	z M6.5,4.4H8v2h3c0.5,0,1,0.2,1.4,0.6C12.8,7.3,13,7.8,13,8.4c0,0.5-0.2,1-0.5,1.3v3.7h-12V9.7C0.2,9.3,0,8.9,0,8.4
	c0-0.5,0.2-1,0.6-1.4C1,6.6,1.5,6.4,2,6.4h3v-2H6.5z M6.5,1.8C6.5,1.8,6.5,1.9,6.5,1.8C6.4,1.9,6.4,1.9,6.4,1.9
	C6.3,2.1,6.2,2.3,6.1,2.5c0,0.1-0.1,0.1-0.1,0.2c0,0,0,0.1,0,0.1l0,0C6,3,6,3.1,6.1,3.2c0.1,0.1,0.2,0.1,0.4,0.1
	c0.1,0,0.3,0,0.4-0.1C7,3.1,7,3,7,2.9l0,0c0,0,0-0.1,0-0.1c0-0.1,0-0.1-0.1-0.2C6.8,2.3,6.7,2.1,6.6,1.9C6.6,1.9,6.6,1.9,6.5,1.8
	C6.5,1.9,6.5,1.8,6.5,1.8z M6,5.4v1h1v-1H6z M2,7.4c-0.3,0-0.5,0.1-0.7,0.3C1.1,7.8,1,8.1,1,8.4c0,0.3,0.1,0.5,0.3,0.7
	C1.5,9.3,1.7,9.4,2,9.4c0.3,0,0.5-0.1,0.7-0.3C2.9,8.9,3,8.6,3,8.4h1c0,0.3,0.1,0.5,0.3,0.7C4.5,9.3,4.7,9.4,5,9.4
	c0.3,0,0.5-0.1,0.7-0.3C5.9,8.9,6,8.6,6,8.4h1c0,0.3,0.1,0.5,0.3,0.7C7.5,9.3,7.7,9.4,8,9.4c0.3,0,0.5-0.1,0.7-0.3
	C8.9,8.9,9,8.6,9,8.4h1c0,0.3,0.1,0.5,0.3,0.7c0.2,0.2,0.5,0.3,0.7,0.3c0.3,0,0.5-0.1,0.7-0.3C11.9,8.9,12,8.6,12,8.4
	c0-0.3-0.1-0.5-0.3-0.7c-0.2-0.2-0.5-0.3-0.7-0.3H2z M3.5,9.7c-0.4,0.4-0.9,0.7-1.5,0.7c-0.2,0-0.3,0-0.5-0.1v2.1h10v-2.1
	c-0.2,0-0.3,0.1-0.5,0.1c-0.6,0-1.1-0.2-1.5-0.7c-0.4,0.4-0.9,0.7-1.5,0.7c-0.6,0-1.1-0.2-1.5-0.7c-0.4,0.4-0.9,0.7-1.5,0.7
	C4.4,10.4,3.9,10.1,3.5,9.7z"/>
</svg>
