<?xml version="1.0" encoding="utf-8"?>
<!-- Generator: Adobe Illustrator 24.0.2, SVG Export Plug-In . SVG Version: 6.00 Build 0)  -->
<svg version="1.1" id="Layer_1" xmlns="http://www.w3.org/2000/svg" xmlns:xlink="http://www.w3.org/1999/xlink" x="0px" y="0px"
	 viewBox="0 0 429.8 439.6" style="enable-background:new 0 0 429.8 439.6;" xml:space="preserve">
<g>
	<path d="M366.7,57.7C346.5,77.1,326.8,96,307,115.1c-1.2-0.9-2.2-1.7-3.2-2.6c-25.5-23.1-55.8-32.1-89.6-31.1
		C150,83.3,94.2,133.1,84.4,200.1c-10.7,73.6,38.4,143.7,111.6,156.2c41.3,7.1,80.2-0.6,112.4-29.7c17.1-15.4,29.1-34.2,34.2-56.9
		c0.4-1.7,0.6-3.5,1-5.8c-41.6,0-82.7,0-124.1,0c0-25.1,0-49.9,0-75.4c2.1,0,4.2,0,6.3,0c64.4,0,128.7,0,193.1,0
		c8,0,7.6-1.6,8.7,7.5c6.7,54.5-1.9,106.1-31.6,152.9c-29.6,46.7-72.8,74.5-126.5,85.3c-69.1,14-132.7,0.7-188.3-43.5
		c-44.7-35.5-71.2-82.6-79-139c-15.8-113.1,52.2-216.4,162-244c73.3-18.5,140.4-3.9,198.3,46.6C363.8,55.4,365.1,56.4,366.7,57.7z"
		/>
</g>
</svg>
