<svg xmlns="http://www.w3.org/2000/svg" viewBox="0 0 243.57 460.71"><title>Asset 1</title><g id="Layer_2" data-name="Layer 2"><g id="Layer_1-2" data-name="Layer 1"><path d="M243.57,360c.08-9.75-2.41-18.09-10.84-24.35,8.28-10.24,9.13-22.2,9-34.59-.35-29-.43-58-.47-86.94,0-17,.66-34,.18-51a45.59,45.59,0,0,0-4.49-18.64c-8.77-17.49-29.3-21.23-42.42-9.64A12.7,12.7,0,0,1,192.4,136c-1.46-12-6.29-21.83-16.87-27.61-11.19-6.11-21.73-3.67-31.23,4.12,0-11.5-.08-22.64,0-33.78.14-16.32,1-32.67.45-49C144.27,14.2,131.59,1.23,117.34.1,99.8-1.29,84.53,12.56,83.79,31c-.66,16.48-.89,33-1.21,49.47-.14,6.7,0,13.4,0,20.1l-1.54,0c-1.23-7-2.49-14-3.7-21S74.77,65.48,73.73,58.4c-3-20.61-21.76-33.81-39.83-28C19.54,35.07,10.21,51.31,13,67.78c3.9,23.47,8.16,46.89,12.26,70.34,3.09,17.68,6.16,35.37,9.29,53.35-4.67,2-9.06,3.9-13.5,5.69C7.19,202.69.55,213.24.19,227.73c-.33,13.32-.15,26.66,0,40,.09,11.88,4.84,21.57,14.17,29,11.6,9.25,23.06,18.67,34.75,27.79,8.21,6.41,16.7,12.46,24.39,18.16-.94,4.78-2.55,9.29-2.59,13.81-.24,26.32-.13,52.65-.1,79a27.38,27.38,0,0,0,.57,5.94c2.73,11.84,12.54,19.25,25.72,19.27q59.51.07,119,0c17.37,0,27.46-10.18,27.44-27.71C243.49,408.66,243.36,384.33,243.57,360ZM192.89,158.82c.57-8.91,5-16,13.62-19.29,10.64-4.07,23.43,4.68,24.09,17.82,1,19.1.55,38.31,0,57.44-.12,4.1-2.72,8.65-5.38,12.05-7.21,9.21-20.16,9.1-27-.42a30.5,30.5,0,0,1-5.32-14.15c-.84-8.75-.24-17.64-.24-26.47h.07C192.76,176.8,192.31,167.78,192.89,158.82Zm-48.85-23a13.65,13.65,0,0,1,.56-2.93c2.42-10.89,10.33-18.07,19.31-17.55s17.36,9.57,17.88,20.33c.43,9,.09,18,.09,27h.22c0,7.16.05,14.32,0,21.48a46.65,46.65,0,0,1-.56,8.45c-2.12,10.65-10.28,18.08-19.21,17.76-9.17-.34-17.79-9.19-18.17-20.57C143.54,171.8,144,153.81,144,135.83ZM59.14,319.44c-12.89-10-25.53-20.38-38.3-30.57-6.8-5.43-10.4-12.34-10.33-21.17.1-13.5-.08-27,.06-40.5.11-9.82,4.75-16.67,14-20.47,18-7.45,35.93-15,53.89-22.53,7-2.94,11.71-1.67,16.12,4.39,9.44,13,6.23,27.75-7.76,35.59C79.94,228,73,231.57,66.34,235.74c-2,1.28-4.12,4.19-4.1,6.34,0,1.51,3.34,3.6,5.56,4.37,12.53,4.36,25.74,7.19,37.66,12.79,23.43,11,38,30.18,45.48,54.85,1.13,3.72,1.59,8.46,7.42,7.35,3.83-.72,4.44-3.68,2.36-10.5-11.14-36.57-36.07-58.88-72.1-69.74-2.06-.62-4.11-1.26-7.21-2.21,4.64-2.63,8.44-4.67,12.13-6.88a33.6,33.6,0,0,0,4.32-54.86C90.47,171,82.37,171.39,74,175c-9.73,4.21-19.52,8.27-29.69,12.57-3.2-18.17-6.31-35.67-9.36-53.18C31,112,27,89.5,23.21,67c-1.55-9.16.67-17.34,8-23.42,11.24-9.32,27.85-2.53,31.48,13,2.15,9.23,3.46,18.66,5.1,28Q74,120,80.16,155.45c.15.82.08,1.89.57,2.4,1.68,1.72,3.42,4.32,5.41,4.59,3.38.46,4.66-2.41,4.74-5.65.25-10,.6-20,.83-30Q92.79,80,93.81,33.31c.3-12.53,9.16-22.77,19.82-23.12,11.79-.38,21.37,10,21.2,23.55-.35,27-1.23,54-1.45,81-.2,24.83-.12,49.67.42,74.49.4,18.94,15.3,33.16,32.32,30.94,5.47-.71,10.62-3.9,15.8-5.91,4.74,28.32,30.48,37.34,48.92,22.26.15,1.51.38,2.73.38,4,0,23,0,46-.07,69a37.06,37.06,0,0,1-1.33,9.84c-2.92,10.23-5.51,12-16,12q-58.26,0-116.53.07a30.3,30.3,0,0,0-10.71,1.82c-3.27,1.27-5.78,1.5-8.69-.62C71.74,328.11,65.17,324.12,59.14,319.44ZM233.07,434.83c0,10.1-5.69,15.6-15.93,15.61q-30.25,0-60.5,0-29.5,0-59,0C86.49,450.44,80.9,445,80.89,434q0-38.25,0-76.49c0-10,5.85-16,15.8-16q60.24-.09,120.5,0c10.15,0,15.84,5.74,15.86,15.8Q233.16,396.1,233.07,434.83Z"/></g></g></svg>