<?xml version="1.0" encoding="utf-8"?>
<!-- Generator: Adobe Illustrator 24.0.2, SVG Export Plug-In . SVG Version: 6.00 Build 0)  -->
<svg version="1.1" id="Layer_1" xmlns="http://www.w3.org/2000/svg" xmlns:xlink="http://www.w3.org/1999/xlink" x="0px" y="0px"
	 viewBox="0 0 28 24.1" style="enable-background:new 0 0 28 24.1;" xml:space="preserve">
<style type="text/css">
	.st0{fill:#2C2D30;}
</style>
<g>
	<g id="health_and_medicine">
		<path id="_" class="st0" d="M7.5,0C10,0,12.3,1.1,14,2.9C15.7,1.1,18,0,20.5,0c2,0,3.9,0.8,5.3,2.2C27.2,3.6,28,5.5,28,7.5
			c0,0.9-0.2,1.7-0.6,2.5c-0.3,0.7-0.7,1.3-1.3,1.9l-0.6,0.6L14.8,23.4L14,24.1l-0.8-0.8L2.5,12.5c-0.5-0.4-0.9-0.9-1.3-1.4
			C0.5,10,0.1,8.8,0,7.5c0-2,0.8-3.9,2.2-5.3C3.6,0.8,5.5,0,7.5,0z M7.5,2C6,2,4.6,2.6,3.6,3.6C2.6,4.6,2,6,2,7.5
			c0.1,0.9,0.4,1.7,0.9,2.4l1,1.2L14,21.3l10.1-10.1c1-0.9,1.7-2.2,1.9-3.6c0-1.5-0.6-2.9-1.6-3.9C23.4,2.6,22,2,20.5,2
			c-1,0-1.9,0.3-2.8,0.7c-0.8,0.4-1.6,0.9-2.3,1.5l-0.8,0.7L14,5.8l-0.8-0.9c-0.2-0.2-0.5-0.5-0.8-0.8c-0.6-0.5-1.3-0.9-2.1-1.3
			C9.5,2.3,8.5,2,7.5,2z M6.9,5.9l3.7,3.9l0.9-1.2l0.7-0.9l0.8,0.8l3.3,3.2L18,10v5h-5l1.8-1.8l-2.4-2.5L11.4,12l-0.7,0.9l-0.9-0.8
			L5.4,7.3L6.9,5.9z"/>
	</g>
</g>
</svg>
