<?xml version="1.0" encoding="utf-8"?>
<!-- Generator: Adobe Illustrator 24.0.2, SVG Export Plug-In . SVG Version: 6.00 Build 0)  -->
<svg version="1.1" id="Capa_1" xmlns="http://www.w3.org/2000/svg" xmlns:xlink="http://www.w3.org/1999/xlink" x="0px" y="0px"
	 viewBox="0 0 512 512" style="enable-background:new 0 0 512 512;" xml:space="preserve">
<g>
	<rect x="0.6" y="153" width="45" height="40"/>
	<rect x="25.5" y="259.2" transform="matrix(0.8931 -0.4498 0.4498 0.8931 -120.3148 51.992)" width="47.5" height="40"/>
	<rect x="28.7" y="40.8" transform="matrix(0.4498 -0.8931 0.8931 0.4498 -30.4095 78.7285)" width="40" height="46.4"/>
	<rect x="467.6" y="153" width="45" height="40"/>
	<rect x="443.9" y="255.4" transform="matrix(0.4498 -0.8931 0.8931 0.4498 5.9404 567.9471)" width="40" height="47.5"/>
	<rect x="441.3" y="44" transform="matrix(0.8931 -0.4498 0.4498 0.8931 20.859 215.7624)" width="46.4" height="40"/>
	<path d="M256.6,1c-94.5,0-171.4,76.5-172,170.9v1.1c0.3,68.7,29.2,106.7,54.7,140.3c21.3,28.1,38.2,50.2,38.2,87.2V453
		c0,33.1,26.9,60,60,60h38.2c33.1,0,60-26.9,60-60v-52.6c0-36.9,16.8-59.1,38.2-87.2c25.5-33.6,54.4-71.6,54.7-140.3v-1.1
		C428,77.5,351.1,1,256.6,1z M295.7,453c0,11-9,20-20,20h-38.2c-11,0-20-9-20-20v-39h78.2V453z M342,289.1
		c-18.5,24.4-37.5,49.4-44,84.9h-82.9c-6.5-35.6-25.5-60.6-44-84.9c-23.9-31.4-46.4-61-46.6-116.6C124.9,99.9,184,41,256.6,41
		s131.7,58.9,132,131.5C388.4,228,365.9,257.7,342,289.1z"/>
</g>
</svg>
