<?xml version="1.0" encoding="utf-8"?>
<!-- Generator: Adobe Illustrator 24.0.2, SVG Export Plug-In . SVG Version: 6.00 Build 0)  -->
<svg version="1.1" id="Layer_1" xmlns="http://www.w3.org/2000/svg" xmlns:xlink="http://www.w3.org/1999/xlink" x="0px" y="0px"
	 viewBox="0 0 26 21" style="enable-background:new 0 0 26 21;" xml:space="preserve">
<style type="text/css">
	.st0{fill:#2C2D30;}
</style>
<g>
	<g id="law">
		<path id="_" class="st0" d="M10.2,2c0.4-1.2,1.5-2.1,2.8-2c1.3-0.1,2.4,0.8,2.8,2H23v2h-1.4l0.3,0.5l4,7l0.1,0.3V12
			c0,1.3-0.5,2.6-1.5,3.5c-0.9,1-2.2,1.5-3.5,1.5c-1.3,0-2.6-0.5-3.5-1.5c-1-0.9-1.5-2.2-1.5-3.5v-0.3l0.1-0.3l4-7L20.4,4h-4.6
			c-0.3,0.8-1,1.5-1.8,1.8V19h4v2H8v-2h4V5.8c-0.8-0.3-1.5-1-1.8-1.8H5.6l0.3,0.5l4,7l0.1,0.3V12c0,1.3-0.5,2.6-1.5,3.5
			C7.6,16.5,6.3,17,5,17c-1.3,0-2.6-0.5-3.5-1.5C0.5,14.6,0,13.3,0,12v-0.3l0.1-0.3l4-7L4.4,4H3V2H10.2z M14,3
			c0.1-0.5-0.3-0.9-0.8-1c-0.1,0-0.2,0-0.2,0c-0.5-0.1-0.9,0.3-1,0.8c0,0.1,0,0.2,0,0.2c-0.1,0.5,0.3,0.9,0.8,1c0.1,0,0.2,0,0.2,0
			c0.5,0.1,0.9-0.3,1-0.8C14,3.2,14,3.1,14,3z M5,7l-2.3,4h4.5L5,7z M21,7l-2.3,4h4.5L21,7z M2.3,13c0.3,1.2,1.5,2.1,2.8,2
			c1.3,0.1,2.4-0.8,2.8-2H2.3z M18.3,13c0.3,1.2,1.5,2.1,2.8,2c1.3,0.1,2.4-0.8,2.8-2H18.3z"/>
	</g>
</g>
</svg>
