<?xml version="1.0" encoding="utf-8"?>
<!-- Generator: Adobe Illustrator 24.0.2, SVG Export Plug-In . SVG Version: 6.00 Build 0)  -->
<svg version="1.1" id="Layer_1" xmlns="http://www.w3.org/2000/svg" xmlns:xlink="http://www.w3.org/1999/xlink" x="0px" y="0px"
	 viewBox="0 0 12 12" style="enable-background:new 0 0 12 12;" xml:space="preserve">
<g>
	<path d="M11.2,0.8C10.8,0.3,10.1,0,9.4,0C8.7,0,8.1,0.3,7.6,0.8L6.2,2.2C5.5,2.9,5.3,3.9,5.6,4.8l1-1C6.6,3.5,6.8,3.2,7,3l1.4-1.4
		C9,1,9.9,1,10.4,1.5c0.6,0.5,0.6,1.5,0,2c0,0,0,0,0,0L9,5C8.8,5.2,8.5,5.4,8.2,5.4l-1,1c0.9,0.3,1.9,0.1,2.6-0.6l1.4-1.4
		C12.3,3.4,12.3,1.8,11.2,0.8z"/>
	<path d="M3.8,8.1c0.2,0.2,0.6,0.3,0.8,0c0,0,0,0,0,0l3.4-3.4c0.2-0.2,0.2-0.6,0-0.8C8,3.8,7.9,3.7,7.7,3.7c-0.1,0-0.3,0.1-0.4,0.2
		L3.9,7.3C3.6,7.5,3.6,7.9,3.8,8.1z"/>
	<path d="M5.4,8.2C5.4,8.5,5.2,8.8,5,9l-1.4,1.4c-0.6,0.6-1.5,0.6-2,0S1,9,1.6,8.4L3,7c0.2-0.2,0.5-0.4,0.8-0.4l1-1
		C4.6,5.5,4.4,5.4,4.1,5.4c-0.7,0-1.4,0.2-1.9,0.8L0.8,7.6c-1,1-1,2.6,0.1,3.6c1,1,2.6,1,3.6,0l1.4-1.4c0.7-0.7,0.9-1.7,0.6-2.6
		L5.4,8.2z"/>
</g>
</svg>
