<svg id="Group_585" data-name="Group 585" xmlns="http://www.w3.org/2000/svg" width="23.048" height="22.024" viewBox="0 0 23.048 22.024">
  <path id="Path_1626" data-name="Path 1626" d="M50.116,37.471v8.522H45.175V38.042c0-2-.713-3.36-2.5-3.36a2.7,2.7,0,0,0-2.534,1.807,3.382,3.382,0,0,0-.164,1.2v8.3H35.033s.066-13.466,0-14.86h4.942v2.106c-.01.017-.024.033-.033.049h.033v-.049a4.906,4.906,0,0,1,4.453-2.455c3.251,0,5.688,2.124,5.688,6.688Zm-20.252-13.5A2.575,2.575,0,1,0,29.8,29.1h.032a2.576,2.576,0,1,0,.033-5.135Zm-2.5,22.024H32.3V31.132H27.362Z" transform="translate(-27.068 -23.969)" fill="#00a25f"/>
</svg>
