<?xml version="1.0" encoding="utf-8"?>
<!-- Generator: Adobe Illustrator 24.0.2, SVG Export Plug-In . SVG Version: 6.00 Build 0)  -->
<svg version="1.1" id="Layer_1" xmlns="http://www.w3.org/2000/svg" xmlns:xlink="http://www.w3.org/1999/xlink" x="0px" y="0px"
	 viewBox="0 0 9 13.4" style="enable-background:new 0 0 9 13.4;" xml:space="preserve">
<style type="text/css">
	.st0{fill:#535B66;}
</style>
<g>
	<g id="lives_in">
		<path id="_" class="st0" d="M1.3,1.3C2.1,0.5,3.3,0,4.5,0c1.2,0,2.4,0.5,3.2,1.3C8.5,2.1,9,3.3,9,4.5C8.9,5.3,8.7,6.1,8.3,6.9
			C7.9,7.8,7.5,8.7,6.9,9.6c-0.3,0.5-0.6,1.1-1,1.6c-0.3,0.5-0.6,0.9-0.8,1.2l-0.3,0.4l-0.4,0.6l-0.4-0.6c-0.7-1-1.4-2.1-2-3.2
			c-0.5-0.9-1-1.8-1.4-2.7C0.3,6.1,0.1,5.3,0,4.5C0,3.3,0.5,2.1,1.3,1.3z M7,2C6.3,1.3,5.4,1,4.5,1C3.6,1,2.7,1.3,2,2
			C1.3,2.7,1,3.6,1,4.5c0.1,0.7,0.3,1.4,0.6,2C2,7.4,2.4,8.2,2.9,9.1c0.5,0.9,1,1.7,1.6,2.5c0.5-0.8,1-1.6,1.6-2.5
			c0.5-0.8,1-1.7,1.4-2.6c0.3-0.6,0.5-1.3,0.6-2C8,3.6,7.7,2.7,7,2L7,2z M3.8,3.8C4,3.6,4.2,3.5,4.5,3.5c0.3,0,0.5,0.1,0.7,0.3
			C5.4,4,5.5,4.2,5.5,4.5c0,0.3-0.1,0.5-0.3,0.7C5,5.4,4.8,5.5,4.5,5.5C4.2,5.5,4,5.4,3.8,5.2C3.6,5,3.5,4.8,3.5,4.5
			C3.5,4.2,3.6,4,3.8,3.8z"/>
	</g>
</g>
</svg>
