<?xml version="1.0" encoding="utf-8"?>
<!-- Generator: Adobe Illustrator 24.0.2, SVG Export Plug-In . SVG Version: 6.00 Build 0)  -->
<svg version="1.1" id="Layer_1" xmlns="http://www.w3.org/2000/svg" xmlns:xlink="http://www.w3.org/1999/xlink" x="0px" y="0px"
	 viewBox="0 0 10.3 10.8" style="enable-background:new 0 0 10.3 10.8;" xml:space="preserve">
<style type="text/css">
	.st0{opacity:0.505;fill:#2C2D30;enable-background:new    ;}
</style>
<g>
	<g id="loading_more" transform="translate(0)">
		<path id="BTN_Label" class="st0" d="M4.4,0.4c0.5-0.5,1.3-0.5,1.9,0C6.5,0.6,6.7,1,6.7,1.3c0,0.3-0.1,0.7-0.4,0.9
			c-0.5,0.5-1.3,0.5-1.9,0C4.2,2,4,1.7,4,1.3C4,1,4.2,0.6,4.4,0.4z M1.5,1.8c0.4-0.4,1.1-0.4,1.6,0C3.3,2,3.4,2.3,3.4,2.6
			c0,0.6-0.5,1.1-1.1,1.1c0,0,0,0,0,0c-0.6,0-1.1-0.5-1.1-1.1c0,0,0,0,0,0C1.2,2.3,1.3,2,1.5,1.8z M8.1,2.3c0.2-0.2,0.5-0.2,0.7,0
			s0.2,0.5,0,0.7c-0.2,0.2-0.5,0.2-0.7,0C8.1,2.8,8,2.7,8,2.6C8,2.5,8.1,2.4,8.1,2.3L8.1,2.3z M0.3,5c0.4-0.4,1-0.4,1.4,0
			c0.4,0.4,0.4,1,0,1.4C1.5,6.6,1.2,6.7,1,6.7c-0.5,0-1-0.4-1-1C0,5.4,0.1,5.2,0.3,5L0.3,5z M9.4,5.3c0.2-0.2,0.5-0.2,0.7,0
			c0.2,0.2,0.2,0.5,0,0.7c-0.2,0.2-0.5,0.2-0.7,0C9.2,6,9.2,5.8,9.2,5.7C9.2,5.5,9.2,5.4,9.4,5.3z M1.7,8.2c0.3-0.3,0.9-0.3,1.2,0
			c0.3,0.3,0.3,0.9,0,1.2C2.5,9.7,2,9.7,1.6,9.4C1.5,9.2,1.4,9,1.4,8.8C1.4,8.5,1.5,8.3,1.7,8.2L1.7,8.2z M8,8.3
			c0.3-0.3,0.7-0.3,0.9,0s0.3,0.7,0,0.9C8.7,9.5,8.2,9.5,8,9.2C7.9,9.1,7.8,9,7.8,8.8C7.8,8.6,7.9,8.4,8,8.3L8,8.3z M4.8,9.5
			c0.3-0.3,0.8-0.3,1.1,0c0.3,0.3,0.3,0.8,0,1.1c-0.3,0.3-0.8,0.3-1.1,0c-0.2-0.1-0.2-0.4-0.2-0.6C4.6,9.9,4.7,9.7,4.8,9.5L4.8,9.5z
			"/>
	</g>
</g>
</svg>
