<?xml version="1.0" encoding="utf-8"?>
<!-- Generator: Adobe Illustrator 24.0.2, SVG Export Plug-In . SVG Version: 6.00 Build 0)  -->
<svg version="1.1" id="Layer_1" xmlns="http://www.w3.org/2000/svg" xmlns:xlink="http://www.w3.org/1999/xlink" x="0px" y="0px"
	 viewBox="0 0 24 26" style="enable-background:new 0 0 24 26;" xml:space="preserve">
<path id="_" d="M0,0h24v26H13v-4h-2v4H0V0z M2,2v22h7v-4h6v4h7V2H2z M4,4h4v2H4V4z M10,4h4v2h-4V4z M16,4h4v2h-4V4z M4,8h4v2H4V8z
	 M10,8h4v2h-4V8z M16,8h4v2h-4V8z M4,12h4v2H4V12z M10,12h4v2h-4V12z M16,12h4v2h-4V12z M4,16h4v2H4V16z M10,16h4v2h-4V16z M16,16h4
	v2h-4V16z M4,20h4v2H4V20z M16,20h4v2h-4V20z"/>
</svg>
