<?xml version="1.0" encoding="utf-8"?>
<!-- Generator: Adobe Illustrator 24.0.2, SVG Export Plug-In . SVG Version: 6.00 Build 0)  -->
<svg version="1.1" id="Layer_1" xmlns="http://www.w3.org/2000/svg" xmlns:xlink="http://www.w3.org/1999/xlink" x="0px" y="0px"
	 viewBox="0 0 8.7 12.2" style="enable-background:new 0 0 8.7 12.2;" xml:space="preserve">
<style type="text/css">
	.st0{fill:#535B66;}
</style>
<g>
	<g id="location" transform="translate(0 0)">
		<g id="Oval_11">
			<path class="st0" d="M4.4,12.7c-0.2,0-0.3-0.1-0.4-0.2c-0.5-0.6-4.5-5.6-4.5-8.2c0-2.7,2.2-4.9,4.9-4.9c0,0,0,0,0,0
				c1.3,0,2.5,0.5,3.4,1.4c0.9,0.9,1.4,2.1,1.4,3.4c0,2.5-4,7.6-4.5,8.2C4.7,12.6,4.5,12.7,4.4,12.7z M4.4,0.5
				C4.4,0.5,4.4,0.5,4.4,0.5c-2.1,0-3.9,1.7-3.9,3.9c0,1.7,2.5,5.3,3.9,7c1.4-1.8,3.9-5.4,3.9-7c0-1-0.4-2-1.1-2.7S5.4,0.5,4.4,0.5z
				"/>
		</g>
		<g id="Oval_12">
			<path class="st0" d="M4.4,6.6c-1.2,0-2.2-1-2.2-2.2s1-2.2,2.2-2.2s2.2,1,2.2,2.2S5.6,6.6,4.4,6.6z M4.4,3.1
				c-0.7,0-1.2,0.6-1.2,1.2s0.6,1.2,1.2,1.2C5,5.6,5.6,5,5.6,4.4S5,3.1,4.4,3.1z"/>
		</g>
	</g>
</g>
</svg>
