<svg height="476pt" viewBox="-66 0 476 476.90231" width="476pt" xmlns="http://www.w3.org/2000/svg"><path d="m325.972656 134.503906c-5.238281-4.164062-9.566406-9.359375-12.722656-15.257812-1.027344-6.929688-.605469-13.996094 1.242188-20.75 2.117187-11.714844 4.527343-24.976563-2.601563-34.761719s-20.632813-11.6875-32.488281-13.289063c-6.914063-.308593-13.6875-2.054687-19.894532-5.117187-4.75-4.921875-8.433593-10.769531-10.816406-17.179687-5.199218-10.871094-11.089844-23.199219-22.871094-27.023438-11.328124-3.695312-22.585937 2.402344-33.457031 8.234375-5.972656 3.921875-12.699219 6.546875-19.753906 7.703125-7.050781-1.15625-13.777344-3.78125-19.75-7.703125-10.878906-5.847656-22.128906-11.914063-33.457031-8.234375-11.78125 3.824219-17.671875 16.152344-22.871094 27.023438-2.386719 6.398437-6.074219 12.234374-10.824219 17.136718-6.203125 3.066406-12.976562 4.8125-19.886719 5.121094-11.855468 1.601562-25.296874 3.390625-32.488281 13.289062-7.191406 9.894532-4.722656 23.046876-2.601562 34.757813 1.84375 6.753906 2.269531 13.820313 1.242187 20.746094-3.15625 5.898437-7.484375 11.089843-12.722656 15.253906-8.800781 8.367187-18.800781 17.855469-18.800781 30.449219s9.992187 22.078125 18.800781 30.441406c5.238281 4.164062 9.566406 9.355469 12.722656 15.253906 1.027344 6.929688.605469 13.996094-1.242187 20.753906-2.121094 11.710938-4.527344 24.976563 2.601562 34.757813 7.128907 9.785156 20.632813 11.6875 32.488281 13.289063 6.414063.441406 12.707032 1.949218 18.621094 4.472656l-63.308594 166.183594c-1.128906 2.941406-.421874 6.269531 1.800782 8.503906 2.222656 2.230468 5.546875 2.953125 8.492187 1.839844l58.5625-21.96875 28.375 35.472656c1.519531 1.898437 3.816407 3 6.246094 3 .4375.003906.871094-.035156 1.296875-.113282 2.851562-.46875 5.226562-2.4375 6.21875-5.152343l40.484375-111.335938 40.488281 111.335938c.992188 2.714843 3.367188 4.683593 6.21875 5.152343.425782.078126.859375.117188 1.292969.113282 2.433594 0 4.730469-1.101563 6.25-3l28.375-35.472656 58.5625 21.96875c2.945313 1.113281 6.269531.390624 8.492187-1.839844 2.222657-2.234375 2.929688-5.5625 1.800782-8.503906l-63.3125-166.183594c5.917968-2.519532 12.210937-4.03125 18.625-4.472656 11.855468-1.601563 25.296875-3.390626 32.488281-13.289063 7.191406-9.894531 4.71875-23.046875 2.601563-34.757813-1.847657-6.753906-2.269532-13.820312-1.242188-20.746093 3.15625-5.898438 7.484375-11.089844 12.722656-15.253907 8.796875-8.371093 18.796875-17.855468 18.796875-30.449218s-9.992187-22.082032-18.796875-30.398438zm-204 318.316406-23.105468-28.878906c-2.164063-2.707031-5.820313-3.714844-9.0625-2.496094l-47.402344 17.785157 53.160156-139.542969c.328125.671875.65625 1.335938.976562 2.007812 5.199219 10.871094 11.089844 23.199219 22.871094 27.023438 11.3125 3.679688 22.585938-2.402344 33.457032-8.234375 1.472656-.796875 2.945312-1.597656 4.414062-2.335937l6.824219 18.792968zm133.460938-31.375c-3.242188-1.203124-6.890625-.195312-9.0625 2.496094l-23.105469 28.878906-50.902344-140c.078125 0 .175781-.039062.257813-.039062 7.050781 1.15625 13.777344 3.78125 19.75 7.703125 7.882812 5.175781 16.894531 8.382813 26.273437 9.355469 2.441407.007812 4.871094-.371094 7.199219-1.121094 11.785156-3.824219 17.671875-16.152344 22.871094-27.023438.320312-.671874.648437-1.335937.976562-2.007812l53.160156 139.542969zm59.53125-237.664062c-7.332032 5.832031-13.140625 13.355469-16.929688 21.921875-2.066406 9.425781-1.824218 19.214844.710938 28.527344 1.601562 8.96875 3.3125 18.246093.210937 22.503906-3.105469 4.253906-12.578125 5.601563-21.691406 6.832031-9.582031.441406-18.917969 3.203125-27.199219 8.046875-7.082031 6.339844-12.523437 14.300781-15.855468 23.199219-4 8.363281-8.128907 17-13.367188 18.707031-4.863281 1.597657-13.023438-2.832031-20.945312-7.097656-8.179688-5.386719-17.542969-8.707031-27.289063-9.679687-9.75.941406-19.128906 4.234374-27.328125 9.601562-7.917969 4.261719-16.0625 8.636719-20.941406 7.09375-5.242188-1.703125-9.375-10.34375-13.367188-18.703125-3.332031-8.898437-8.769531-16.859375-15.847656-23.199219-8.285156-4.84375-17.617188-7.605468-27.203125-8.050781-9.101563-1.222656-18.519531-2.484375-21.6875-6.839844-3.167969-4.351562-1.414063-13.527343.207031-22.496093 2.535156-9.3125 2.78125-19.105469.714844-28.535157-3.785156-8.570312-9.589844-16.09375-16.921875-21.925781-6.792969-6.402344-13.816406-13.105469-13.816406-18.832031 0-5.730469 7.023437-12.394531 13.816406-18.839844 7.339844-5.828125 13.15625-13.347656 16.953125-21.914063 2.066406-9.425781 1.824219-19.214843-.710938-28.527343-1.601562-8.96875-3.3125-18.246094-.210937-22.503907 3.105469-4.257812 12.578125-5.601562 21.691406-6.832031 9.570313-.449219 18.886719-3.210937 27.15625-8.046875 7.085938-6.339844 12.527344-14.300781 15.859375-23.203125 4-8.359375 8.125-17 13.367188-18.703125 4.863281-1.597656 13.023437 2.832032 20.941406 7.097656 8.191406 5.390626 17.570312 8.714844 27.328125 9.679688 9.753906-.941406 19.132813-4.238281 27.328125-9.601562 7.921875-4.261719 16.058594-8.664063 20.945312-7.09375 5.242188 1.703124 9.375 10.34375 13.367188 18.703124 3.332031 8.898438 8.769531 16.859376 15.847656 23.199219 8.285156 4.84375 17.617188 7.605469 27.203125 8.046875 9.101563 1.226563 18.519531 2.488282 21.6875 6.839844 3.167969 4.355469 1.414063 13.53125-.210937 22.496094-2.53125 9.316406-2.777344 19.109375-.710938 28.539062 3.785156 8.566406 9.589844 16.09375 16.921875 21.925782 6.789063 6.402343 13.816407 13.105468 13.816407 18.832031 0 5.730469-7.058594 12.34375-13.847657 18.792969zm0 0"/><path d="m172.609375 52.902344c-61.855469 0-112 50.144531-112 112 0 61.855468 50.144531 112 112 112 61.859375 0 112-50.144532 112-112-.0625-61.828125-50.167969-111.933594-112-112zm0 208c-53.015625 0-96-42.980469-96-96 0-53.019532 42.984375-96 96-96 53.019531 0 96 42.980468 96 96-.054687 52.996094-43.003906 95.941406-96 96zm0 0"/></svg>