<?xml version="1.0" encoding="utf-8"?>
<!-- Generator: Adobe Illustrator 24.0.2, SVG Export Plug-In . SVG Version: 6.00 Build 0)  -->
<svg version="1.1" id="Layer_1" xmlns="http://www.w3.org/2000/svg" xmlns:xlink="http://www.w3.org/1999/xlink" x="0px" y="0px"
	 viewBox="0 0 24 16" style="enable-background:new 0 0 24 16;" xml:space="preserve">
<style type="text/css">
	.st0{fill:#2C2D30;}
</style>
<g>
	<g id="multimedia">
		<path id="_" class="st0" d="M0,0h10v10c0,1.6-0.6,3.1-1.8,4.3C7.1,15.4,5.6,16,4,16v-2c1.1,0,2.1-0.4,2.8-1.2
			C7.6,12.1,8,11.1,8,10H0V0z M14,0h10v10c0,1.6-0.6,3.1-1.8,4.3C21.1,15.4,19.6,16,18,16v-2c1.1,0,2.1-0.4,2.8-1.2
			c0.8-0.7,1.2-1.8,1.2-2.8h-8V0z M2,2v6h6V2H2z M16,2v6h6V2H16z"/>
	</g>
</g>
</svg>
