<?xml version="1.0" encoding="utf-8"?>
<!-- Generator: Adobe Illustrator 24.0.2, SVG Export Plug-In . SVG Version: 6.00 Build 0)  -->
<svg version="1.1" id="Layer_1" xmlns="http://www.w3.org/2000/svg" xmlns:xlink="http://www.w3.org/1999/xlink" x="0px" y="0px"
	 viewBox="0 0 22 28.1" style="enable-background:new 0 0 22 28.1;" xml:space="preserve">
<style type="text/css">
	.st0{fill:#2C2D30;}
</style>
<g>
	<g id="natural_science">
		<path id="_" class="st0" d="M20,0l0.4,1.1c1.2,4.4,1.7,8.9,1.6,13.4c0,3.8-0.8,6.5-2.4,8.3c-1.2,1.4-3,2.2-4.8,2.2
			c-1.6-0.1-3.1-0.6-4.4-1.6c-0.4-0.2-0.7-0.5-1.1-0.8c-0.4-0.3-0.7-0.5-0.9-0.7c-0.2-0.2-0.3-0.3-0.3-0.3l1-1.7
			c0.3,0.2,0.6,0.5,1.2,0.9c0.5,0.4,0.9,0.8,1.3,1c0.9,0.7,2.1,1.2,3.3,1.3c1.3,0,2.5-0.5,3.3-1.5c1.3-1.5,1.9-3.8,1.9-7
			c0.1-4-0.4-8-1.4-11.9c-1.8,0.6-3.6,1.2-5.4,1.6C10.7,4.8,9,5.3,8,5.6C6.4,6.1,4.9,7,3.6,8.3C2.5,9.6,1.9,11.3,2,13
			c0,1.6,0.9,3.1,2.3,4c0.5,0.4,1,0.7,1.6,0.9c2.5-3.8,5.3-7.3,8.4-10.6l1.5,1.4c-5.7,6-9.1,10.9-10.4,14.6c-0.4,1-0.5,2-0.5,3
			c0,0.3,0,0.5,0.1,0.8c0.1,0.3,0.1,0.7,0,1l-2-0.3l-0.1-1.5c-0.1-1.3,0.1-2.6,0.6-3.8c0.4-1,0.8-2,1.4-3c-0.6-0.3-1.2-0.6-1.8-1
			C1.1,17.4,0,15.3,0,13c-0.1-2.2,0.7-4.4,2.2-6.1c1.4-1.4,3.2-2.5,5.1-3.1c1.2-0.4,3.1-0.9,5.9-1.5c2-0.4,3.9-1,5.8-1.7L20,0z"/>
	</g>
</g>
</svg>
