<?xml version="1.0" encoding="utf-8"?>
<!-- Generator: Adobe Illustrator 24.0.2, SVG Export Plug-In . SVG Version: 6.00 Build 0)  -->
<svg version="1.1" id="Layer_1" xmlns="http://www.w3.org/2000/svg" xmlns:xlink="http://www.w3.org/1999/xlink" x="0px" y="0px"
	 viewBox="0 0 12.5 16.3" style="enable-background:new 0 0 12.5 16.3;" xml:space="preserve">
<style type="text/css">
	.st0{fill:#2C2D30;}
</style>
<g>
	<g id="popular_in_courses">
		<path id="_" class="st0" d="M5.2,0H6l0.2,0.2c1.1,0.9,2.2,2,3.1,3.2c2.1,2.6,3.2,5,3.2,7.3c0.1,1.4-0.4,2.7-1.2,3.8
			c-1.2,1.1-2.7,1.8-4.3,1.8c0,0,0,0-0.1,0H6.8c-0.3,0-0.4,0-0.5,0H5.8c-1.7,0.1-3.3-0.5-4.5-1.7c-0.9-1-1.4-2.3-1.3-3.7
			c0.1-2.4,1-4.6,2.5-6.4C2.7,4.1,3,3.7,3.4,3.2C3.7,2.7,4,2.4,4.2,2.1c0.2-0.3,0.4-0.5,0.5-0.9C4.9,1,5,0.7,5.1,0.5L5.2,0z
			 M5.9,1.6C5.8,1.9,5.6,2.2,5.4,2.5C5.2,2.8,5,3,4.9,3.3s-0.4,0.5-0.7,1C3.9,4.7,3.6,5,3.5,5.2c-1.3,1.6-2.1,3.6-2.3,5.7
			c0,1,0.3,2,1,2.8c0.1,0.1,0.3,0.3,0.5,0.5c-0.1-0.1-0.1-0.3-0.1-0.4C2.3,12.1,2.7,10.3,3.9,9l0.6-0.8l0.5,0.9
			C5.1,9.5,5.4,9.8,5.8,10C6,10,6.1,9.9,6.2,9.8c0.3-0.4,0.4-0.9,0.4-1.4c0-0.9-0.1-1.8-0.4-2.7L6,5h1.3l0.2,0.2
			c0.5,0.6,0.9,1.4,1.2,2.1c0.5,1.1,1,2.3,1.2,3.5c0.3,1.1,0.3,2.2,0,3.2c0.2-0.1,0.4-0.3,0.5-0.5c0.7-0.8,1-1.9,0.9-3
			c0-2-1-4.1-2.9-6.5C7.6,3.2,6.8,2.3,5.9,1.6L5.9,1.6z M7.8,8.9c-0.1,0.6-0.3,1.2-0.7,1.7c-0.4,0.5-1.1,0.8-1.8,0.5
			C5,11,4.7,10.8,4.5,10.5c-0.5,0.9-0.8,1.9-0.6,2.9c0.3,1,1.2,1.6,2.3,1.6h0.2c0.2,0,0.4,0,0.6,0c0.1,0,0.2,0,0.3,0
			c0.6-0.1,1.1-0.5,1.4-1C8.8,13,8.9,12,8.6,11.1C8.4,10.4,8.2,9.6,7.8,8.9L7.8,8.9z"/>
	</g>
</g>
</svg>
