<?xml version="1.0" encoding="utf-8"?>
<!-- Generator: Adobe Illustrator 24.0.2, SVG Export Plug-In . SVG Version: 6.00 Build 0)  -->
<svg version="1.1" id="Layer_1" xmlns="http://www.w3.org/2000/svg" xmlns:xlink="http://www.w3.org/1999/xlink" x="0px" y="0px"
	 viewBox="0 0 16 14.2" style="enable-background:new 0 0 16 14.2;" xml:space="preserve">
<style type="text/css">
	.st0{fill:#2C2D30;}
</style>
<g>
	<g id="save" transform="translate(0 0)">
		<path id="Shape" class="st0" d="M8,14.2L8,14.2c-0.3,0-0.5-0.1-0.6-0.3c-0.9-1-1.8-1.9-2.9-2.7C4,10.8,3.4,10.3,2.9,9.8
			C1.5,8.6,0,6.9,0,4.5c0-1.2,0.4-2.4,1.3-3.3C2.1,0.4,3.3,0,4.5,0c1.1,0.1,2.2,0.5,3,1.3c0.2,0.1,0.3,0.3,0.4,0.5
			c0,0.1,0.1,0.1,0.1,0.2c0.1-0.1,0.1-0.1,0.1-0.2c0.1-0.2,0.3-0.3,0.4-0.4c0.8-0.8,1.9-1.3,3-1.3c1.2,0,2.3,0.4,3.2,1.2
			C15.6,2.1,16,3.3,16,4.5c0,2.4-1.5,4.1-2.9,5.3c-0.5,0.5-1.1,1-1.7,1.4c-1,0.8-2,1.7-2.9,2.7C8.4,14.1,8.2,14.2,8,14.2z M4.5,1.5
			c-0.8,0-1.6,0.3-2.2,0.8C1.7,2.9,1.4,3.7,1.5,4.5c0,1.8,1.2,3.1,2.4,4.2c0.4,0.4,0.9,0.8,1.3,1.2c1,0.8,1.9,1.7,2.8,2.6
			c0.9-0.9,1.8-1.8,2.8-2.6c0.5-0.4,0.9-0.8,1.4-1.2c1.3-1.1,2.4-2.4,2.4-4.2c0-0.8-0.3-1.6-0.8-2.2c-0.6-0.6-1.4-0.9-2.2-0.8
			c-0.8,0.1-1.5,0.4-2,1c-0.3,0.3-0.7,0.6-0.9,1c-0.2,0.3-0.7,0.4-1,0.2c-0.1,0-0.1-0.1-0.2-0.2c-0.3-0.4-0.6-0.7-0.9-1
			C5.9,1.9,5.2,1.6,4.5,1.5z"/>
	</g>
</g>
</svg>
