<svg xmlns="http://www.w3.org/2000/svg" viewBox="0 0 512 297.05"><title>school</title><g id="Layer_2" data-name="Layer 2"><g id="Layer_1-2" data-name="Layer 1"><path d="M0,230.18v51.63a15.24,15.24,0,0,0,15.24,15.24H63.71A15.24,15.24,0,0,0,79,281.81V230.18a39.55,39.55,0,0,0-24.24-36.41v-83.9l94.56,30.48v57.17c0,15.1,14,29.44,39.58,40.38,22.93,9.84,51.08,15.25,79.26,15.25s56.34-5.41,79.27-15.25c25.1-10.76,39.12-24.81,39.57-39.64,0-.24,0-.49,0-.74V140.35l114.47-36.9a15.24,15.24,0,0,0,0-29L272.79.74a15.09,15.09,0,0,0-9.35,0L34.8,74.44A15.24,15.24,0,0,0,24.23,89V193.77A39.54,39.54,0,0,0,0,230.18Zm179.74-33.91v-46.1l83.7,27a15,15,0,0,0,4.68.74,15.2,15.2,0,0,0,4.67-.74l83.7-27v46.09c-1.84,2.79-9.78,9.42-25.89,15.56-18.38,7-40.57,10.85-62.49,10.85s-44.1-3.85-62.48-10.85C189.53,205.69,181.6,199.06,179.74,196.27ZM89.14,89l179-57.7L447.1,89l-179,57.69ZM30.48,230.18a9,9,0,0,1,18,0v36.4h-18Z"/></g></g></svg>