<svg xmlns="http://www.w3.org/2000/svg" width="16.009" height="21.011" viewBox="0 0 16.009 21.011">
  <path id="Shape" d="M14.008,21.011H2a2,2,0,0,1-2-2V9A2,2,0,0,1,2,7V6A6.008,6.008,0,0,1,12.253,1.755,5.963,5.963,0,0,1,14.008,6V7a2,2,0,0,1,2,2V19.01A2,2,0,0,1,14.008,21.011Zm-2-8a1,1,0,1,0,1,1A1,1,0,0,0,12.006,13.007Zm-4,0a1,1,0,1,0,1,1A1,1,0,0,0,8,13.007Zm-4,0a1,1,0,1,0,1,1A1,1,0,0,0,4,13.007ZM8,2A3.914,3.914,0,0,0,4,6V7h8V6A3.914,3.914,0,0,0,8,2Z" transform="translate(0 0)" fill="#2c2d30"/>
</svg>
