<?xml version="1.0" encoding="utf-8"?>
<!-- Generator: Adobe Illustrator 24.0.2, SVG Export Plug-In . SVG Version: 6.00 Build 0)  -->
<svg version="1.1" id="Layer_1" xmlns="http://www.w3.org/2000/svg" xmlns:xlink="http://www.w3.org/1999/xlink" x="0px" y="0px"
	 viewBox="0 0 11.8 12.8" style="enable-background:new 0 0 11.8 12.8;" xml:space="preserve">
<style type="text/css">
	.st0{fill:#535B66;}
</style>
<g>
	<path class="st0" d="M8.8,1H8.2V0h-1v1H4.6V0h-1v1H3C1.3,1,0,2.3,0,4v5.8c0,1.7,1.3,3,3,3h5.8c1.7,0,3-1.3,3-3V4
		C11.8,2.3,10.5,1,8.8,1z M3,2h0.6v1h1V2h2.5v1h1V2h0.6c1.1,0,2,0.9,2,2v0.4H1V4C1,2.9,1.9,2,3,2z M8.8,11.8H3c-1.1,0-2-0.9-2-2V5.4
		h9.8v4.4C10.8,10.9,9.9,11.8,8.8,11.8z"/>
	
		<rect x="2.5" y="6.4" transform="matrix(1.464687e-02 -0.9999 0.9999 1.464687e-02 -3.9824 9.7472)" class="st0" width="1" height="1"/>
	
		<rect x="5.4" y="6.4" transform="matrix(1.464687e-02 -0.9999 0.9999 1.464687e-02 -1.0706 12.702)" class="st0" width="1" height="1"/>
	
		<rect x="8.4" y="6.4" transform="matrix(1.464687e-02 -0.9999 0.9999 1.464687e-02 1.84 15.6555)" class="st0" width="1" height="1"/>
	
		<rect x="2.5" y="9.3" transform="matrix(1.562309e-02 -0.9999 0.9999 1.562309e-02 -6.9402 12.6497)" class="st0" width="1" height="1"/>
	
		<rect x="5.4" y="9.3" transform="matrix(1.562309e-02 -0.9999 0.9999 1.562309e-02 -4.0313 15.6045)" class="st0" width="1" height="1"/>
	
		<rect x="8.4" y="9.3" transform="matrix(1.562309e-02 -0.9999 0.9999 1.562309e-02 -1.1236 18.5579)" class="st0" width="1" height="1"/>
</g>
</svg>
