<?xml version="1.0" encoding="utf-8"?>
<!-- Generator: Adobe Illustrator 24.0.2, SVG Export Plug-In . SVG Version: 6.00 Build 0)  -->
<svg version="1.1" id="Layer_1" xmlns="http://www.w3.org/2000/svg" xmlns:xlink="http://www.w3.org/1999/xlink" x="0px" y="0px"
	 viewBox="0 0 8.1 8.8" style="enable-background:new 0 0 8.1 8.8;" xml:space="preserve">
<style type="text/css">
	.st0{fill:#D24B3F;}
</style>
<g>
	<g id="thumb-down" transform="translate(0)">
		<path id="Path_2" class="st0" d="M7.9,3.9c0-0.1,0-0.2,0-0.4c0-0.3-0.1-0.5-0.2-0.8c0-0.1,0-0.2,0-0.2c0-0.3-0.1-0.7-0.3-0.9v0
			c0-0.4-0.1-0.9-0.5-1.1C6.6,0.1,6.2,0,5.8,0H5.2C4.8,0,4.5,0,4.1,0.1C3.7,0.2,3.3,0.3,2.9,0.5C2.7,0.6,2.5,0.6,2.2,0.7H0.7
			c-0.2,0-0.4,0.1-0.5,0.2C0.1,1,0,1.2,0,1.4v3.4c0,0.4,0.3,0.7,0.7,0.7l0,0h1.5C2.4,5.7,2.6,6,2.9,6.3C3,6.5,3.2,6.7,3.4,6.9
			C3.5,7,3.6,7.1,3.6,7.3c0,0.1,0.1,0.3,0.1,0.4c0,0.2,0.1,0.3,0.1,0.5C3.9,8.4,4,8.5,4.1,8.6c0.1,0.1,0.3,0.2,0.5,0.2
			c0.3,0,0.5-0.1,0.8-0.2c0.2-0.1,0.4-0.3,0.5-0.5c0.1-0.3,0.2-0.6,0.2-1c0-0.4-0.1-0.7-0.3-1h0.9c0.7,0,1.3-0.6,1.4-1.4
			C8.1,4.5,8.1,4.2,7.9,3.9z M1.3,1.9C1.1,2.1,0.9,2.1,0.8,2c-0.1-0.1-0.2-0.3,0-0.5c0,0,0,0,0,0c0.1-0.1,0.3-0.2,0.5,0
			C1.4,1.6,1.4,1.8,1.3,1.9C1.3,1.9,1.3,1.9,1.3,1.9z M7.3,5.2C7.1,5.4,7,5.4,6.8,5.4H4.9C4.9,5.7,5,6,5.2,6.3
			c0.1,0.3,0.2,0.6,0.3,0.9c0,0.3,0,0.5-0.2,0.8C5.1,8.1,4.8,8.2,4.6,8.1C4.5,8,4.4,7.9,4.4,7.7c0-0.2-0.1-0.4-0.2-0.7
			C4.2,6.8,4.1,6.6,3.9,6.4C3.8,6.4,3.7,6.2,3.5,6L3.4,5.8L3.2,5.6c0-0.1-0.1-0.1-0.2-0.2C3,5.3,2.9,5.2,2.8,5.1
			C2.7,5.1,2.7,5,2.6,4.9C2.6,4.9,2.5,4.8,2.4,4.8c-0.1,0-0.1,0-0.2,0H2V1.4h0.2c0.1,0,0.1,0,0.2,0c0.1,0,0.1,0,0.2,0
			c0,0,0.1,0,0.2-0.1l0.2-0.1l0.2-0.1l0.2-0.1c0.6-0.2,1.2-0.4,1.8-0.4h0.7c0.3,0,0.5,0.1,0.7,0.2c0.2,0.2,0.3,0.4,0.3,0.7
			c0,0.1,0,0.2,0,0.3C6.8,1.9,6.9,2,7,2.1C7,2.3,7.1,2.4,7.1,2.5c0,0.1,0,0.3-0.1,0.4c0.2,0.2,0.3,0.4,0.3,0.6c0,0.1,0,0.2-0.1,0.3
			c0,0.1-0.1,0.2-0.1,0.3c0.1,0,0.2,0.1,0.3,0.2c0.1,0.1,0.1,0.3,0.1,0.4C7.5,4.9,7.4,5.1,7.3,5.2L7.3,5.2z"/>
	</g>
</g>
</svg>
