<svg xmlns="http://www.w3.org/2000/svg" width="9.468" height="8.242" viewBox="0 0 9.468 8.242">
  <g id="thumbs-up" transform="translate(1.468 -3.428)">
    <path id="Path_1" data-name="Path 1" d="M27.449,4.606a1.241,1.241,0,0,0,.3-.807,1.112,1.112,0,0,0-.468-.887,1.718,1.718,0,0,0-1.11-.376H25.088a1.841,1.841,0,0,0,.3-.951,1.713,1.713,0,0,0-.216-.921,1.258,1.258,0,0,0-.629-.5A2.546,2.546,0,0,0,23.609,0a.89.89,0,0,0-.555.183,1.164,1.164,0,0,0-.382.535,5.851,5.851,0,0,0-.188.627.769.769,0,0,1-.219.423q-.3.263-.66.634a4.9,4.9,0,0,1-.844.768H19.072a.863.863,0,0,0-.558.186.558.558,0,0,0-.231.448v3.17a.558.558,0,0,0,.231.448.863.863,0,0,0,.558.186h1.775a5.454,5.454,0,0,1,.851.2q.758.213,1.335.324a6.137,6.137,0,0,0,1.168.111H25a2.27,2.27,0,0,0,1.4-.4,1.272,1.272,0,0,0,.524-1.087,1.229,1.229,0,0,0,.37-.882,1.209,1.209,0,0,0-.018-.213,1.214,1.214,0,0,0,.234-.713A1.056,1.056,0,0,0,27.449,4.606ZM19.744,6.88a.456.456,0,0,1-.555,0,.271.271,0,0,1,0-.446.456.456,0,0,1,.555,0,.271.271,0,0,1,0,.446ZM26.83,4.205a.4.4,0,0,1-.33.233.64.64,0,0,1,.154.235.736.736,0,0,1,.061.275.724.724,0,0,1-.327.589.584.584,0,0,1,.111.342.7.7,0,0,1-.108.364.619.619,0,0,1-.293.26,1.371,1.371,0,0,1,.031.277q0,.827-1.184.827H24.2a8.275,8.275,0,0,1-2.108-.362l-.179-.052-.219-.062-.216-.057q-.145-.037-.234-.055t-.2-.032a1.539,1.539,0,0,0-.194-.015h-.2V3.8h.2a.637.637,0,0,0,.219-.045,1.088,1.088,0,0,0,.247-.134q.126-.089.237-.176a3.161,3.161,0,0,0,.247-.218q.136-.131.213-.211l.194-.2.142-.149q.339-.337.475-.451a1.212,1.212,0,0,0,.367-.542q.114-.329.188-.622a.76.76,0,0,1,.234-.421A1.019,1.019,0,0,1,24.4.867a1.094,1.094,0,0,1,.2.718,1.736,1.736,0,0,1-.3.795,1.735,1.735,0,0,0-.3.79h2.17a.858.858,0,0,1,.549.191.556.556,0,0,1,.241.443A.827.827,0,0,1,26.83,4.205Z" transform="translate(-19.751 3.428)" fill="#d24b3f"/>
  </g>
</svg>
