<?xml version="1.0" encoding="utf-8"?>
<!-- Generator: Adobe Illustrator 24.0.2, SVG Export Plug-In . SVG Version: 6.00 Build 0)  -->
<svg version="1.1" id="Layer_1" xmlns="http://www.w3.org/2000/svg" xmlns:xlink="http://www.w3.org/1999/xlink" x="0px" y="0px"
	 viewBox="0 0 9 11.8" style="enable-background:new 0 0 9 11.8;" xml:space="preserve">
<style type="text/css">
	.st0{fill:#535B66;}
</style>
<g>
	<path class="st0" d="M7.5,2.9v-2h1.1c0.1,0,0.1,0,0.1,0c0,0,0,0,0,0c0,0,0,0,0,0C8.9,0.8,9,0.6,9,0.4v0c0-0.2-0.1-0.3-0.2-0.4
		c0,0,0,0-0.1,0c0,0,0,0,0,0c0,0-0.1,0-0.1,0h0H7.5h-6H0.4h0C0.2,0,0,0.2,0,0.4v0c0,0.2,0.1,0.4,0.3,0.4c0,0,0.1,0,0.1,0h1.1v2
		c0,1.2,0.8,2.3,1.8,2.8C2.3,6.1,1.5,7.1,1.5,8.4v2.6H0.4c-0.1,0-0.1,0-0.2,0C0.1,11,0,11.2,0,11.4v0c0,0,0,0,0,0s0,0,0,0
		c0,0,0,0,0,0.1c0,0.2,0.2,0.4,0.4,0.4h8.1c0.2,0,0.4-0.2,0.4-0.4v0c0-0.1,0-0.1,0-0.2c-0.1-0.2-0.2-0.3-0.4-0.3H7.5V8.4
		c0-1.2-0.8-2.3-1.8-2.8C6.7,5.2,7.5,4.1,7.5,2.9z M6.5,8.4v2.4H5.9c-0.2-0.6-0.8-1.1-1.4-1.1c-0.7,0-1.2,0.4-1.4,1.1H2.5V8.4
		c0-1.1,0.9-2,2-2C5.6,6.4,6.5,7.3,6.5,8.4z M6.5,2.9c0,1.1-0.9,2-2,2c-1.1,0-2-0.9-2-2V1h4V2.9z"/>
	<path class="st0" d="M4.6,4.6c0.7,0,1.3-0.5,1.5-1.1h-3C3.2,4.1,3.9,4.6,4.6,4.6z"/>
</g>
</svg>
