<svg xmlns="http://www.w3.org/2000/svg" viewBox="0 0 216.95 450.45"><title>tow-fingers</title><g id="Layer_2" data-name="Layer 2"><g id="Layer_1-2" data-name="Layer 1"><path d="M186.53,322.22c19.14-15.11,29.87-34.86,30.19-59.34.45-34.83.11-69.66.1-104.49a31.42,31.42,0,0,0-6.08-18.66c-8.56-12-28.18-18.85-46-5.88-8.93-12.66-20.94-18.64-36.27-14.37-14.85,4.15-22.23,15-23.76,30.26a131.53,131.53,0,0,1-5.15-17.26,25.94,25.94,0,0,1,0-11.53c7.27-26.3,15-52.46,22.42-78.72A33.18,33.18,0,0,0,64.59,12c-.74.87-1.5,1.71-2.38,2.71-1.46-1.18-2.7-2.26-4-3.23C50.78,6,42.53,3.35,33.32,4.84c-21,3.4-32.55,21.5-26.83,42,7,25,14.23,49.92,21.14,74.93a16.52,16.52,0,0,1,0,8.66c-7.94,26.77-15.95,53.52-24.3,80.16C-.91,223.94.16,237.59,0,251.2c-.28,32.5,13.22,57.45,41.05,74.52,1.22.75,2.64,2.4,2.67,3.66.21,11.12.12,22.25.12,34-2.32,0-3.8,0-5.28,0-10.7.26-17.94,7.3-18,17.94q-.18,25.74,0,51.49c.09,10.47,7.23,17.57,17.68,17.59q75.24.11,150.48,0c10.09,0,17.44-7.17,17.54-17.25q.25-26.25,0-52.49c-.12-9.88-7.29-16.84-17.14-17.25-1.92-.08-3.85,0-6.14,0,0-11.73.1-22.71-.07-33.69A8.36,8.36,0,0,1,186.53,322.22Zm-17.7-164.15c.19-9.47,7.72-16.16,17-15.85,8.91.3,15.52,7.37,15.63,16.75,0,3.5,0,7,0,10.5V180h0c0,7.17.09,14.33,0,21.5-.15,9.27-7,16.22-16,16.42a16.09,16.09,0,0,1-16.62-15.83C168.52,187.4,168.55,172.73,168.83,158.07ZM121.1,146.73c.9-8.31,9.26-14,17.32-13.2,8.49.88,14.89,7.41,15,15.93.16,17.47.11,34.94,0,52.42a15.89,15.89,0,0,1-10.57,14.93c-6.56,2.32-12.41.94-17.49-3.84-2-1.84-2.41-3.53-1-6.1,5.95-10.85,5.55-22.64,4.92-34.66l-8.33-.56C120.9,163.19,120.21,154.88,121.1,146.73ZM72.79,29.09c2.07-7.21,6.65-11.85,14-13.35,6.59-1.33,12.19.85,16.65,5.75s5.38,11,3.57,17.28C94.66,81.93,82.19,125.06,69.91,168.25c-.89,3.13-2.42,3.82-5.29,3.73-11.52-.37-23-.23-34.65,6.36,6.84-23.83,13.2-46,19.57-68.21Q61.17,69.62,72.79,29.09Zm21.8,142.58H85c1.51-5.37,2.91-10.37,4.31-15.36l.92-.06ZM20.79,40.76c-2.41-8.92,3.06-17.64,11.91-20.2,9.21-2.67,18.94,2.11,21.88,10.86a7.68,7.68,0,0,1,.27,4.29Q46.44,65.46,37.8,95.13a16.16,16.16,0,0,1-1,2C31.27,77.84,25.82,59.36,20.79,40.76Zm165.41,338c3.86,0,4.77,1.43,4.73,5-.15,15.33-.23,30.66,0,46,.07,4.55-1.55,5.54-5.8,5.51-24-.19-48-.09-72-.09-23.83,0-47.66-.09-71.49.1-4.29,0-5.83-1-5.76-5.54.26-15.33.2-30.66,0-46,0-3.59.91-5,4.75-5Q113.45,379,186.2,378.8ZM59.72,363.21v-28.4a328.21,328.21,0,0,0,107.65-.13v28.53Zm80-40c-17.83.15-35.71.93-53.47-.15-33.61-2-61.68-19.83-69-53.72a115.34,115.34,0,0,1,.25-51.06c4.85-20.44,19.26-31,40.17-31.05,17,0,34,0,51,0h5.21c-1.37,17-13.77,29.43-30,30.2-8.28.39-16.6.07-25.63.07V251.1c4.42.34,8.53.43,12.58,1a33.45,33.45,0,0,1,28.77,30.6c.07.83.09,1.67.19,2.49.63,5.27,3.86,8.4,8.31,8.06s7.43-3.95,7.13-9.19c-.94-16.27-7.71-29.62-21.3-38.77-5.14-3.46-11.4-5.23-17.1-7.87A44.55,44.55,0,0,1,72,234.14c8.7-1.08,15.8-1.17,22.4-3,6.43-1.79,12.36-5.38,18.74-8.28,15.89,15.52,35.42,12.57,48-.18,11.68,11.29,25,13.71,41.31,5.88-1,16.61-.15,32.45-3.19,47.52C193.66,303.63,167.94,323,139.74,323.24Z"/></g></g></svg>