<svg id="Group_584" data-name="Group 584" xmlns="http://www.w3.org/2000/svg" width="23.913" height="19.434" viewBox="0 0 23.913 19.434">
  <path id="Path_1623" data-name="Path 1623" d="M49.016,36.329A9.789,9.789,0,0,1,46.2,37.1a4.919,4.919,0,0,0,2.158-2.714,9.821,9.821,0,0,1-3.115,1.19,4.91,4.91,0,0,0-8.36,4.475,13.927,13.927,0,0,1-10.113-5.127,4.911,4.911,0,0,0,1.518,6.55,4.871,4.871,0,0,1-2.222-.614c0,.021,0,.042,0,.062A4.909,4.909,0,0,0,30,45.734a4.925,4.925,0,0,1-2.215.085,4.911,4.911,0,0,0,4.583,3.407A9.9,9.9,0,0,1,25.1,51.257,13.952,13.952,0,0,0,46.582,39.5q0-.319-.014-.634a9.949,9.949,0,0,0,2.448-2.539Z" transform="translate(-25.103 -34.028)" fill="#00a25f"/>
</svg>
