<?xml version="1.0" encoding="utf-8"?>
<!-- Generator: Adobe Illustrator 24.0.2, SVG Export Plug-In . SVG Version: 6.00 Build 0)  -->
<svg version="1.1" id="Layer_1" xmlns="http://www.w3.org/2000/svg" xmlns:xlink="http://www.w3.org/1999/xlink" x="0px" y="0px"
	 viewBox="0 0 567.7 496.6" style="enable-background:new 0 0 567.7 496.6;" xml:space="preserve">
<title>upload</title>
<g id="Layer_2_1_">
	<g id="Layer_1-2">
		<path d="M567.7,292.4c-0.9,6.4-1.5,12.8-2.8,19.1c-9.8,45-35.1,78.1-76,99.4c-15.1,7.8-31,13.3-48.3,13.8
			c-10,0.3-20.1,0.6-30.1,0.8c-17,0.3-34,0.4-50.9,0.6h-4.7V355h3.2l79.9-0.6c0.7,0,1.3,0,2-0.1c27.9-8.5,48.5-25.4,54.8-54.5
			c6-28.1-2.2-52.7-25.2-71.2c-6.1-4.9-12.9-9.2-19.1-14c-12.7-10-20.6-23.1-24.1-38.7c-0.9-3.9-0.8-8.1-0.9-12.1
			c-0.3-9.9-0.4-19.9-0.5-29.8c-0.2-11.2-4.6-21-10.6-30.2c-20.7-31.9-63.4-42.4-94.9-22.9c-6.9,4.3-12.9,10-19.1,15.4
			c-7.6,6.7-14.9,13.9-24.5,17.7c-19.2,7.6-38.5,7.9-57.7-0.3c-2.1-0.9-4.2-1.8-6.3-2.9c-9.2-5-19-5.1-28.4-2
			c-12.7,4.1-21.1,13-22.8,26.8c-0.9,7.4-1.2,14.8-1.7,22.2c-1.3,22.6-11.6,40-30.3,52.5c-5.8,3.9-12.2,7-18.4,10.3
			c-26.8,14.4-40.7,36.9-39.1,67.3c1.6,30,18.4,50.2,45.5,62.3c7,3,14.5,4.5,22.1,4.3c23.7-0.1,47.5,0.3,71.2,0.4
			c0.8,0,1.5,0.1,2.5,0.1v70.8c-0.7,0.1-1.3,0.2-2,0.2c-27.6-0.4-55.2-0.7-82.8-1.3c-15.6-0.3-30.2-5.2-44.1-11.7
			c-44.1-20.6-70.7-55.3-81.3-102.5c-2.7-12.1-2.5-24.6-1.8-36.9c2.3-36.6,17.6-67.1,43.8-92.6c12-11.5,25.9-20.8,41.2-27.3
			c2.2-0.9,2.9-2.1,2.9-4.5c-0.5-19.3,2.3-38.1,11.6-55.1c17.7-32.6,44.6-52.8,81.9-57.8c21.9-2.9,42.6,1.5,62.3,10.9
			c2.5,1.2,4,1,5.8-1.1c16-17.6,36.1-30.8,58.6-38.5c10.6-3.8,21.7-6.3,32.9-7.4c0.7-0.1,1.3-0.2,2-0.4h8.1c1.1,0.1,2.3,0.3,3.4,0.4
			c9.9,0.9,20,0.7,29.6,3c43.7,10.1,76.3,35.2,96.8,75.2c7.5,14.7,12.9,30.2,14,46.8c0.7,10.8,0.5,21.6,0.6,32.4
			c0,1.9,0.4,3.2,2.2,4.2c9.1,5.2,16.8,12.2,24.5,19.3c23.4,21.5,37.2,48.1,42.7,79.1c0.9,5,1.4,10.1,2.1,15.1L567.7,292.4z"/>
		<path d="M247.9,319c-12.4,0-24.4,0-36.5,0c-3.6,0-7.1-0.5-10.7-0.4c-14.2,0.4-28.9-19.2-21.4-36.3c1.3-2.6,3-4.9,5-7
			c20.5-23.1,41.1-46.1,61.7-69.2c6.3-7,12.7-14,19.2-20.9c8.4-9,22.1-10.4,32.2-3.5c2.6,1.8,5.1,3.8,7.2,6.2
			c25,27.7,50,55.4,74.9,83.2c2.1,2.3,3.9,4.8,5.8,7.2c5.9,7.8,6.2,16.3,2.2,24.9c-4,8.7-10.6,14.8-20.8,15.2
			c-14.5,0.5-28.9,0.8-43.4,1.1c-1.2,0-2.5,0-4,0c0,1.4,0,2.6,0,3.7c-0.2,48.4-0.4,96.8-0.6,145.3c0,1.5-0.4,3-1.1,4.4
			c-2.1,4-4.5,7.8-7.1,11.5c-14.2,17.7-45.1,16.9-58-6.2c-2.6-4.4-3.9-9.4-3.9-14.5c0-47-0.3-93.9-0.5-140.9
			C248.1,321.8,248,320.9,247.9,319z"/>
	</g>
</g>
</svg>
