<?xml version="1.0" encoding="utf-8"?>
<!-- Generator: Adobe Illustrator 24.0.2, SVG Export Plug-In . SVG Version: 6.00 Build 0)  -->
<svg version="1.1" id="Layer_1" xmlns="http://www.w3.org/2000/svg" xmlns:xlink="http://www.w3.org/1999/xlink" x="0px" y="0px"
	 viewBox="0 0 19 20.3" style="enable-background:new 0 0 19 20.3;" xml:space="preserve">
<style type="text/css">
	.st0{fill:#8FA1F2;}
</style>
<g>
	<g id="user">
		<path id="Shape" class="st0" d="M12,14.1c-0.1-0.7-0.1-1.4,0-2.1c0.6-0.7,1-1.5,1.1-2.4c0.3,0,0.7-0.3,0.9-1.4
			c0.1-0.4-0.1-0.8-0.4-1C14,5.7,15,1.3,11.7,0.9c-0.6-0.7-1.4-1-2.3-0.9c-4.4,0.1-5,3.3-4,7.1C5.1,7.3,5,7.7,5.1,8.1
			c0.1,1.1,0.6,1.4,0.9,1.4C6,10.4,6.5,11.3,7.1,12c0,0.7,0,1.4,0,2.1c-0.9,2.4-6.8,1.7-7.1,6.2h19C18.7,15.8,12.8,16.4,12,14.1z"/>
	</g>
</g>
</svg>
