<svg xmlns="http://www.w3.org/2000/svg" width="12" height="12" viewBox="0 0 12 12">
  <path id="whatsapp" d="M6,12a6.016,6.016,0,0,1-2.834-.711l-2.843.7A.285.285,0,0,1,.261,12a.261.261,0,0,1-.251-.331L.773,8.945A6,6,0,1,1,6,12ZM3.82,3.13a.565.565,0,0,0-.41.191l-.029.03A1.663,1.663,0,0,0,2.869,4.59,2.9,2.9,0,0,0,3.5,6.159l0,0,.029.041a6.493,6.493,0,0,0,2.6,2.255,8.942,8.942,0,0,0,.878.321,1.974,1.974,0,0,0,.6.089,2.569,2.569,0,0,0,.373-.029,1.58,1.58,0,0,0,1.039-.724,1.247,1.247,0,0,0,.09-.723A.494.494,0,0,0,8.9,7.257l-.083-.04c-.126-.063-.906-.443-1.053-.495A.514.514,0,0,0,7.6,6.683a.214.214,0,0,0-.182.116c-.105.156-.411.51-.488.6a.213.213,0,0,1-.166.087.387.387,0,0,1-.167-.049c-.025-.013-.06-.028-.1-.046a3.984,3.984,0,0,1-1.136-.709A4.6,4.6,0,0,1,4.5,5.624c-.09-.154-.007-.237.067-.31.046-.046.1-.11.152-.172L4.8,5.047a.85.85,0,0,0,.132-.21l.022-.044a.276.276,0,0,0-.013-.266c-.026-.051-.171-.4-.3-.708-.068-.163-.132-.318-.176-.422-.11-.261-.222-.261-.311-.261H4.115C4.026,3.132,3.924,3.13,3.82,3.13Z" fill="#fff"/>
</svg>
