<svg xmlns="http://www.w3.org/2000/svg" width="48.75" height="43.125" viewBox="0 0 48.75 43.125">
  <path id="work" d="M25.43-45.293A7.145,7.145,0,0,1,30-46.875a7.145,7.145,0,0,1,4.57,1.582,7.762,7.762,0,0,1,2.7,4.043H54.375v37.5H5.625v-37.5H22.734A7.762,7.762,0,0,1,25.43-45.293Zm7.852,4.043A3.358,3.358,0,0,0,30-43.125a3.358,3.358,0,0,0-3.281,1.875ZM9.375-37.5v16.875h41.25V-37.5ZM28.652-25.723A1.825,1.825,0,0,1,30-26.25a1.825,1.825,0,0,1,1.348.527,1.825,1.825,0,0,1,.527,1.348,1.825,1.825,0,0,1-.527,1.348A1.825,1.825,0,0,1,30-22.5a1.825,1.825,0,0,1-1.348-.527,1.825,1.825,0,0,1-.527-1.348A1.825,1.825,0,0,1,28.652-25.723ZM9.375-16.875V-7.5h41.25v-9.375Z" transform="translate(-5.625 46.875)" fill="#7d8897"/>
</svg>
