<?xml version="1.0" encoding="utf-8"?>
<!-- Generator: Adobe Illustrator 24.0.2, SVG Export Plug-In . SVG Version: 6.00 Build 0)  -->
<svg version="1.1" id="Layer_1" xmlns="http://www.w3.org/2000/svg" xmlns:xlink="http://www.w3.org/1999/xlink" x="0px" y="0px"
	 viewBox="0 0 24.9 24" style="enable-background:new 0 0 24.9 24;" xml:space="preserve">
<path id="_" d="M21.7,0c0.9,0,1.7,0.4,2.3,1c0.6,0.6,1,1.4,0.9,2.3c0,0.9-0.3,1.7-0.9,2.3L11.3,18.1l-0.5,0.5
	c-0.1,0.8-0.5,1.5-1,2.1l-0.1,0.1c-2.1,2.1-4.9,3.2-7.8,3.2H0l1-1.6c0.8-1.2,1.4-2.6,1.8-4c0-0.2,0.1-0.4,0.1-0.7
	C3,17.4,3,17.2,3.1,17c0.1-0.2,0.1-0.4,0.2-0.6c0.1-0.2,0.2-0.4,0.3-0.7c0.1-0.2,0.2-0.4,0.4-0.5c0.5-0.6,1.3-1,2.1-1.1l0.6-0.6
	L19.4,1C20,0.4,20.8,0,21.7,0z M21.7,2c-0.3,0-0.7,0.1-0.9,0.4l-9,8.9l1.8,1.8l9.1-8.9c0.5-0.4,0.6-1.1,0.2-1.6
	c-0.1-0.1-0.1-0.1-0.2-0.2C22.3,2.1,22,2,21.7,2z M10.3,12.8l-1.5,1.4l1.9,1.8l1.5-1.5L10.3,12.8z M8.3,16.6C7.9,16.3,7.4,16,6.8,16
	c-0.5,0-1,0.2-1.3,0.5c-0.4,0.8-0.7,1.6-0.9,2.4c-0.3,1-0.6,1.9-1,2.8c1.8-0.3,3.4-1.2,4.6-2.4C8.7,19,8.9,18.5,8.9,18
	C8.9,17.5,8.7,17,8.3,16.6z"/>
</svg>
