<?xml version="1.0" encoding="UTF-8"?>
<svg width="16px" height="16px" viewBox="0 0 16 16" version="1.1" xmlns="http://www.w3.org/2000/svg" xmlns:xlink="http://www.w3.org/1999/xlink">
    <!-- Generator: Sketch 59.1 (86144) - https://sketch.com -->
    <title>logout</title>
    <desc>Created with Sketch.</desc>
    <defs>
        <polygon id="path-1" points="0.001875 0.02190625 8.637875 0.02190625 8.637875 15.966875 0.001875 15.966875"></polygon>
    </defs>
    <g id="Page-1" stroke="none" stroke-width="1" fill="none" fill-rule="evenodd">
        <g id="profile" transform="translate(-1119.000000, -306.000000)">
            <g id="Group-20" transform="translate(1042.000000, 41.000000)">
                <g id="Group-22" transform="translate(77.000000, 262.000000)">
                    <g id="logout" transform="translate(0.000000, 3.000000)">
                        <g id="Group-3">
                            <mask id="mask-2" fill="white">
                                <use xlink:href="#path-1"></use>
                            </mask>
                            <g id="Clip-2"></g>
                            <path d="M7.9734375,14.6398438 L1.99334375,14.6398438 C1.62659375,14.6398438 1.32890625,14.3421875 1.32890625,13.9754063 L1.32890625,2.01525 C1.32890625,1.64846875 1.62659375,1.3508125 1.99334375,1.3508125 L7.9734375,1.3508125 C8.340875,1.3508125 8.637875,1.0538125 8.637875,0.686375 C8.637875,0.31890625 8.340875,0.02190625 7.9734375,0.02190625 L1.99334375,0.02190625 C0.89434375,0.02190625 0,0.91625 0,2.01525 L0,13.9754063 C0,15.0744063 0.89434375,15.96875 1.99334375,15.96875 L7.9734375,15.96875 C8.340875,15.96875 8.637875,15.67175 8.637875,15.3043125 C8.637875,14.9368438 8.340875,14.6398438 7.9734375,14.6398438" id="Fill-1" fill="#0A090B" mask="url(#mask-2)"></path>
                        </g>
                        <path d="M15.802,7.52225 L11.762125,3.53553125 C11.5016562,3.27771875 11.0804062,3.28103125 10.8225937,3.54215625 C10.5647812,3.8033125 10.5674375,4.22390625 10.82925,4.48171875 L13.7162813,7.330875 L5.9800625,7.330875 C5.612625,7.330875 5.315625,7.627875 5.315625,7.99534375 C5.315625,8.36278125 5.612625,8.65978125 5.9800625,8.65978125 L13.7162813,8.65978125 L10.82925,11.5089375 C10.5674375,11.76675 10.5654375,12.1873438 10.8225937,12.4484687 C10.9528125,12.5800312 11.12425,12.6465 11.2956875,12.6465 C11.4644375,12.6465 11.6332188,12.5826875 11.762125,12.455125 L15.802,8.46840625 C15.92825,8.3435 16,8.17340625 16,7.99534375 C16,7.81725 15.9289063,7.6478125 15.802,7.52225" id="Fill-4" fill="#0A090B"></path>
                    </g>
                </g>
            </g>
        </g>
    </g>
</svg>