<svg id="ic_e-mail" xmlns="http://www.w3.org/2000/svg" width="27.272" height="21.354" viewBox="0 0 27.272 21.354">
  <path id="Path_3259" data-name="Path 3259" d="M75.127,24.709V8.1L65.8,16.391Z" transform="translate(-47.855 -5.891)" fill="#00b18f"/>
  <path id="Path_3260" data-name="Path 3260" d="M16.536,10.773h0L27.909.709A1.822,1.822,0,0,0,26.463,0H2.845A1.863,1.863,0,0,0,1.4.709L12.772,10.773A2.667,2.667,0,0,0,16.536,10.773Z" transform="translate(-1.018)" fill="#00b18f"/>
  <path id="Path_3261" data-name="Path 3261" d="M17.154,42.255a4.152,4.152,0,0,1-5.727,0l-.382-.355L.9,50.927a1.862,1.862,0,0,0,1.527.9H26.072a1.733,1.733,0,0,0,1.527-.9L17.536,41.9Z" transform="translate(-0.655 -30.473)" fill="#00b18f"/>
  <path id="Path_3262" data-name="Path 3262" d="M0,8.1V24.709l9.327-8.318Z" transform="translate(0 -5.891)" fill="#00b18f"/>
</svg>
