<svg xmlns="http://www.w3.org/2000/svg" width="23.741" height="23.741" viewBox="0 0 23.741 23.741">
  <path id="ic_phone_number" data-name="ic_phone number" d="M17.216,15.706a1.745,1.745,0,0,0,0-2.581l-2.081-2.081a1.738,1.738,0,0,0-1.28-.58,1.8,1.8,0,0,0-1.28.58l-1.2,1.2c-.1-.06-.2-.1-.3-.16-.14-.06-.26-.14-.38-.2a12.726,12.726,0,0,1-3.1-2.821,6.878,6.878,0,0,1-1.02-1.621c.3-.28.6-.58.88-.86l.32-.32a1.873,1.873,0,0,0,.6-1.3,1.828,1.828,0,0,0-.6-1.3l-1.02-1.04c-.12-.12-.24-.24-.34-.36-.22-.24-.46-.48-.7-.7A1.783,1.783,0,0,0,4.451,1a1.864,1.864,0,0,0-1.28.56l-1.3,1.3A2.74,2.74,0,0,0,1.05,4.6a6.976,6.976,0,0,0,.48,2.8,16.193,16.193,0,0,0,2.881,4.822,17.818,17.818,0,0,0,5.9,4.622,8.908,8.908,0,0,0,3.321.98h.24a2.818,2.818,0,0,0,2.161-.94l.02-.02a7.03,7.03,0,0,1,.66-.68A3.758,3.758,0,0,0,17.216,15.706Z" transform="translate(11.872 -1.44) rotate(45)" fill="#00b18f"/>
</svg>
