<?xml version="1.0" encoding="utf-8"?>
<!-- Generator: Adobe Illustrator 19.0.0, SVG Export Plug-In . SVG Version: 6.00 Build 0)  -->
<svg version="1.1" id="Layer_1" xmlns="http://www.w3.org/2000/svg" xmlns:xlink="http://www.w3.org/1999/xlink" x="0px" y="0px"
	 viewBox="-297 101 100 125" style="enable-background:new -297 101 100 125;" xml:space="preserve">
<path d="M-216,129h-27h-8h-27c-2.8,0-5,2.2-5,5v19c0,2.8,2.2,5,5,5h27h8h27c2.8,0,5-2.2,5-5v-19C-211,131.2-213.2,129-216,129z
	 M-278,131h27h8h27c1.7,0,3,1.3,3,3v14h-30h-8h-30v-14C-281,132.3-279.7,131-278,131z M-251,156h-21v-2h21h8h21v2h-21H-251z
	 M-216,156h-4v-2.8c0-0.7-0.5-1.2-1.2-1.2H-243h-8h-21.8c-0.7,0-1.2,0.5-1.2,1.2v2.8h-4c-1.7,0-3-1.3-3-3v-3h30h8h30v3
	C-213,154.6-214.3,156-216,156z"/>
<path d="M-277.3,142h6.6c0.4,0,0.7,0.3,0.7,0.7v0.6c0,0.4-0.3,0.7-0.7,0.7h-6.6c-0.4,0-0.7-0.3-0.7-0.7v-0.6
	C-278,142.3-277.7,142-277.3,142z"/>
<path d="M-267.6,142h1.1c0.2,0,0.4,0.2,0.4,0.4v1.1c0,0.2-0.2,0.4-0.4,0.4h-1.1c-0.2,0-0.4-0.2-0.4-0.4v-1.1
	C-268,142.2-267.8,142-267.6,142z"/>
<path d="M-270.2,162L-270.2,162c-0.4,0-0.8,0.3-0.9,0.7c-0.1,0.4-0.4,0.7-0.7,1c-0.6,0.6-1.2,1.4-1.2,3c0,1.5,0.7,2.3,1.2,3
	c0.5,0.5,0.8,0.9,0.8,1.7s-0.3,1.2-0.8,1.7c-0.4,0.4-0.8,1-1.1,1.7c-0.2,0.6,0.3,1.3,1,1.3l0,0c0.4,0,0.8-0.3,0.9-0.7
	c0.1-0.4,0.4-0.7,0.7-1c0.6-0.6,1.2-1.4,1.2-3c0-1.5-0.7-2.3-1.2-3c-0.5-0.5-0.8-0.9-0.8-1.7s0.3-1.1,0.8-1.7c0.4-0.4,0.8-1,1.1-1.7
	C-269,162.6-269.5,162-270.2,162z"/>
<path d="M-258.2,162L-258.2,162c-0.4,0-0.8,0.3-0.9,0.7c-0.1,0.4-0.4,0.7-0.7,1c-0.6,0.6-1.2,1.4-1.2,3c0,1.5,0.7,2.3,1.2,3
	c0.5,0.5,0.8,0.9,0.8,1.7s-0.3,1.2-0.8,1.7c-0.4,0.4-0.8,1-1.1,1.7c-0.2,0.6,0.3,1.3,1,1.3l0,0c0.4,0,0.8-0.3,0.9-0.7
	c0.1-0.4,0.4-0.7,0.7-1c0.6-0.6,1.2-1.4,1.2-3c0-1.5-0.7-2.3-1.2-3c-0.5-0.5-0.8-0.9-0.8-1.7s0.3-1.1,0.8-1.7c0.4-0.4,0.8-1,1.1-1.7
	C-257,162.6-257.5,162-258.2,162z"/>
<path d="M-246.2,162L-246.2,162c-0.4,0-0.8,0.3-0.9,0.7c-0.1,0.4-0.4,0.7-0.7,1c-0.6,0.6-1.2,1.4-1.2,3c0,1.5,0.7,2.3,1.2,3
	c0.5,0.5,0.8,0.9,0.8,1.7s-0.3,1.2-0.8,1.7c-0.4,0.4-0.8,1-1.1,1.7c-0.2,0.6,0.3,1.3,1,1.3l0,0c0.4,0,0.8-0.3,0.9-0.7
	c0.1-0.4,0.4-0.7,0.7-1c0.6-0.6,1.2-1.4,1.2-3c0-1.5-0.7-2.3-1.2-3c-0.5-0.5-0.8-0.9-0.8-1.7s0.3-1.1,0.8-1.7c0.4-0.4,0.8-1,1.1-1.7
	C-245,162.6-245.5,162-246.2,162z"/>
<path d="M-234.2,162L-234.2,162c-0.4,0-0.8,0.3-0.9,0.7c-0.1,0.4-0.4,0.7-0.7,1c-0.6,0.6-1.2,1.4-1.2,3c0,1.5,0.7,2.3,1.2,3
	c0.5,0.5,0.8,0.9,0.8,1.7s-0.3,1.2-0.8,1.7c-0.4,0.4-0.8,1-1.1,1.7c-0.2,0.6,0.3,1.3,1,1.3l0,0c0.4,0,0.8-0.3,0.9-0.7
	c0.1-0.4,0.4-0.7,0.7-1c0.6-0.6,1.2-1.4,1.2-3c0-1.5-0.7-2.3-1.2-3c-0.5-0.5-0.8-0.9-0.8-1.7s0.3-1.1,0.8-1.7c0.4-0.4,0.8-1,1.1-1.7
	C-233,162.6-233.5,162-234.2,162z"/>
<path d="M-222.2,162L-222.2,162c-0.4,0-0.8,0.3-0.9,0.7c-0.1,0.4-0.4,0.7-0.7,1c-0.6,0.6-1.2,1.4-1.2,3c0,1.5,0.7,2.3,1.2,3
	c0.5,0.5,0.8,0.9,0.8,1.7s-0.3,1.2-0.8,1.7c-0.4,0.4-0.8,1-1.1,1.7c-0.2,0.6,0.3,1.3,1,1.3l0,0c0.4,0,0.8-0.3,0.9-0.7
	c0.1-0.4,0.4-0.7,0.7-1c0.6-0.6,1.2-1.4,1.2-3c0-1.5-0.7-2.3-1.2-3c-0.5-0.5-0.8-0.9-0.8-1.7s0.3-1.1,0.8-1.7c0.4-0.4,0.8-1,1.1-1.7
	C-221,162.6-221.5,162-222.2,162z"/>
</svg>
