<?xml version="1.0" encoding="utf-8"?>
<!-- Generator: Adobe Illustrator 19.0.0, SVG Export Plug-In . SVG Version: 6.00 Build 0)  -->
<svg version="1.1" id="Layer_1" xmlns="http://www.w3.org/2000/svg" xmlns:xlink="http://www.w3.org/1999/xlink" x="0px" y="0px"
	 viewBox="-297 101 100 125" style="enable-background:new -297 101 100 125;" xml:space="preserve">
<path d="M-216,130h-62c-0.6,0-1,0.4-1,1v14c0,0.6,0.4,1,1,1h4v6v7v7v7v8c0,0.6,0.4,1,1,1h11h15.3l0,0l0,0h16.7h11c0.6,0,1-0.4,1-1
	v-8v-7v-7v-7v-6h2c0.6,0,1-0.4,1-1v-14C-215,130.4-215.4,130-216,130z M-248,146v5h-13v-5H-248z M-231,146v5h-15v-5H-231z
	 M-245.4,180c0.2-1.2,0.4-2.5,0.4-4c0-3.3-1.2-6-2.6-8c1.2-2.6,3.3-4.6,4.9-5.7c-0.2,2.7,1.3,5,2.8,7.2c1.4,2,2.8,4.2,2.8,6.6
	c0,1.1-0.7,3-1.5,4h-6.8V180z M-254.4,180c-0.4-1-0.6-1.9-0.6-3c0-1.8,0.9-3.4,1.8-5.1c0.9-1.6,1.8-3.4,1.8-5.3
	c1.9,1.8,4.4,5,4.4,9.5c0,1.5-0.2,2.9-0.4,4h-7V180z M-238.2,168.3c-1.9-2.8-3.4-5-1.9-7.9c0.2-0.4,0.1-0.8-0.2-1.1
	c-0.3-0.3-0.8-0.4-1.1-0.2c-0.2,0.1-5,2.5-7.5,7.1c-1.7-1.9-3.4-3-3.6-3.1c-0.4-0.2-0.9-0.2-1.2,0.1s-0.4,0.8-0.2,1.2
	c1.1,2.3,0.2,4.2-1.1,6.5c-0.9,1.7-2,3.7-2,6.1c0,1.1,0.2,2,0.5,3h-4.5v-7v-7v-7v-6h14h16v6v7v7v7h-5.1c0.7-1.3,1.1-2.9,1.1-4
	C-235,173-236.7,170.5-238.2,168.3z M-272,160h9v5h-9V160z M-263,158h-9v-5h9V158z M-272,167h9v5h-9V167z M-220,165h-9v-5h9V165z
	 M-229,167h9v5h-9V167z M-220,158h-9v-5h9V158z M-263,151h-9v-5h9V151z M-272,174h9v6h-9V174z M-220,180h-9v-6h9V180z M-220,151h-9
	v-5h9V151z M-217,144h-2h-11h-17h-15h-11h-4v-12h60V144z"/>
</svg>
