<?xml version="1.0" encoding="utf-8"?>
<!-- Generator: Adobe Illustrator 19.0.0, SVG Export Plug-In . SVG Version: 6.00 Build 0)  -->
<svg version="1.1" id="Layer_1" xmlns="http://www.w3.org/2000/svg" xmlns:xlink="http://www.w3.org/1999/xlink" x="0px" y="0px"
	 viewBox="-297 101 100 125" style="enable-background:new -297 101 100 125;" xml:space="preserve">
<path d="M-224.5,174.2h-45c-3,0-5.5-2.5-5.5-5.5v-26.8c0-3,2.5-5.5,5.5-5.5h45c3,0,5.5,2.5,5.5,5.5v26.9
	C-219,171.8-221.5,174.2-224.5,174.2z M-269.5,138.4c-1.9,0-3.5,1.6-3.5,3.5v26.9c0,1.9,1.6,3.5,3.5,3.5h45c1.9,0,3.5-1.6,3.5-3.5
	v-26.9c0-1.9-1.6-3.5-3.5-3.5H-269.5z M-237.5,151.9h-6.2v-6.2h-6.7v6.2h-6.2v6.7h6.2v6.2h6.7v-6.2h6.2V151.9z M-235.3,132.6
	c0-2.7-2.2-4.9-4.9-4.9h-13.6c-2.7,0-4.9,2.2-4.9,4.9v2.9h2.2v-2.9c0-1.5,1.2-2.7,2.7-2.7h13.6c1.5,0,2.7,1.2,2.7,2.7v2.9h2.2
	C-235.3,135.5-235.3,132.6-235.3,132.6z"/>
</svg>
