<?xml version="1.0" encoding="utf-8"?>
<!-- Generator: Adobe Illustrator 19.0.0, SVG Export Plug-In . SVG Version: 6.00 Build 0)  -->
<svg version="1.1" id="Layer_1" xmlns="http://www.w3.org/2000/svg" xmlns:xlink="http://www.w3.org/1999/xlink" x="0px" y="0px"
	 viewBox="-297 101 100 125" style="enable-background:new -297 101 100 125;" xml:space="preserve">
<g>
	<path d="M-207.1,131.5c-0.5-0.3-11.6-6.7-26-6.7c-8.8,0-15.7,2.4-21.2,4.3c-1.3,0.4-2.5,0.9-3.7,1.2c-1.9,0.6-3.3,0.9-4.5,1
		c-0.3,0-0.5,0-0.8,0h-0.5h-5.5c0,0,0,0,0,0c0,0,0,0-0.1,0c0,0,0,0,0,0c0,0,0,0,0,0c-0.1,0-0.2,0-0.3,0.1l-12.8,5.7h-3.1
		c-0.9,0-1.6,0.7-1.6,1.6v2.2c0,0.9,0.7,1.6,1.6,1.6h3.1l12.8,5.7c0,0,0,0,0,0c0,0,0,0,0.1,0c0,0,0,0,0,0c0,0,0,0,0.1,0c0,0,0,0,0,0
		c0,0,0,0,0.1,0c0,0,0,0,0,0c0,0,0.1,0,0.1,0h5.5h0.5c0.2,0,0.3,0,0.5,0c0.3,0,0.6,0,0.9,0.1c1.1,0.1,2.3,0.4,3.8,0.9
		c1.1,0.4,2.4,0.8,3.7,1.2c3.9,1.3,8.4,2.9,13.8,3.7c4.4,11.5,3.3,16.8,1.8,23.5c-0.5,2.2-1,4.6-1.3,7.3c-0.8,6,2.4,8.1,4.4,8.9
		c0.2,0.1,0.3,0.1,0.5,0.2v4.9c0,1.7,1.4,3.1,3.1,3.1h1.6c1.7,0,3.1-1.4,3.1-3.1v-5.1c1.7-0.5,3.1-1.3,3.6-2.1
		c1-1.5,0.3-2.9-0.3-4.2c-0.6-1.4-1.2-2.7-0.4-4.5c2-4.5,2-18.8,0.4-23.2c-0.7-1.9,0-4.2,0.7-6c9.4-1.8,16-5.5,16.3-5.7
		c0.3-0.2,0.5-0.5,0.5-0.9v-14.9C-206.6,132.1-206.8,131.7-207.1,131.5z M-269.2,146.3l-12.9-5.7c-0.1-0.1-0.3-0.1-0.4-0.1h-2.9
		v-1.3h2.9c0.1,0,0.3,0,0.4-0.1l12.9-5.7h4.1c-0.3,2-0.4,4.2-0.4,6.4c0,2.2,0.1,4.4,0.4,6.4L-269.2,146.3L-269.2,146.3z
		 M-253.7,148.6c-1.3-0.5-2.6-0.9-3.7-1.2c-0.2,0-0.3-0.1-0.4-0.1c0,0-0.1,0-0.1,0c-0.1,0-0.2-0.1-0.3-0.1c-0.1,0-0.1,0-0.2,0
		c-0.1,0-0.2,0-0.2-0.1c-0.1,0-0.1,0-0.2,0c-0.1,0-0.2,0-0.2-0.1c-0.1,0-0.1,0-0.2,0c-0.1,0-0.1,0-0.2-0.1c-0.1,0-0.1,0-0.2,0
		c-0.1,0-0.1,0-0.2,0c-0.1,0-0.1,0-0.2,0c-0.1,0-0.1,0-0.2,0c-0.1,0-0.1,0-0.2,0c-0.1,0-0.1,0-0.2,0c-0.1,0-0.1,0-0.2,0
		c-0.1,0-0.1,0-0.2,0c0,0-0.1,0-0.1,0c-0.1,0-0.1,0-0.2,0c0,0-0.1,0-0.1,0c-0.1,0-0.2,0-0.2,0c0,0-0.1,0-0.1,0c-0.1,0-0.2,0-0.3,0
		c0,0-0.1,0-0.1,0c-0.1,0-0.2,0-0.2,0c0,0-0.1,0-0.1,0c-0.1,0-0.1,0-0.2,0c0,0-0.1,0-0.1,0c0,0-0.1,0-0.1,0c-0.3-2-0.4-4.2-0.4-6.4
		c0-2.3,0.1-4.5,0.4-6.4c0,0,0.1,0,0.1,0c0,0,0.1,0,0.1,0c0.1,0,0.1,0,0.2,0c0,0,0.1,0,0.1,0c0.1,0,0.2,0,0.2,0c0,0,0,0,0.1,0
		c0.1,0,0.2,0,0.3,0c0,0,0.1,0,0.1,0c0.1,0,0.2,0,0.2,0c0,0,0.1,0,0.1,0c0.1,0,0.1,0,0.2,0c0,0,0.1,0,0.1,0c0.1,0,0.1,0,0.2,0
		c0,0,0.1,0,0.1,0c0.1,0,0.1,0,0.2,0c0.1,0,0.1,0,0.2,0c0.1,0,0.1,0,0.2,0c0.1,0,0.1,0,0.2,0c0.1,0,0.1,0,0.2-0.1c0.1,0,0.1,0,0.2,0
		c0.1,0,0.1,0,0.2-0.1c0.1,0,0.1,0,0.2,0c0.1,0,0.1,0,0.2-0.1c0.1,0,0.1,0,0.2,0c0.1,0,0.2,0,0.2-0.1c0.1,0,0.1,0,0.2-0.1
		c0.1,0,0.2-0.1,0.3-0.1c0.1,0,0.1,0,0.2-0.1c0.1,0,0.2-0.1,0.3-0.1c0,0,0.1,0,0.1,0c1.2-0.4,2.4-0.8,3.7-1.2
		c5.4-1.9,12.1-4.2,20.5-4.2c0.5,0,0.9,0,1.4,0v9.2h-9.9c-1.8,0-3.3,1.5-3.3,3.3v1c0,1.8,1.5,3.3,3.3,3.3h9.9v9.2
		c-0.5,0-0.9,0-1.4,0C-241.6,152.8-248.3,150.5-253.7,148.6z M-219.9,138.1c0.7,0,1.2,0.6,1.2,1.2v1c0,0.7-0.6,1.2-1.2,1.2h-21.9
		c-0.7,0-1.2-0.6-1.2-1.2v-1c0-0.7,0.6-1.2,1.2-1.2H-219.9z M-229.6,199c0,0.6-0.5,1-1,1h-1.6c-0.6,0-1-0.5-1-1v-0.9h1.8
		c0.6,0,1-0.5,1-1s-0.5-1-1-1h-1.8v-1.6c0.4,0,0.8,0.1,1.2,0.1c0.8,0,1.6-0.1,2.4-0.2V199z M-226,188.5c0.6,1.2,0.7,1.7,0.4,2.2
		c-0.6,0.9-5.8,2.7-9.4,1.4c-2.5-0.9-3.5-3.2-3.1-6.7c0.3-2.7,0.8-5,1.3-7.2c1.4-6.5,2.7-12.2-1.5-23.6c1.6,0.2,3.3,0.3,5.1,0.3
		c2.6,0,5.1-0.2,7.4-0.5c-0.7,1.9-1.1,4.3-0.3,6.3c1.4,3.8,1.4,17.8-0.3,21.7C-227.7,185-226.7,187-226,188.5z M-213.2,148.8
		c-3.9,1.6-9.8,3.4-16.6,3.9v-9h9.9c1.8,0,3.3-1.5,3.3-3.3v-1c0-1.8-1.5-3.3-3.3-3.3h-9.9v-9c6.8,0.5,12.7,2.4,16.6,3.9V148.8z
		 M-208.7,146.7c-0.5,0.3-1.3,0.7-2.5,1.2v-3.1h2.5V146.7z M-208.7,142.8h-2.5v-1.9h2.5V142.8z M-208.7,138.8h-2.5v-1.9h2.5V138.8z
		 M-208.7,134.9h-2.5v-3.1c1.1,0.5,2,0.9,2.5,1.2V134.9z"/>
	<path d="M-226.3,164.2c0-0.6-0.5-1-1-1h-5.8c-0.6,0-1,0.5-1,1v4.2c0,0.6,0.5,1,1,1h5.8c0.6,0,1-0.5,1-1V164.2z M-228.4,167.3h-3.8
		v-2.2h3.8V167.3z"/>
	<path d="M-227.7,170.9h-5.8c-0.6,0-1,0.5-1,1v4.2c0,0.6,0.5,1,1,1h5.8c0.6,0,1-0.5,1-1v-4.2C-226.7,171.4-227.1,170.9-227.7,170.9z
		 M-228.7,175.1h-3.8v-2.2h3.8V175.1z"/>
</g>
</svg>
