<?xml version="1.0" encoding="utf-8"?>
<!-- Generator: Adobe Illustrator 24.0.2, SVG Export Plug-In . SVG Version: 6.00 Build 0)  -->
<svg version="1.1" id="Layer_1" xmlns="http://www.w3.org/2000/svg" xmlns:xlink="http://www.w3.org/1999/xlink" x="0px" y="0px"
	 viewBox="0 0 100 125" style="enable-background:new 0 0 100 125;" xml:space="preserve">
<path d="M50,49.3h-0.6l-7.9-7.1v-0.7c0-4.3,3.8-7.8,8.5-7.8c4.7,0,8.5,3.5,8.5,7.8S54.7,49.3,50,49.3z M44.5,40.9l6,5.4
	c2.8-0.2,4.9-2.2,4.9-4.8c0-2.7-2.4-4.8-5.5-4.8C47.2,36.7,44.9,38.5,44.5,40.9z"/>
<path d="M86.1,86H13.9c-1.3,0-2.5-0.6-3.3-1.7c-0.6-1-0.9-2-0.7-3.1s0.8-1.9,1.7-2.6l36.1-24.2c1.4-1,3.2-0.9,4.5,0l36.1,24.2
	c1.1,0.8,1.7,2,1.7,3.3C90.1,84.2,88.3,86,86.1,86z M50,56.8c-0.2,0-0.4,0.1-0.6,0.2L13.3,81.1c-0.3,0.2-0.4,0.4-0.5,0.6
	c-0.1,0.3,0,0.5,0.2,0.8c0.2,0.3,0.5,0.4,0.9,0.4h72.2c0.6,0,1-0.4,1-1c0-0.3-0.2-0.7-0.5-0.9L50.6,56.9
	C50.4,56.8,50.2,56.8,50,56.8z"/>
</svg>
