<?xml version="1.0" encoding="utf-8"?>
<!-- Generator: Adobe Illustrator 19.0.0, SVG Export Plug-In . SVG Version: 6.00 Build 0)  -->
<svg version="1.1" id="Layer_1" xmlns="http://www.w3.org/2000/svg" xmlns:xlink="http://www.w3.org/1999/xlink" x="0px" y="0px"
	 viewBox="-297 101 100 125" style="enable-background:new -297 101 100 125;" xml:space="preserve">
<path d="M-258.9,209.2c-3.5,0-4.7-3-4.8-4.6l0-34.9c-1.6-0.4-5-1.7-5-5.1c0-3.6,2.1-28.9,3.3-38.8c0.7-6,3.8-7.3,6.3-7.3
	c3.1,0,5.1,2.9,5.1,7.3v78.6C-254.2,206.2-255.4,209.2-258.9,209.2z M-259.2,120.4c-0.9,0-3.8,0-4.4,5.7c-1.2,9.8-3.3,35-3.3,38.5
	c0,2.8,4.2,3.5,4.3,3.5l0.8,0.1v36.3c0,0.2,0.4,2.8,3,2.8c2.6,0,3-2.6,3-2.9l0-78.6C-255.9,123.4-256.8,120.4-259.2,120.4z"/>
<path d="M-235.5,209.2c-1.3,0-2.3-0.4-3.1-1.2c-1.3-1.4-1.3-3.4-1.3-3.5c0.4-19.8,0.8-50.1,0.1-52.2c-0.2-0.3-0.8-0.8-1.4-1.4
	c-1.8-1.5-4.4-3.8-4.4-7.4c0-4.5,1.8-23.3,1.8-24.1l0.1-0.2c0.1-0.3,0.6-1.4,1.6-1.4c0.6,0,1.2,0.5,1.5,1.4c0.3,0.8,0.6,3.1,1,7.1
	c0.2,2.3,0.6,5.6,0.9,7.8c0.2-1.7,0.5-4,0.7-5.8c0.9-8.6,1.2-10.4,2.7-10.4s1.8,1.8,2.7,10.4c0.2,1.9,0.4,4.1,0.7,5.8
	c0.4-2.2,0.7-5.5,0.9-7.8c0.4-4,0.6-6.3,1-7.1c0.4-0.9,0.9-1.4,1.5-1.4c1,0,1.4,1.1,1.6,1.4l0.1,0.2c0.1,0.8,1.8,19.6,1.8,24.1
	c0,3.6-2.7,5.9-4.4,7.4c-0.6,0.5-1.3,1.1-1.5,1.4c-0.7,2.1-0.3,32.3,0.1,52.1c0,0.1,0,2.1-1.3,3.5
	C-233.2,208.8-234.2,209.2-235.5,209.2z M-242.2,121.1c-0.4,4.7-1.7,18.7-1.7,22.4c0,2.7,2.1,4.6,3.8,6c0.9,0.7,1.5,1.3,1.9,2
	c1.1,2.1,0.4,41.1,0.1,53c0,0,0,1.3,0.8,2.2c0.4,0.4,1,0.6,1.8,0.6c0.8,0,1.4-0.2,1.8-0.6c0.8-0.8,0.8-2.2,0.8-2.2
	c-0.3-11.9-1-51,0.1-53c0.3-0.6,1-1.2,1.9-2c1.7-1.5,3.8-3.3,3.8-6c0-3.7-1.3-17.8-1.7-22.4c-0.2,1.3-0.4,3.4-0.6,5.3
	c-1,10-1.4,11.6-2.8,11.6c-1.4,0-1.6-1.5-2.5-9.6c-0.2-2.1-0.5-5-0.8-6.9c-0.3,1.9-0.6,4.8-0.8,6.9c-0.9,8.2-1.1,9.6-2.5,9.6
	c-1.4,0-1.8-1.6-2.8-11.6C-241.8,124.5-242,122.4-242.2,121.1z"/>
</svg>
