<?xml version="1.0" encoding="utf-8"?>
<!-- Generator: Adobe Illustrator 19.0.0, SVG Export Plug-In . SVG Version: 6.00 Build 0)  -->
<svg version="1.1" id="Layer_1" xmlns="http://www.w3.org/2000/svg" xmlns:xlink="http://www.w3.org/1999/xlink" x="0px" y="0px"
	 viewBox="-297 101 100 125" style="enable-background:new -297 101 100 125;" xml:space="preserve">
<style type="text/css">
	.st0{fill:none;stroke:#000000;stroke-width:1.5;stroke-linecap:round;stroke-linejoin:round;stroke-miterlimit:10;}
</style>
<g>
	<path d="M-253.3,175.9c0,0.1,0.2,0.3,0.6,0.3h11.3c0.4,0,0.6-0.2,0.6-0.3c0-0.4,0.3-0.7,0.7-0.7h33.3V126c0-1.8-1.5-3.3-3.3-3.3
		H-284c-1.8,0-3.3,1.5-3.3,3.3v49.2h33.3C-253.6,175.2-253.3,175.5-253.3,175.9z M-285.3,126c0-0.7,0.6-1.2,1.2-1.2h74.1
		c0.7,0,1.3,0.6,1.3,1.2v47.8h-76.6V126z"/>
	<path d="M-202.2,179.2c3.2,0,5-1.3,5-1.3l0,0v-2H-240c0,0.6-0.6,1-1.3,1h-11.3c-0.7,0-1.3-0.5-1.3-1h-42.8v2l0,0c0,0,1.8,1.3,5,1.3
		H-202.2z"/>
</g>
<polyline class="st0" points="-254.8,146.7 -247.7,154.2 -232.4,135.4 "/>
</svg>
