<?xml version="1.0" encoding="utf-8"?>
<!-- Generator: Adobe Illustrator 19.0.0, SVG Export Plug-In . SVG Version: 6.00 Build 0)  -->
<svg version="1.1"
	 id="Layer_1" xmlns:sodipodi="http://sodipodi.sourceforge.net/DTD/sodipodi-0.dtd" xmlns:rdf="http://www.w3.org/1999/02/22-rdf-syntax-ns#" xmlns:cc="http://creativecommons.org/ns#" xmlns:inkscape="http://www.inkscape.org/namespaces/inkscape" xmlns:dc="http://purl.org/dc/elements/1.1/" xmlns:svg="http://www.w3.org/2000/svg"
	 xmlns="http://www.w3.org/2000/svg" xmlns:xlink="http://www.w3.org/1999/xlink" x="0px" y="0px" viewBox="-297 101 100 125"
	 style="enable-background:new -297 101 100 125;" xml:space="preserve">
<g transform="translate(0,-952.36218)">
	<path d="M-294.5,1069.6v64.4c0,0.5,0.4,0.9,0.9,0.9h5.1v1.9c0,0.6,0.5,1.1,1.1,1.1h2.9c0.6,0,1.1-0.5,1.1-1.1v-1.9h73v1.9
		c0,0.6,0.5,1.1,1.1,1.1h2.8c0.6,0,1.1-0.5,1.1-1.1v-1.9h5.4c0.3,0,0.6-0.3,0.6-0.6v-64.9c0-0.3-0.2-0.5-0.5-0.5h-93.7
		C-294.2,1068.8-294.5,1069.2-294.5,1069.6z M-291.9,1070.8h89.9c0.3,0,0.5,0.2,0.5,0.5v60.9c0,0.3-0.3,0.6-0.6,0.6h-89.6
		c-0.5,0-0.9-0.4-0.9-0.9v-60.6C-292.5,1071.1-292.2,1070.8-291.9,1070.8z M-281.5,1076.8c-2.8,0-5,2.2-5,5v40c0,2.8,2.2,5,5,5h51
		c2.8,0,5-2.2,5-5v-40c0-2.8-2.2-5-5-5H-281.5z M-220.5,1077.6v9.6c0,0.4,0.3,0.7,0.7,0.7h12.6c0.4,0,0.7-0.3,0.7-0.7v-9.6
		c0-0.4-0.3-0.7-0.7-0.7h-12.6C-220.2,1076.8-220.5,1077.2-220.5,1077.6z M-281.5,1078.8h51c1.7,0,3,1.3,3,3v40c0,1.7-1.3,3-3,3h-51
		c-1.7,0-3-1.3-3-3v-40C-284.5,1080.2-283.2,1078.8-281.5,1078.8z M-217.8,1078.8h8.6c0.4,0,0.7,0.3,0.7,0.7v5.6
		c0,0.4-0.3,0.7-0.7,0.7h-8.6c-0.4,0-0.7-0.3-0.7-0.7v-5.6C-218.5,1079.2-218.2,1078.8-217.8,1078.8z M-213.5,1092.8
		c-3.9,0-7,3.2-7,7s3.1,7,7,7c3.9,0,7-3.1,7-7S-209.6,1092.8-213.5,1092.8z M-213.5,1094.8c0.8,0,1.6,0.2,2.3,0.6
		c-1.5,1-2.4,2.5-3.2,3.9c-0.9,1.6-1.8,2.9-3.1,3.6c-0.6-0.8-1-1.9-1-3C-218.5,1097.1-216.3,1094.8-213.5,1094.8z M-209.6,1096.8
		c0.7,0.9,1.1,1.9,1.1,3.1c0,2.8-2.3,5-5,5c-0.8,0-1.6-0.2-2.3-0.6c1.5-1,2.4-2.5,3.2-3.9C-211.7,1098.8-210.9,1097.5-209.6,1096.8
		L-209.6,1096.8z M-219.7,1111.8c-0.5,0.1-0.8,0.5-0.8,1v3c0,0.5,0.5,1,1,1h3c0.5,0,1-0.5,1-1v-3c0-0.5-0.5-1-1-1
		C-217.6,1111.8-218.7,1111.8-219.7,1111.8z M-210.7,1111.8c-0.5,0.1-0.8,0.5-0.8,1v3c0,0.5,0.5,1,1,1h3c0.5,0,1-0.5,1-1v-3
		c0-0.5-0.5-1-1-1C-208.6,1111.8-209.7,1111.8-210.7,1111.8z M-218.5,1113.8h1v1h-1V1113.8z M-209.5,1113.8h1v1h-1V1113.8z
		 M-219.7,1119.8c-0.5,0.1-0.8,0.5-0.8,1v3c0,0.5,0.5,1,1,1h3c0.5,0,1-0.5,1-1v-3c0-0.5-0.5-1-1-1
		C-217.6,1119.8-218.7,1119.8-219.7,1119.8z M-210.7,1119.8c-0.5,0.1-0.8,0.5-0.8,1v3c0,0.5,0.5,1,1,1h3c0.5,0,1-0.5,1-1v-3
		c0-0.5-0.5-1-1-1C-208.6,1119.8-209.7,1119.8-210.7,1119.8z M-218.5,1121.8h1v1h-1V1121.8z M-209.5,1121.8h1v1h-1V1121.8z"/>
</g>
</svg>
