<?xml version="1.0" encoding="utf-8"?>
<!-- Generator: Adobe Illustrator 24.0.2, SVG Export Plug-In . SVG Version: 6.00 Build 0)  -->
<svg version="1.1" id="Layer_1" xmlns="http://www.w3.org/2000/svg" xmlns:xlink="http://www.w3.org/1999/xlink" x="0px" y="0px"
	 viewBox="0 0 333 416.2" style="enable-background:new 0 0 333 416.2;" xml:space="preserve">
<g>
	<path d="M281.2,227V118c3-4,6-9,7-13c3-11-2-17-13-14c-5,2-10,4-13,7h-118c-4-3-8-5-13-7c-11-3-16,3-13,14c1,4,4,9,7,13v5h-6
		c-3-3-8-6-12-7c-11-3-17,3-14,14c2,4,4,9,7,12v92.7c-39.8,2-44.2,37.8-44.2,53.5v2.1c0,0.1,0,0.1,0,0.2c1.7,24.8,22,43.8,47.1,44.4
		l120.8,1c22.3,0,37.6-13.7,38.7-34.9c0.3-7.6-1.9-15.9-7-22.1c7.3-0.2,10.8-5.8,8.4-14.8c-2-4-4-9-7-12v-5h5c3,3,8,5,13,6
		c11,3,16-2,13-13C287.2,235,284.2,231,281.2,227z M257.3,300.6c-1,18.3-13.8,29.7-33.2,29.7l-120.8-1
		c-22.2-0.5-40.1-17.3-41.7-39.1v-2c0-17.9,5.5-48,42.3-48l109.1,0c15.1-0.4,24.7,3.4,27.7,10.9c2.7,6.5-0.2,14.2-3.5,18H106.5
		c-10.5,0-15.9,8.5-15.9,16.8c0,8.8,5.9,17.8,17,17.8h114.2c1.5,0,2.8-1.2,2.8-2.8s-1.2-2.8-2.8-2.8H107.6
		c-7.9,0-11.5-6.4-11.5-12.3c0-5.6,3.2-11.3,10.4-11.3H238C251.9,277,257.7,289.4,257.3,300.6z M252.2,140v114c3,3,5,7,7,12
		c2,7,0,9-8,7c-2.7-0.7-5.3-1.8-7.7-3.6c3.3-5.7,4.9-13.6,2.1-20.4c-2.8-6.9-10.8-14.9-32.9-14.4H105.2V140c-3-3-6-7-7-12
		c-2-7,0-9,7-7c5,1,9,3,12,7h123c3-4,7-6,11-7c8-2,10,0,8,7C257.2,133,255.2,137,252.2,140z M276.2,249c-5-2-8-4-12-7h-7V142
		c3-3,5-8,7-12c3-11-3-17-14-14c-4,1-9,4-12,7h-108v-7c-4-4-6-8-7-12c-2-7,0-10,7-8c4,2,8,4,12,7h122c4-3,7-5,12-7c7-2,9,1,7,8
		c-1,4-3,8-7,12v113c4,4,6,8,7,12C285.2,248,283.2,250,276.2,249z"/>
	<path d="M188.2,187c-5-5-14-5-19,0c-6,5-6,14,0,20c5,5,14,5,19,0C194.2,201,194.2,192,188.2,187z M185.2,203c-4,4-9,4-13,0
		c-3-3-3-9,0-12c4-4,9-4,13,0C188.2,194,188.2,200,185.2,203z"/>
</g>
</svg>
