<?xml version="1.0" encoding="utf-8"?>
<!-- Generator: Adobe Illustrator 19.0.0, SVG Export Plug-In . SVG Version: 6.00 Build 0)  -->
<svg version="1.1" id="Layer_1" xmlns="http://www.w3.org/2000/svg" xmlns:xlink="http://www.w3.org/1999/xlink" x="0px" y="0px"
	 viewBox="-297 101 100 125" style="enable-background:new -297 101 100 125;" xml:space="preserve">
<g>
	<path d="M-247,151c-5.4,0-10.5,2.7-13.6,7.1c-0.5,0.7-0.3,1.6,0.4,2.1c0.3,0.2,0.6,0.3,0.8,0.3c0.5,0,0.9-0.2,1.2-0.7
		c2.5-3.7,6.6-5.8,11.1-5.8c4.4,0,8.5,2.1,11,5.7c0.5,0.7,1.4,0.8,2.1,0.4c0.7-0.5,0.8-1.4,0.4-2.1C-236.5,153.6-241.6,151-247,151z
		"/>
	<path d="M-247,159.9c-3.5,0-6.7,1.7-8.6,4.5c-0.5,0.7-0.3,1.6,0.4,2.1c0.3,0.2,0.6,0.3,0.8,0.3c0.5,0,0.9-0.2,1.2-0.7
		c1.4-2,3.7-3.2,6.1-3.2c2.4,0,4.7,1.2,6.1,3.2c0.5,0.7,1.4,0.8,2.1,0.4c0.7-0.5,0.8-1.4,0.4-2.1
		C-240.4,161.5-243.6,159.9-247,159.9z"/>
	<path d="M-247,168.4c-1.4,0-2.8,0.7-3.6,1.9c-0.5,0.7-0.3,1.6,0.4,2.1c0.3,0.2,0.6,0.3,0.8,0.3c0.5,0,0.9-0.2,1.2-0.7
		c0.5-0.7,1.7-0.7,2.2,0c0.5,0.7,1.4,0.8,2.1,0.4c0.7-0.5,0.8-1.4,0.4-2.1C-244.2,169.1-245.6,168.4-247,168.4z"/>
	<path d="M-237.6,130.3h-18.8c-7.6,0-13.7,6.2-13.7,13.7v35.5c0,7.6,6.2,13.7,13.7,13.7h18.8c7.6,0,13.7-6.2,13.7-13.7v-35.5
		C-223.9,136.5-230,130.3-237.6,130.3z M-226.9,179.6c0,5.9-4.8,10.7-10.7,10.7h-18.8c-5.9,0-10.7-4.8-10.7-10.7v-35.5
		c0-5.9,4.8-10.7,10.7-10.7h18.8c5.9,0,10.7,4.8,10.7,10.7L-226.9,179.6L-226.9,179.6z"/>
</g>
</svg>
