<?xml version="1.0" encoding="utf-8"?>
<!-- Generator: Adobe Illustrator 19.0.0, SVG Export Plug-In . SVG Version: 6.00 Build 0)  -->
<svg version="1.1" id="Layer_1" xmlns="http://www.w3.org/2000/svg" xmlns:xlink="http://www.w3.org/1999/xlink" x="0px" y="0px"
	 viewBox="-320 128.2 55 68.8" style="enable-background:new -320 128.2 55 68.8;" xml:space="preserve">
<g>
	<g>
		<g>
			<path d="M-284.1,163.3h-16.8c-0.3,0-0.5-0.2-0.5-0.5v-19c0-0.3,0.2-0.5,0.5-0.5h16.8c0.3,0,0.5,0.2,0.5,0.5v19
				C-283.6,163-283.8,163.3-284.1,163.3z M-300.4,162.3h15.8v-18h-15.8V162.3z"/>
		</g>
		<g>
			<path d="M-284.1,172.4c-0.3,0-0.5-0.2-0.5-0.5v-37.5c0-1.7,1.3-3,3-3s3,1.3,3,3c0,0.3-0.2,0.5-0.5,0.5s-0.5-0.2-0.5-0.5
				c0-1.1-0.9-2-2-2s-2,0.9-2,2v37.5C-283.6,172.2-283.8,172.4-284.1,172.4z"/>
		</g>
		<g>
			<path d="M-300.9,172.4c-0.3,0-0.5-0.2-0.5-0.5v-37.5c0-1.7,1.3-3,3-3s3,1.3,3,3c0,0.3-0.2,0.5-0.5,0.5s-0.5-0.2-0.5-0.5
				c0-1.1-0.9-2-2-2s-2,0.9-2,2v37.5C-300.4,172.2-300.6,172.4-300.9,172.4z"/>
		</g>
		<g>
			<path d="M-284.1,157.2h-16.8c-0.3,0-0.5-0.2-0.5-0.5v-6.8c0-0.3,0.2-0.5,0.5-0.5h16.8c0.3,0,0.5,0.2,0.5,0.5v6.8
				C-283.6,157-283.8,157.2-284.1,157.2z M-300.4,156.2h15.8v-5.8h-15.8V156.2z"/>
		</g>
		<g>
			<g>
				<path d="M-273.3,173c-0.4,0-0.8-0.1-1.2-0.3l-2.9-1.4c-0.5-0.2-1-0.2-1.5,0l-2.8,1.4c-0.8,0.4-1.6,0.4-2.4,0l-2.8-1.4
					c-0.5-0.2-1-0.2-1.5,0l-2.8,1.4c-0.8,0.4-1.6,0.4-2.4,0l-2.8-1.4c-0.5-0.2-1-0.2-1.5,0l-2.8,1.4c-0.8,0.4-1.6,0.4-2.4,0
					l-2.8-1.4c-0.5-0.2-1-0.2-1.5,0l-2.8,1.4c-0.8,0.4-1.6,0.4-2.4,0l-3.8-1.8c-0.2-0.1-0.4-0.4-0.2-0.7s0.4-0.4,0.7-0.2l3.8,1.8
					c0.5,0.2,1,0.2,1.5,0l2.8-1.4c0.8-0.4,1.6-0.4,2.4,0l2.8,1.4c0.5,0.2,1,0.2,1.5,0l2.8-1.4c0.8-0.4,1.6-0.4,2.4,0l2.8,1.4
					c0.5,0.2,1,0.2,1.5,0l2.8-1.4c0.8-0.4,1.6-0.4,2.4,0l2.8,1.4c0.5,0.2,1,0.2,1.5,0l2.8-1.4c0.8-0.4,1.6-0.4,2.4,0l2.9,1.4
					c0.5,0.2,1,0.2,1.5,0l3.8-1.8c0.2-0.1,0.5,0,0.7,0.2c0.1,0.2,0,0.5-0.2,0.7l-3.8,1.8C-272.5,172.9-272.9,173-273.3,173z"/>
			</g>
			<g>
				<path d="M-273.3,180.1c-0.4,0-0.8-0.1-1.2-0.3l-2.9-1.4c-0.5-0.2-1-0.2-1.5,0l-2.8,1.4c-0.8,0.4-1.6,0.4-2.4,0l-2.8-1.4
					c-0.5-0.2-1-0.2-1.5,0l-2.8,1.4c-0.8,0.4-1.6,0.4-2.4,0l-2.8-1.4c-0.5-0.2-1-0.2-1.5,0l-2.8,1.4c-0.8,0.4-1.6,0.4-2.4,0
					l-2.8-1.4c-0.5-0.2-1-0.2-1.5,0l-2.8,1.4c-0.8,0.4-1.6,0.4-2.4,0l-3.8-1.8c-0.2-0.1-0.4-0.4-0.2-0.7s0.4-0.4,0.7-0.2l3.8,1.8
					c0.5,0.2,1,0.2,1.5,0l2.8-1.4c0.8-0.4,1.6-0.4,2.4,0l2.8,1.4c0.5,0.2,1,0.2,1.5,0l2.8-1.4c0.8-0.4,1.6-0.4,2.4,0l2.8,1.4
					c0.5,0.2,1,0.2,1.5,0l2.8-1.4c0.8-0.4,1.6-0.4,2.4,0l2.8,1.4c0.5,0.2,1,0.2,1.5,0l2.8-1.4c0.8-0.4,1.6-0.4,2.4,0l2.9,1.4
					c0.5,0.2,1,0.2,1.5,0l3.8-1.8c0.2-0.1,0.5,0,0.7,0.2c0.1,0.2,0,0.5-0.2,0.7l-3.8,1.8C-272.5,180-272.9,180.1-273.3,180.1z"/>
			</g>
		</g>
	</g>
</g>
</svg>
