<?xml version="1.0" encoding="utf-8"?>
<!-- Generator: Adobe Illustrator 19.0.0, SVG Export Plug-In . SVG Version: 6.00 Build 0)  -->
<svg version="1.1" id="Layer_1" xmlns="http://www.w3.org/2000/svg" xmlns:xlink="http://www.w3.org/1999/xlink" x="0px" y="0px"
	 viewBox="-299 115.8 97 94.1" style="enable-background:new -299 115.8 97 94.1;" xml:space="preserve">
<title>13</title>
<path d="M-208.1,127.1c-1.3,0-2.5,0.7-3.1,1.9h-10c-0.4-2.8-2.8-4.8-5.6-4.8h-43.6c-0.2,0-0.4-0.1-0.7-0.1h-6.6c-3,0-5.7,2-6.6,4.9
	h-5.4c-0.9-1.7-3-2.4-4.7-1.5c-1.7,0.9-2.4,3-1.5,4.7c0.9,1.7,3,2.4,4.7,1.5c0.7-0.3,1.2-0.9,1.5-1.5h5v16.5c0,2.2,1.7,3.9,3.9,3.9
	h0.9v38.9c0,2.2,1.7,3.9,3.9,3.9l0,0h50.9c2.2,0,3.9-1.7,3.9-3.9v-59.3h9.9c0.9,1.7,2.9,2.4,4.7,1.6c1.7-0.9,2.4-2.9,1.6-4.7
	C-205.6,127.9-206.8,127.1-208.1,127.1z M-277.8,168h54.5v13.6h-54.5V168z M-271.1,126.2c0.1,0,0.2,0,0.3,0h0.1h43.8
	c2,0,3.6,1.6,3.6,3.6l0,0v37.6h-54.5v-17l0,0V131c0-1.1-0.3-2.2-1.1-3c-0.5-0.5-1.1-0.8-1.7-0.9c0.8-0.6,1.8-0.9,2.8-0.9
	L-271.1,126.2z M-281.2,127.6v1.4h-0.9C-281.9,128.5-281.6,128-281.2,127.6z M-292.9,132.8c-1.2,0-2.2-1-2.2-2.2s1-2.2,2.2-2.2
	s2.2,1,2.2,2.2C-290.7,131.8-291.7,132.8-292.9,132.8z M-289.4,130.3h9.5c0,0.2,0.1,0.4,0.1,0.6h-9.5V130.3z M-280.9,150.4
	c-1,0-1.8-0.8-1.8-1.8v-16.5h2.8v18.3L-280.9,150.4z M-225.1,193.3H-276c-1,0-1.8-0.8-1.8-1.8c0,0,0,0,0,0v-9.2h54.5v9.2
	C-223.3,192.4-224,193.3-225.1,193.3C-225.1,193.3-225.1,193.3-225.1,193.3L-225.1,193.3z M-211.6,130.9h-9.5v-0.6h9.5V130.9z
	 M-208.1,132.8c-1.2,0-2.2-1-2.2-2.2s1-2.2,2.2-2.2c1.2,0,2.2,1,2.2,2.2c0,0,0,0,0,0C-205.9,131.8-206.9,132.8-208.1,132.8z"/>
</svg>
