<?xml version="1.0" encoding="utf-8"?>
<!-- Generator: Adobe Illustrator 23.0.1, SVG Export Plug-In . SVG Version: 6.00 Build 0)  -->
<svg version="1.1" id="Layer_1" xmlns="http://www.w3.org/2000/svg" xmlns:xlink="http://www.w3.org/1999/xlink" x="0px" y="0px"
	 viewBox="0 0 20 20" style="enable-background:new 0 0 20 20;" xml:space="preserve">
<style type="text/css">
	.st0{fill-rule:evenodd;clip-rule:evenodd;fill:#373935;}
</style>
<g>
	<path class="st0" d="M18,1.7h-1.8V1.2C16.2,0.5,15.7,0,15,0c-0.6,0-1.2,0.5-1.2,1.2v0.5H7.3V1.2C7.3,0.5,6.8,0,6.1,0
		S4.9,0.5,4.9,1.2v0.6H4.8H3.3c-1.1,0-2,0.9-2,2v6.7c0,0.2,0.2,0.4,0.4,0.4s0.4-0.2,0.4-0.4V5.7h14.1c0.2,0,0.4-0.2,0.4-0.4
		c0-0.2-0.2-0.3-0.4-0.3H2.1V3.7c0-0.6,0.5-1.2,1.2-1.2h1.6H5V3c0,0.6,0.5,1.2,1.2,1.2S7.3,3.6,7.3,3V2.5h6.6V3
		c0,0.6,0.5,1.2,1.2,1.2c0.6,0,1.2-0.5,1.2-1.2V2.5H18c0.6,0,1.2,0.5,1.2,1.2v14.8c0,0.4-0.3,0.7-0.7,0.7c-0.3,0-0.7,0-1.3,0H1.5
		c-0.4,0-0.7-0.3-0.7-0.7v-0.6h4.8v-0.8c0.7-0.6,1.1-1.5,1.1-2.4c0-1.8-1.4-3.2-3.2-3.2c-1.8,0-3.2,1.4-3.2,3.2c0,1,0.4,1.8,1.1,2.4
		h-1c-0.2,0-0.4,0.2-0.4,0.4v1C0,19.3,0.7,20,1.5,20h17c0.8,0,1.5-0.7,1.5-1.5V3.7C20,2.6,19.1,1.7,18,1.7z M6.5,3
		c0,0.2-0.2,0.4-0.4,0.4S5.7,3.2,5.7,3V1.2c0-0.2,0.2-0.4,0.4-0.4S6.5,1,6.5,1.2V3z M15.4,3c0,0.2-0.2,0.4-0.4,0.4
		c-0.2,0-0.4-0.2-0.4-0.4V1.2c0-0.2,0.2-0.4,0.4-0.4c0.2,0,0.4,0.2,0.4,0.4V3z M1.1,14.7c0-1.3,1.1-2.4,2.4-2.4
		c1.3,0,2.5,1.1,2.5,2.4s-1.1,2.4-2.4,2.4S1.1,16,1.1,14.7z"/>
	<path class="st0" d="M18.3,5.6c0.1-0.1,0.1-0.2,0.1-0.3c0-0.1,0-0.2-0.1-0.3c-0.1,0-0.2,0-0.3,0c-0.1,0-0.2,0-0.3,0.1
		c-0.1,0.1-0.1,0.2-0.1,0.3s0,0.2,0.1,0.3c0.1,0,0.2,0,0.3,0C18.1,5.7,18.2,5.7,18.3,5.6z"/>
	<path class="st0" d="M6.4,17.1c-0.1,0-0.2,0.1-0.3,0.1C6,17.3,6,17.4,6,17.5c0,0.1,0,0.2,0.1,0.3c0.1,0.1,0.2,0.1,0.3,0.1
		s0.2,0,0.3-0.1c0.1-0.1,0.1-0.2,0.1-0.3c0-0.1,0-0.2-0.1-0.3C6.6,17.1,6.5,17.1,6.4,17.1z"/>
	<path class="st0" d="M8.8,14.8c0.8,0,1.5-0.7,1.5-1.5c0-0.8-0.7-1.5-1.5-1.5c-0.8,0-1.5,0.7-1.5,1.5C7.3,14.1,8,14.8,8.8,14.8z
		 M8.8,12.7c0.4,0,0.7,0.3,0.7,0.7s-0.3,0.7-0.7,0.7c-0.4,0-0.7-0.3-0.7-0.7S8.4,12.7,8.8,12.7z"/>
	<path class="st0" d="M12.5,14.8c0.8,0,1.5-0.7,1.5-1.5c0-0.8-0.7-1.5-1.5-1.5c-0.8,0-1.5,0.7-1.5,1.6S11.7,14.8,12.5,14.8z
		 M12.5,12.7c0.4,0,0.7,0.3,0.7,0.7s-0.3,0.7-0.7,0.7c-0.4,0-0.7-0.3-0.7-0.7S12.1,12.7,12.5,12.7z"/>
	<path class="st0" d="M16.1,14.8c0.8,0,1.5-0.7,1.5-1.5c0-0.8-0.7-1.5-1.5-1.5s-1.5,0.7-1.5,1.5C14.6,14.1,15.3,14.8,16.1,14.8z
		 M16.1,12.7c0.4,0,0.7,0.3,0.7,0.7s-0.3,0.7-0.7,0.7c-0.4,0-0.7-0.3-0.7-0.7S15.7,12.7,16.1,12.7z"/>
	<path class="st0" d="M8.8,18.8c0.8,0,1.5-0.7,1.5-1.5c0-0.8-0.7-1.5-1.5-1.5c-0.8,0-1.5,0.7-1.5,1.5C7.3,18.1,8,18.8,8.8,18.8z
		 M8.8,16.7c0.4,0,0.7,0.3,0.7,0.7s-0.3,0.7-0.7,0.7c-0.4,0-0.7-0.3-0.7-0.7S8.4,16.7,8.8,16.7z"/>
	<path class="st0" d="M12.5,18.8c0.8,0,1.5-0.7,1.5-1.5c0-0.8-0.7-1.5-1.5-1.5c-0.8,0-1.5,0.7-1.5,1.6S11.7,18.8,12.5,18.8z
		 M12.5,16.7c0.4,0,0.7,0.3,0.7,0.7s-0.3,0.7-0.7,0.7c-0.4,0-0.7-0.3-0.7-0.7S12.1,16.7,12.5,16.7z"/>
	<path class="st0" d="M16.1,18.8c0.8,0,1.5-0.7,1.5-1.5c0-0.8-0.7-1.5-1.5-1.5s-1.5,0.7-1.5,1.5C14.6,18.1,15.3,18.8,16.1,18.8z
		 M16.1,16.7c0.4,0,0.7,0.3,0.7,0.7s-0.3,0.7-0.7,0.7c-0.4,0-0.7-0.3-0.7-0.7S15.7,16.7,16.1,16.7z"/>
	<path class="st0" d="M6.7,9.3c0-0.8-0.7-1.5-1.5-1.5S3.7,8.5,3.7,9.3c0,0.8,0.7,1.5,1.5,1.5S6.7,10.1,6.7,9.3z M4.5,9.3
		c0-0.4,0.3-0.7,0.7-0.7c0.4,0,0.7,0.3,0.7,0.7c0,0.4-0.3,0.7-0.7,0.7C4.8,10,4.5,9.7,4.5,9.3z"/>
	<path class="st0" d="M12.5,10.8c0.8,0,1.5-0.7,1.5-1.5c0-0.8-0.7-1.5-1.5-1.5c-0.8,0-1.5,0.7-1.5,1.5C11,10.1,11.7,10.8,12.5,10.8z
		 M12.5,8.6c0.4,0,0.7,0.3,0.7,0.7c0,0.4-0.3,0.7-0.7,0.7c-0.4,0-0.7-0.3-0.7-0.7C11.8,8.9,12.1,8.6,12.5,8.6z"/>
	<path class="st0" d="M16.1,10.8c0.8,0,1.5-0.7,1.5-1.5c0-0.8-0.7-1.5-1.5-1.5s-1.5,0.7-1.5,1.5C14.6,10.1,15.3,10.8,16.1,10.8z
		 M16.1,8.6c0.4,0,0.7,0.3,0.7,0.7c0,0.4-0.3,0.7-0.7,0.7c-0.4,0-0.7-0.3-0.7-0.7C15.4,8.9,15.7,8.6,16.1,8.6z"/>
	<path class="st0" d="M8.8,10.8c0.8,0,1.5-0.7,1.5-1.5c0-0.8-0.6-1.5-1.5-1.5c-0.9,0-1.4,0.7-1.4,1.5C7.4,10.1,8,10.8,8.8,10.8z
		 M8.8,8.6c0.4,0,0.7,0.3,0.7,0.7c0,0.4-0.3,0.7-0.7,0.7c-0.4,0-0.7-0.3-0.7-0.7C8.1,8.9,8.4,8.6,8.8,8.6z"/>
	<path class="st0" d="M2.8,15.8C2.9,15.9,3,16,3.1,16c0.1,0,0.2,0,0.3-0.1l1.5-1.5c0.2-0.2,0.2-0.4,0-0.6c-0.2-0.2-0.4-0.2-0.6,0
		L3.1,15l-0.4-0.4c-0.2-0.2-0.4-0.2-0.6,0C2,14.7,2,15,2.1,15.1L2.8,15.8z"/>
</g>
</svg>
