<?xml version="1.0" encoding="UTF-8"?>
<svg width="14px" height="20px" viewBox="0 0 14 20" version="1.1" xmlns="http://www.w3.org/2000/svg" xmlns:xlink="http://www.w3.org/1999/xlink">
    <!-- Generator: Sketch 59.1 (86144) - https://sketch.com -->
    <title>attachment [#1574]</title>
    <desc>Created with Sketch.</desc>
    <g id="Page-1" stroke="none" stroke-width="1" fill="none" fill-rule="evenodd">
        <g id="11.-Massages" transform="translate(-1103.000000, -938.000000)" fill="#373935">
            <path d="M1116.00803,942.033264 L1116.00803,942.033264 C1116.55724,942.035268 1117.00198,942.485077 1116.99999,943.038072 L1116.92935,956.002398 C1116.92637,957.108388 1116.0329,958.002998 1114.93348,957.999992 L1104.98394,957.976951 C1103.88552,957.973946 1102.99702,957.074327 1103.00001,955.968337 L1103.0796,939.998604 C1103.08259,938.891612 1103.97606,937.997002 1105.07448,938.000008 L1111.0442,938.015035 C1112.14363,938.01804 1113.03212,938.917659 1113.02914,940.023649 L1112.96048,951.986172 C1112.9575,953.093164 1112.06403,953.987773 1110.9656,953.984768 L1108.9757,953.978757 C1107.87627,953.975752 1106.98778,953.076133 1106.99076,951.969141 L1107.05046,943.012025 C1107.05245,942.45903 1107.49919,942.012227 1108.0484,942.013228 C1108.59761,942.015232 1109.04236,942.465041 1109.04037,943.018036 L1108.98366,950.97335 C1108.98266,951.526345 1109.42641,951.976154 1109.97562,951.978158 C1110.52583,951.979159 1110.97257,951.532356 1110.97356,950.979361 L1111.03624,941.020442 C1111.03724,940.467447 1110.59349,940.016636 1110.04328,940.015634 L1106.06446,940.006618 C1105.51425,940.005616 1105.06752,940.45242 1105.06653,941.005415 L1104.9929,954.967536 C1104.99091,955.523537 1105.43764,955.97535 1105.98885,955.976351 L1113.94051,955.993382 C1114.49172,955.995386 1114.94044,955.545576 1114.94243,954.990578 L1115.01009,943.032061 C1115.01208,942.479066 1115.45881,942.031261 1116.00803,942.033264" id="attachment-[#1574]"></path>
        </g>
    </g>
</svg>