<?xml version="1.0" encoding="utf-8"?>
<!-- Generator: Adobe Illustrator 23.0.1, SVG Export Plug-In . SVG Version: 6.00 Build 0)  -->
<svg version="1.1" id="Layer_1" xmlns="http://www.w3.org/2000/svg" xmlns:xlink="http://www.w3.org/1999/xlink" x="0px" y="0px"
	 viewBox="0 0 25 25" style="enable-background:new 0 0 25 25;" xml:space="preserve">
<style type="text/css">
	.st0{fill-rule:evenodd;clip-rule:evenodd;}
</style>
<g>
	<path class="st0" d="M16.5,10.1c0.1,0,0.2-0.1,0.2-0.1l0.5-1.8h0.9c0.1,0,0.2-0.1,0.2-0.2V7.4c0-0.8-0.6-1.4-1.4-1.4H8.3
		C7,6,6,7,6,8.3V16c0,1.2,1,2.2,2.2,2.2h9.8c0.1,0,0.2-0.1,0.2-0.2v-1.8c0-0.1-0.1-0.2-0.2-0.2h-2.3c0.3-0.2,0.5-0.6,0.6-1h0.1
		c0.4,0,0.7-0.3,0.7-0.7c0-0.4-0.3-0.7-0.7-0.7h0v-0.6c0-0.1-0.1-0.2-0.2-0.2h-3.1c-0.1,0-0.2,0.1-0.2,0.2v1.6
		c0,0.5,0.3,1.1,0.7,1.4h-2.1V8.2h0.8l0.5,1.8c0,0.1,0.1,0.1,0.2,0.1h1v1c0,0.1,0.1,0.2,0.2,0.2h0.4v0.4c0,0.2,0.4,0.2,0.4,0v-0.4
		h0.4c0.1,0,0.2-0.1,0.2-0.2v-0.3h1.4c0.2,0,0.2-0.4,0-0.4h-1.4v-0.3H16.5z M16.4,14.7V14h0c0.2,0,0.4,0.2,0.4,0.4
		c0,0.1,0,0.2-0.1,0.3C16.6,14.7,16.5,14.7,16.4,14.7L16.4,14.7C16.4,14.7,16.4,14.7,16.4,14.7z M13.3,13.3h2.8v0.4h-2.8V13.3z
		 M13.3,14.7V14h2.8v0.7c0,0.8-0.6,1.4-1.4,1.4C13.9,16.1,13.3,15.5,13.3,14.7z M11.3,7.8c-0.1,0-0.2,0.1-0.2,0.2v8.2
		c0,0.1,0.1,0.2,0.2,0.2h6.6v1.5H8.3c-1,0-1.9-0.8-1.9-1.9V8.3c0-1,0.8-1.9,1.9-1.9h8.6c0.6,0,1.1,0.5,1.1,1.1v0.4H11.3z M15.1,10.9
		h-0.9v-0.8h0.9V10.9z M13.1,9.7l-0.4-1.5h4.1l-0.4,1.5H13.1z"/>
	<path class="st0" d="M15.9,8.5h-1.4c-0.2,0-0.2,0.4,0,0.4h1.4C16.1,8.8,16.1,8.5,15.9,8.5z"/>
	<path class="st0" d="M10.3,13.4H7.2c-0.1,0-0.2,0.1-0.2,0.2v1.9c0,0.1,0.1,0.2,0.2,0.2h3.1c0.1,0,0.2-0.1,0.2-0.2v-1.9
		C10.5,13.5,10.4,13.4,10.3,13.4z M10.1,15.4H7.4v-1.6h2.7V15.4z"/>
	<path class="st0" d="M8.7,10.3c0.3,0,0.6-0.2,0.7-0.5C9.6,9.6,9.5,9.2,9.3,9C9.1,8.8,8.7,8.7,8.5,8.9C8.2,9,8,9.2,8,9.5
		C8,10,8.3,10.3,8.7,10.3z M8.7,9.2c0.2,0,0.3,0.1,0.4,0.2c0.1,0.1,0,0.3-0.1,0.4C8.9,9.9,8.7,10,8.6,9.9C8.5,9.8,8.4,9.7,8.4,9.5
		C8.4,9.3,8.5,9.2,8.7,9.2z"/>
	<path class="st0" d="M8.7,12.3c0.3,0,0.6-0.2,0.7-0.5c0.1-0.3,0.1-0.6-0.2-0.8c-0.2-0.2-0.5-0.3-0.8-0.2C8.2,11,8,11.3,8,11.6
		C8,12,8.3,12.3,8.7,12.3z M8.7,11.2c0.2,0,0.3,0.1,0.4,0.2c0.1,0.1,0,0.3-0.1,0.4c-0.1,0.1-0.3,0.1-0.4,0.1
		c-0.1-0.1-0.2-0.2-0.2-0.4C8.4,11.3,8.5,11.2,8.7,11.2z"/>
</g>
</svg>
