<?xml version="1.0" encoding="utf-8"?>
<!-- Generator: Adobe Illustrator 23.0.1, SVG Export Plug-In . SVG Version: 6.00 Build 0)  -->
<svg version="1.1" id="Layer_1" xmlns="http://www.w3.org/2000/svg" xmlns:xlink="http://www.w3.org/1999/xlink" x="0px" y="0px"
	 viewBox="0 0 25 25" style="enable-background:new 0 0 25 25;" xml:space="preserve">
<style type="text/css">
	.st0{fill-rule:evenodd;clip-rule:evenodd;}
</style>
<g>
	<path class="st0" d="M7.9,17.8h8.4c0.1,0,0.2-0.1,0.2-0.2v-7.2c0-0.1-0.1-0.2-0.2-0.2H7.9c-0.1,0-0.2,0.1-0.2,0.2v7.2
		C7.7,17.7,7.8,17.8,7.9,17.8z M10.2,17.3h-1C9.1,17,9,16.6,9,16.2c0-1.1,0.5-1.9,0.9-1.9c0.2,0,0.3,0.1,0.5,0.3
		c-0.3,0.5-0.4,1.1-0.4,1.7C10,16.6,10.1,17,10.2,17.3z M11.7,17.3h-1c-0.1-0.4-0.2-0.7-0.2-1.1c0-0.6,0.1-1.2,0.4-1.6
		c0.1-0.1,0.3-0.4,0.6-0.4c0.2,0,0.4,0.2,0.5,0.3c-0.3,0.5-0.4,1.1-0.4,1.7C11.5,16.6,11.6,17,11.7,17.3z M13.1,17.3h-1
		c-0.1-0.4-0.2-0.7-0.2-1.1c0-0.6,0.1-1.2,0.4-1.6c0.1-0.1,0.3-0.4,0.6-0.4c0.2,0,0.4,0.2,0.5,0.3c-0.3,0.5-0.4,1.1-0.4,1.7
		C13,16.6,13,17,13.1,17.3z M15.1,17.3h-1.5c-0.1-0.4-0.2-0.7-0.2-1.1c0-0.6,0.1-1.2,0.4-1.6c0.2-0.3,0.4-0.4,0.6-0.4
		c0.4,0,0.9,0.8,0.9,1.9C15.3,16.6,15.2,17,15.1,17.3z M8.1,10.5h8v6.8h-0.6c0.1-0.4,0.2-0.7,0.2-1.1c0-1.3-0.6-2.4-1.4-2.4
		c-0.3,0-0.6,0.1-0.7,0.4c-0.2-0.2-0.4-0.4-0.7-0.4s-0.6,0.1-0.7,0.4c-0.2-0.2-0.4-0.4-0.7-0.4c-0.3,0-0.6,0.1-0.7,0.4
		c-0.2-0.2-0.4-0.4-0.7-0.4c-0.8,0-1.4,1-1.4,2.4c0,0.4,0,0.7,0.2,1.1H8.1V10.5z"/>
	<path class="st0" d="M10.9,11.3h2.5c0.3,0,0.3-0.4,0-0.4h-2.5C10.6,10.8,10.6,11.3,10.9,11.3z"/>
	<path class="st0" d="M18,5H6.2C6.1,5,6,5.1,6,5.2v13.9c0,0.1,0.1,0.2,0.2,0.2H18c0.1,0,0.2-0.1,0.2-0.2V5.2C18.2,5.1,18.1,5,18,5z
		 M17.8,18.9H6.5v-10h11.4V18.9z M17.8,8.5H6.5V5.4h11.4V8.5z"/>
	<path class="st0" d="M16.6,7.8C17,7.6,17.2,7.3,17.2,7c0-0.5-0.4-0.9-0.9-0.9c-0.4,0-0.7,0.2-0.8,0.5c-0.1,0.3-0.1,0.7,0.2,1
		C15.9,7.8,16.3,7.9,16.6,7.8z M16,6.6c0.1-0.1,0.3-0.2,0.5-0.1s0.3,0.2,0.3,0.4c0,0.3-0.2,0.5-0.5,0.5c-0.2,0-0.3-0.1-0.4-0.3
		C15.8,7,15.9,6.8,16,6.6z"/>
	<path class="st0" d="M14.3,7.8c0.3-0.1,0.5-0.5,0.5-0.8c0-0.5-0.4-0.9-0.9-0.9c-0.4,0-0.7,0.2-0.8,0.5c-0.1,0.3-0.1,0.7,0.2,1
		C13.6,7.8,14,7.9,14.3,7.8z M13.6,6.6c0.1-0.1,0.3-0.2,0.5-0.1c0.2,0.1,0.3,0.2,0.3,0.4c0,0.3-0.2,0.5-0.5,0.5
		c-0.2,0-0.3-0.1-0.4-0.3C13.5,7,13.5,6.8,13.6,6.6z"/>
	<path class="st0" d="M8.3,7.8C8.6,7.6,8.8,7.3,8.8,7c0-0.5-0.4-0.9-0.9-0.9c-0.4,0-0.7,0.2-0.8,0.5C7,7,7.1,7.3,7.3,7.6
		C7.6,7.8,8,7.9,8.3,7.8z M7.6,6.6C7.8,6.5,8,6.5,8.1,6.5C8.3,6.6,8.4,6.8,8.4,7c0,0.3-0.2,0.5-0.5,0.5c-0.2,0-0.3-0.1-0.4-0.3
		C7.5,7,7.5,6.8,7.6,6.6z"/>
</g>
</svg>
