<?xml version="1.0" encoding="utf-8"?>
<!-- Generator: Adobe Illustrator 23.0.0, SVG Export Plug-In . SVG Version: 6.00 Build 0)  -->
<svg version="1.1" id="Layer_1" xmlns="http://www.w3.org/2000/svg" xmlns:xlink="http://www.w3.org/1999/xlink" x="0px" y="0px"
	 viewBox="0 0 16 16" style="enable-background:new 0 0 16 16;" xml:space="preserve">
<style type="text/css">
	.st0{fill:#CCAE33;}
</style>
<path id="Shape" class="st0" d="M8,2c3.6,0,6.6,2.6,7.2,6c-0.6,3.4-3.6,6-7.2,6s-6.6-2.6-7.2-6C1.4,4.6,4.4,2,8,2z M8,12.7
	c2.8,0,5.2-1.9,5.9-4.7C13.2,5.3,10.8,3.3,8,3.3S2.8,5.3,2.1,8C2.8,10.7,5.2,12.7,8,12.7z M8,11c-1.7,0-3-1.3-3-3s1.3-3,3-3
	s3,1.3,3,3S9.7,11,8,11z M8,9.7c0.9,0,1.7-0.7,1.7-1.7S8.9,6.3,8,6.3S6.3,7.1,6.3,8S7.1,9.7,8,9.7L8,9.7z"/>
</svg>
