<?xml version="1.0" encoding="utf-8"?>
<!-- Generator: Adobe Illustrator 23.0.0, SVG Export Plug-In . SVG Version: 6.00 Build 0)  -->
<svg version="1.1" id="Layer_1" xmlns="http://www.w3.org/2000/svg" xmlns:xlink="http://www.w3.org/1999/xlink" x="0px" y="0px"
	 viewBox="0 0 16 16" style="enable-background:new 0 0 16 16;" xml:space="preserve">
<style type="text/css">
	.st0{fill:#CCAE33;}
</style>
<path class="st0" d="M6.2,12.5l-1.3-0.3l0.5-2C4.7,9.9,4,9.5,3.3,9l-1.4,1.4L0.9,9.5L2.4,8C1.6,7.1,1,5.9,0.8,4.6l1.3-0.2
	c0.5,2.8,3,4.9,5.9,4.9c2.9,0,5.4-2.1,5.9-4.9l1.3,0.2C15,5.9,14.4,7.1,13.6,8l1.4,1.4l-0.9,0.9L12.7,9c-0.6,0.5-1.4,1-2.2,1.2
	l0.5,2l-1.3,0.3l-0.5-2c-0.8,0.1-1.7,0.1-2.5,0L6.2,12.5L6.2,12.5z"/>
</svg>
