<?xml version="1.0" encoding="utf-8"?>
<!-- Generator: Adobe Illustrator 23.0.1, SVG Export Plug-In . SVG Version: 6.00 Build 0)  -->
<svg version="1.1" id="Layer_1" xmlns="http://www.w3.org/2000/svg" xmlns:xlink="http://www.w3.org/1999/xlink" x="0px" y="0px"
	 viewBox="0 0 25 25" style="enable-background:new 0 0 25 25;" xml:space="preserve">
<style type="text/css">
	.st0{fill-rule:evenodd;clip-rule:evenodd;}
</style>
<g>
	<path class="st0" d="M17.3,2H6.9C6.4,2,6,2.4,6,2.9v17.2C6,20.6,6.4,21,6.9,21v1.2c0,0.2,0.1,0.3,0.3,0.3h9.9
		c0.2,0,0.3-0.1,0.3-0.3V21c0.5,0,0.9-0.4,0.9-0.9V2.9C18.2,2.4,17.8,2,17.3,2z M16.8,21.9H7.5V21h9.3V21.9z M17.7,20.1
		c0,0.2-0.2,0.4-0.4,0.4H6.9c-0.2,0-0.4-0.2-0.4-0.4v-9.7h11.1V20.1z M17.7,9.9H6.6v-7c0-0.2,0.2-0.4,0.4-0.4h10.4
		c0.2,0,0.4,0.2,0.4,0.4V9.9z"/>
	<path class="st0" d="M8.9,4.5H7.7c-0.2,0-0.3,0.1-0.3,0.3v2.8c0,0.2,0.1,0.3,0.3,0.3h1.2c0.2,0,0.3-0.1,0.3-0.3V4.8
		C9.2,4.7,9,4.5,8.9,4.5z M8.6,7.3H8V5.1h0.7V7.3z"/>
	<path class="st0" d="M7.7,17.1h1.2c0.2,0,0.3-0.1,0.3-0.3V14c0-0.2-0.1-0.3-0.3-0.3H7.7c-0.2,0-0.3,0.1-0.3,0.3v2.8
		C7.4,17,7.5,17.1,7.7,17.1z M8,14.3h0.7v2.3H8V14.3z"/>
</g>
</svg>
