<?xml version="1.0" encoding="UTF-8"?>
<svg width="20px" height="20px" viewBox="0 0 20 20" version="1.1" xmlns="http://www.w3.org/2000/svg" xmlns:xlink="http://www.w3.org/1999/xlink">
    <!-- Generator: Sketch 59.1 (86144) - https://sketch.com -->
    <title>instagram [#167]</title>
    <desc>Created with Sketch.</desc>
    <g id="Page-1" stroke="none" stroke-width="1" fill="none" fill-rule="evenodd">
        <g id="01.-home" transform="translate(-1245.000000, -8.000000)" fill="#373935">
            <g id="Group-9" transform="translate(1215.000000, 8.000000)">
                <path d="M35.8696517,0.122726886 C34.2417691,0.19617738 32.8308049,0.594199654 31.6914861,1.72871202 C30.5481871,2.86917983 30.155147,4.28558328 30.0815141,5.89653128 C30.0357424,6.902009 29.7680771,14.4981797 30.5442069,16.4902762 C31.0675971,17.8342218 32.0984567,18.8674916 33.4546939,19.3925633 C34.0875382,19.6387217 34.809936,19.8054742 35.8696517,19.8541104 C44.7304675,20.2551103 48.0150888,20.036744 49.400182,16.4902762 C49.6459565,15.858999 49.815113,15.1373975 49.8618798,14.080306 C50.2668603,5.19676644 49.7962072,3.2711724 48.2519079,1.72871202 C47.0270158,0.50685312 45.5862004,-0.3249241 35.8696517,0.122726886 M35.9512449,18.0674767 C34.9810826,18.0238034 34.4547073,17.8620138 34.1034588,17.7260312 C33.2198648,17.3826005 32.5561743,16.721546 32.2148762,15.8431178 C31.6238235,14.3294421 31.819846,7.14022682 31.872583,5.9769298 C31.924325,4.83745456 32.1551739,3.79624418 32.9591648,2.99225904 C33.9542031,1.99968479 35.2397925,1.51332341 43.9931441,1.90836796 C45.135448,1.95998182 46.1792432,2.19025904 46.9852242,2.99225904 C47.9802624,3.98483328 48.4738014,5.28014268 48.0718059,13.9999074 C48.0280243,14.9676673 47.865833,15.4927391 47.7295128,15.8431178 C46.8290031,18.1508529 44.7573335,18.4714544 35.9512449,18.0674767 M44.0896628,4.689561 C44.0896628,5.34664515 44.6239984,5.8806501 45.2837087,5.8806501 C45.9434191,5.8806501 46.4787497,5.34664515 46.4787497,4.689561 C46.4787497,4.03247685 45.9434191,3.4984719 45.2837087,3.4984719 C44.6239984,3.4984719 44.0896628,4.03247685 44.0896628,4.689561 M34.862673,9.98792233 C34.862673,12.8028629 37.150266,15.0847911 39.9721945,15.0847911 C42.794123,15.0847911 45.081716,12.8028629 45.081716,9.98792233 C45.081716,7.17298177 42.794123,4.89204615 39.9721945,4.89204615 C37.150266,4.89204615 34.862673,7.17298177 34.862673,9.98792233 M36.6557319,9.98792233 C36.6557319,8.16158572 38.140329,6.67967237 39.9721945,6.67967237 C41.8040599,6.67967237 43.288657,8.16158572 43.288657,9.98792233 C43.288657,11.8152515 41.8040599,13.2971649 39.9721945,13.2971649 C38.140329,13.2971649 36.6557319,11.8152515 36.6557319,9.98792233" id="instagram-[#167]"></path>
            </g>
        </g>
    </g>
</svg>