<?xml version="1.0" encoding="UTF-8"?>
<svg width="20px" height="20px" viewBox="0 0 20 20" version="1.1" xmlns="http://www.w3.org/2000/svg" xmlns:xlink="http://www.w3.org/1999/xlink">
    <!-- Generator: Sketch 59.1 (86144) - https://sketch.com -->
    <title>invision [#166]</title>
    <desc>Created with Sketch.</desc>
    <g id="Page-1" stroke="none" stroke-width="1" fill="none" fill-rule="evenodd">
        <g id="01.-home" transform="translate(-1285.000000, -8.000000)" fill="#373935">
            <g id="Group-9" transform="translate(1215.000000, 8.000000)">
                <path d="M84.858,15.401 C83.26,15.401 82.74,14.157 83.151,12.76 L83.744,10.64 C84.022,9.735 83.715,8.897 82.756,8.897 C81.911,8.897 81.354,9.361 81.067,10.529 L79.917,15 L77.905,15 L78.266,13.692 C77.675,14.664 76.853,15.337 75.84,15.337 C74.28,15.337 73.794,14.242 74.151,12.723 L75.067,9 L73.648,9 L74.079,7 L77.493,7 L76.145,12.548 C75.986,13.151 75.855,13.889 76.451,14.023 C76.611,14.059 77.888,14.061 78.583,12.516 L79.468,9 L78.031,9 L78.462,7 L81.534,7 L81.139,9.008 C81.678,8.002 82.756,7.147 83.816,7.147 C85.542,7.147 86.266,8.923 85.685,10.885 L85.11,12.963 C84.754,14.39 85.788,14.58 86.439,12.777 L87.23,13.083 C86.762,14.718 85.918,15.401 84.858,15.401 M76.684,3.885 C77.349,3.885 77.906,4.406 77.906,5.088 C77.906,5.771 77.349,6.292 76.684,6.292 C76.019,6.292 75.463,5.771 75.463,5.088 C75.463,4.406 76.019,3.885 76.684,3.885 M88.187,0 L71.813,0 C70.812,0 70,0.811 70,1.813 L70,18.187 C70,19.188 70.812,20 71.813,20 L88.187,20 C89.188,20 90,19.188 90,18.187 L90,1.813 C90,0.811 89.188,0 88.187,0" id="invision-[#166]"></path>
            </g>
        </g>
    </g>
</svg>