<?xml version="1.0" encoding="utf-8"?>
<!-- Generator: Adobe Illustrator 23.0.1, SVG Export Plug-In . SVG Version: 6.00 Build 0)  -->
<svg version="1.1" id="Layer_1" xmlns="http://www.w3.org/2000/svg" xmlns:xlink="http://www.w3.org/1999/xlink" x="0px" y="0px"
	 viewBox="0 0 25 25" style="enable-background:new 0 0 25 25;" xml:space="preserve">
<style type="text/css">
	.st0{fill-rule:evenodd;clip-rule:evenodd;fill:#0A090B;}
</style>
<g>
	<path class="st0" d="M18.1,13.4h-0.2v-2c0-0.5-0.4-0.8-0.8-0.8s-0.8,0.4-0.8,0.8v0.2h0.4v-0.2c0-0.2,0.2-0.4,0.4-0.4
		c0.2,0,0.4,0.2,0.4,0.4v1.2H17V13h0.4v0.4h-2.7h-2.7V13h0.4v-0.4h-0.4v-0.2c0-0.1-0.1-0.2-0.2-0.2h-2c-0.1,0-0.2,0.1-0.2,0.2v0.2
		H9.3V13h0.4v0.4H9.5H6.2c-0.1,0-0.2,0.1-0.2,0.2v4.5c0,0.1,0.1,0.2,0.2,0.2h3.3h5.3h3.3c0.1,0,0.2-0.1,0.2-0.2v-4.5
		C18.3,13.5,18.2,13.4,18.1,13.4z M15,15v-1.2h2.9V15H15z M10.1,12.5h1.6v0.8h-1.6V12.5z M9.3,13.8V15H6.4v-1.2H9.3z M6.4,15.4h2.9
		v2.5H6.4V15.4z M9.7,13.8h0.2h2h2.7v4.1H9.7V13.8z M15,15.4h1.2v2.5H15V15.4z M16.6,17.9v-2.5h1.2v2.5H16.6z"/>
	<path class="st0" d="M14,15h-3.7c-0.1,0-0.2,0.1-0.2,0.2v2c0,0.1,0.1,0.2,0.2,0.2H14c0.1,0,0.2-0.1,0.2-0.2v-2
		C14.2,15.1,14.1,15,14,15z M13.8,17h-3.3v-1.6h3.3V17z"/>
	<rect x="12.3" y="14.2" class="st0" width="0.4" height="0.4"/>
	<rect x="11.5" y="14.2" class="st0" width="0.4" height="0.4"/>
	<rect x="10.7" y="14.2" class="st0" width="0.4" height="0.4"/>
	<rect x="13.2" y="14.2" class="st0" width="0.4" height="0.4"/>
	<rect x="7.4" y="14.2" class="st0" width="0.8" height="0.4"/>
	<rect x="7.4" y="15.8" class="st0" width="0.8" height="0.4"/>
	<rect x="16" y="14.2" class="st0" width="0.8" height="0.4"/>
	<rect x="15.4" y="16.2" class="st0" width="0.4" height="0.6"/>
	<rect x="17" y="16.2" class="st0" width="0.4" height="0.6"/>
	<path class="st0" d="M9.5,9.6c0,0.1,0.1,0.1,0.2,0.1h4.9c0.1,0,0.2,0,0.2-0.1c0-0.1,0-0.2,0-0.2L14,8.6V6.2C14,6.1,13.9,6,13.8,6
		h-3.3c-0.1,0-0.2,0.1-0.2,0.2v2.4L9.5,9.3C9.5,9.4,9.5,9.5,9.5,9.6z M10.6,8.8c0,0,0.1-0.1,0.1-0.1V6.4h2.9v2.2
		c0,0.1,0,0.1,0.1,0.1l0.5,0.5h-3.9L10.6,8.8z"/>
	<path class="st0" d="M6.2,8.9h3.3c0.1,0,0.2-0.1,0.2-0.2V6.2C9.7,6.1,9.6,6,9.5,6H6.2C6.1,6,6,6.1,6,6.2v2.5C6,8.8,6.1,8.9,6.2,8.9
		z M6.4,6.4h2.9v2H6.4V6.4z"/>
	<rect x="8.5" y="7.2" class="st0" width="0.4" height="0.8"/>
	<path class="st0" d="M18.1,6h-3.3c-0.1,0-0.2,0.1-0.2,0.2v2.5c0,0.1,0.1,0.2,0.2,0.2h3.3c0.1,0,0.2-0.1,0.2-0.2V6.2
		C18.3,6.1,18.2,6,18.1,6z M17.9,8.5H15v-2h2.9V8.5z"/>
	<rect x="15.4" y="7.2" class="st0" width="0.4" height="0.8"/>
	<path class="st0" d="M6.6,12.5c0.2,0,0.3-0.1,0.4-0.2c0.1,0.1,0.3,0.2,0.4,0.2s0.3-0.1,0.4-0.2c0.1,0.1,0.3,0.2,0.4,0.2
		c0.3,0,0.6-0.3,0.6-0.6c0-0.3-0.2-0.5-0.4-0.6v-0.9h1.2v-0.4H8.5V9.7H8v0.4H7.6V9.7H7.2v0.4H6.8V9.7H6.4v0.4H6v0.4h0.4v0.9
		C6.2,11.4,6,11.7,6,11.9C6,12.3,6.3,12.5,6.6,12.5z M7.4,12.1c-0.1,0-0.2-0.1-0.2-0.2s0.1-0.2,0.2-0.2s0.2,0.1,0.2,0.2
		S7.5,12.1,7.4,12.1z M8.3,12.1C8.1,12.1,8,12,8,11.9s0.1-0.2,0.2-0.2s0.2,0.1,0.2,0.2S8.4,12.1,8.3,12.1z M8,10.5v0.9
		c-0.1,0-0.1,0.1-0.2,0.1c-0.1-0.1-0.1-0.1-0.2-0.1v-0.9H8z M7.2,10.5v0.9c-0.1,0-0.1,0.1-0.2,0.1c-0.1-0.1-0.1-0.1-0.2-0.1v-0.9
		H7.2z M6.6,11.7c0.1,0,0.2,0.1,0.2,0.2s-0.1,0.2-0.2,0.2c-0.1,0-0.2-0.1-0.2-0.2S6.5,11.7,6.6,11.7z"/>
</g>
</svg>
