<?xml version="1.0" encoding="utf-8"?>
<!-- Generator: Adobe Illustrator 23.0.1, SVG Export Plug-In . SVG Version: 6.00 Build 0)  -->
<svg version="1.1" id="Layer_1" xmlns="http://www.w3.org/2000/svg" xmlns:xlink="http://www.w3.org/1999/xlink" x="0px" y="0px"
	 viewBox="0 0 25 25" style="enable-background:new 0 0 25 25;" xml:space="preserve">
<style type="text/css">
	.st0{fill-rule:evenodd;clip-rule:evenodd;}
</style>
<g>
	<path class="st0" d="M17,5H7.2C6.5,5,6,5.5,6,6.2V18c0,0.4,0.3,0.7,0.7,0.7v0.7c0,0.1,0.1,0.2,0.2,0.2h10.3c0.1,0,0.2-0.1,0.2-0.2
		v-0.7c0.4,0,0.7-0.3,0.7-0.7V6.2C18.3,5.5,17.7,5,17,5z M17,19.2H7.2v-0.5H17V19.2z M17.8,18c0,0.1-0.1,0.2-0.2,0.2H6.7
		c-0.1,0-0.2-0.1-0.2-0.2V8.4h11.3V18z M17.8,7.9H6.5V6.2c0-0.4,0.3-0.7,0.7-0.7H17c0.4,0,0.7,0.3,0.7,0.7V7.9z"/>
	<path class="st0" d="M10.2,6H7.2C7.1,6,7,6.1,7,6.2v1c0,0.1,0.1,0.2,0.2,0.2h2.9c0.1,0,0.2-0.1,0.2-0.2v-1C10.4,6.1,10.3,6,10.2,6z
		 M9.9,7H7.5V6.5h2.5V7z"/>
	<path class="st0" d="M11.6,6c-0.4,0-0.7,0.3-0.7,0.7c0,0.4,0.3,0.7,0.7,0.7s0.7-0.3,0.7-0.7C12.4,6.3,12,6,11.6,6z M11.6,7
		c-0.1,0-0.2-0.1-0.2-0.2c0-0.1,0.1-0.2,0.2-0.2s0.2,0.1,0.2,0.2C11.9,6.9,11.8,7,11.6,7z"/>
	<path class="st0" d="M13.6,6c-0.4,0-0.7,0.3-0.7,0.7c0,0.4,0.3,0.7,0.7,0.7c0.4,0,0.7-0.3,0.7-0.7C14.3,6.3,14,6,13.6,6z M13.6,7
		c-0.1,0-0.2-0.1-0.2-0.2c0-0.1,0.1-0.2,0.2-0.2c0.1,0,0.2,0.1,0.2,0.2C13.8,6.9,13.7,7,13.6,7z"/>
	<path class="st0" d="M15.6,6.5h-0.5c-0.1,0-0.2,0.1-0.2,0.2c0,0.1,0.1,0.2,0.2,0.2h0.5c0.1,0,0.2-0.1,0.2-0.2
		C15.8,6.6,15.7,6.5,15.6,6.5z"/>
	<path class="st0" d="M17,6.5h-0.5c-0.1,0-0.2,0.1-0.2,0.2c0,0.1,0.1,0.2,0.2,0.2H17c0.1,0,0.2-0.1,0.2-0.2
		C17.3,6.6,17.2,6.5,17,6.5z"/>
	<path class="st0" d="M12.1,17.3c2.2,0,3.9-1.8,3.9-3.9c0-2.2-1.8-3.9-3.9-3.9c-2.2,0-3.9,1.8-3.9,3.9S10,17.3,12.1,17.3z M12.1,9.9
		c1.9,0,3.4,1.5,3.4,3.4c0,1.9-1.5,3.4-3.4,3.4c-1.9,0-3.4-1.5-3.4-3.4C8.7,11.4,10.2,9.9,12.1,9.9z"/>
	<path class="st0" d="M13.4,16.3c0.9-0.4,1.6-1.2,1.8-2.1c0,0,0,0,0,0c0.5-1.7-0.5-3.4-2.2-3.9c-0.3-0.1-0.6-0.1-0.8-0.1
		c-1.8,0-3.2,1.4-3.2,3.2c0,0.4,0.1,0.8,0.2,1.2c0,0,0,0,0,0c0,0,0,0,0,0C9.9,16.2,11.7,17,13.4,16.3z M11.3,10.8
		c0.3-0.1,0.6-0.1,0.8-0.1c1.5,0,2.7,1.2,2.7,2.7c0,0.2,0,0.4-0.1,0.6c-0.1,0-0.3,0.1-0.4,0.1c-0.3,0.2-0.7,0.3-1,0.3
		c-0.3,0-0.6-0.1-0.9-0.2c-0.3-0.2-0.7-0.3-1.1-0.3c-0.6,0-1.2,0.1-1.8,0.3C9.1,12.8,9.9,11.2,11.3,10.8z M11.4,14.3
		c0.3,0,0.6,0.1,0.9,0.2c0.3,0.2,0.7,0.3,1.1,0.3c0.4,0,0.8-0.1,1.2-0.3c-0.5,0.9-1.4,1.5-2.4,1.5c-1,0-1.9-0.5-2.4-1.4
		C10.3,14.4,10.8,14.3,11.4,14.3z"/>
</g>
</svg>
