<?xml version="1.0" encoding="utf-8"?>
<!-- Generator: Adobe Illustrator 23.0.1, SVG Export Plug-In . SVG Version: 6.00 Build 0)  -->
<svg version="1.1" id="Layer_1" xmlns="http://www.w3.org/2000/svg" xmlns:xlink="http://www.w3.org/1999/xlink" x="0px" y="0px"
	 viewBox="0 0 25 25" style="enable-background:new 0 0 25 25;" xml:space="preserve">
<style type="text/css">
	.st0{fill-rule:evenodd;clip-rule:evenodd;}
</style>
<g>
	<path class="st0" d="M5.6,16.5h10.3c0.1,0,0.2-0.1,0.2-0.2V9.6c0-0.1-0.1-0.2-0.2-0.2H5.6c-0.1,0-0.2,0.1-0.2,0.2v6.6
		C5.3,16.4,5.4,16.5,5.6,16.5z M13.4,16H8c-0.4,0-0.8-0.3-0.9-0.7h7.1C14.2,15.7,13.8,16,13.4,16z M10.2,12.1h1
		c1.3,0,2.4,1.1,2.4,2.4v0.3H7.8v-0.3C7.8,13.2,8.9,12.2,10.2,12.1z M10,11.3h1.4c0.3,0,0.3,0.4,0,0.4H10C9.7,11.7,9.7,11.3,10,11.3
		z M5.8,9.8h9.9l0,6.2h-1.2c0.2-0.2,0.3-0.6,0.3-0.9c0-0.1-0.1-0.2-0.2-0.2h-0.4v-0.3c0-1.3-0.9-2.4-2.1-2.8
		c0.1-0.1,0.1-0.2,0.1-0.3c0-0.4-0.3-0.7-0.7-0.7H10c-0.4,0-0.7,0.3-0.7,0.7c0,0.1,0,0.2,0.1,0.3c-1.2,0.3-2.1,1.5-2.1,2.8v0.3H6.9
		c-0.1,0-0.2,0.1-0.2,0.2c0,0.3,0.1,0.6,0.3,0.9H5.8V9.8z"/>
	<path class="st0" d="M20.8,8H4.2C4.1,8,4,8.1,4,8.3v9.3c0,0.1,0.1,0.2,0.2,0.2h16.5c0.1,0,0.2-0.1,0.2-0.2V8.3
		C21,8.1,20.9,8,20.8,8z M17,17.3H4.5V8.5H17V17.3z M17.4,17.3V8.5h3.1l0,8.8H17.4z"/>
	<path class="st0" d="M19.4,9.4h-0.9c-0.1,0-0.2,0.1-0.2,0.2v1.9c0,0.1,0.1,0.2,0.2,0.2h0.9c0.1,0,0.2-0.1,0.2-0.2V9.6
		C19.7,9.5,19.6,9.4,19.4,9.4z M19.2,11.2h-0.4V9.8h0.4V11.2z"/>
	<path class="st0" d="M19.4,12.5h-0.9c-0.3,0-0.3,0.5,0,0.5h0.9C19.7,12.9,19.7,12.5,19.4,12.5z"/>
	<path class="st0" d="M19.4,13.7h-0.9c-0.3,0-0.3,0.5,0,0.5h0.9C19.7,14.1,19.7,13.7,19.4,13.7z"/>
	<path class="st0" d="M19.4,14.9h-0.9c-0.3,0-0.3,0.5,0,0.5h0.9C19.7,15.4,19.7,14.9,19.4,14.9z"/>
</g>
</svg>
