<?xml version="1.0" encoding="UTF-8"?>
<svg width="40px" height="40px" viewBox="0 0 40 40" version="1.1" xmlns="http://www.w3.org/2000/svg" xmlns:xlink="http://www.w3.org/1999/xlink">
    <!-- Generator: Sketch 59.1 (86144) - https://sketch.com -->
    <title>profile [#1335]</title>
    <desc>Created with Sketch.</desc>
    <g id="Page-1" stroke="none" stroke-width="1" fill="none" fill-rule="evenodd">
        <g id="08.-profile-(my-listing,-pending-requests)" transform="translate(-250.000000, -237.000000)" fill="#373935">
            <g id="Group-5" transform="translate(230.000000, 217.000000)">
                <path d="M40,40 C35.588,40 32,36.412 32,32 C32,27.588 35.588,24 40,24 C44.412,24 48,27.588 48,32 C48,36.412 44.412,40 40,40 M47.516,41.346 C50.248,39.148 52,35.78 52,32 C52,25.372 46.628,20 40,20 C33.372,20 28,25.372 28,32 C28,35.78 29.752,39.148 32.484,41.346 C25.166,44.096 20,50.89 20,60 L24,60 C24,50 31.178,44 40,44 C48.822,44 56,50 56,60 L60,60 C60,50.89 54.834,44.096 47.516,41.346" id="profile-[#1335]"></path>
            </g>
        </g>
    </g>
</svg>