<?xml version="1.0" encoding="UTF-8"?>
<svg width="19px" height="20px" viewBox="0 0 19 20" version="1.1" xmlns="http://www.w3.org/2000/svg" xmlns:xlink="http://www.w3.org/1999/xlink">
    <!-- Generator: Sketch 59.1 (86144) - https://sketch.com -->
    <title>search</title>
    <desc>Created with Sketch.</desc>
    <g id="Page-1" stroke="none" stroke-width="1" fill="none" fill-rule="evenodd">
        <g id="01.-home" transform="translate(-145.000000, -384.000000)" fill="#373935">
            <path d="M163.896821,403.3623 L158.361149,397.526233 C159.773125,396.089873 160.648159,394.111633 160.648159,391.930424 C160.648159,387.556678 157.136847,384 152.824079,384 C148.508984,384 145,387.556678 145,391.930424 C145,396.302282 148.508984,399.860848 152.824079,399.860848 C154.71758,399.860848 156.455075,399.173114 157.810236,398.035543 L163.358482,403.885771 C163.43113,403.963182 163.529391,404 163.627652,404 C163.720324,404 163.812997,403.96507 163.886111,403.895211 C164.033269,403.751245 164.038857,403.511458 163.896821,403.3623 Z M152.824079,399.104671 C148.920189,399.104671 145.746037,395.885488 145.746037,391.930424 C145.746037,387.973472 148.920189,384.756178 152.824079,384.756178 C156.726107,384.756178 159.902122,387.973472 159.902122,391.930424 C159.902122,395.885488 156.726107,399.104671 152.824079,399.104671 Z" id="search"></path>
        </g>
    </g>
</svg>