<?xml version="1.0" encoding="UTF-8"?>
<svg width="24px" height="17px" viewBox="0 0 24 17" version="1.1" xmlns="http://www.w3.org/2000/svg" xmlns:xlink="http://www.w3.org/1999/xlink">
    <!-- Generator: Sketch 59.1 (86144) - https://sketch.com -->
    <title>Nubes Copy 2</title>
    <desc>Created with Sketch.</desc>
    <g id="Page-1" stroke="none" stroke-width="1" fill="none" fill-rule="evenodd">
        <g id="04.-space" transform="translate(-672.000000, -1522.000000)" fill="#606060" fill-rule="nonzero">
            <g id="Group-39" transform="translate(535.000000, 1510.000000)">
                <g id="Nubes-Copy-2" transform="translate(137.000000, 12.000000)">
                    <g id="noun_weather_1726112">
                        <path d="M19.9522388,5.17727273 C19.0567164,2.27954545 16.5492537,0.309090909 13.719403,0.309090909 C11.2119403,0.309090909 8.95522388,1.81590909 7.84477612,4.21136364 C5.80298507,4.17272727 4.11940299,5.87272727 3.90447761,7.99772727 C1.89850746,8.19090909 0.286567164,10.0068182 0.286567164,12.2477273 C0.286567164,14.6045455 2.04179104,16.4977273 4.22686567,16.4977273 C4.46458377,16.4977273 18.2818862,16.7681818 18.4835821,16.7681818 C21.4925373,16.7681818 23.9641791,14.1409091 23.9641791,10.8568182 C23.9641791,8.19090909 22.280597,5.87272727 19.9522388,5.17727273 Z M18.4835821,15.3 C17.6955224,15.3 14.6149254,15.2227273 11.641791,15.1840909 C8.45373134,15.1068182 5.15820896,15.0295455 4.22686567,15.0295455 C2.79402985,15.0295455 1.6119403,13.7545455 1.6119403,12.2090909 C1.6119403,10.6636364 2.79402985,9.38863636 4.22686567,9.38863636 C4.29850746,9.38863636 4.40597015,9.38863636 4.47761194,9.38863636 C4.69253731,9.42727273 4.87164179,9.31136364 5.01492537,9.15681818 C5.15820896,9.00227273 5.22985075,8.77045455 5.22985075,8.57727273 C5.22985075,8.5 5.22985075,8.46136364 5.22985075,8.38409091 C5.22985075,6.83863636 6.4119403,5.56363636 7.84477612,5.56363636 C7.95223881,5.56363636 8.05970149,5.56363636 8.20298507,5.60227273 C8.48955224,5.64090909 8.7761194,5.44772727 8.91940299,5.17727273 C9.74328358,3.05227273 11.641791,1.7 13.7552239,1.7 C16.119403,1.7 18.1970149,3.43863636 18.8059701,5.91136364 C18.8776119,6.18181818 19.0567164,6.375 19.3432836,6.45227273 C21.2776119,6.87727273 22.6746269,8.69318182 22.6746269,10.8181818 C22.6029851,13.3295455 20.7761194,15.3 18.4835821,15.3 Z" id="Shape"></path>
                    </g>
                </g>
            </g>
        </g>
    </g>
</svg>