<?xml version="1.0" encoding="utf-8"?>
<!-- Generator: Adobe Illustrator 23.0.1, SVG Export Plug-In . SVG Version: 6.00 Build 0)  -->
<svg version="1.1" id="Layer_1" xmlns="http://www.w3.org/2000/svg" xmlns:xlink="http://www.w3.org/1999/xlink" x="0px" y="0px"
	 viewBox="0 0 20 19" style="enable-background:new 0 0 20 19;" xml:space="preserve">
<style type="text/css">
	.st0{fill-rule:evenodd;clip-rule:evenodd;fill:#373935;}
</style>
<g>
	<path class="st0" d="M5.8,10.3c-0.4,0-0.8,0.4-0.8,0.8c0,0.4,0.4,0.8,0.8,0.8c0.4,0,0.8-0.4,0.8-0.8C6.6,10.7,6.3,10.3,5.8,10.3z"
		/>
	<path class="st0" d="M14.2,10.3c-0.4,0-0.8,0.4-0.8,0.8c0,0.4,0.4,0.8,0.8,0.8s0.8-0.4,0.8-0.8C14.9,10.7,14.6,10.3,14.2,10.3z"/>
	<path class="st0" d="M18,8.5V8.1c0-4.4-3.6-8.1-8.1-8.1S1.9,3.7,1.9,8.1v0.3C0.8,8.7,0,9.6,0,10.8c0,1.2,0.8,2.1,2,2.3
		c0.2,1.8,1,3.1,2.4,3.9c1.3,0.7,3.1,1.1,5.6,1.1s4.3-0.4,5.6-1.1c1.5-0.8,2.3-2.1,2.4-3.9c1.1-0.2,2-1.1,2-2.3
		C20,9.6,19.1,8.7,18,8.5z M1.9,12.2c-0.6-0.2-1.1-0.8-1.1-1.5c0-0.7,0.5-1.3,1.1-1.5V12.2z M17.2,12.4c0,1.8-0.7,3.1-2,3.8
		c-1.2,0.7-2.9,1-5.2,1s-4-0.3-5.2-1c-1.4-0.8-2-2-2-3.8V8.1c0-3.3,2.2-6,5.2-6.9c2.3,0,3.5,1.7,3.5,2.9c0,0.9-0.7,1.6-1.6,1.6
		c-0.7,0-1.2-0.6-1.2-1.2c0-0.5,0.4-0.9,0.9-0.9c0.2,0,0.4-0.2,0.4-0.4c0-0.2-0.2-0.4-0.4-0.4c-1,0-1.7,0.8-1.7,1.7
		c0,1.1,0.9,2.1,2.1,2.1c1.4,0,2.5-1.1,2.5-2.5c0-0.9-0.4-1.8-1.2-2.5c-0.3-0.3-0.6-0.5-1-0.7c3.9,0.1,7.1,3.3,7.1,7.2V12.4z
		 M18,12.2V9.3c0.6,0.2,1.1,0.8,1.1,1.5C19.2,11.5,18.7,12,18,12.2z"/>
	<path class="st0" d="M11.6,12.2c-0.9,0.9-2.3,0.9-3.2,0c-0.2-0.2-0.4-0.2-0.6,0c-0.2,0.2-0.2,0.4,0,0.6c0.6,0.6,1.4,0.9,2.2,0.9
		s1.6-0.3,2.2-0.9c0.2-0.2,0.2-0.4,0-0.6C12,12.1,11.7,12.1,11.6,12.2z"/>
</g>
</svg>
