<?xml version="1.0" encoding="UTF-8"?>
<svg width="12px" height="12px" viewBox="0 0 12 12" version="1.1" xmlns="http://www.w3.org/2000/svg" xmlns:xlink="http://www.w3.org/1999/xlink">
    <!-- Generator: Sketch 59.1 (86144) - https://sketch.com -->
    <title>star_favorite [#1499]</title>
    <desc>Created with Sketch.</desc>
    <g id="Page-1" stroke="none" stroke-width="1" fill="none" fill-rule="evenodd">
        <g id="13.-My-Favorites" transform="translate(-655.000000, -528.000000)" fill="#FFFFFF">
            <g id="Group-5" transform="translate(435.000000, 210.000000)">
                <g id="Group-24" transform="translate(216.000000, 314.000000)">
                    <path d="M14.0323601,11.3236 C13.7761563,11.5834 13.6597545,11.9578 13.7197554,12.325 L14.1067612,14.6746 C14.227363,15.406 13.6693547,16 13.0363452,16 C12.8695428,16 12.6973402,15.9586 12.5305377,15.8674 L10.5055075,14.758 C10.3471052,14.6716 10.1737026,14.6284 9.9997,14.6284 C9.82629741,14.6284 9.65289483,14.6716 9.49449247,14.758 L7.4694623,15.8674 C7.30265981,15.9586 7.13045725,16 6.96365476,16 C6.33064533,16 5.77263702,15.406 5.89323881,14.6746 L6.28024458,12.325 C6.34024547,11.9578 6.22384374,11.5834 5.96763992,11.3236 L4.32901551,9.6598 C3.68460591,9.0052 4.04041121,7.8646 4.93082447,7.7296 L7.19525821,7.387 C7.54926349,7.3336 7.85526805,7.102 8.0130704,6.7678 L9.02588549,4.6306 C9.22508845,4.21 9.61269423,4 9.9997,4 C10.3873058,4 10.7749115,4.21 10.9741145,4.6306 L11.9869296,6.7678 C12.144732,7.102 12.4507365,7.3336 12.8047418,7.387 L15.0691755,7.7296 C15.9595888,7.8646 16.3153941,9.0052 15.6709845,9.6598 L14.0323601,11.3236 Z" id="star_favorite-[#1499]"></path>
                </g>
            </g>
        </g>
    </g>
</svg>