<?xml version="1.0" encoding="UTF-8"?>
<svg width="30px" height="21px" viewBox="0 0 30 21" version="1.1" xmlns="http://www.w3.org/2000/svg" xmlns:xlink="http://www.w3.org/1999/xlink">
    <!-- Generator: Sketch 59.1 (86144) - https://sketch.com -->
    <title>Group</title>
    <desc>Created with Sketch.</desc>
    <g id="Page-1" stroke="none" stroke-width="1" fill="none" fill-rule="evenodd">
        <g id="04.-space" transform="translate(-468.000000, -1519.000000)" fill="#606060" fill-rule="nonzero">
            <g id="Group-48" transform="translate(335.000000, 1510.000000)">
                <g id="Group" transform="translate(133.000000, 9.000000)">
                    <path d="M26.2333333,10.9666667 C25.4,8.46666667 23.0666667,6.76666667 20.4333333,6.76666667 C18.1,6.76666667 16,8.06666667 14.9666667,10.1333333 C13.0666667,10.1 11.5,11.5666667 11.3,13.4 C9.43333333,13.5666667 7.93333333,15.1333333 7.93333333,17.0666667 C7.93333333,19.1 9.56666667,20.7333333 11.6,20.7333333 C12.4666667,20.7333333 15.5,20.8 18.4666667,20.8666667 C21.3666667,20.9333333 24.1,20.9666667 24.8666667,20.9666667 C27.6666667,20.9666667 29.9666667,18.7 29.9666667,15.8666667 C29.9666667,13.5666667 28.4,11.5666667 26.2333333,10.9666667 Z M24.8666667,19.7 C24.1333333,19.7 21.2666667,19.6333333 18.5,19.6 C15.5333333,19.5333333 12.4666667,19.4666667 11.6,19.4666667 C10.2666667,19.4666667 9.16666667,18.3666667 9.16666667,17.0333333 C9.16666667,15.7 10.2666667,14.6 11.6,14.6 C11.6666667,14.6 11.7666667,14.6 11.8333333,14.6 C12.0333333,14.6333333 12.2,14.5333333 12.3333333,14.4 C12.4666667,14.2666667 12.5333333,14.0666667 12.5333333,13.9 C12.5333333,13.8333333 12.5333333,13.8 12.5333333,13.7333333 C12.5333333,12.4 13.6333333,11.3 14.9666667,11.3 C15.0666667,11.3 15.1666667,11.3 15.3,11.3333333 C15.5666667,11.3666667 15.8333333,11.2 15.9666667,10.9666667 C16.7333333,9.13333333 18.5,7.96666667 20.4666667,7.96666667 C22.6666667,7.96666667 24.6,9.46666667 25.1666667,11.6 C25.2333333,11.8333333 25.4,12 25.6666667,12.0666667 C27.4666667,12.4333333 28.7666667,14 28.7666667,15.8333333 C28.7,18 27,19.7 24.8666667,19.7 Z" id="Shape"></path>
                    <path d="M6.2,10.7666667 C6.2,8.23333333 8.26666667,6.16666667 10.8,6.16666667 C12.2333333,6.16666667 13.5666667,6.83333333 14.4666667,7.96666667 C14.6666667,8.23333333 15.0666667,8.3 15.3333333,8.1 C15.6,7.9 15.6666667,7.5 15.4666667,7.23333333 C14.3666667,5.76666667 12.6666667,4.93333333 10.8333333,4.93333333 C7.6,4.93333333 5,7.56666667 5,10.7666667 C5,12.2333333 5.53333333,13.6 6.5,14.7 C6.63333333,14.8333333 6.8,14.9 6.96666667,14.9 C7.13333333,14.9 7.26666667,14.8333333 7.4,14.7333333 C7.66666667,14.5 7.66666667,14.1 7.43333333,13.8666667 C6.63333333,13 6.2,11.9 6.2,10.7666667 Z" id="Path"></path>
                    <path d="M10.5666667,3.53333333 C10.9,3.53333333 11.2,3.26666667 11.2,2.9 L11.2,0.633333333 C11.2,0.3 10.9333333,1.15463195e-14 10.5666667,1.15463195e-14 C10.2,1.15463195e-14 9.93333333,0.266666667 9.93333333,0.633333333 L9.93333333,2.9 C9.93333333,3.26666667 10.2333333,3.53333333 10.5666667,3.53333333 Z" id="Path"></path>
                    <path d="M16.2,5.7 C16.3666667,5.7 16.5333333,5.63333333 16.6333333,5.53333333 L18.2333333,3.93333333 C18.4666667,3.7 18.4666667,3.3 18.2333333,3.03333333 C18,2.8 17.6,2.8 17.3333333,3.03333333 L15.7333333,4.63333333 C15.5,4.86666667 15.5,5.26666667 15.7333333,5.53333333 C15.8666667,5.63333333 16.0333333,5.7 16.2,5.7 Z" id="Path"></path>
                    <path d="M4.93333333,16.0333333 L3.33333333,17.6666667 C3.1,17.9 3.1,18.3 3.33333333,18.5666667 C3.46666667,18.7 3.6,18.7333333 3.76666667,18.7333333 C3.93333333,18.7333333 4.1,18.6666667 4.2,18.5666667 L5.8,16.9666667 C6.03333333,16.7333333 6.03333333,16.3333333 5.8,16.0666667 C5.6,15.8 5.2,15.8 4.93333333,16.0333333 Z" id="Path"></path>
                    <path d="M3.56666667,11 C3.56666667,10.6666667 3.3,10.3666667 2.93333333,10.3666667 L0.633333333,10.3666667 C0.3,10.3666667 2.30926389e-14,10.6333333 2.30926389e-14,11 C2.30926389e-14,11.3666667 0.266666667,11.6333333 0.633333333,11.6333333 L2.9,11.6333333 C3.26666667,11.6333333 3.56666667,11.3333333 3.56666667,11 Z" id="Path"></path>
                    <path d="M4.63333333,5.8 C4.76666667,5.93333333 4.9,5.96666667 5.06666667,5.96666667 C5.23333333,5.96666667 5.4,5.9 5.5,5.8 C5.73333333,5.56666667 5.73333333,5.16666667 5.5,4.9 L3.9,3.3 C3.66666667,3.06666667 3.26666667,3.06666667 3,3.3 C2.76666667,3.53333333 2.76666667,3.93333333 3,4.2 L4.63333333,5.8 Z" id="Path"></path>
                </g>
            </g>
        </g>
    </g>
</svg>