<?xml version="1.0" encoding="UTF-8"?>
<svg width="25px" height="26px" viewBox="0 0 25 26" version="1.1" xmlns="http://www.w3.org/2000/svg" xmlns:xlink="http://www.w3.org/1999/xlink">
    <!-- Generator: Sketch 59.1 (86144) - https://sketch.com -->
    <title>Sun Copy 2</title>
    <desc>Created with Sketch.</desc>
    <g id="Page-1" stroke="none" stroke-width="1" fill="none" fill-rule="evenodd">
        <g id="04.-space" transform="translate(-272.000000, -1587.000000)" fill="#606060" fill-rule="nonzero" stroke="#606060" stroke-width="0.1">
            <g id="Group-41" transform="translate(135.000000, 1580.000000)">
                <g id="Sun-Copy-2" transform="translate(138.000000, 8.000000)">
                    <g id="Group" transform="translate(0.888889, 0.892857)">
                        <path d="M17.9049185,11.6071429 C17.9049185,7.79336735 14.823437,4.69812925 11.0266116,4.69812925 C7.22978624,4.69812925 4.14830475,7.79336735 4.14830475,11.6071429 C4.14830475,15.4209184 7.22978624,18.5161565 11.0266116,18.5161565 C14.823437,18.5161565 17.9049185,15.4209184 17.9049185,11.6071429 Z M11.0266116,17.4107143 C7.83507724,17.4107143 5.24883385,14.8129252 5.24883385,11.6071429 C5.24883385,8.40136054 7.83507724,5.80357143 11.0266116,5.80357143 C14.218146,5.80357143 16.8043894,8.40136054 16.8043894,11.6071429 C16.8043894,14.8129252 14.218146,17.4107143 11.0266116,17.4107143 Z" id="Shape"></path>
                        <path d="M15.7038603,5.11267007 C15.8139132,5.19557823 15.9239661,5.22321429 16.034019,5.22321429 C16.1990984,5.22321429 16.3641778,5.14030612 16.4742307,5.00212585 L17.9324317,2.98469388 C18.0975111,2.73596939 18.0699979,2.40433673 17.8223788,2.21088435 C17.5747598,2.04506803 17.244601,2.07270408 17.0520085,2.32142857 L15.5938074,4.33886054 C15.428728,4.58758503 15.4837545,4.94685374 15.7038603,5.11267007 Z" id="Path"></path>
                        <path d="M19.1430137,9.50680272 C19.1980402,9.50680272 19.2530667,9.50680272 19.3080931,9.47916667 L21.6742307,8.70535714 C21.9768762,8.62244898 22.1144423,8.29081633 22.0319026,8.01445578 C21.949363,7.71045918 21.6192042,7.57227891 21.3440719,7.65518707 L18.9779344,8.4289966 C18.6752889,8.51190476 18.5377227,8.84353741 18.6202624,9.11989796 C18.7028021,9.36862245 18.8953947,9.50680272 19.1430137,9.50680272 Z" id="Path"></path>
                        <path d="M18.9779344,14.7852891 L21.3440719,15.5590986 C21.3990984,15.5867347 21.4541249,15.5867347 21.5091513,15.5867347 C21.7292571,15.5867347 21.949363,15.4485544 22.0319026,15.1998299 C22.1144423,14.8958333 21.9768762,14.5918367 21.6742307,14.5089286 L19.3080931,13.735119 C19.0054476,13.6522109 18.7028021,13.7903912 18.6202624,14.0943878 C18.5102095,14.3707483 18.6752889,14.6747449 18.9779344,14.7852891 Z" id="Path"></path>
                        <path d="M17.0520085,20.8652211 C17.1620614,21.0034014 17.3271407,21.0863095 17.4922201,21.0863095 C17.602273,21.0863095 17.7123259,21.0586735 17.8223788,20.9757653 C18.0699979,20.809949 18.1250243,20.4506803 17.9324317,20.2019558 L16.4742307,18.1845238 C16.3091513,17.9357993 15.9514794,17.8805272 15.7038603,18.0739796 C15.4562413,18.2397959 15.4012148,18.5990646 15.5938074,18.8477891 L17.0520085,20.8652211 Z" id="Path"></path>
                        <path d="M10.4763471,20.1743197 L10.4763471,22.6615646 C10.4763471,22.9655612 10.7239661,23.2142857 11.0266116,23.2142857 C11.3292571,23.2142857 11.5768762,22.9655612 11.5768762,22.6615646 L11.5768762,20.1743197 C11.5768762,19.8703231 11.3292571,19.6215986 11.0266116,19.6215986 C10.7239661,19.6215986 10.4763471,19.8703231 10.4763471,20.1743197 Z" id="Path"></path>
                        <path d="M4.23084444,21.0034014 C4.34089735,21.0863095 4.45095026,21.1139456 4.56100317,21.1139456 C4.72608253,21.1139456 4.8911619,21.0310374 5.00121481,20.8928571 L6.45941586,18.8754252 C6.62449523,18.6267007 6.596982,18.295068 6.34936295,18.1016156 C6.10174391,17.9357993 5.77158518,17.9634354 5.57899258,18.2121599 L4.12079153,20.2295918 C3.92819893,20.4783163 3.98322539,20.809949 4.23084444,21.0034014 Z" id="Path"></path>
                        <path d="M0.571585177,15.5867347 C0.626611632,15.5867347 0.681638087,15.5867347 0.736664542,15.5590986 L3.10280211,14.7852891 C3.40544761,14.702381 3.54301375,14.3707483 3.46047407,14.0943878 C3.37793438,13.7903912 3.04777565,13.6522109 2.77264338,13.735119 L0.406505812,14.5089286 C0.103860309,14.5918367 -0.0337058284,14.9234694 0.0488338542,15.1998299 C0.103860309,15.4209184 0.323966129,15.5867347 0.571585177,15.5867347 Z" id="Path"></path>
                        <path d="M0.378992584,8.70535714 L2.74513015,9.47916667 C2.80015661,9.50680272 2.85518306,9.50680272 2.91020952,9.50680272 C3.13031534,9.50680272 3.35042116,9.36862245 3.43296084,9.11989796 C3.51550052,8.81590136 3.37793438,8.51190476 3.07528888,8.4289966 L0.709151314,7.65518707 C0.434019039,7.57227891 0.103860309,7.71045918 0.0213206267,8.01445578 C-0.0612190559,8.31845238 0.103860309,8.62244898 0.378992584,8.70535714 Z" id="Path"></path>
                        <path d="M5.57899258,5.00212585 C5.68904549,5.14030612 5.85412486,5.22321429 6.01920422,5.22321429 C6.12925713,5.22321429 6.23931004,5.19557823 6.34936295,5.11267007 C6.596982,4.94685374 6.65200846,4.58758503 6.45941586,4.33886054 L5.00121481,2.32142857 C4.83613544,2.07270408 4.47846348,2.01743197 4.23084444,2.21088435 C3.98322539,2.37670068 3.92819893,2.73596939 4.12079153,2.98469388 L5.57899258,5.00212585 Z" id="Path"></path>
                        <path d="M11.0266116,3.59268707 C11.3292571,3.59268707 11.5768762,3.34396259 11.5768762,3.03996599 L11.5768762,0.552721088 C11.5768762,0.24872449 11.3292571,0 11.0266116,0 C10.7239661,0 10.4763471,0.24872449 10.4763471,0.552721088 L10.4763471,3.03996599 C10.4763471,3.34396259 10.7239661,3.59268707 11.0266116,3.59268707 Z" id="Path"></path>
                    </g>
                </g>
            </g>
        </g>
    </g>
</svg>