<?xml version="1.0" encoding="utf-8"?>
<!-- Generator: Adobe Illustrator 23.0.1, SVG Export Plug-In . SVG Version: 6.00 Build 0)  -->
<svg version="1.1" id="Layer_1" xmlns="http://www.w3.org/2000/svg" xmlns:xlink="http://www.w3.org/1999/xlink" x="0px" y="0px"
	 viewBox="0 0 25 25" style="enable-background:new 0 0 25 25;" xml:space="preserve">
<style type="text/css">
	.st0{fill-rule:evenodd;clip-rule:evenodd;fill:#0A0B09;}
</style>
<g>
	<path class="st0" d="M17.4,9.7h-4.9L14,7.3C14,7.2,14,7.1,13.9,7c-0.1-0.1-0.2,0-0.3,0.1l-1.5,2.4l-1.7-2.4C10.4,7,10.3,7,10.2,7
		c-0.1,0.1-0.1,0.2,0,0.3l1.6,2.3H6.8C6.4,9.7,6,10,6,10.5v6.9c0,0.4,0.4,0.8,0.8,0.8H7v0.4c0,0.1,0.1,0.2,0.2,0.2s0.2-0.1,0.2-0.2
		v-0.4h9.4v0.4c0,0.1,0.1,0.2,0.2,0.2c0.1,0,0.2-0.1,0.2-0.2v-0.4h0.2c0.4,0,0.8-0.4,0.8-0.8v-6.9C18.3,10,17.9,9.7,17.4,9.7z
		 M17.9,17.4c0,0.2-0.2,0.4-0.4,0.4H6.8c-0.2,0-0.4-0.2-0.4-0.4v-6.9c0-0.2,0.2-0.4,0.4-0.4h10.6c0.2,0,0.4,0.2,0.4,0.4V17.4z"/>
	<path class="st0" d="M13.8,10.5H8c-0.7,0-1.2,0.6-1.2,1.2v4.5c0,0.7,0.6,1.2,1.2,1.2h5.7c0.7,0,1.2-0.6,1.2-1.2v-4.5
		C15,11,14.4,10.5,13.8,10.5z M14.6,16.2c0,0.4-0.4,0.8-0.8,0.8H8c-0.4,0-0.8-0.4-0.8-0.8v-4.5c0-0.4,0.4-0.8,0.8-0.8h5.7
		c0.4,0,0.8,0.4,0.8,0.8V16.2z"/>
	<path class="st0" d="M17.2,11.5h-1.6c-0.1,0-0.2,0.1-0.2,0.2s0.1,0.2,0.2,0.2h1.6c0.1,0,0.2-0.1,0.2-0.2S17.4,11.5,17.2,11.5z"/>
	<path class="st0" d="M17.2,12.3h-1.6c-0.1,0-0.2,0.1-0.2,0.2c0,0.1,0.1,0.2,0.2,0.2h1.6c0.1,0,0.2-0.1,0.2-0.2
		C17.4,12.4,17.4,12.3,17.2,12.3z"/>
	<path class="st0" d="M17.2,13.1h-1.6c-0.1,0-0.2,0.1-0.2,0.2s0.1,0.2,0.2,0.2h1.6c0.1,0,0.2-0.1,0.2-0.2S17.4,13.1,17.2,13.1z"/>
	<path class="st0" d="M17.2,14h-1.6c-0.1,0-0.2,0.1-0.2,0.2v1.6c0,0.1,0.1,0.2,0.2,0.2h1.6c0.1,0,0.2-0.1,0.2-0.2v-1.6
		C17.4,14,17.4,14,17.2,14z M17,15.6h-1.2v-1.2H17V15.6z"/>
	<path class="st0" d="M8.5,11.4l-0.8,0.8c-0.1,0.1-0.1,0.2,0,0.3c0,0,0.1,0.1,0.1,0.1s0.1,0,0.1-0.1l0.8-0.8c0.1-0.1,0.1-0.2,0-0.3
		C8.7,11.3,8.6,11.3,8.5,11.4z"/>
	<path class="st0" d="M7.9,13l-0.2,0.2c-0.1,0.1-0.1,0.2,0,0.3c0,0,0.1,0.1,0.1,0.1s0.1,0,0.1-0.1l0.2-0.2c0.1-0.1,0.1-0.2,0-0.3
		C8.1,12.9,8,12.9,7.9,13z"/>
	<path class="st0" d="M9.7,11.2l-0.6,0.6C9,11.8,9,12,9.1,12.1c0,0,0.1,0.1,0.1,0.1c0.1,0,0.1,0,0.1-0.1l0.6-0.6
		c0.1-0.1,0.1-0.2,0-0.3C9.9,11.1,9.8,11.1,9.7,11.2z"/>
	<path class="st0" d="M8.7,12.3c-0.1,0-0.2,0.1-0.2,0.2c0,0.1,0.1,0.2,0.2,0.2c0.1,0,0.2-0.1,0.2-0.2C8.9,12.4,8.8,12.3,8.7,12.3z"
		/>
</g>
</svg>
