<?xml version="1.0" encoding="UTF-8"?>
<svg width="20px" height="18px" viewBox="0 0 20 18" version="1.1" xmlns="http://www.w3.org/2000/svg" xmlns:xlink="http://www.w3.org/1999/xlink">
    <!-- Generator: Sketch 59.1 (86144) - https://sketch.com -->
    <title>users</title>
    <desc>Created with Sketch.</desc>
    <g id="Page-1" stroke="none" stroke-width="1" fill="none" fill-rule="evenodd">
        <g id="01.-home" transform="translate(-145.000000, -525.000000)" fill="#373935">
            <path d="M163.505833,539.415545 L160.2475,538.031591 C160.170833,537.993545 160.08625,537.900682 160.012917,537.779182 L162.189167,537.777545 C162.226667,537.780818 163.123333,537.861 163.842917,537.557045 C164.114583,537.442091 164.31625,537.215045 164.397917,536.934 C164.480833,536.649682 164.42875,536.349 164.25625,536.107636 C163.634583,535.239955 162.184167,532.969091 162.13875,530.667955 C162.137083,530.628273 162.005,526.713273 158.067917,526.680955 C157.48875,526.685864 156.953333,526.783227 156.465,526.960773 C156.359167,526.694045 156.202917,526.4175 155.968333,526.155273 C155.285,525.388227 154.173333,525 152.665833,525 C151.15875,525 150.04875,525.388227 149.36375,526.155273 C148.574167,527.038909 148.6475,528.111136 148.667083,528.290318 L148.667083,530.032227 C148.45375,530.270318 148.333333,530.5755 148.333333,530.890091 L148.333333,532.199182 C148.333333,532.598455 148.517083,532.969091 148.832917,533.217 C149.1375,534.404182 149.777083,535.299273 150,535.585227 L150,536.6685 C150,536.985136 149.824167,537.276 149.540833,537.427773 L146.5675,539.020773 C145.600417,539.538682 145,540.531136 145,541.612773 L145,543 L165,543 L165,541.790318 C165,540.778636 164.427083,539.869636 163.505833,539.415545 Z M159.66625,542.344636 L145.6675,542.344636 L145.6675,541.612773 C145.6675,540.7725 146.134583,539.998909 146.88625,539.596364 L149.86,538.002955 C150.357917,537.736227 150.6675,537.224864 150.6675,536.6685 L150.6675,535.353682 L150.589167,535.262455 C150.58125,535.252636 149.764167,534.282682 149.453333,532.950273 L149.422083,532.820591 L149.308333,532.748591 C149.114583,532.625864 149.000833,532.421318 149.000833,532.200818 L149.000833,530.890091 C149.000833,530.708045 149.07875,530.535409 149.22375,530.407773 L149.3325,530.31 L149.3325,528.272727 L149.33125,528.229773 C149.329583,528.221591 149.215417,527.313818 149.865,526.586864 C150.418333,525.968318 151.360833,525.655364 152.665833,525.655364 C153.967917,525.655364 154.90875,525.965045 155.462083,526.580318 C155.7375,526.8855 155.875833,527.225864 155.944167,527.518364 C155.94875,527.540864 155.955417,527.563364 155.95875,527.587091 C155.963333,527.609591 155.968333,527.633727 155.973333,527.655818 C155.976667,527.681591 155.98125,527.705318 155.984583,527.729455 C155.98625,527.747045 155.989583,527.764636 155.99125,527.780591 C155.99625,527.821909 156.000833,527.860364 156.0025,527.897182 C156.004167,527.900455 156.004167,527.902091 156.004167,527.905364 C156.005833,527.940545 156.0075,527.974091 156.009167,528.004364 C156.009167,528.0105 156.009167,528.015409 156.009167,528.021955 C156.009167,528.048955 156.009167,528.074727 156.009167,528.096818 L156.009167,528.106636 C156.0075,528.183136 156.0025,528.229773 156.0025,528.231 L155.999167,530.31 L156.11,530.409409 C156.253333,530.535409 156.332917,530.708045 156.332917,530.890091 L156.332917,532.200818 C156.332917,532.485136 156.1425,532.735909 155.859167,532.822227 L155.693333,532.871727 L155.639583,533.033318 C155.416667,533.714045 155.099167,534.343636 154.695833,534.902864 C154.59625,535.040318 154.500417,535.163455 154.415833,535.255909 L154.3325,535.348773 L154.3325,536.699182 C154.3325,536.782227 154.3425,536.863636 154.355417,536.943409 C154.357083,536.959364 154.362083,536.976955 154.365417,536.992909 C154.378333,537.058773 154.39625,537.124227 154.4175,537.186409 C154.422083,537.200727 154.427083,537.215045 154.43375,537.229773 C154.459583,537.298091 154.48875,537.365591 154.524583,537.427773 C154.527917,537.435545 154.532917,537.442091 154.53625,537.450273 C154.585,537.533318 154.640417,537.613091 154.70375,537.686727 L154.780417,537.779182 L154.793333,537.779182 C154.907083,537.889636 155.039167,537.985364 155.18875,538.059 L158.3725,539.621727 C159.171667,540.013227 159.66625,540.801136 159.66625,541.677 L159.66625,542.344636 Z M164.3325,542.344636 L160.33375,542.344636 L160.33375,541.677 C160.33375,540.552 159.695833,539.540318 158.671667,539.036727 L156.385,537.913364 C156.442083,537.787364 156.44875,537.643364 156.399583,537.502636 C156.318333,537.272727 156.105,537.124227 155.85625,537.124227 L155.117083,537.124227 C155.1025,537.096818 155.092917,537.068182 155.079583,537.039545 C155.063333,537.002727 155.04375,536.965909 155.0325,536.925818 C155.01125,536.852591 155,536.777318 155,536.699182 L155,535.593409 C155.076667,535.500545 155.15625,535.396636 155.239167,535.281682 C155.6525,534.709364 155.982917,534.072 156.224167,533.383091 C156.694167,533.172409 157.000417,532.715045 157.000417,532.200818 L157.000417,530.890091 C157.000417,530.5755 156.88,530.270318 156.666667,530.032227 L156.666667,528.290318 C156.675,528.208909 156.694167,527.941773 156.639167,527.590364 C157.06875,527.425909 157.54875,527.339591 158.067917,527.336318 C161.349167,527.361682 161.467917,530.546864 161.47125,530.681045 C161.521667,533.162591 163.053333,535.566 163.710833,536.483182 C163.767917,536.563364 163.784167,536.660727 163.758333,536.754818 C163.741667,536.807591 163.697917,536.905364 163.579167,536.9565 C163.019167,537.192955 162.259167,537.125864 162.22,537.124227 L159.926667,537.124227 C159.712083,537.124227 159.516667,537.231 159.4025,537.410182 C159.290417,537.587727 159.280417,537.806591 159.375,537.993545 C159.479167,538.199727 159.662917,538.475864 159.965833,538.624773 L163.21625,540.005455 C163.904583,540.347455 164.3325,541.031455 164.3325,541.790318 L164.3325,542.344636 Z" id="users"></path>
        </g>
    </g>
</svg>