<?xml version="1.0" encoding="utf-8"?>
<!-- Generator: Adobe Illustrator 23.0.1, SVG Export Plug-In . SVG Version: 6.00 Build 0)  -->
<svg version="1.1" id="Layer_1" xmlns="http://www.w3.org/2000/svg" xmlns:xlink="http://www.w3.org/1999/xlink" x="0px" y="0px"
	 viewBox="0 0 25 25" style="enable-background:new 0 0 25 25;" xml:space="preserve">
<style type="text/css">
	.st0{fill-rule:evenodd;clip-rule:evenodd;}
</style>
<g>
	<path class="st0" d="M21.9,10c-2.4-2.4-5.5-3.7-8.9-3.7c-3.4,0-6.5,1.3-8.9,3.7c-0.1,0.1-0.1,0.3,0,0.5c0.1,0.1,0.3,0.1,0.5,0
		C6.8,8.2,9.8,6.9,13,6.9c3.2,0,6.2,1.2,8.4,3.5c0.1,0.1,0.1,0.1,0.2,0.1c0.1,0,0.2,0,0.2-0.1C22,10.3,22,10.1,21.9,10z"/>
	<path class="st0" d="M6,11.9c-0.1,0.1-0.1,0.3,0,0.5c0.1,0.1,0.1,0.1,0.2,0.1c0.1,0,0.2,0,0.2-0.1c3.6-3.6,9.4-3.6,13,0
		c0.1,0.1,0.3,0.1,0.5,0c0.1-0.1,0.1-0.3,0-0.5C16.1,8,9.9,8,6,11.9z"/>
	<path class="st0" d="M13,11.7c-1.9,0-3.7,0.7-5,2.1c-0.1,0.1-0.1,0.3,0,0.5c0.1,0.1,0.3,0.1,0.5,0c1.2-1.2,2.8-1.9,4.6-1.9
		c1.7,0,3.4,0.7,4.6,1.9c0.1,0.1,0.1,0.1,0.2,0.1c0.1,0,0.2,0,0.2-0.1c0.1-0.1,0.1-0.3,0-0.5C16.7,12.5,14.9,11.7,13,11.7z"/>
	<path class="st0" d="M13,14.8c-1.2,0-2.1,1-2.1,2.1c0,1.2,1,2.1,2.1,2.1c1.2,0,2.1-1,2.1-2.1C15.1,15.8,14.2,14.8,13,14.8z
		 M13,18.4c-0.8,0-1.5-0.7-1.5-1.5c0-0.8,0.7-1.5,1.5-1.5c0.8,0,1.5,0.7,1.5,1.5C14.5,17.8,13.8,18.4,13,18.4z"/>
</g>
</svg>
