<svg xmlns="http://www.w3.org/2000/svg" width="15.556" height="16.69" viewBox="0 0 15.556 16.69">
  <path id="call" d="M13.813,11.617c-1.007-.862-2.033-1.387-3.028-.524l-.6.519c-.435.379-1.244,2.145-4.371-1.455S4.553,6,4.99,5.63l.6-.522c.99-.862.616-1.949-.1-3.068l-.43-.677C4.342.25,3.558-.483,2.566.377L2.029.847A5.026,5.026,0,0,0,.065,4.18c-.359,2.369.773,5.083,3.361,8.06s5.119,4.475,7.515,4.45a5.062,5.062,0,0,0,3.575-1.481l.537-.471c.992-.86.377-1.738-.633-2.6Z" transform="translate(0 0)" fill="#00aaf5"/>
</svg>
