<?xml version="1.0" encoding="iso-8859-1"?>
<!-- Generator: Adobe Illustrator 19.0.0, SVG Export Plug-In . SVG Version: 6.00 Build 0)  -->
<svg xmlns="http://www.w3.org/2000/svg" xmlns:xlink="http://www.w3.org/1999/xlink" version="1.1" id="Layer_1" x="0px" y="0px" viewBox="0 0 512 512" style="enable-background:new 0 0 512 512;" xml:space="preserve" width="512" height="512">
<g>
	<g>
		<g>
			<g>
				<g>
					<g>
						<g>
							<g>
								<path style="fill:#426175;" d="M421.819,466.662H156.588c-13.918,0-25.2-11.283-25.2-25.2V25.2          c0-13.918,11.282-25.2,25.2-25.2h265.231c13.918,0,25.2,11.282,25.2,25.2v416.262          C447.019,455.38,435.737,466.662,421.819,466.662z"/>
								<path style="fill:#2C4456;" d="M421.819,0h-49.707c13.918,0,25.2,11.282,25.2,25.2v416.262c0,13.918-11.283,25.2-25.2,25.2          h49.707c13.918,0,25.2-11.283,25.2-25.2V25.2C447.019,11.282,435.737,0,421.819,0z"/>
								<rect x="131.388" y="53.342" style="fill:#F2F2F2;" width="315.632" height="360.781"/>
								<rect x="397.312" y="53.342" style="fill:#CDD6DF;" width="49.707" height="360.781"/>
							</g>
						</g>
					</g>
					<path style="fill:#88DBFD;" d="M264.148,325.522H27.144c-13.838,0-25.055-11.218-25.055-25.055V135.602       c0-13.838,11.218-25.055,25.055-25.055h237.004c13.838,0,25.055,11.218,25.055,25.055v164.866       C289.203,314.305,277.986,325.522,264.148,325.522z"/>
					<path style="fill:#5ABFE9;" d="M264.148,110.546h-30.231v214.976h30.231c13.838,0,25.055-11.218,25.055-25.055V135.602       C289.203,121.764,277.986,110.546,264.148,110.546z"/>
				</g>
			</g>
			<g>
				<g>
					<g>
						<g>
							<g>
								<path style="fill:#426175;" d="M50.51,222.208l38.03-24.871c0.578-0.434,1.446-0.578,2.169-0.578          c3.036,0,6.941,3.181,6.941,7.23c0,1.735-0.867,3.326-2.169,4.193l-30.366,19.956l30.366,19.955          c1.302,0.723,2.169,2.314,2.169,4.193c0,4.049-3.904,7.086-6.941,7.086c-0.723,0-1.591-0.145-2.169-0.578l-38.03-24.871          c-2.169-1.446-3.182-3.904-3.182-5.784C47.328,226.257,48.341,223.655,50.51,222.208z"/>
								<path style="fill:#426175;" d="M178.044,162.343c0,0.868-0.144,1.592-0.578,2.314l-53.068,105.849          c-0.868,1.735-2.747,2.747-4.772,2.747c-3.326,0-5.64-2.747-5.64-5.35c0-0.723,0.145-1.447,0.434-2.169l53.213-106.283          c0.868-1.88,2.459-2.603,4.338-2.603C174.863,156.849,178.044,159.018,178.044,162.343z"/>
								<path style="fill:#426175;" d="M241.375,233.921l-38.031,24.871c-0.578,0.434-1.301,0.578-2.024,0.578          c-3.181,0-6.941-3.036-6.941-7.086c0-1.879,0.867-3.47,2.024-4.193l30.511-19.955l-30.511-19.956          c-1.157-0.867-2.024-2.458-2.024-4.193c0-4.049,3.76-7.23,6.941-7.23c0.723,0,1.446,0.145,2.024,0.578l38.031,24.871          c2.169,1.447,3.181,4.049,3.181,5.93C244.556,230.017,243.688,232.476,241.375,233.921z"/>
							</g>
						</g>
					</g>
				</g>
			</g>
			<g>
				<g>
					<g>
						<path style="fill:#FD715C;" d="M404.255,512c-7.623,0-13.825-6.202-13.825-13.825v-4.406c0-2.15-1.403-4.051-3.411-4.621        c-5.685-1.614-11.201-3.872-16.396-6.712c-0.676-0.369-1.442-0.564-2.216-0.564c-1.269,0-2.516,0.519-3.421,1.424        l-3.069,3.069c-2.611,2.611-6.083,4.049-9.776,4.049c-3.692,0-7.164-1.439-9.776-4.05l-7.51-7.51        c-2.611-2.611-4.049-6.082-4.049-9.775c0-3.693,1.438-7.165,4.049-9.775l3.069-3.069c1.5-1.5,1.854-3.819,0.86-5.637        c-2.84-5.196-5.099-10.712-6.713-16.396c-0.57-2.009-2.47-3.411-4.62-3.411h-4.406c-7.623,0-13.825-6.202-13.825-13.825        v-10.621c0-7.623,6.202-13.825,13.825-13.825h4.778c2.129,0,4.036-1.382,4.635-3.361c1.67-5.508,3.951-10.85,6.778-15.88        c1.037-1.843,0.7-4.191-0.819-5.71l-3.563-3.563c-2.611-2.611-4.049-6.082-4.049-9.775c0-3.694,1.438-7.165,4.049-9.776        l7.51-7.51c2.611-2.611,6.083-4.05,9.776-4.05c3.693,0,7.165,1.439,9.776,4.05l3.968,3.968c0.903,0.903,2.147,1.42,3.415,1.42        c0.772,0,1.508-0.183,2.188-0.544c4.929-2.618,10.148-4.718,15.511-6.243c2.02-0.574,3.43-2.47,3.43-4.61v-5.803        c0-7.623,6.202-13.825,13.825-13.825h10.621c7.623,0,13.825,6.202,13.825,13.825v6.206c0,2.102,1.377,3.987,3.349,4.585        c5.2,1.575,10.26,3.696,15.038,6.306c0.693,0.379,1.477,0.579,2.266,0.579c1.286,0,2.497-0.502,3.409-1.415l4.451-4.45        c2.611-2.611,6.082-4.049,9.775-4.049s7.165,1.439,9.776,4.05l7.51,7.509c5.39,5.391,5.39,14.162,0,19.552l-4.45,4.45        c-1.499,1.499-1.843,3.834-0.837,5.676c2.61,4.779,4.732,9.839,6.307,15.038c0.597,1.972,2.483,3.349,4.585,3.349h6.206        c7.623,0,13.825,6.202,13.825,13.825v10.621c0,7.623-6.202,13.825-13.825,13.825h-5.803c-2.14,0-4.035,1.41-4.609,3.43        c-1.525,5.362-3.625,10.58-6.243,15.512c-0.965,1.818-0.605,4.122,0.876,5.603l3.969,3.969        c2.611,2.611,4.049,6.082,4.049,9.775s-1.438,7.165-4.05,9.776l-7.51,7.51c-2.611,2.611-6.083,4.05-9.776,4.05        s-7.165-1.439-9.776-4.05l-3.563-3.563c-0.915-0.915-2.128-1.418-3.416-1.418c-0.804,0-1.597,0.207-2.295,0.599        c-5.029,2.828-10.372,5.108-15.879,6.778c-1.979,0.6-3.361,2.506-3.361,4.636v4.778c0,7.623-6.202,13.825-13.825,13.825        H404.255z M409.565,379.161c-17.917,0-32.493,14.577-32.493,32.493c0,17.917,14.576,32.494,32.493,32.494        c17.917,0,32.493-14.577,32.493-32.494C442.058,393.737,427.482,379.161,409.565,379.161z"/>
					</g>
				</g>
			</g>
		</g>
	</g>
</g>















</svg>
