<svg enable-background="new 0 0 32 32" height="512" viewBox="0 0 32 32" width="512" xmlns="http://www.w3.org/2000/svg"><path d="m26 32h-20c-3.314 0-6-2.686-6-6v-20c0-3.314 2.686-6 6-6h20c3.314 0 6 2.686 6 6v20c0 3.314-2.686 6-6 6z" fill="#ffe6e2"/><path d="m22.833 8h-8.333c-.643 0-1.167.523-1.167 1.167v1.667c0 .643.523 1.167 1.167 1.167h8.333c.644-.001 1.167-.524 1.167-1.168v-1.666c0-.644-.523-1.167-1.167-1.167z" fill="#fc573b"/><circle cx="10" cy="10" fill="#fc573b" r="2"/><g fill="#fd907e"><path d="m23.5 13h-6.333c-.276 0-.5.224-.5.5s.224.5.5.5h6.333c.276 0 .5-.224.5-.5s-.224-.5-.5-.5z"/><path d="m23.5 15h-6.333c-.276 0-.5.224-.5.5s.224.5.5.5h6.333c.276 0 .5-.224.5-.5s-.224-.5-.5-.5z"/><path d="m23.5 17h-6.333c-.276 0-.5.224-.5.5s.224.5.5.5h6.333c.276 0 .5-.224.5-.5s-.224-.5-.5-.5z"/><path d="m23.5 19h-15c-.276 0-.5.224-.5.5s.224.5.5.5h15c.276 0 .5-.224.5-.5s-.224-.5-.5-.5z"/><path d="m23.5 21h-15c-.276 0-.5.224-.5.5s.224.5.5.5h15c.276 0 .5-.224.5-.5s-.224-.5-.5-.5z"/></g><path d="m9.167 18h5c.643 0 1.167-.523 1.167-1.167v-2.667c0-.643-.523-1.167-1.167-1.167h-5c-.644.001-1.167.524-1.167 1.168v2.667c0 .643.523 1.166 1.167 1.166z" fill="#fc573b"/><path d="m23.5 23h-15c-.276 0-.5.224-.5.5s.224.5.5.5h15c.276 0 .5-.224.5-.5s-.224-.5-.5-.5z" fill="#fd907e"/></svg>