<svg height="512pt" viewBox="0 0 512 512" width="512pt" xmlns="http://www.w3.org/2000/svg"><path d="m407 451h-61v-30h61c24.8125 0 45-20.1875 45-45v-60h30v60c0 41.351562-33.648438 75-75 75zm0 0" fill="#293939"/><path d="m0 121h240v391h-240zm0 0" fill="#ff641a"/><path d="m120 121h120v391h-120zm0 0" fill="#f03800"/><path d="m120 0v211h392v-211zm0 0" fill="#76e2f8"/><path d="m316 0h196v211h-196zm0 0" fill="#4bb9ec"/><path d="m301 151h-121v-90h121zm0 0" fill="#e6ffff"/><g fill="#d9f2ff"><path d="m60 361v90h120v-90zm0 0"/><path d="m331 61h121v30h-121zm0 0"/><path d="m331 121h121v30h-121zm0 0"/><path d="m60 301h120v30h-120zm0 0"/><path d="m60 241h120v30h-120zm0 0"/></g><path d="m120 241h60v30h-60zm0 0" fill="#cdf"/><path d="m120 301h60v30h-60zm0 0" fill="#cdf"/><path d="m120 361h60v90h-60zm0 0" fill="#cdf"/><path d="m512 331h-90l45-108.546875zm0 0" fill="#293939"/><path d="m361 481-109.546875-45 109.546875-45zm0 0" fill="#293939"/></svg>