<svg height="512pt" viewBox="-7 0 512 512" width="512pt" xmlns="http://www.w3.org/2000/svg"><path d="m432.808594 429.273438c38.238281-43.21875 61.464844-100.03125 61.464844-162.273438 0-135.308594-109.691407-245-245-245-135.3125 0-245 109.691406-245 245 0 62.246094 23.222656 119.054688 61.464843 162.273438zm0 0" fill="#1d3ba8"/><path d="m485.839844 7.5h-22.519532c-2.875 0-5.203124 2.328125-5.203124 5.203125v22.519531c0 2.875 2.328124 5.203125 5.203124 5.203125h22.519532c2.875 0 5.203125-2.328125 5.203125-5.203125v-22.519531c0-2.875-2.328125-5.203125-5.203125-5.203125zm0 0" fill="#e8f3fc"/><path d="m35.226562 7.5h-22.523437c-2.875 0-5.203125 2.328125-5.203125 5.203125v22.519531c0 2.875 2.328125 5.203125 5.203125 5.203125h22.523437c2.871094 0 5.199219-2.328125 5.199219-5.203125v-22.519531c0-2.875-2.328125-5.203125-5.199219-5.203125zm0 0" fill="#e8f3fc"/><path d="m485.839844 47.925781h-22.519532c-7.003906 0-12.703124-5.695312-12.703124-12.699219v-22.523437c0-7.003906 5.699218-12.703125 12.703124-12.703125h22.519532c7.003906 0 12.703125 5.699219 12.703125 12.703125v22.523437c0 7.003907-5.699219 12.699219-12.703125 12.699219zm-20.222656-15h17.925781v-17.925781h-17.925781zm20.222656-17.925781h.011718zm0 0" fill="#e5387f"/><path d="m35.226562 47.925781h-22.523437c-7.003906 0-12.703125-5.695312-12.703125-12.699219v-22.523437c0-7.003906 5.699219-12.703125 12.703125-12.703125h22.523437c7.003907 0 12.699219 5.699219 12.699219 12.703125v22.523437c0 7.003907-5.695312 12.699219-12.699219 12.699219zm-20.226562-15h17.925781v-17.925781h-17.925781zm20.226562-17.925781h.007813zm0 0" fill="#e5387f"/><g fill="#ef4a8a"><path d="m23.964844 354.972656c-4.144532 0-7.5-3.308594-7.5-7.453125v-.097656c0-4.144531 3.355468-7.5 7.5-7.5 4.140625 0 7.5 3.355469 7.5 7.5s-3.359375 7.550781-7.5 7.550781zm0-34.613281c-4.144532 0-7.5-3.308594-7.5-7.449219v-.101562c0-4.140625 3.355468-7.5 7.5-7.5 4.140625 0 7.5 3.359375 7.5 7.5 0 4.144531-3.359375 7.550781-7.5 7.550781zm0-34.613281c-4.144532 0-7.5-3.304688-7.5-7.449219v-.097656c0-4.144531 3.355468-7.5 7.5-7.5 4.140625 0 7.5 3.355469 7.5 7.5s-3.359375 7.546875-7.5 7.546875zm0-34.609375c-4.144532 0-7.5-3.308594-7.5-7.453125v-.097656c0-4.144532 3.355468-7.5 7.5-7.5 4.140625 0 7.5 3.355468 7.5 7.5 0 4.144531-3.359375 7.550781-7.5 7.550781zm0-34.613281c-4.144532 0-7.5-3.308594-7.5-7.449219v-.101563c0-4.140625 3.355468-7.5 7.5-7.5 4.140625 0 7.5 3.359375 7.5 7.5 0 4.144532-3.359375 7.550782-7.5 7.550782zm0-34.613282c-4.144532 0-7.5-3.304687-7.5-7.449218v-.097657c0-4.144531 3.355468-7.5 7.5-7.5 4.140625 0 7.5 3.355469 7.5 7.5s-3.359375 7.546875-7.5 7.546875zm0-34.609375c-4.144532 0-7.5-3.308593-7.5-7.449219v-.101562c0-4.140625 3.355468-7.5 7.5-7.5 4.140625 0 7.5 3.359375 7.5 7.5 0 4.144531-3.359375 7.550781-7.5 7.550781zm0-34.613281c-4.144532 0-7.5-3.308594-7.5-7.449219v-.097656c0-4.144531 3.355468-7.5 7.5-7.5 4.140625 0 7.5 3.355469 7.5 7.5 0 4.140625-3.359375 7.546875-7.5 7.546875zm0-34.613281c-4.144532 0-7.5-3.304688-7.5-7.449219v-.097656c0-4.144532 3.355468-7.5 7.5-7.5 4.140625 0 7.5 3.355468 7.5 7.5 0 4.144531-3.359375 7.546875-7.5 7.546875zm0 0"/><path d="m427.082031 31.464844h-.101562c-4.144531 0-7.5-3.359375-7.5-7.5 0-4.144532 3.355469-7.5 7.5-7.5h.101562c4.140625 0 7.5 3.355468 7.5 7.5 0 4.140625-3.359375 7.5-7.5 7.5zm-35.554687 0h-.101563c-4.140625 0-7.5-3.359375-7.5-7.5 0-4.144532 3.359375-7.5 7.5-7.5h.101563c4.144531 0 7.5 3.355468 7.5 7.5 0 4.140625-3.355469 7.5-7.5 7.5zm-35.550782 0h-.101562c-4.144531 0-7.5-3.359375-7.5-7.5 0-4.144532 3.355469-7.5 7.5-7.5h.101562c4.144532 0 7.5 3.355468 7.5 7.5 0 4.140625-3.355468 7.5-7.5 7.5zm-35.550781 0h-.101562c-4.144531 0-7.5-3.359375-7.5-7.5 0-4.144532 3.355469-7.5 7.5-7.5h.101562c4.144531 0 7.5 3.355468 7.5 7.5 0 4.140625-3.355469 7.5-7.5 7.5zm-35.550781 0h-.101562c-4.144532 0-7.5-3.359375-7.5-7.5 0-4.144532 3.355468-7.5 7.5-7.5h.101562c4.144531 0 7.5 3.355468 7.5 7.5 0 4.140625-3.359375 7.5-7.5 7.5zm-35.550781 0h-.101563c-4.144531 0-7.5-3.359375-7.5-7.5 0-4.144532 3.355469-7.5 7.5-7.5h.101563c4.140625 0 7.5 3.355468 7.5 7.5 0 4.140625-3.359375 7.5-7.5 7.5zm-35.554688 0h-.097656c-4.144531 0-7.5-3.359375-7.5-7.5 0-4.144532 3.355469-7.5 7.5-7.5h.097656c4.144531 0 7.5 3.355468 7.5 7.5 0 4.140625-3.355469 7.5-7.5 7.5zm-35.550781 0h-.101562c-4.140626 0-7.5-3.359375-7.5-7.5 0-4.144532 3.359374-7.5 7.5-7.5h.101562c4.144531 0 7.5 3.355468 7.5 7.5 0 4.140625-3.355469 7.5-7.5 7.5zm-35.550781 0h-.101563c-4.140625 0-7.5-3.359375-7.5-7.5 0-4.144532 3.359375-7.5 7.5-7.5h.101563c4.144531 0 7.5 3.355468 7.5 7.5 0 4.140625-3.355469 7.5-7.5 7.5zm-35.550781 0h-.101563c-4.140625 0-7.5-3.359375-7.5-7.5 0-4.144532 3.359375-7.5 7.5-7.5h.101563c4.144531 0 7.5 3.355468 7.5 7.5 0 4.140625-3.359376 7.5-7.5 7.5zm-35.550782 0h-.101562c-4.144532 0-7.5-3.359375-7.5-7.5 0-4.144532 3.355468-7.5 7.5-7.5h.101562c4.144532 0 7.5 3.355468 7.5 7.5 0 4.140625-3.355468 7.5-7.5 7.5zm0 0"/><path d="m474.578125 355.019531c-4.140625 0-7.5-3.355469-7.5-7.5 0-4.140625 3.359375-7.546875 7.5-7.546875 4.144531 0 7.5 3.308594 7.5 7.449219v.097656c0 4.144531-3.355469 7.5-7.5 7.5zm0-34.609375c-4.140625 0-7.5-3.359375-7.5-7.5 0-4.144531 3.359375-7.550781 7.5-7.550781 4.144531 0 7.5 3.308594 7.5 7.449219v.101562c0 4.140625-3.355469 7.5-7.5 7.5zm0-34.613281c-4.140625 0-7.5-3.355469-7.5-7.5 0-4.140625 3.359375-7.550781 7.5-7.550781 4.144531 0 7.5 3.308594 7.5 7.453125v.097656c0 4.140625-3.355469 7.5-7.5 7.5zm0-34.613281c-4.140625 0-7.5-3.355469-7.5-7.5 0-4.140625 3.359375-7.546875 7.5-7.546875 4.144531 0 7.5 3.308593 7.5 7.449219v.097656c0 4.144531-3.355469 7.5-7.5 7.5zm0-34.609375c-4.140625 0-7.5-3.359375-7.5-7.5 0-4.144531 3.359375-7.550781 7.5-7.550781 4.144531 0 7.5 3.308593 7.5 7.449218v.101563c0 4.140625-3.355469 7.5-7.5 7.5zm0-34.613281c-4.140625 0-7.5-3.355469-7.5-7.5 0-4.140626 3.359375-7.550782 7.5-7.550782 4.144531 0 7.5 3.3125 7.5 7.453125v.097657c0 4.144531-3.355469 7.5-7.5 7.5zm0-34.613282c-4.140625 0-7.5-3.355468-7.5-7.5 0-4.140625 3.359375-7.546875 7.5-7.546875 4.144531 0 7.5 3.308594 7.5 7.449219v.097656c0 4.144532-3.355469 7.5-7.5 7.5zm0-34.609375c-4.140625 0-7.5-3.355469-7.5-7.5s3.359375-7.550781 7.5-7.550781c4.144531 0 7.5 3.308594 7.5 7.453125v.097656c0 4.144531-3.355469 7.5-7.5 7.5zm0-34.613281c-4.140625 0-7.5-3.355469-7.5-7.5 0-4.140625 3.359375-7.550781 7.5-7.550781 4.144531 0 7.5 3.3125 7.5 7.453125v.097656c0 4.144531-3.355469 7.5-7.5 7.5zm0 0"/></g><path d="m428.628906 63.964844h-358.714844c-3.285156 0-5.949218 2.664062-5.949218 5.949218v278.226563c.042968-.140625 6.320312-19.867187 58.597656-43.5 50.746094-22.9375 73.917969-60.785156 84.359375-87.628906 4.859375-12.5 19.777344-17.625 31.195313-10.582031l.113281.066406c6.785156 4.1875 15.335937 4.246094 22.179687.160156l.347656-.207031c11.367188-6.789063 26.085938-1.71875 30.886719 10.621093 6.480469 16.636719 17.855469 37.488282 37.640625 56.394532 12.804688-7.238282 23.410156-15.617188 32.113282-24.128906 6.300781-6.164063 16.441406-6.164063 22.742187 0 12.554687 12.28125 29.0625 24.285156 50.4375 32.988281v-212.410157c0-3.285156-2.664063-5.949218-5.949219-5.949218zm0 0" fill="#55f3ff"/><path d="m118.921875 69.914062c0-3.285156 2.664063-5.949218 5.953125-5.949218h-54.960938c-3.285156 0-5.949218 2.664062-5.949218 5.949218v278.226563c.042968-.136719 6.03125-18.941406 54.957031-41.820313zm0 0" fill="#05b8e2"/><path d="m370.824219 140.34375c0 18.390625-14.90625 33.296875-33.296875 33.296875s-33.296875-14.90625-33.296875-33.296875 14.90625-33.296875 33.296875-33.296875 33.296875 14.90625 33.296875 33.296875zm0 0" fill="#fce275"/><path d="m349.671875 149.359375c-11.6875 0-21.15625-9.472656-21.15625-21.15625 0-9.84375 6.730469-18.089844 15.832031-20.457031-2.199218-.457032-4.480468-.699219-6.820312-.699219-18.386719 0-33.296875 14.90625-33.296875 33.296875s14.910156 33.296875 33.296875 33.296875c18.390625 0 33.300781-14.90625 33.300781-33.296875 0-2.335938-.242187-4.617188-.703125-6.820312-2.363281 9.105468-10.613281 15.835937-20.453125 15.835937zm0 0" fill="#f9ce00"/><path d="m376.214844 306.421875c40.65625 18.378906 54.179687 34.453125 58.363281 41.210937v-67.308593c-21.371094-8.703125-37.882813-20.707031-50.4375-32.988281-6.300781-6.164063-16.441406-6.164063-22.742187 0-9.277344 9.074218-20.71875 17.996093-34.679688 25.550781 12.691406 12.476562 28.863281 24.210937 49.496094 33.535156zm0 0" fill="#82b218"/><path d="m370.179688 292.226562c0-15.558593 12.609374-28.167968 28.167968-28.167968 2.640625 0 5.191406.371094 7.617188 1.050781-8.332032-5.605469-15.570313-11.65625-21.824219-17.773437-6.300781-6.164063-16.441406-6.164063-22.742187 0-9.277344 9.074218-20.71875 17.996093-34.679688 25.550781 12.082031 11.875 27.324219 23.074219 46.554688 32.167969-1.972657-3.851563-3.09375-8.207032-3.09375-12.828126zm0 0" fill="#79a00d"/><path d="m375.980469 302.640625c-50.707031-22.921875-73.882813-60.730469-84.335938-87.570313-4.800781-12.339843-19.519531-17.410156-30.886719-10.621093l-.347656.207031c-6.84375 4.085938-15.394531 4.027344-22.179687-.160156l-.113281-.066406c-11.417969-7.042969-26.335938-1.917969-31.195313 10.578124-10.441406 26.847657-33.609375 64.691407-84.359375 87.632813-52.460938 23.714844-58.597656 43.5-58.597656 43.5v55.5s81.347656-76 185.308594 0c103.957031-76 185.304687 0 185.304687 0v-55.5s-6.136719-19.78125-58.597656-43.5zm0 0" fill="#9dc422"/><path d="m164.898438 325.789062c42.722656-28.175781 62.230468-74.660156 71.019531-107.636718 1.3125-4.925782 3.5-8.914063 6.179687-11.78125-1.332031-.488282-2.628906-1.109375-3.867187-1.871094l-.113281-.070312c-11.417969-7.039063-26.335938-1.917969-31.195313 10.582031-10.441406 26.84375-33.613281 64.691406-84.359375 87.632812-52.460938 23.714844-58.597656 43.5-58.597656 43.5v55.5s20.460937-19.113281 53.96875-28.582031c4.347656-9.023438 16.1875-26.972656 46.964844-47.273438zm0 0" fill="#82b218"/><path d="m434.578125 398.640625s-81.347656 76-185.304687 0c-103.960938-76-185.308594 0-185.308594 0v28.632813c44.921875 51.894531 111.28125 84.726562 185.308594 84.726562 74.023437 0 140.382812-32.832031 185.304687-84.726562zm0 0" fill="#5488e2"/><path d="m118.921875 369.789062c-34.089844 9.371094-54.957031 28.851563-54.957031 28.851563v28.632813c15.847656 18.308593 34.375 34.230468 54.957031 47.191406zm0 0" fill="#406bcc"/><path d="m434.578125 398.640625s-81.347656-76-185.304687 0c103.957031 76 185.304687 0 185.304687 0zm0 0" fill="#406bcc"/><path d="m337.800781 398.640625c0-14.683594 8.832031-27.296875 21.472657-32.835937-30.566407-3.613282-68.476563 2.480468-110 32.835937 41.523437 30.359375 79.433593 36.453125 110 32.835937-12.640626-5.535156-21.472657-18.152343-21.472657-32.835937zm0 0" fill="#1d3ba8"/><path d="m472.457031 40.425781c0-3.105469 1.554688-5.847656 3.925781-7.5h-10.765624v-17.925781h11.03125c-2.519532-1.628906-4.191407-4.453125-4.191407-7.675781 0-3.003907 1.453125-5.660157 3.6875-7.324219h-12.828125c-7.003906 0-12.703125 5.699219-12.703125 12.703125v22.519531c0 7.003906 5.699219 12.703125 12.703125 12.703125h13.066406c-2.371093-1.648437-3.925781-4.390625-3.925781-7.5zm0 0" fill="#d32976"/><path d="m21.84375 40.425781c0-3.105469 1.550781-5.847656 3.921875-7.5h-10.765625v-17.925781h11.03125c-2.519531-1.628906-4.1875-4.453125-4.1875-7.675781 0-3.003907 1.453125-5.660157 3.6875-7.324219h-12.828125c-7.003906 0-12.703125 5.699219-12.703125 12.703125v22.519531c0 7.003906 5.699219 12.703125 12.703125 12.703125h13.0625c-2.371094-1.648437-3.921875-4.390625-3.921875-7.5zm0 0" fill="#d32976"/></svg>