<?xml version="1.0" encoding="utf-8"?>
<!-- Generator: Adobe Illustrator 23.0.0, SVG Export Plug-In . SVG Version: 6.00 Build 0)  -->
<svg version="1.1" id="Layer_1" xmlns="http://www.w3.org/2000/svg" xmlns:xlink="http://www.w3.org/1999/xlink" x="0px" y="0px"
	 viewBox="0 0 474 519.5" style="enable-background:new 0 0 474 519.5;" xml:space="preserve">
<style type="text/css">
	.st0{fill-rule:evenodd;clip-rule:evenodd;fill:#050505;}
	.st1{fill-rule:evenodd;clip-rule:evenodd;fill:#050505;stroke:#000000;}
	.st2{fill-rule:evenodd;clip-rule:evenodd;fill:#FFF337;}
	.st3{filter:url(#Adobe_OpacityMaskFilter);}
	.st4{fill-rule:evenodd;clip-rule:evenodd;fill:#FFFFFF;}
	.st5{mask:url(#b_1_);fill-rule:evenodd;clip-rule:evenodd;fill:#36F2B9;}
	.st6{fill-rule:evenodd;clip-rule:evenodd;fill:#FEFEFE;}
	.st7{fill-rule:evenodd;clip-rule:evenodd;fill:#36F2B9;}
</style>
<g>
	<path class="st0" d="M128.8,113.1c1.8,0.1,2.5,0.4,2.5,2.4c0,12.2,0.5,24.4,0.3,36.6c-0.3,17.1-1,34.3-1.5,51.4
		c0,1.3-0.1,2.8,0.7,3.8c0.5,0.7,1.8,1.7,2.6,0.8c0.2-0.3,0.4-0.7,0.4-1c0.3-1.6,0.5-3.3,0.6-4.9c0.1-1.6,0.1-3.2,0.2-4.8
		c0.3-4.5,0.6-9.1,0.8-13.6c0.4-9,0.6-18.1,0.8-27.1c0.1-9,0.1-18,0.1-27.1c0-5-0.1-9.9-0.1-14.9c0-4.6-1.4-6.1-6.3-6.3
		c-10.3-0.5-20.5-1.9-30.9-1.8c-6,0-11.9,0.1-17.9-0.2c-20.5-1.2-40.9-2-61.5-1.5c-2.6,0.1-5.2-0.1-7.8,0.7
		c-1.4,0.4-3.2,0.5-2.9,2.4c0.3,1.8,2.1,1.7,3.6,1.6c30.3-0.9,60.4,2.1,90.7,2.4C111.7,112,120.3,112.8,128.8,113.1"/>
	<path class="st1" d="M279.9,105c-2.4,0.6-4.7,0.7-8.2,0.4c16-9.6,34.1-8.4,44.1,9.3c1.1,2,2.1,4.1,2.7,6.3c0.4,1.4,0.8,3.4-1.3,4
		c-2.1,0.7-2.9-1.1-3.4-2.5c-1-2.8-2.3-5.3-4-7.7C302.6,104.6,294.1,101.7,279.9,105 M319.7,132.8c0.2,1.8-0.9,2.8-2.4,2.9
		c-1.7,0.1-2.9-0.9-3-2.8c-0.1-1.6,1.1-2.1,2.4-2.5C317.9,130.9,319.5,130.9,319.7,132.8 M131.2,275.4c0.8-0.6,1.7-1,2.6-1.5
		c7.1-3.6,13.9-7.7,20.7-11.9c1.6-1,3.9-3.3,5.3-1.4c1.5,2.1-1.8,3-3.2,4.1c-6.6,5.3-14.1,9-21.7,12.7c-0.8,0.4-1.6,0.6-2.3,0.9
		c-0.9,0.1-1.5-0.3-1.9-1C130.2,276.5,130.7,275.8,131.2,275.4 M145.7,207.1c1.3-1.5,2.7-0.6,3.9,0c12.3,5.3,22.4,14.5,28.6,26.3
		c0.9,1.7,1.7,3.5,2.5,5.3c0.8,1.8,1.5,3.7,2,5.7c0.7,2.8-0.7,4-3.2,4.1c-4.5-0.7-8.6-2.1-12.1-4.8c-5.1-3.9-9.5-8.6-13.1-13.9
		c-3.7-5.5-6-11.6-8.2-17.9c-0.1-0.3-0.2-0.6-0.3-0.9C145.3,209.9,144.7,208.3,145.7,207.1 M171.9,254.4c-0.5,2.8-3.1,3.4-4.9,4.7
		c-1.2-0.1-2.3-0.8-1.9-1.4c1.3-2,3.2-3.4,5.4-4.5C171.3,252.9,172,253.8,171.9,254.4 M248.4,121.5c0.9,1.8-1.8,3.1-2.8,1.4
		c-0.5-0.9-1-1.7-1.6-2.5c-0.6-0.7-1-1.7-0.1-2.3c0.8-0.6,1.9-0.4,2.5,0.4C247.2,119.5,247.9,120.5,248.4,121.5 M237.6,120.6
		c-0.4-0.5-0.1-1.5,0.7-1.8c1.2-0.5,2.3-0.2,3.1,0.9c1.4,1.8,2.4,3.7,3.1,6c0.5,1.7-1.8,2.8-2.8,1.3
		C240.1,124.8,239.2,122.5,237.6,120.6 M224.5,181.3c-6.2,2.7-13.4,2.2-20-0.1c-4-1.4-4.8-3.6-2.7-7.4c3-5.4,6.1-10.8,9.4-16.1
		c4.2-6.7,6.5-13.8,6.3-21.7c-0.2-4.8,0.3-9.6,1.5-14.2c0.8-2.8,0.5-3.7,0-4c9.8,4.8,17.5,10.5,17.9,22.6c0.3,7.7,0.1,15.4,0.7,23
		C238.3,172.4,233.1,177.5,224.5,181.3 M224.8,204.5c-2.7,3.1-6.4,4.1-10.2,4.9c-1.3,0.3-2.3-0.2-2.6-1.6c-0.2-1.3,0.5-1.7,1.7-1.9
		c3.3-0.6,6.3-1.8,9-3.8c1.2-0.9,2.5-1,3.6,0.4C225.7,203.3,225.3,203.9,224.8,204.5 M221.7,92.8c1.1,0.2,1.8,0.9,1.8,2.1
		c-0.2,1.1-0.9,1.8-2,1.9c-1.2,0.1-1.9-0.8-1.9-1.9C219.6,93.7,220.2,92.6,221.7,92.8 M215.4,96.1c-1.7,1.5-1.9,3.1-1,5
		c0.6,1.1,0.2,2-0.8,2.5c-1.2,0.6-1.9-0.3-2.4-1.1c-1.2-2.2-1.9-4.5-0.7-7c0.7-1.4,1.8-2.2,3.4-2.2c0.9,0,1.8-0.1,2.3,0.9
		C216.5,95.1,215.8,95.7,215.4,96.1 M326.3,255.9c-3.3-7.8-7.3-15.3-9.9-23.4c-6-18.7-7.7-37.6-1-56.5c3.3-9.4,5.7-19,8.1-28.6
		c2.7-10.9,4.9-21.6,0.4-32.7c-6.9-17-18.8-24.4-33.7-23.5c-9.2,0.5-18.3,2.7-27.5,3.6c-10.7,1-21.4,1.8-31.5-3.3
		c-3.1-1.6-6.2-3.2-9.5-4.1c-11.3-3-16.9,0.4-16,13.1c0.6,8.2,6.1,13,12.5,17.2c-2.6,0.4-3.5,2.5-4,4.6c-0.7,2.7-1.3,5.4-1.2,8.1
		c0.4,11.4-2.5,21.7-9.1,31c-1.9,2.6-3.3,5.4-4.9,8.2c-5.2,8.9-3.3,14.1,6.4,17.1c1.9,0.6,2.5,1.2,2.5,3.1c-0.3,11,1.9,21.9,1.9,33
		c0,7.1,5.1,15.3,16.1,14.3c6.4-0.6,12-3.1,17.4-6.2c1.2-0.7,3.2-2.2,4.7-1.8c1.5,0.4,1.5,2.7,1.8,4c0.8,4.4,0.6,8.9,0.2,13.3
		c-0.3,3.3-0.7,6.5-1.3,9.7c-0.5,2.9-1,6.3-2.6,8.8c-2,3.8-5.1,6.7-8.7,8.9c-18.6,11.3-32.4,27.1-40.5,47.5
		c-7.7,19.4-11.9,39.8-16.7,60c-0.5,2.1-1.1,4.2-1.8,6.4c-16.9-24.8-33.9-49.4-43.9-78.2c-2.2,1.4-2,2.7-1.7,4.2
		c1.1,6.7,3.3,13.1,6.2,19.3c0.9,1.9,1.1,3.6,0.2,5.7c-9,20.4-23.1,37-38.5,52.6c-1.7,1.7-2.2,1-2.8-0.9c-1.2-3.7-2.6-7.3-3.8-11
		c-8.3-26.5-10.5-53.6-6.5-81.1c1.8-12.2,3.8-24.3,6.4-36.3c1.4-6.6,0.7-13.7,4.3-19.7c1.4-2.3,2.1-6.4,5.6-5.7
		c2.9,0.6,2.7,4.4,2.9,7.1c0.7,7.6,0.9,15.1,4.3,22.3c3.7,8,6.1,16.6-2.7,23.6c-1.4,1.1-1.4,2.9-0.2,4.3c1.3,1.5,2.9,1.2,4.3,0.1
		c1-0.7,5.5-4,8.8-6.9c0.4-0.3,1.3,0.8,2.2,1.4c0.9,0.7,2.2,0.3,3.4-0.1c19.5-7.6,37.8-17.2,53-31.8c9.6-9.2,9.9-10.7,4-22.1
		c-0.3-0.6-0.5-1.3-0.9-2c-7.4-14.3-18.1-25-33.5-30.5c-2.6-0.9-5.8-0.7-7.9,1.1c-1.1,0.9-2.1,1.9-3.1,2.9c-2.6,2.7-5.1,5.6-7.6,8.5
		c-6.8,8.2-13.5,16.5-19.4,25.3c0,0,0,0.1-0.1,0.1c-0.8-1.5-1.2-2.3-1.7-3.2c-3.6-6.5-8.4-6.7-12.5-0.4c-2.1,3.2-3.5,6.6-4.3,10.3
		c-2.2,10.4-4.5,20.9-6.6,31.3c-5.4,26-7.4,52.2-2,78.5c0.6,2.8-0.3,4.6-2.1,6.5c-6,6-10.5,13.1-14.1,20.7c-2.9,6.3-4,13-3.1,19.9
		c0.7,5.5,4.5,8.8,10,8.9c5,0.1,9.3-2.1,13.3-4.8c5.6-3.7,10.7-8.1,15.4-12.8c16.1-16.2,30.8-33.4,39.4-54.8
		c17.4,30.1,37.1,58.9,54.1,89.7c0.6,1.2,2.5,0.3,1.9-0.9c-0.2-0.4-0.4-0.8-0.6-1.1c-4.7-10.5-9.4-21-14.9-31.2
		c-1.1-2-1.5-3.6-0.9-6.1c1.8-6.5,3.1-13.2,4.6-19.8c3.6-15.6,8.1-31,13.6-46c10.3-28.3,31.7-45.3,58.1-57.1
		c9.5-4.3,19.7-5.7,30.2-5.4c4.2,0.1,8.4,0,12.7,0c1.8,0,3.3-0.4,3.4-2.5c0.1-2-1.2-2.8-3.1-2.8c-11.2,0.2-22.4-0.9-33.4,1.8
		c-6.1,1.5-11,3-17.4,5.4c0.6-0.2,0.6-2,0.6-2.5c0.1-1.3,0.3-2.7,0.5-4c0.4-3.1,0.9-6.2,1.5-9.2c1.1-7,2-15-1.2-21.6
		c-1.1-2.3-1.5-2,0.4-3.6c7.1-5.9,9.3-13.4,6.8-22.2c-1.4-5-2.8-10-4.1-15c-1.7-6.7-2.4-13.4,0.6-20c1.7-3.8,7.5-7.4,10.9-6.5
		c4.1,1.1,6.3,4.3,6.7,8.2c0.4,3.5-0.8,6.9-3.2,9.6c-2.1,2.3-1.7,4.3,0.1,6.5c1.2,1.5,2.8,2.6,4.4,3.5c6.9,4,14.2,7.1,21.8,9.4
		c3.3,1,6.7,1.7,10.2,1.3c0.1,3.5,0.2,6.9,0.5,10.4c0.1,1.3,0.5,2.6,0.6,3.9c1.8,16,7.9,30.6,14.9,44.9c0.7,1.4,1.7,2.5,3.4,1.6
		C328.4,258.1,326.7,256.8,326.3,255.9"/>
	<path class="st2" d="M449.2,62.8c-0.2-1.5-0.8-2.6-2.4-2.5c-1.9,0.1-2.9,1.4-3.1,3.1c-0.2,1.6,0.9,2.4,2.4,2.4
		C447.9,65.7,449,64.7,449.2,62.8 M372.9,30.5c6.6,8.4,7.3,8.5,14.5,1.1c1.3-1.3,1.7-0.3,2.4,0.2c3.1,2.5,6.3,2.3,9-0.5
		c1.7-1.8,2.5-0.7,3.8,0.4c4.4,3.9,8,4.3,13.1,1.6c1.2-0.7,2-1.2,3.5-0.2c3.9,2.6,8.1,2.2,11.8-0.4c2.1-1.4,3.6-1.3,5.8-0.3
		c4.1,2,8.6,0.8,11.5-2.5c1.2-1.4,2.4-3,1.1-4.6c-1.5-1.8-3.1-0.5-4.5,0.6c-1.7,1.4-3.4,2.7-5.9,1.6c-2.6-1.2-10.3,0.5-12.8,1.2
		c-2.4,0.7-4-0.2-5.2-2.6c-1.8-3.5-3.6-3.4-6.2-0.2c-3.5,4.4-5.9,4.4-9.7,0c-3-3.4-5.2-3.7-8.2-0.2c-2,2.4-3.3,2.5-5.4,0.1
		c-2.9-3.2-5-2.8-7.2,0.9c-0.4,0.6-0.6,1.3-1,1.9c-1.9,3.5-3,3.6-5,0.4c-1.2-2-2.2-4.1-3.3-6.1c-0.9-1.6-2.2-3-4.1-2.5
		c-1.7,0.4-2.1,2-2.5,3.7c-1,4.1-0.1,8.5-2.3,12.3c-0.4,0.7-0.7,1.7-1.7,1.8c-1,0-1.4-1-1.7-1.7c-1.9-4-2.2-8.4-2.7-12.7
		c-0.2-1.4,0.5-3.3-1.6-3.5c-2.2-0.2-2.5,2-2.6,3.4c-0.4,5.7,0.2,11.4,3.3,16.4c2.9,4.8,7.7,4.8,10.8,0c1.9-3,2.3-6.4,2.6-9.7
		C372.6,30.5,372.8,30.4,372.9,30.5L372.9,30.5z M349.2,21.9c0-3.1,0.3-5.9,4.5-6.1c24.4-1.4,48.7-2.8,73.1-4.2
		c12.8-0.7,25.6,0.8,38.3-0.9c4.1-0.5,6,1.3,6.5,5.6c1.7,16.7,0.6,33.4,0.7,50.1c0,5.4,0.7,10.7,0.8,16.1c0.1,4.9-0.7,5.8-5.8,5.9
		c-6.8,0.1-13.6,0.4-20.5,0.3c-19.2-0.4-38.4-0.2-57.6-0.3c-4.8,0-9.6-0.4-14.4-0.8c-2-0.2-3.1,0.5-4.2,2.2
		c-4.6,7.3-10.1,13.8-16,20.1c-1.1,1.2-2.1,2.6-4,1.9c-1.7-0.7-1.5-2.3-1.5-3.7l-0.1-7.4c4.1-4.9,7.5-10.3,10.5-15.9
		c0.8-1.4,1.4-2.5,3.5-2.5c8.9,0,17.7-0.3,26.6-0.5c22.7-0.4,45.3,1.3,68,1.7c6.1,0.1,7.4-1.5,7-7.6c-0.7-11.6-1.3-23.2-1.2-34.8
		c0.1-7.6,0-15.1-0.2-22.7c-0.1-1.9-0.2-4.7-2.9-4.6c-2.7,0.1-2.5,2.8-2.5,4.8c0,6.1,0,12.2,0.2,18.3c0.3,12.8,0.4,25.6,2,38.3
		c0.2,1.3,1.3,4-2,3.5c-7.5-1.3-15.1-0.8-22.6-1.2c-24.3-1.1-48.5-2.3-72.8-0.4c-3,0.2-4.8,1.3-6.2,3.8c-2.4,4.3-3.8,9.1-7,12.9
		C349.3,69.6,349.3,45.7,349.2,21.9L349.2,21.9z"/>
	<g transform="translate(0 116.967)">
		<defs>
			<filter id="Adobe_OpacityMaskFilter" filterUnits="userSpaceOnUse" x="0" y="0.1" width="124" height="101.2">
				<feColorMatrix  type="matrix" values="1 0 0 0 0  0 1 0 0 0  0 0 1 0 0  0 0 0 1 0"/>
			</filter>
		</defs>
		<mask maskUnits="userSpaceOnUse" x="0" y="0.1" width="124" height="101.2" id="b_1_">
			<g class="st3">
				<path id="a_1_" class="st4" d="M0,0.1h124v101.2H0V0.1z"/>
			</g>
		</mask>
		<path class="st5" d="M40.3,6.6c14.4-0.3,23.2,8.2,23.3,22.2c0.1,13.7-7.1,20.9-21.4,21.1c-13.1,0.2-23.9-8-23.3-19.3
			C19.7,15.1,25.5,6.9,40.3,6.6 M124,88.6c-1.1-0.2-7.5-15.7-12.4-20.9c-3.7-3.9-5.8-1.6-8.2-1.7c-23-1-45.9,3.5-68.9,4.2
			c-7.4,0.2-14.8,0.6-22.2,0.7c-4,0-6.1-2.1-5.7-5.9c1.6-18.8,7.1-20.7,4.8-2.7c-0.4,3.4,0.4,3.9,3.9,3.6c9.4-0.9,18.9-0.9,28.3-1.4
			c17.7-0.9,35.4-1.3,53.2-0.7c4.5,0.1,9,0.7,13.5,0.7c2.8,0,3.7,1.9,4.8,3.8c3,4.9,4.4,10.8,8.7,14.9c0.1-24.1,0.1-48.2,0.2-72.3
			c0-4-1.7-5.6-5.8-5.7c-11-0.4-22.1-0.8-33.1-1.9C69.3,1.8,53.6,1.2,37.8,1l-0.8,0c-0.8,0-1.5-0.1-2.3-0.1l-3.4-0.1
			c-1.4,0-2.7-0.1-4.1-0.1c-1.5-0.1-3-0.1-4.4-0.1l-4.4-0.1c-1.3,0-2.7-0.1-4-0.1c-1.1,0-2.2-0.1-3.3-0.1c-0.7,0-1.4-0.1-2.2-0.1
			C7.4,0,5.7,0,4.3,0.7c-1.2,0.6-1.8,1.8-2.2,3c-0.3,1-0.5,2.1-0.6,3.1C1.3,8.4,1,10,1,11.6C0,32,1.8,52.5,0,72.9
			c-0.3,3.1,1.2,4.7,4.2,4.8c6.2,0.2,12.5,0.8,18.7,0.5c25.1-1.3,50.3,0.7,75.4-1.3c2-0.2,3.1,0.5,4.2,2.2c4.6,7.2,10.1,13.8,16,20
			c1.1,1.2,2.1,2.6,4,1.9c1.7-0.6,1.5-2.3,1.5-3.7C124,94.4,124,91.5,124,88.6"/>
	</g>
	<path class="st1" d="M105.4,455.6c2.2-0.4,2.8,1.1,3.3,2.1c5.1,11.2,13.5,19.6,22.7,27.5c7.3,6.2,15.2,11.5,23.6,15.7
		c15.7,7.7,32.1,9.5,49.1,4.2c12.7-3.9,21.7-12.4,29.1-23.1c8.3-11.9,14.3-24.9,19.9-38.1c5.7-13.3,11.7-26.5,17.6-39.7
		c1.3-3,2.4-6.1,3.4-9.1c0.3-1,0.8-1.8,1.3-2.7c0.9-1.6,2.3-2.2,3.9-1.7c2,0.7,1.2,2.6,0.8,3.7c-1.5,4.7-3.3,9.3-5.2,13.8
		c-5.6,13.3-11.2,26.5-17,39.7c-4.9,11.2-9.9,22.3-16.5,32.6c-4.2,6.5-8.6,12.5-14.2,17.8c-9.8,9.3-21.5,14.2-34.8,15.5
		c-20.4,2-37.9-5.5-54.2-16.8c-7.8-5.4-14.8-12-20.7-19.4C112.4,471.1,108.1,463.9,105.4,455.6"/>
	<path class="st0" d="M335.3,47.2c0-12.2,0-24,0-35.7c0-6.5,1-7.4,7.4-7.9c15.6-1.2,31.3-1.6,47-2.1C408.9,1,428.1-0.2,447.3,0
		c4.3,0.1,8.7-0.3,13,0.9c1.2,0.3,2.4,0.7,2.4,2c0,1.7-1.6,1.9-2.9,1.9c-2.2,0-4.4-0.1-6.5-0.1c-30.7-0.3-61.3,2.3-91.9,2.8
		c-5.6,0.1-11.3,0.8-17,0.8c-3.2,0-4.1,0.9-4.2,4.4c-0.7,27.9,0.1,55.7,1.2,83.6c0.1,2.5,1.7,7.2-2.2,7.2c-3.4,0-1.9-4.5-2-7
		C336.4,79.9,334.7,63.4,335.3,47.2"/>
	<path class="st0" d="M349.4,93.4c3.3-3.8,4.6-8.6,7-12.9c1.4-2.5,3.2-3.6,6.2-3.8c24.3-1.8,48.6-0.7,72.8,0.4
		c7.5,0.4,15.1-0.1,22.6,1.2c3.3,0.6,2.2-2.1,2-3.5c-1.6-12.7-1.6-25.5-2-38.3c-0.2-6.1-0.2-12.2-0.2-18.3c0-1.9-0.2-4.7,2.5-4.8
		c2.7-0.1,2.9,2.6,2.9,4.6c0.2,7.6,0.3,15.1,0.2,22.7c-0.1,11.6,0.5,23.2,1.2,34.8c0.4,6.1-0.9,7.7-7,7.6c-22.7-0.4-45.3-2.1-68-1.7
		c-8.9,0.2-17.7,0.5-26.6,0.5c-2.1,0-2.8,1.1-3.5,2.5c-3,5.7-6.3,11-10.5,15.9c-1.1,0.2-2.3,1-3.1-0.2c-0.7-1.1-0.2-2.1,0.6-3.1
		C347.6,96,348.4,94.7,349.4,93.4 M119.8,202c-2.4-2.9-3.7-6.6-6-9.6c-3.6-4.7-5.2-5.6-10.4-5.9c-23-1-45.9-0.1-68.9,0.6
		c-7.4,0.2-14.8,0.6-22.2,0.7c-4,0-6.1-2.1-5.7-5.9c1.6-18.8,1.3-37.7,1.5-56.6c0-0.8,0.1-1.6,0.2-2.2c0.5-3.4,5.5-3,5.5,0.4v0.1
		c-0.4,18.6,0.1,37.2-2.3,55.7c-0.4,3.4,0.4,3.9,3.9,3.6c9.4-0.9,18.9-0.9,28.3-1.4c17.7-0.8,35.4-1.3,53.2-0.7
		c4.5,0.1,9,0.7,13.5,0.7c2.8,0,3.7,1.9,4.8,3.8c3,4.9,12.7,18.7,9.1,20.3C122.7,206.2,121,203.4,119.8,202"/>
	<path class="st1" d="M405.1,492.2c0.4,1-1.1,1.7-1.6,0.7c-4-7.5-7-15-9.7-22.6c-14.5-41.4-27.5-83.3-37.5-126.1
		c-0.4-1.9-1.9-4.3,1-5.1c2.8-0.8,3.1,2,3.6,3.8c6.4,22.8,12.7,45.7,19.2,68.5C387.8,438.6,394.8,465.9,405.1,492.2
		C405.1,492.1,405.1,492.1,405.1,492.2"/>
	<path class="st0" d="M268.1,170.4c-0.1,4.1-2.6,6.9-5.1,9.7c-0.6,0.7-1.5,0.9-2.3,0.1c-0.9-0.8-0.9-1.9-0.2-2.8
		c2.3-2.9,4.1-5.9,4-9.8c0-0.9,0.8-1.3,1.5-1.1C268,167,268,168.7,268.1,170.4"/>
	<path class="st6" d="M271.7,105.4c16-9.6,34.1-8.4,44.1,9.3c1.1,2,2.1,4.1,2.7,6.3c0.4,1.4,0.8,3.4-1.3,4c-2.1,0.7-2.9-1.1-3.4-2.5
		c-1-2.8-2.3-5.3-4-7.7c-7.2-10.3-15.8-13.2-30-9.8C277.4,105.6,275.1,105.8,271.7,105.4 M132.5,278.3c-0.9,0.1-1.5-0.3-1.9-1
		c-0.5-0.8,0-1.5,0.5-1.9c0.8-0.6,1.7-1,2.6-1.5c7.1-3.6,13.9-7.7,20.7-11.9c1.6-1,3.9-3.3,5.3-1.4c1.5,2.1-1.8,3-3.2,4.1
		c-6.6,5.3-14.1,9-21.7,12.7C134.1,277.8,133.2,278,132.5,278.3 M226.3,202.5c-0.6,0.9-1,1.4-1.5,2c-2.7,3.1-6.4,4.1-10.2,4.9
		c-1.3,0.3-2.3-0.2-2.6-1.6c-0.2-1.3,0.5-1.7,1.7-1.9c3.3-0.6,6.3-1.8,9-3.8C223.8,201.2,225.2,201.1,226.3,202.5 M213.8,93.4
		c0.9,0,1.8-0.1,2.3,0.9c0.4,0.8-0.2,1.4-0.7,1.8c-1.7,1.5-1.9,3.1-1,5c0.6,1.1,0.2,2-0.8,2.5c-1.2,0.6-1.9-0.3-2.4-1.1
		c-1.2-2.2-1.9-4.5-0.7-7C211.1,94.1,212.2,93.3,213.8,93.4 M245,127.9c0.3,1.1-1.1,1.8-1.9,1c-2.6-2.8-3.6-5.9-5.6-8.3
		c-0.4-0.5-0.1-1.5,0.7-1.8c1.2-0.5,2.3-0.2,3.1,0.9C243.2,122,244.3,124.6,245,127.9 M249.5,126c0,1.1-1.5,1.5-2,0.5
		c-1.1-2.1-2-4.2-3.4-6c-0.6-0.7-1-1.7-0.1-2.3c0.8-0.6,1.9-0.4,2.5,0.4C248.4,120.8,249.5,123.2,249.5,126 M316.6,130.5
		c1.3,0.4,2.9,0.5,3,2.4c0.2,1.8-0.9,2.8-2.4,2.9c-1.7,0.1-2.9-0.9-3-2.8C314.2,131.3,315.3,130.8,316.6,130.5 M167,259.1
		c-1.2,0-2.3-0.8-1.9-1.4c1.3-2,3.2-3.4,5.4-4.5c0.7-0.3,1.5,0.5,1.3,1.2C171.4,257.2,168.8,257.9,167,259.1 M223.5,94.9
		c-0.2,1.1-0.9,1.8-2,1.9c-1.2,0.1-1.9-0.8-1.9-1.9c0-1.2,0.6-2.3,2.1-2.1C222.8,92.9,223.5,93.7,223.5,94.9"/>
	<path class="st0" d="M372.3,30.5c-0.3,3.3-0.7,6.8-2.6,9.7c-3.1,4.7-7.9,4.8-10.8,0c-3-5-3.6-10.7-3.3-16.4
		c0.1-1.4,0.4-3.6,2.6-3.4c2,0.2,1.4,2.1,1.6,3.5c0.5,4.3,0.8,8.7,2.7,12.7c0.4,0.7,0.7,1.8,1.7,1.7c1,0,1.3-1,1.7-1.8
		c2.2-3.8,1.3-8.2,2.3-12.3c0.4-1.7,0.8-3.3,2.5-3.7c2-0.5,3.2,0.9,4.1,2.5c1.1,2,2,4.2,3.3,6.1c2.1,3.3,3.1,3.2,5-0.4
		c0.3-0.6,0.6-1.3,1-2c2.2-3.7,4.2-4.1,7.2-0.9c2.2,2.3,3.4,2.2,5.4-0.1c3-3.5,5.2-3.3,8.2,0.2c3.8,4.4,6.1,4.4,9.7,0
		c2.6-3.2,4.4-3.3,6.2,0.2c1.2,2.4,2.9,3.3,5.2,2.6c1.7-0.5,3.6-1.2,4.3-3c0.4-1.1,0.1-2.3,0.2-3.4c0.1-1.1,0.4-2.3,1.1-3.3
		c0.8-1.1,2.1-1.7,3.4-1.5c1.5,0.3,2.3,1.7,2.5,3.1c0.2,1.5-0.2,3-0.2,4.5c0,1.1,0.6,1.8,1.5,2.2c2.5,1.1,4.2-0.2,5.9-1.6
		c1.4-1.1,3-2.4,4.5-0.6c1.4,1.7,0.1,3.3-1.1,4.6c-2.9,3.3-7.4,4.4-11.5,2.5c-2.2-1-3.6-1.2-5.8,0.3c-3.7,2.5-7.9,3-11.8,0.3
		c-1.4-1-2.2-0.5-3.5,0.2c-5.1,2.8-8.6,2.4-13.1-1.6c-1.3-1.1-2-2.2-3.8-0.4c-2.7,2.7-5.8,3-9,0.5c-0.7-0.5-1.1-1.5-2.4-0.2
		c-7.2,7.4-7.9,7.3-14.5-1.1C372.9,30.4,372.6,30.5,372.3,30.5 M366.7,65.1c-3.3-1.4-6.8-8-6.1-11.3c0.2-1.1,0.7-1.9,1.9-2.1
		c1.1-0.1,1.5,0.7,1.8,1.5c0.2,0.5,0.4,1.1,0.6,1.6c0.7,2,1.3,4.9,3.4,5.1c2.3,0.3,1.7-2.8,2.5-4.4c1.5-3,3.6-3.1,6-1.3
		c1,0.8,1.7,2,2.5,3c3.4,4,4.8,4,8-0.3c2.4-3.2,4-3.4,6.4-0.2c1.3,1.7,2.7,3.1,4.8,3.3c2.7,0.3,6.5,2.1,4.5-4.8
		c-0.7-2.6,0.2-4.9,2.6-6.5c1.7-1.1,3.2-0.4,4.4,0.7c2,1.9,3,4.2,2.2,7.1c-0.3,1.2-0.6,2.4-0.9,3.8c-0.2,2.8,4.3-1.7,5.9-3.4
		c1.8-1.9,3.8-2.6,5.3,0c1.5,2.7,3,1.7,5,0.7c4.6-2.5,8.1-2,12,1.2c1.1,0.9,1.8,2,1.2,3.4c-0.6,1.3-2.2,1.3-3,0.8
		c-4.2-2.4-7.8,0.1-11.7,0.5c-4.6,0.5-9.5,1.1-13.9,1.3c-4,0.2-3.8-2-5.3-1.8c-3,0.3-1,2.7-8.1,2.3c-5.4-0.3-8.8-3.6-14,0
		c-3.3,2.3-6.9-1.6-9.7-4.4C373.1,64.2,370.9,66.9,366.7,65.1L366.7,65.1z M449.2,62.8c-0.2,1.8-1.3,2.9-3.1,2.9
		c-1.5,0-2.6-0.8-2.4-2.4c0.2-1.7,1.2-3,3.1-3.1C448.4,60.3,449,61.4,449.2,62.8 M40.5,127.5c-9.2-0.1-14.1,4.1-17,14.2
		c-1.8,6.2-0.9,11.7,3.8,16.4c1.7,1.7,3.2,2.6,3.9-0.8c0.7-3.1,2.3-5.6,4.4-7.8c1.2-1.3,1.4-2,0.4-3.6c-2.2-3.3-1.8-6.7,1.1-9.4
		c2.4-2.2,5.3-2.7,7.9-0.6c3.2,2.6,3.2,5.9,1.3,9.4c-0.6,1-1.2,1.7,0.1,2.8c2.6,2.2,2.7,5.6,3.2,8.7c0.2,1.2-0.4,2.9,0.9,3.6
		c1.5,0.8,2.6-0.8,3.8-1.5c1.3-0.8,2.1-2,2.8-3.3C64.1,142.3,55.4,127.6,40.5,127.5 M42.2,166.9c-13.1,0.2-24-8-23.3-19.3
		c0.8-15.5,6.7-23.7,21.4-24c14.4-0.3,23.2,8.2,23.3,22.2C63.6,159.5,56.4,166.6,42.2,166.9 M77.3,142.3c3.6-5,4.3-5.2,8.5-1.4
		c1.7,1.6,3.3,1.8,4.9,0.1c2.1-2.2,4.4-2.7,6.9-0.7c1.6,1.3,3.3,1.1,4.8-0.2c2.3-1.9,4.6-1.7,7.3-0.8c2.4,0.7,5.2,0.3,7.8,0.4
		c1.2,0,2.6,0.2,2.8,1.5c0.3,1.5-1.2,1.8-2.3,2.1c-3.2,0.8-6.3,2.4-9.7,1.1c-1.2-0.4-2.2-0.1-3.3,0.6c-2.7,1.9-5.7,2.2-8.7,0.8
		c-1.7-0.8-2.7-0.1-3.9,0.7c-2.7,1.7-5.6,1.8-8.1-0.2c-1.8-1.4-2.9-1.1-4.2,0.5c-1.3,1.6-3.2,2.3-5,0.8c-1.9-1.7-3.3-4.5-2.1-6.6
		C75,137.3,75.9,141,77.3,142.3 M95.1,163c-1.2,0.3-2.4,0.2-3.6-0.3c-3.8-1.5-7.9-0.3-12,0.4c-3.2,0.6-5.4-1.6-6.2-4.8
		c-0.2-1-0.4-2.2,0.7-2.7c0.9-0.5,2.1-0.4,2.7,0.7c1.5,2.6,3.5,1.9,5.6,1c2.8-1.2,5.6-1.6,8.4-0.1c1.8,1,3.7,0.3,5.5,0.3
		c1.7,0,3.8,0.2,4.2,2.3c0.4,2.1-1.7,2.3-3.2,2.8C96.5,162.7,95.9,162.8,95.1,163 M222.6,141.6c2.4,0,7.7,4.9,7.8,7.1
		c0,0.8-0.3,1.3-1,1.8c-0.9,0.5-1.7,0.3-2.3-0.4c-1.6-1.8-3.5-3.4-5.6-4.8c-1-0.6-1-1.7-0.5-2.7C221.3,141.9,222,141.5,222.6,141.6
		 M218,158.3c0.3-2.1,0.3-4.3,3-4.6c1.7-0.2,2.4,1.5,2.1,2.6c-0.4,1.7-0.3,4.2-3.1,4.4C218,160.9,218.2,159.4,218,158.3"/>
	<path class="st7" d="M40.5,127.5c14.9,0.1,23.7,14.8,16.8,28.1c-0.7,1.3-1.5,2.5-2.8,3.3c-1.2,0.7-2.3,2.2-3.8,1.5
		c-1.3-0.7-0.8-2.3-0.9-3.6c-0.5-3.1-0.6-6.5-3.2-8.7c-1.4-1.1-0.7-1.8-0.1-2.8c1.8-3.4,1.9-6.8-1.3-9.4c-2.6-2.1-5.6-1.6-7.9,0.6
		c-2.9,2.7-3.3,6.1-1.1,9.4c1,1.6,0.9,2.3-0.4,3.6c-2.1,2.2-3.8,4.8-4.4,7.8c-0.7,3.3-2.2,2.5-3.9,0.8c-4.7-4.7-5.5-10.1-3.8-16.4
		C26.4,131.6,31.2,127.5,40.5,127.5"/>
</g>
</svg>
