<?xml version="1.0" encoding="UTF-8"?>
<svg width="135px" height="50px" viewBox="0 0 135 50" version="1.1" xmlns="http://www.w3.org/2000/svg" xmlns:xlink="http://www.w3.org/1999/xlink">
    <!-- Generator: Sketch 59.1 (86144) - https://sketch.com -->
    <title>Asset 4</title>
    <desc>Created with Sketch.</desc>
    <g id="Page-1" stroke="none" stroke-width="1" fill="none" fill-rule="evenodd">
        <g id="01.-home" transform="translate(-135.000000, -55.000000)" fill-rule="nonzero">
            <g id="Asset-4" transform="translate(135.000000, 55.000000)">
                <polygon id="Path" fill="#FFFFFF" points="1.68811881 36.6732673 0 36.6732673 0 49.5445545 7.7029703 49.5445545 7.7029703 48.1336634 1.68811881 48.1336634"></polygon>
                <rect id="Rectangle" fill="#FFFFFF" x="13.8267327" y="42.2227723" width="4.60891089" height="1.3960396"></rect>
                <polygon id="Path" fill="#FFFFFF" points="11.9257426 45.4405941 11.9257426 45.4405941 11.9257426 40.5247525 11.9257426 38.0693069 18.8118812 38.0693069 18.8118812 36.6732673 10.2376238 36.6732673 10.2376238 49.5445545 18.9752475 49.5445545 18.9752475 48.1534653 11.9257426 48.1534653"></polygon>
                <path d="M29.519802,42.3465347 C28.7425743,44.5792079 28.1584158,46.3069307 27.8168317,47.5346535 C27.4356436,46.2475248 26.8564356,44.5049505 26.0742574,42.3465347 L24.0643564,36.6732673 L21.3811881,36.6732673 L21.3811881,49.5445545 L22.9752475,49.5445545 L22.9752475,43.1089109 C22.9752475,40.7722772 22.9752475,39.029703 22.9405941,37.8910891 C23.1039604,38.4158416 23.3217822,39.049505 23.5742574,39.7574257 C23.8267327,40.4653465 24.009901,41.0049505 24.1336634,41.3514851 C24.5346535,42.4950495 24.7524752,43.0693069 24.7524752,43.1089109 L27.0544554,49.5445545 L28.539604,49.5445545 L30.7920792,43.1089109 L31.460396,41.1683168 C31.9108911,39.9207921 32.2920792,38.8118812 32.6039604,37.8910891 C32.6039604,40.1534653 32.5643564,41.8960396 32.5643564,43.1089109 L32.5643564,49.5445545 L34.1980198,49.5445545 L34.1980198,36.6732673 L31.5148515,36.6732673 L29.519802,42.3465347 Z" id="Path" fill="#FFFFFF"></path>
                <path d="M42.519802,48.3663366 C39.8910891,48.3663366 38.1188119,46.2128713 38.1188119,43.1089109 C38.1188119,40.0049505 39.9108911,37.8514851 42.539604,37.8514851 C45.1683168,37.8514851 46.9455446,40.0445545 46.9455446,43.1089109 C46.9455446,46.1732673 45.1683168,48.3663366 42.519802,48.3663366 M42.519802,36.3861386 C38.7673267,36.3861386 36.3960396,39.2475248 36.3960396,43.1089109 C36.3960396,46.970297 38.7673267,49.8366337 42.519802,49.8366337 C46.2722772,49.8366337 48.6336634,46.970297 48.6336634,43.1089109 C48.6336634,39.2475248 46.2722772,36.3861386 42.519802,36.3861386" id="Shape" fill="#FFFFFF"></path>
                <path d="M59.3415842,42.5742574 C59.3415842,44.460396 59.3415842,46.0891089 59.4158416,47.450495 C59,46.7425743 58.529703,45.9653465 57.9653465,45.0594059 C57.4009901,44.1534653 57.0049505,43.5742574 56.8069307,43.2623762 C56.7128713,43.1188119 56.5693069,42.9158416 56.4059406,42.6485149 L52.5445545,36.7079208 L50.6584158,36.7079208 L50.6584158,49.5792079 L52.2920792,49.5792079 L52.2920792,43.7623762 C52.2920792,41.7475248 52.2574257,40.0841584 52.1980198,38.7623762 C52.6534653,39.5742574 53.4356436,40.8069307 54.519802,42.4752475 C54.7227723,42.7673267 55.0148515,43.1831683 55.3019802,43.6930693 L59.1237624,49.5445545 L60.9752475,49.5445545 L60.9752475,36.6732673 L59.3415842,36.6732673 L59.3415842,42.5742574 Z" id="Path" fill="#FFFFFF"></path>
                <path d="M71.0594059,42.1485149 C70.3588863,42.0106299 69.6677486,41.8287515 68.990099,41.6039604 C68.049505,41.2970297 67.5049505,40.8069307 67.5049505,39.9405941 C67.5049505,38.7029703 68.7029703,37.8366337 70.4752475,37.8366337 C71.9257426,37.8366337 72.980198,38.2326733 74.3564356,39.4455446 L75.3465347,38.2871287 C74.0388926,37.0408551 72.2911563,36.3627619 70.4851485,36.4009901 C67.950495,36.4009901 65.9009901,37.8514851 65.9009901,39.9752475 C65.9009901,41.9851485 66.970297,42.8019802 70.2673267,43.5445545 C70.9671409,43.6854947 71.6580943,43.8673245 72.3366337,44.0891089 C73.2623762,44.4158416 73.8613861,44.9405941 73.8613861,45.9356436 C73.8613861,47.4207921 72.5891089,48.3861386 70.7970297,48.3861386 C70.0793174,48.3891249 69.3685113,48.2459531 68.7079208,47.9653465 C67.8507679,47.5760671 67.0578593,47.0585899 66.3564356,46.4306931 L65.3663366,47.6089109 C66.1501335,48.307915 67.0367247,48.8822792 67.9950495,49.3118812 C68.8789838,49.6795296 69.8300306,49.8582724 70.7871287,49.8366337 C73.5594059,49.8366337 75.5346535,48.2227723 75.5346535,45.8465347 C75.4851485,43.7623762 74.3564356,42.9306931 71.0792079,42.1485149" id="Path" fill="#FFFFFF"></path>
                <path d="M83.2970297,36.6732673 L77.7524752,36.6732673 L77.7524752,38.0693069 L83.0445545,38.0693069 C84.7673267,38.0693069 85.8168317,38.9207921 85.8168317,40.519802 C85.8168317,42.1188119 84.7673267,42.9950495 83.0445545,42.9950495 L77.7524752,42.9950495 L77.7524752,49.5544554 L79.4356436,49.5544554 L79.4356436,44.3762376 L83.2970297,44.3762376 C85.8168317,44.3762376 87.4851485,42.9306931 87.4851485,40.519802 C87.4851485,38.1089109 85.8366337,36.6732673 83.2970297,36.6732673" id="Path" fill="#FFFFFF"></path>
                <path d="M95.4306931,44.8514851 L90.6435644,44.8514851 L91.2425743,43.1831683 L91.6237624,42.1138614 C91.7475248,41.7475248 91.970297,41.1237624 92.2772277,40.2277228 C92.5841584,39.3316832 92.8217822,38.5792079 93.019802,37.9257426 C93.3465347,38.960396 93.9455446,40.7178218 94.8316832,43.1633663 L95.4306931,44.8514851 Z M91.9653465,36.6732673 L87.3069307,49.5445545 L88.990099,49.5445545 L90.1683168,46.2673267 L95.9356436,46.2673267 L97.1138614,49.5445545 L98.8366337,49.5445545 L94.1584158,36.6732673 L91.9653465,36.6732673 Z" id="Shape" fill="#FFFFFF"></path>
                <path d="M105.445545,48.3663366 C102.831683,48.3663366 101.074257,46.1732673 101.074257,43.1089109 C101.074257,40.0445545 102.79703,37.8514851 105.529703,37.8514851 C106.712871,37.8514851 107.727723,38.2178218 109.10396,39.3762376 L110.064356,38.2326733 C108.524752,36.9108911 107.217822,36.3861386 105.549505,36.3861386 C101.613861,36.3861386 99.3514851,39.1930693 99.3514851,43.0940594 C99.3514851,46.9950495 101.653465,49.8366337 105.460396,49.8366337 C107.326733,49.8366337 108.648515,49.2227723 110.30198,47.6089109 L109.282178,46.480198 C107.836634,47.8069307 106.876238,48.3663366 105.425743,48.3663366" id="Path" fill="#FFFFFF"></path>
                <polygon id="Path" fill="#FFFFFF" points="115.272277 45.4405941 115.272277 45.4405941 115.272277 40.5247525 115.272277 38.0693069 122.163366 38.0693069 122.163366 36.6732673 113.589109 36.6732673 113.589109 49.5445545 122.326733 49.5445545 122.326733 48.1534653 115.272277 48.1534653"></polygon>
                <rect id="Rectangle" fill="#FFFFFF" x="117.079208" y="42.2227723" width="4.61386139" height="1.3960396"></rect>
                <path d="M129.584158,42.1485149 C128.883789,42.0099751 128.192692,41.8281074 127.514851,41.6039604 C126.574257,41.2970297 126.029703,40.8069307 126.029703,39.9405941 C126.029703,38.7029703 127.222772,37.8366337 129,37.8366337 C130.450495,37.8366337 131.5,38.2326733 132.876238,39.4455446 L133.866337,38.2871287 C132.560214,37.0416123 130.814302,36.3635363 129.009901,36.4009901 C126.470297,36.4009901 124.420792,37.8514851 124.420792,39.9752475 C124.420792,41.9851485 125.490099,42.8019802 128.792079,43.5445545 C129.490147,43.6860099 130.179423,43.8678333 130.856436,44.0891089 C131.782178,44.4158416 132.381188,44.9405941 132.381188,45.9356436 C132.381188,47.4207921 131.108911,48.3861386 129.316832,48.3861386 C128.600663,48.3897033 127.891358,48.2464945 127.232673,47.9653465 C126.372219,47.5766058 125.575967,47.0591252 124.871287,46.4306931 L123.881188,47.6089109 C124.664985,48.307915 125.551576,48.8822792 126.509901,49.3118812 C127.394002,49.6789688 128.34493,49.8576892 129.30198,49.8366337 C132.079208,49.8366337 134.054455,48.2227723 134.054455,45.8465347 C133.99505,43.7623762 132.871287,42.9306931 129.59901,42.1485149" id="Path" fill="#FFFFFF"></path>
                <polygon id="Path" fill="#FFD93B" points="68.2277228 18.539604 68.7970297 18.1237624 68.7970297 16.470297 68.2277228 16.0544554"></polygon>
                <polygon id="Path" fill="#FFD93B" points="74.990099 28.8168317 59.7029703 28.8168317 59.7029703 0 70.6188119 0 66.7277228 3.71782178 66.7277228 26.1584158"></polygon>
            </g>
        </g>
    </g>
</svg>