<?xml version="1.0" encoding="utf-8"?>
<!-- Generator: Adobe Illustrator 23.0.0, SVG Export Plug-In . SVG Version: 6.00 Build 0)  -->
<svg version="1.1" id="Layer_1" xmlns="http://www.w3.org/2000/svg" xmlns:xlink="http://www.w3.org/1999/xlink" x="0px" y="0px"
	 viewBox="0 0 589 801" style="enable-background:new 0 0 589 801;" xml:space="preserve">
<style type="text/css">
	.st0{fill-rule:evenodd;clip-rule:evenodd;fill:#E6E7E8;}
	.st1{filter:url(#Adobe_OpacityMaskFilter);}
	.st2{fill-rule:evenodd;clip-rule:evenodd;fill:#FFFFFF;}
	.st3{mask:url(#b_1_);fill-rule:evenodd;clip-rule:evenodd;fill:#D75D81;}
	.st4{filter:url(#Adobe_OpacityMaskFilter_1_);}
	.st5{mask:url(#b_2_);fill-rule:evenodd;clip-rule:evenodd;fill:#3B9EC1;}
</style>
<g>
	<g>
		<path class="st0" d="M0,0h589v801H0V0z"/>
	</g>
	<defs>
		<filter id="Adobe_OpacityMaskFilter" filterUnits="userSpaceOnUse" x="494" y="53" width="20" height="40">
			<feColorMatrix  type="matrix" values="1 0 0 0 0  0 1 0 0 0  0 0 1 0 0  0 0 0 1 0"/>
		</filter>
	</defs>
	<mask maskUnits="userSpaceOnUse" x="494" y="53" width="20" height="40" id="b_1_">
		<g class="st1">
			<path id="a_1_" class="st2" d="M0,0h589v801H0V0z"/>
		</g>
	</mask>
	<path class="st3" d="M514,53c-11,0-20,9-20,20s9,20,20,20"/>
	<defs>
		<filter id="Adobe_OpacityMaskFilter_1_" filterUnits="userSpaceOnUse" x="522" y="61" width="13" height="26">
			<feColorMatrix  type="matrix" values="1 0 0 0 0  0 1 0 0 0  0 0 1 0 0  0 0 0 1 0"/>
		</filter>
	</defs>
	<mask maskUnits="userSpaceOnUse" x="522" y="61" width="13" height="26" id="b_2_">
		<g class="st4">
			<path id="a_2_" class="st2" d="M0,0h589v801H0V0z"/>
		</g>
	</mask>
	<path class="st5" d="M522,87c7.2,0,13-5.8,13-13s-5.8-13-13-13"/>
</g>
</svg>
