<svg width="16px" height="65px" viewBox="0 0 16 65" version="1.1" xmlns="http://www.w3.org/2000/svg" xmlns:xlink="http://www.w3.org/1999/xlink">
            <g stroke="none" stroke-width="1" fill="none" fill-rule="evenodd">
                <path d="M-16.98,27.204 L-18.66,28.276 C-19.092,27.444 -19.556,27.092 -20.212,27.092 C-20.82,27.092 -21.284,27.524 -21.284,28.116 C-21.284,30.068 -16.5,29.812 -16.5,33.14 C-16.5,35.332 -17.94,36.628 -20.084,36.628 C-22.116,36.628 -23.588,35.204 -23.94,33.492 L-22.26,32.436 C-21.924,33.636 -21.252,34.708 -20.036,34.708 C-19.172,34.708 -18.58,34.276 -18.58,33.252 C-18.58,31.396 -23.268,31.764 -23.268,28.212 C-23.268,26.516 -21.972,25.172 -20.212,25.172 C-18.724,25.172 -17.588,25.908 -16.98,27.204 Z M-13.1897778,30.932 L-14.8697778,30.548 C-14.6137778,29.22 -13.4457778,28.308 -11.7977778,28.308 C-9.8777778,28.308 -8.4057778,29.108 -8.4057778,31.684 L-8.4057778,36.5 L-10.0377778,36.5 L-10.2457778,35.476 C-10.8057778,36.164 -11.5737778,36.628 -12.7257778,36.628 C-14.1017778,36.628 -15.1737778,35.78 -15.1737778,34.18 C-15.1737778,32.58 -13.7657778,31.54 -11.7337778,31.54 L-10.3897778,31.54 L-10.3897778,31.188 C-10.3897778,30.292 -11.0617778,30.004 -11.7977778,30.004 C-12.3577778,30.004 -12.9337778,30.18 -13.1897778,30.932 Z M-13.0937778,34.148 C-13.0937778,34.532 -12.8217778,34.932 -12.2617778,34.932 C-11.3497778,34.932 -10.3897778,34.308 -10.3897778,33.268 L-10.3897778,33.108 L-11.7177778,33.108 C-12.5657778,33.108 -13.0937778,33.428 -13.0937778,34.148 Z M-7.7355556,28.436 L-5.7355556,28.436 L-3.8635556,33.492 L-2.1035556,28.436 L-0.1195556,28.436 L-4.2795556,39.764 L-6.1995556,39.764 L-4.8075556,35.988 L-7.7355556,28.436 Z M4.9648888,36.5 L4.9648888,25.3 L7.0448888,25.3 L7.0448888,29.556 L11.5248888,29.556 L11.5248888,25.3 L13.6048888,25.3 L13.6048888,36.5 L11.5248888,36.5 L11.5248888,31.476 L7.0448888,31.476 L7.0448888,36.5 L4.9648888,36.5 Z M22.995111,32.292 L22.995111,33.108 L17.443111,33.108 C17.491111,34.004 18.115111,34.932 19.347111,34.932 C20.259111,34.932 20.819111,34.516 21.299111,33.684 L22.899111,34.276 C22.275111,35.7 21.187111,36.628 19.235111,36.628 C16.467111,36.628 15.363111,34.372 15.363111,32.468 C15.363111,30.564 16.467111,28.308 19.235111,28.308 C21.923111,28.308 22.995111,30.532 22.995111,32.292 Z M19.235111,30.004 C18.227111,30.004 17.635111,30.772 17.491111,31.54 L20.963111,31.54 C20.787111,30.74 20.291111,30.004 19.235111,30.004 Z M24.5773332,25.172 L26.5613332,25.172 L26.5613332,36.5 L24.5773332,36.5 L24.5773332,25.172 Z M28.3195554,25.172 L30.3035554,25.172 L30.3035554,36.5 L28.3195554,36.5 L28.3195554,25.172 Z M31.9657776,32.468 C31.9657776,30.132 33.4697776,28.308 36.0617776,28.308 C38.6537776,28.308 40.1577776,30.132 40.1577776,32.468 C40.1577776,34.804 38.6537776,36.628 36.0617776,36.628 C33.4697776,36.628 31.9657776,34.804 31.9657776,32.468 Z M34.0457776,32.468 C34.0457776,33.796 34.7817776,34.932 36.0617776,34.932 C37.3417776,34.932 38.0777776,33.796 38.0777776,32.468 C38.0777776,31.14 37.3417776,30.004 36.0617776,30.004 C34.7817776,30.004 34.0457776,31.14 34.0457776,32.468 Z" class="fill" fill="#000000" fill-rule="nonzero" transform="translate(8.108889, 32.468000) rotate(-90.000000) translate(-8.108889, -32.468000) "></path>
            </g>
        </svg>