<?xml version="1.0" encoding="utf-8"?>
<!-- Generator: Adobe Illustrator 23.0.0, SVG Export Plug-In . SVG Version: 6.00 Build 0)  -->
<svg version="1.1" id="Layer_1" xmlns="http://www.w3.org/2000/svg" xmlns:xlink="http://www.w3.org/1999/xlink" x="0px" y="0px"
	 viewBox="0 0 12 109" style="enable-background:new 0 0 12 109;" xml:space="preserve">
<g>
	<g transform="translate(-1612.000000, -877.000000)">
		<path d="M1614.1,912.6l1.1,1.7c-0.8,0.4-1.2,0.9-1.2,1.6c0,0.6,0.4,1.1,1,1.1c2,0,1.7-4.8,5-4.8c2.2,0,3.5,1.4,3.5,3.6
			c0,2-1.4,3.5-3.1,3.9l-1.1-1.7c1.2-0.3,2.3-1,2.3-2.2c0-0.9-0.4-1.5-1.5-1.5c-1.9,0-1.5,4.7-5,4.7c-1.7,0-3-1.3-3-3.1
			C1612,914.4,1612.8,913.3,1614.1,912.6z M1620.5,905l0.7-1.8c1.5,0.6,2.3,1.9,2.3,3.7c0,2.6-1.9,3.9-4.2,3.9
			c-2.3,0-4.2-1.3-4.2-3.9c0-1.8,0.8-3.1,2.3-3.7l0.7,1.8c-0.8,0.4-1.3,1-1.3,1.9c0,1.2,1,1.9,2.5,1.9s2.5-0.6,2.5-1.9
			C1621.8,906,1621.3,905.4,1620.5,905z M1623.4,899.8v2h-8.1v-2h1.3c-0.9-0.6-1.4-1.5-1.4-2.4c0-0.4,0.1-0.7,0.2-1l1.8,0.4
			c-0.1,0.2-0.2,0.5-0.2,0.8c0,1.2,0.9,2.2,3.6,2.2H1623.4z M1619.3,895.8c-2.3,0-4.2-1.5-4.2-4.1c0-2.6,1.8-4.1,4.2-4.1
			s4.2,1.5,4.2,4.1C1623.5,894.3,1621.7,895.8,1619.3,895.8z M1619.3,893.7c1.3,0,2.5-0.7,2.5-2c0-1.3-1.1-2-2.5-2s-2.5,0.7-2.5,2
			C1616.9,893,1618,893.7,1619.3,893.7z M1612,885.9v-2h11.3v2H1612z M1612,882.2v-2h11.3v2H1612z"/>
		<polygon points="1618.1,942.9 1619.1,942.9 1619.1,984.1 1618.1,984.1 		"/>
		<path d="M1619,984.3l-0.7,0l0.4-0.4L1619,984.3z M1620.9,981.7l0.7,0.7l-2.9,3l-3-3l0.7-0.7l2.3,2.3L1620.9,981.7z"/>
	</g>
</g>
</svg>
