<?xml version="1.0" encoding="utf-8"?>
<!-- Generator: Adobe Illustrator 23.0.0, SVG Export Plug-In . SVG Version: 6.00 Build 0)  -->
<svg version="1.1" id="Layer_1" xmlns="http://www.w3.org/2000/svg" xmlns:xlink="http://www.w3.org/1999/xlink" x="0px" y="0px"
	 viewBox="0 0 491 258" style="enable-background:new 0 0 491 258;" xml:space="preserve">
<style type="text/css">
	.st0{fill:#FFF337;}
	.st1{fill:#060606;}
	.st2{fill:#050505;}
	.st3{fill:#EFDB29;}
	.st4{fill:none;}
	.st5{fill:#FEFEFE;}
	.st6{fill:#030303;}
</style>
<path class="st0" d="M49.2,144.5c19.3-0.1,35.3,0.8,43.4-0.3c2.3-0.3,0.9-11.9-2.4-14.7c-2.8-2.4-4.9-1.4-7.5,1.1
	c-2.3,2.2-3.1,2.1-5.4-0.1c-0.5-0.5-0.9-1-1.5-1.4c-3-2.5-5.8-2.3-8.6,0.5c-1.2,1.2-2.1,2.7-3,4.1c-1.1,1.8-3.1,1.9-4.4,0.2
	c-2.1-2.9-3.4-6.2-5-9.3c-1-2-2-4-3.7-5.5c-1.8-1.7-3.3-2-5.4-0.8c-2.2,1.3-3.8,3.1-4.7,5.5c-1.3,3.5-2.7,6.9-4.1,10.3
	c-0.8,1.9-2.8,2.6-4.6,1.6c-1.1-0.6-1.9-1.5-2.6-2.5c-1.6-2.1-2.9-4.4-4.1-6.8c-1.4-2.6-2.8-5.2-5-7.2c-2.1-1.9-4.4-2.6-7.3-2
	c-3.1,0.7-5.1,2.8-6.8,5.2c-1,1.3-1.9,2.7-2.8,4.1c-3.1,4.8-4.4,10.6-3.7,16.3c0.1,0.8,0.2,1.4,0.4,1.9
	C0.9,145.7,24.9,144.7,49.2,144.5"/>
<path class="st1" d="M15.4,120.5c-1.5,0.1-2.5,0.7-3.5,1.5c-3.1,2.6-4.6,6.1-6,9.8c-0.2,0.5-0.3,1,0.4,1.3c0.6,0.3,1-0.1,1.3-0.6
	c0.7-1.2,1.4-2.5,2.1-3.7c1.6-2.5,3-5.2,6.2-6.1c0.6-0.2,1-0.7,0.8-1.3C16.5,120.7,15.9,120.5,15.4,120.5 M41.8,131.5
	c-0.3,0.9-0.2,1.4,0.5,1.6c0.8,0.2,1-0.4,1.3-1s0.4-1.3,0.6-1.9c1-2.4,1.8-4.9,4-6.5c0.7-0.5,1.3-0.9,0.9-1.7
	c-0.4-1.1-1.4-0.7-2.1-0.5c-0.8,0.2-1.4,0.9-1.8,1.6C43.3,125.7,42.2,128.6,41.8,131.5 M66.7,135.8c0.1,0.5-0.2,1.1,0.5,1.3
	c0.6,0.2,1.1-0.1,1.3-0.6c0.8-1.7,2.2-2.8,3.6-3.9c0.5-0.4,0.8-1,0.4-1.6s-1-0.6-1.6-0.3C68.8,131.9,67.4,133.6,66.7,135.8
	 M86.4,131.3c-1.4,0.1-3.4,2-3.3,2.9c0.1,0.6,0.5,1.1,1,0.9c1.3-0.7,2.8-1.3,3.3-2.7C87.7,131.7,86.9,131.3,86.4,131.3 M22.2,125.1
	c-0.6-0.9-1-2.3-2.6-2.4c-0.7,0-1.2,0.5-1,1.2c0.5,1.2,1.1,2.6,2.5,2.9C21.9,126.9,22.2,126.1,22.2,125.1 M51.7,123.7
	c-1,0-1.3,0.5-1.2,1.3c0.2,1.2,0.6,2.4,1.9,2.7c0.8,0.2,1.3-0.4,1.3-1.2C53.6,125.2,53,124.1,51.7,123.7 M75.3,133.1
	c0.7-0.1,1.3-0.5,1.2-1.1c-0.2-0.7-0.8-1.2-1.7-1.2c-0.6,0-1,0.3-1,0.9C73.9,132.7,74.7,132.8,75.3,133.1"/>
<path class="st0" d="M77.2,121.9c-0.5,0.1-0.8,0.5-0.7,1.1c0.1,0.5,0.4,0.8,0.9,0.7c0.6,0,1-0.3,1-0.9
	C78.3,122.2,77.9,121.9,77.2,121.9 M78.9,126.8c-2.5,0-4-1.2-4-3.2c0-2.1,1.8-3.7,4-3.7s4,1.7,4.1,3.6
	C83,125.4,81.3,126.8,78.9,126.8"/>
<path class="st1" d="M15.4,120.5c0.5-0.1,1.1,0.2,1.3,0.9c0.2,0.7-0.2,1.2-0.8,1.3c-3.2,0.8-4.6,3.5-6.2,6.1
	c-0.7,1.2-1.4,2.4-2.1,3.7c-0.3,0.5-0.7,0.8-1.3,0.6c-0.6-0.3-0.6-0.8-0.4-1.3c1.4-3.6,2.9-7.2,6-9.8
	C12.9,121.2,13.9,120.6,15.4,120.5 M41.8,131.5c0.4-2.9,1.5-5.8,3.4-8.4c0.5-0.7,1-1.4,1.8-1.6c0.7-0.2,1.7-0.6,2.1,0.5
	c0.3,0.9-0.2,1.2-0.9,1.7c-2.2,1.6-3,4.1-4,6.5c-0.3,0.6-0.4,1.3-0.6,1.9c-0.2,0.6-0.5,1.2-1.3,1C41.6,132.9,41.5,132.4,41.8,131.5
	 M66.7,135.8c0.7-2.2,2.1-3.9,4.2-5c0.6-0.3,1.2-0.3,1.6,0.3s0.1,1.1-0.4,1.6c-1.4,1.1-2.8,2.2-3.6,3.9c-0.2,0.5-0.7,0.8-1.3,0.6
	C66.5,136.9,66.8,136.3,66.7,135.8 M86.4,131.3c0.4,0,1.2,0.4,1,1.1c-0.5,1.5-2,2.1-3.3,2.7c-0.5,0.3-0.9-0.3-1-0.9
	C83,133.3,85,131.4,86.4,131.3 M22.2,125.1c0,1-0.2,1.8-1.1,1.6c-1.5-0.3-2.1-1.6-2.5-2.9c-0.3-0.7,0.3-1.2,1-1.2
	C21.2,122.8,21.6,124.2,22.2,125.1 M51.7,123.7c1.3,0.4,1.8,1.5,1.9,2.8c0.1,0.8-0.5,1.3-1.3,1.2c-1.4-0.3-1.8-1.5-1.9-2.7
	C50.4,124.2,50.7,123.7,51.7,123.7 M75.3,133.1c-0.6-0.3-1.5-0.3-1.5-1.3c0-0.6,0.3-0.9,1-0.9c0.9,0,1.5,0.5,1.7,1.2
	C76.6,132.6,76,133,75.3,133.1 M77.2,121.9c0.8,0,1.2,0.3,1.2,0.8c0.1,0.6-0.4,0.9-1,0.9c-0.5,0-0.9-0.3-0.9-0.7
	C76.4,122.4,76.7,122,77.2,121.9"/>
<path class="st0" d="M416,87.3l-3.3-0.1c-0.2-2.3-0.5-4.6-0.7-6.9c-0.1-0.6-0.4-1.4,0.7-1.4c2,0,2.4-0.6,2.6,1.1
	C415.5,82.5,415.7,84.9,416,87.3 M417.7,88.1c1.1-0.1,2.2,0.1,3.4,0.3c-0.2-1.7-0.3-3.5-0.5-5.2S420,82,418,82.1
	c-1.1,0-0.8,0.8-0.7,1.4C417.4,85,417.6,86.5,417.7,88.1 M425.5,88.3c-0.1-0.9-0.2-1.9-0.3-2.8c-0.2-1.7-0.6-1.2-2.6-1.1
	c-1.1,0-0.8,0.8-0.7,1.4c0.1,0.8,0.2,1.6,0.2,2.5C422.3,88.9,425.6,89.1,425.5,88.3"/>
<path class="st2" d="M418.4,69.8c2.3,0.1,6.4,0.1,8.7,0.3c1,0.1,1.8,0.3,1.6,2c-0.4,2.9,2.3,16.6,4,20.4c2.1,4.8-9.1,3.9-11.2,3.7
	c-1.2-0.1-6.4,0-6.1-2.1c0.1-0.9,0.8-1.1,1.6-1c4.1,0.3,8.1,0.9,12.3,0.3c0.9-0.1,0.8-0.7,0.6-1.4c-1.6-4.5-2.6-9.2-3-14
	c-0.1-1.7,0.2-5.7-1.4-5.6c-2.8,0.2-4.9-0.2-6.5,0C418.5,71.7,418.5,70.6,418.4,69.8 M407.8,90.1c-0.3-1.5-0.7-3-1-4.5
	c-0.9-3.8-2-7.8-2.4-11.7c-0.1-0.4-0.1-0.7,0-1.1c0.6-1.5,2.3-0.4,2.5,0.7c1.2,5.8,2.3,11.7,3.5,17.6c0.2,1,0.7,2.1-0.5,2.5
	c-1.6,0.5-1.7-1.7-1.9-2.7C408,90.6,407.9,90.4,407.8,90.1"/>
<path class="st2" d="M426.4,86.6c1.4,0.7,1,1.9-0.5,2.1l-10.3,1c-1.3,0.1-2.5,0.1-3.5-0.8c-0.9-0.8-0.7-1.6,0.5-1.8
	c2-0.4,4.2,0.2,6.2,0.2c1.3,0,2.6-0.1,3.9-0.2C423.6,86.9,425.5,86.2,426.4,86.6 M413.5,69.5c0.6,0.7,0.3,1.7,0.5,2.5
	c-1.7,0.2-3.2-0.4-4.8-0.6c-0.8-0.1-1.2-0.7-1.1-1.5c0.1-0.9,0.8-0.9,1.4-0.8C410.8,69.2,412.2,69.3,413.5,69.5"/>
<path class="st0" d="M412,65.5c-0.1-1.2,0.2-1.6,1.4-1.7c1.8-0.2,3.6-0.1,5.3,0.4c0.6,0.2,0.7,0.4,0.8,1c0.2,1.3,0.8,7.1,0.8,7.7
	c0,1.2-0.6,1.5-1.6,1.6c-1.4,0.1-2,0.3-3.4,0.3c-1,0-1.5-0.3-1.7-1.2C413.5,73,412.1,67.1,412,65.5"/>
<g transform="translate(470.231 86.422)">
	<path class="st2" d="M-9.4,0.3c-0.4-1.2-0.7-2.3-1-3.5c-0.1-0.6-0.3-1.3-0.8-1.5c-0.2-0.1-0.5-0.1-0.8-0.1l-5.8-0.1
		c-0.1,0-1.8,0.1-1.9,0.2c-0.1,0.5-0.1,1.9,0.1,1.9s1.8-0.2,2-0.2c1.1-0.1,2.8,0,4-0.1c0.3,0,0.7-0.1,0.9,0.1
		c0.3,0.2,0.4,0.7,0.5,1.1c0.6,3.8,1.6,7.6,3,11.1c1.1,2.7,2.4,5.3,3.9,7.8c0.4,0.6,1.1,1.4,1,2.2c0,0-1,0.3-1.6,0.4
		c-4.4,0.6-8.8,1.2-13.2,0.7c-0.8-0.1-1.7,0-1.9,0.9c-0.3,1.1,0.7,1.2,1.5,1.3c5.6,0.5,11.2-0.2,16.7-1.4c1.5-0.3,1.6-1.5,1-2.6
		c-1-1.8-2-3.7-3-5.5C-8.3,6-9.2,0.9-9.4,0.3"/>
</g>
<path class="st2" d="M449.4,99.4c-0.1,0.6-0.1,1.3-0.3,1.9c-0.1,0.4-0.4,0.8-0.9,0.7c-0.5-0.1-0.9-0.3-1-0.9
	c-0.4-3.5,0.7-10.6,5-12.4c2.6-1.1,5.1-0.6,5.2,2c0,0.6-0.3,1-0.6,1.4l-1.1,1.6c-0.2,0.3-0.4,0.6-0.3,0.9c0,0.2,0.2,0.3,0.3,0.4
	c0.8,0.7,2.1,1,2.4,2c0.3,1.1-0.5,2.3-1.3,3c-1.3,1.2-3.3,2.3-5.1,1.7c-0.2-0.1-0.4-0.2-0.5-0.3c-0.3-0.3-0.3-0.9,0-1.2
	c0.3-0.5,0.8-0.8,1.2-1c0.6-0.3,1.3-0.4,1.8-0.7c0.2-0.1,0.4-0.2,0.6-0.4c0.2-0.2,0.2-0.4,0.2-0.7c-0.3-1-1.6-0.3-2.2-0.2
	c-0.4,0.1-0.9,0.1-1.2-0.2c-0.4-0.5-0.2-1.3,0.1-1.8c0.3-0.6,0.9-1.1,1.4-1.6s0.9-1.1,1.3-1.7c0.2-0.3,0.4-0.7-0.1-0.9
	c-0.1,0-0.3-0.1-0.4,0c-1.8,0.2-2.7,1.6-3.4,3.1c-0.5,1.2-0.9,2.4-1.1,3.7C449.5,98.4,449.5,98.9,449.4,99.4"/>
<path class="st2" d="M447.9,81.7c-2-0.1-7-1-9.1,0.4c-1.5,1-1.6,2.3-1.4,3.5c1,6.9,3.4,13.4,6,19.9c0.2,0.4,0.6,1.9,2,1.3
	c0.6-0.2,0.4-0.7,0.3-1.1c-0.3-0.9-0.6-1.7-0.9-2.6c-2-5.2-4-10.4-5-15.9c-0.1-0.6-0.2-1.2-0.3-1.8c-0.2-1.9,0-2,2-1.9
	c1.4,0,6.7,0,7.1-0.3C449.1,82.7,448.9,82.2,447.9,81.7"/>
<path class="st0" d="M446.7,85.1c1,2.1,0.5,2.2,2.9,1.1c2.7-1.2,2.7-1.2,2.3-4.1c-0.2-0.8-0.8-3.5-1.6-4.4c-0.3-0.3-0.7-0.3-1-0.1
	c-1.3,0.6-1.7,0.7-3.3,1.7c-0.3,0.2-0.4,0.5-0.4,0.8C445.5,81.4,446.6,84.8,446.7,85.1"/>
<path class="st2" d="M443,45.5c-0.7,0.2-3.1,0.8-3.7,0.9c-3.1,0.5-2.9,0.5-2.9,3.6c0.2,5.6,0.7,11.2-0.5,16.8
	c3.7,0.2,7.1-1,10.5-2.1c0.4-0.1,0.8-0.3,1.2-0.4c0.7-0.1,1.7-0.5,2,0.5c0.2,0.7-0.2,1.3-0.8,1.7c-0.4,0.2-0.8,0.4-1.2,0.5
	c-3.9,1.2-8.2,3.1-12.3,2c-1.2-0.3-2.1-0.6-1.7-2.3c0.7-3.3,0.7-6.6,0.7-10c-0.1-3.4-0.5-6.8-0.7-10.2c-0.1-0.8,0.3-1.3,1-1.4
	c2.2-0.5,6.2-1.4,8.5-1.9C443.2,43.9,443.4,44.7,443,45.5 M456.3,54.4c0,2.5-0.4,5-0.5,7.5c-0.1,1.9-2,1.9-2,0
	c0.1-5.8,0.1-11.6,0.3-17.4c0-0.6-0.1-1.4,0.9-1.4C456,43.1,456.5,43.7,456.3,54.4 M447.6,44.1c0.1-0.8-0.4-1.6,0.1-2.4
	c1.1-0.4,2.3-0.8,3.4-1.1c0.6-0.1,1.3-0.1,1.6,0.5c0.2,0.6-0.4,1-0.9,1.3C450.5,43.2,449.1,43.7,447.6,44.1"/>
<path class="st0" d="M441.9,47c-0.2-1.8-0.6-5.3-0.3-7.1c0.1-0.4,0.3-0.6,0.6-0.8l4.6-1.9c0.5-0.2,1.1,0,1.3,0.5
	c0.1,0.1,0.1,0.3,0.1,0.4c0,2-0.4,3.9,0.2,7.1c0.1,0.5-0.2,0.9-0.7,1.1l-4.5,1.5c-0.5,0.2-1.1-0.1-1.3-0.6
	C441.9,47.1,441.9,47.1,441.9,47"/>
<path class="st0" d="M322.3,17.6c0.9-0.3,2.3,0.2,2.4-1.3c0.1-0.8-0.7-1.1-1.4-1.1c-1,0.1-2.1,0.2-2.3,1.4
	C320.9,17.5,321.5,17.7,322.3,17.6 M311.6,27.3c0,0.5,0.1,1.3,0.9,1.5c0.9,0.2,1-0.7,1.2-1.4c0.1-0.4,0.1-0.7,0.2-1.1
	c0.6-2.7,1.6-5.2,4.4-6.4c0.7-0.3,1.2-0.9,0.8-1.6c-0.4-0.8-1.1-0.6-1.8-0.4C314,19.1,311.6,22.9,311.6,27.3 M340.5,41.9
	c-2.5,2.3-5.3,4-8.8,4.4c-0.3-0.8-0.6-1.6-1.7-1.4c-1.1,0.2-0.8,1.3-0.9,2c-3.5,0.6-7.1,1.1-10,3.5c-1.2,0.9-2.7,2-3.5,3.4
	c-0.9,1.5-2.3,1.7-3.7,1c-2.3-1.1-4.1-2.8-5.4-5.1c1.5-1.6-0.3-2.2-1-3.1c-0.2-0.3,3.6-4.5,3.4-4.6c0.5,0.3,0.9,0.6,1.4,0.8
	c0.6,0.3,1.3,0.6,1.8-0.2c0.5-0.7-0.2-1.1-0.6-1.6c-0.6-0.7-1.3-1.3-1.9-2c0.7-0.9,0.4-2.5,0.5-3.6c0.1-4.1,0.3-8.5,1.6-12.5
	c1.5-4.4,5-7.6,9.6-8.6c3-0.7,5.7-0.2,8.6,0.2c2.6,1.6,4.2,4.1,5.6,6.7c4.2,8.2,0.7,16-8.1,18.7c-2.7,0.8-5.4,1.1-8,2.1
	c-4,1.5-7.7,3.4-9.8,7.5c-0.4,0.8-0.9,1.8,0.1,2.3s1.4-0.5,1.8-1.2c1.5-2.5,3.6-4.1,6.2-5.3c3.5-1.7,7.4-2,11.1-3.1
	c8.8-2.7,13.2-11.1,10.2-19.6c-0.5-1.5-2.9-4-3.2-5.6c0,0.2,2.5,1.7,3.4,2.8c0.6,0.7,1.1,1.4,1.6,2.2c0.9,1.7,1.7,3.5,2.2,5.4
	c0.7,2.7,0.8,5.5,0.4,8.2c-0.1,0.6-0.5,3.8-1.1,3.9c-1,0.2-1.2-2-2.6-0.7c-1,1,0.1,1.9,0.6,2.7C340.3,41.6,340.4,41.7,340.5,41.9"/>
<path class="st1" d="M120.5,185.6c2.6-3.1,4.4-6.6,6-10.1c1.3-2.7,2.6-5.3,4.1-7.8c2.5-4,5.7-7,10.6-7.6c1.6-0.2,0.5-1.1,0.3-1.6
	c-3.5-7.1-6.1-14.5-8.4-22.1c-0.7-2.3-1.3-4.6-1.9-6.9c-0.2-0.8-0.7-1.9,0.5-2.2c1.1-0.3,1.5,0.6,1.7,1.5c1.7,6.5,3.7,12.9,6.1,19.1
	c3.5,8.9,8.3,17.3,12.5,25.9c0.3,0.6,0.6,1.2,0.9,1.8c0.3,0.6,0.6,1.4-0.2,1.8c-0.8,0.5-1.3-0.3-1.7-0.8c-1.1-1.7-2.1-3.4-3.1-5.2
	c-1.5-2.9-3.1-5.8-4.4-8.7c-0.6-1.4-1.3-1.5-2.6-1c-3.3,1.1-5.7,3.2-7.6,5.9c-2.2,3.1-3.8,6.6-5.5,10.1c-1.7,3.4-3.4,6.7-5.7,9.8
	c-2.3,3-5.2,4.9-9.1,4.9c-3.6,0-6-1.7-7.2-5c-2.3-6.4-1.5-12.8,0.5-19c1.7-5.5,4.4-10.5,8.9-14.4c0.6-0.5,0.5-1,0.4-1.5
	c-0.1-3-0.3-5.9-0.4-8.9c0-0.7-0.4-1.8,0.7-1.9c1.2-0.1,1,1.1,1.1,1.8c0.7,5,0.8,10,1.2,15c0.5,7.6,1,15.3,1.9,22.9
	C120.6,182.9,120.5,184.2,120.5,185.6"/>
<path class="st0" d="M110.6,48.6c0,1.2,0.7,1.8,1.5,2.3c3.2,1.9,6.4,3.7,9.7,5.5c0.8,0.5,1.9,0.7,2.4-0.5c0.5-1.1-0.3-1.7-1.2-2.2
	c-2.5-1.4-5-2.8-7.6-4.2c-1.2-0.6-1.6-1.1-0.3-2.1c2.1-1.6,4-3.3,5.9-5c0.7-0.6,1.4-1.3,0.7-2.2c-0.7-0.9-1.6-0.5-2.3,0.1
	c-2.6,2.1-5.3,4.3-7.9,6.5C110.9,47.2,110.5,47.8,110.6,48.6 M128.8,35.1c0.5,6.3,1.4,12.6,1.2,18.9c-0.1,3.7-0.5,4.2-4.1,4.6
	c-7.2,0.8-14.4,1.2-21.7,1.1c-0.6,0-1.1,0-1.7,0c-1.8-6.9-1.6-13.9-1.6-20.9c0-2.9,0.1-2.9,2.9-3.3c7.8-1,15.6-0.7,23.4-0.7
	C127.8,34.9,128.3,35,128.8,35.1"/>
<path class="st1" d="M389,100.6c-21.2,2.7-42.3,5.7-63.5,8.2c-1.6,0.2-3.1,0.3-4.7,0.6c-0.9,0.2-2,0.5-2.3-0.8
	c-0.3-1.4,1.1-1.5,1.8-1.6c3-0.6,6-1,9-1.4c9.5-1.2,19.1-2.2,28.6-3.6c12-1.7,24-3.2,36-4.8c2.1-0.3,4.1-0.5,6.2-0.3
	c2.7,0.3,3.8,1.2,4.5,3.8c1.1,3.9,1.5,8,2.3,12c1.1,5.8,2.4,11.5,3.7,17.3c2.1,9.2,3.8,18.4,4.8,27.8c0.4,3.3,0.7,6.6,1,9.9
	c0.4,4.8-1.3,7.3-6.1,8.4c-5.1,1.2-10.2,2.2-15.4,3c-6,1-12.1,1.7-18.2,2.6c-0.1,0-0.2,0.1-0.4,0.1c-0.9,0.1-1.7,0-1.8-1.1
	c-0.1-1,0.6-1.3,1.4-1.4c4.6-0.7,9.1-1.4,13.7-2.1c6.5-0.9,12.9-2.1,19.3-3.4c3.9-0.8,5-2.4,4.7-6.3c-0.7-9.3-2-18.5-3.7-27.6
	c-1.7-9-3.8-18-5.6-27c-0.7-3.6-1.2-7.2-2-10.7c-0.4-1.8-1.2-2.7-3.2-2.5C395.8,99.8,392.4,100.1,389,100.6"/>
<path class="st0" d="M433,180.8c-2.1,2-3.9,3.8-5.8,5.6c-0.7,0.6-0.9,1.4-0.4,2.2s1.4,0.7,2,0.2c2.5-2.1,5.1-4.2,7-6.8
	c0.9-1.3,0.7-2.8-0.8-3.5c-3-1.4-6.1-2.6-9.2-3.8c-0.7-0.3-1.4-0.1-1.7,0.7c-0.3,0.7-0.1,1.4,0.6,1.8c0.9,0.5,1.8,0.9,2.7,1.3
	C429.2,179.2,431,180,433,180.8 M418.7,195.4c-1.5-5.2-2.3-10.5-2.7-15.9c-0.3-3.7,1.7-5.9,5.4-6.5c4.8-0.8,9.6-1.6,14.4-2.7
	c1.9-0.4,3.9-0.5,5.8-0.7c0.7,0.8,0.8,1.8,1.1,2.8c1.4,5,1.8,10.1,2.9,15.1c0.6,2.5,0.5,2.6-2.1,3.2
	C435.4,192.5,427.1,194.1,418.7,195.4"/>
<path class="st3" d="M445.1,169.3c4.3-0.1,6,1,7.2,5c1.7,5.9,2.4,11.9,2.7,18c0.2,3.7-1.6,5.5-6.4,6.4c-7.5,1.4-14.9,3.1-22.5,3.5
	c-3.7,0.2-4.9-0.5-6.2-3.8c2.7-0.5,5.4-1.1,8.2-1.6c6-1.1,12.1-2.1,18-3.7c2.6-0.7,3.3-2,3.1-4.6c-0.1-0.8-0.2-1.5-0.3-2.2
	C447.2,180.6,446.9,174.8,445.1,169.3"/>
<path class="st1" d="M128.8,35.1c-0.5-0.1-1-0.3-1.5-0.3c-7.8,0.1-15.6-0.2-23.4,0.7c-2.8,0.4-2.9,0.4-2.9,3.3
	c-0.1,7-0.2,14,1.6,20.9c0.1,1.9,1,2.6,2.9,2.6c6,0.1,12-0.3,17.9-0.8c1.1-0.1,2.1,0,3.2,0c0.8,0,1.5,0.3,1.5,1.3
	c0,0.9-0.7,1-1.4,1.1c-4.3,0.5-8.5,1.1-12.8,1.1c-2.8,0-5.7,0.1-8.5,0c-4-0.2-4.8-0.9-5.8-4.8c-0.1-0.4-0.2-0.8-0.4-1.3
	C97.9,52.5,97.8,45.8,98,39c0.1-4.7,0.8-5.5,5.4-6.3c0.6-0.1,1.1-0.1,1.7-0.2c7.7-0.6,15.3-0.5,23-0.5c4.4,0.7,5.6,1.9,6.5,6.3
	c1,5.3,1.8,10.6,1.6,16c0,0.9,0,2-1.2,2c-1.3,0-1.3-1.1-1.3-2.1c-0.1-5.4-0.7-10.7-1.8-16C131.5,36.6,131,35,128.8,35.1 M367.7,130
	c0.8-1.6,1-3,0.2-4.5c-0.2-0.4-0.6-0.9-1.2-0.8c-0.5,0.1-0.7,0.7-0.8,1.2C365.8,127.5,366.4,128.9,367.7,130 M354.3,129.1
	c-0.1-1.5-0.6-2.6-1.3-3.6c-0.6-0.8-1.1-0.7-1.6,0c-1,1.5-1.2,3.2-0.7,4.9c0.3,1,0.9,2.5,2,2.4c1-0.1,1.3-1.6,1.4-2.6
	C354.3,129.6,354.3,129.2,354.3,129.1 M365.9,132c-1.5-1.8-2.6-3.7-2.3-6.2c0.3-1.7,0.9-3.2,2.8-3.5s3.1,0.9,3.9,2.4
	c1,2,0.8,4,0,6.1c1.1,0.4,1.7-0.3,2.3-0.9c0.6-0.6,1-1.3,1.6-1.9c1.5-1.7,2.7-1.8,4.6-0.6c0.7,0.4,1.3,0.9,2.1,1.3
	c1.5,0.7,2.9,0.9,3.9-0.9c0.6-1.2,1.7-1.5,2.9-0.8c1.6,0.9,3.2,1,4.9,0.7c0.6-0.1,1.5-0.5,1.7,0.5c0.3,0.9-0.3,1.4-1,1.8
	c-1.8,0.8-3.6,0.6-5.3,0c-0.5-0.2-0.9-0.6-1.5,0c-2.5,2.1-4.2,2.3-7,0.9c-1-0.5-1.8-1.9-2.9-1.5c-0.9,0.3-1.5,1.5-2.2,2.3
	c-1.3,1.4-2.9,2.2-4.7,1.9c-1.2-0.2-1.9,0.2-2.7,0.8c-3.7,2.7-7.8,3.4-12.2,2.4c-1.1-0.2-1.7,0-2.5,0.5c-6,4.3-13.1,3.2-16.6-2.7
	c-0.4-0.7-0.8-1.4-0.8-2.3c0-0.6,0.1-1.1,0.8-1.4c0.6-0.2,1.1,0.1,1.4,0.6c0.2,0.3,0.3,0.6,0.4,0.8c2.7,4.7,7.9,5.9,12.5,2.9
	c0.9-0.6,0.5-0.9,0-1.5c-2.4-2.9-2.6-6.9-0.6-9.8c1.7-2.5,4.1-2.6,5.8-0.1c2,2.8,2.5,5.9,0.9,9.1c-0.6,1.1-0.4,1.3,0.8,1.4
	C360.3,134.9,363.2,134,365.9,132 M52.5,62.6c-1.2,0.1-1.5,0.2-1.5,0.9c-0.3,2.5,2.3,5.4,4.8,5.3c1.4,0,2.4-0.8,2.9-2
	c0.5-1.3-0.4-2-1.2-2.7C56,63,54.3,62.4,52.5,62.6 M51.4,60.2c2.5-0.3,4.8,0.2,6.9,1.5c2.9,1.8,3.8,3.9,2.6,6.4
	c-1.3,2.7-4.4,4-7.2,2.9c-3-1.2-4.8-3.4-5.1-6.9c-2.4,1.4-3.6,3.5-4.3,5.8c-1.7,5.3-1.2,10.7-0.4,16c0.6,3.5,1,7.1,2.1,10.7
	c1.8-1.4,3.2-3.1,4.7-4.7c0.5-0.6,1.1-1.5,2-0.8s0.2,1.5-0.2,2.2c-1.6,2.4-3.7,4.5-5.7,6.5c-0.9,0.9-2.1,0.8-3.2,0.2
	c-2.6-1.6-5.1-3.3-7.2-5.5c-0.7-0.8-1.4-1.7-0.5-2.6s1.7,0,2.4,0.6c1.4,1.3,2.8,2.6,4.9,3.7c-0.5-2.8-1-5.4-1.4-7.9
	c-1-6-1.8-12.1-0.2-18.1c1-3.6,2.8-6.6,6.1-8.5c0.7-0.4,0.9-0.9,1-1.6c2.3-9.2,12.9-16,22.2-14.4c0.7,0.1,1.3,0.3,2,0.6
	c0.6,0.2,0.9,0.7,0.6,1.4c-0.3,0.6-0.7,0.4-1.3,0.3c-9.4-2-17.1,3.5-20.7,10.6C51.5,58.8,51.2,59.3,51.4,60.2 M394.9,156.9
	c0.5,4.2-0.3,5.2-3.8,5.8c-8.5,1.5-17,2.9-25.5,4.4c-1.3,0.2-2.6,0.4-3.9,0.6c-0.8,0.1-1.4-0.1-1.6-0.9c-0.2-0.8,0.4-1.3,1.2-1.4
	c3.7-0.7,7.4-1.4,11.1-2.1c6.1-1.1,12.2-2.2,18.2-3.2c1.6-0.3,2.1-0.8,1.6-2.5c-1.1-4.4-2-8.8-3-13.2c-0.6-2.6-1.3-3-4-2.6
	c-13.7,2.1-27.4,4.4-41.2,6.2c-0.9,0.1-1.9,0.2-2.8,0.2c-0.8,0-1.4-0.3-1.4-1.2c0-0.7,0.7-1,1.3-1.1c5.2-0.8,10.5-1.5,15.7-2.4
	c6.7-1.1,13.4-2.2,20.2-3.2c3.1-0.5,6.2-0.9,9.4-1.2c2.5-0.3,4.2,0.8,4.9,3.2C392.7,147.4,393.9,152.6,394.9,156.9 M309.7,39
	c0.6,0.7,1.3,1.4,1.9,2c0.4,0.4,1,0.9,0.6,1.6c-0.5,0.8-1.2,0.5-1.8,0.2c-0.5-0.3-1-0.6-1.4-0.8l-2.3-2.9c-0.8,1-1.4,2.1-2.3,2.9
	c-1.7,1.4-1.1,2.5,0.1,3.7c0.3,0.4,0.7,0.6,1.1,1c0.7,0.9,2.5,1.4,1,3c-0.2,0.2-1.5-0.5-1.7-0.6c-0.5-0.3-1-0.6-1.4-1
	c-1.3-1.3-2-2.9-2.8-4.5c-0.3-0.5,0.3-0.9,0.6-1.3c3.5-3.2,4.8-7.8,4.5-12.5c-0.2-3.4,0.5-6.7,1.4-10c1.7-6.1,6.2-9.3,12.2-10.2
	c4.8-0.7,9.4,0.5,13.1,3.6c0.8,0.6,1.5,1.3,2.1,2c0.4,0.5,0.9,1,1.3,1.5c1.6,2.1,2.8,4.9,3.5,7.4c0.5,2.2,0.6,4.5,0.1,6.7
	c-0.9,4.4-4,8-7.9,10.1c-0.9,0.5-1.9,0.8-2.8,1.1c-3.7,1.1-7.5,1.4-11.1,3.1c-2.6,1.2-4.7,2.8-6.2,5.3c-0.4,0.7-0.9,1.7-1.8,1.2
	c-1-0.5-0.5-1.5-0.1-2.3c2.1-4,5.8-5.9,9.8-7.5c2.6-1,5.4-1.3,8-2.1c8.8-2.7,12.3-10.5,8.1-18.7c-1.3-2.6-2.9-5.1-5.6-6.7
	c-6.4-4.9-19-3.6-21.1,8.1c-0.6,3.6-0.3,7.3-0.9,10.8C307.6,35.7,308.1,37.5,309.7,39 M445.1,169.3c1.8,5.5,2.2,11.3,3.6,17
	c0.2,0.7,0.3,1.5,0.3,2.2c0.2,2.6-0.5,3.9-3.1,4.6c-5.9,1.6-12,2.6-18,3.7c-2.7,0.5-5.4,1.1-8.2,1.6c-5.5,0.2-7.7-1.4-9-7.1
	c-0.7-3-0.9-6.2-1.3-9.3c0-0.2,0-0.5,0-0.8c0.1-0.8,0.3-1.7,1.3-1.8c1,0,1.4,0.7,1.5,1.6c0.3,2.1,0.5,4.2,0.8,6.4
	c0.2,1.9,0.6,3.7,1.3,5.5c0.8,2.2,2.3,2.9,4.4,2.5c8.3-1.3,16.6-2.9,24.8-4.8c2.5-0.6,2.6-0.7,2.1-3.2c-1.2-5-1.5-10.2-2.9-15.1
	c-0.3-1-0.4-2-1.1-2.8c-1-1.6-2.6-1.9-4.2-1.8c-3.7,0.1-7.4,0.8-11.1,1.3c-1.8,0.3-3.6,0.6-5.4,0.4c-0.6-0.1-1.3-0.2-1.3-1
	s0.6-1.2,1.2-1.3c5.7-0.6,11.4-2.3,17.2-2.4C441.2,164.7,443.6,166.3,445.1,169.3 M45.3,158.8c0.3-1.6,0.1-2.8-0.8-3.8
	c-0.1-0.2-0.4-0.3-0.6-0.3c-0.3,0-0.3,0.4-0.3,0.6C43.5,156.7,44.1,157.7,45.3,158.8 M32.2,159.5c1.7-2.1,2.2-4.1,1.1-6.4
	c-0.4-0.8-1.1-1.4-2.1-1.2c-0.9,0.2-1.2,1-1.3,1.9C29.7,156,30.7,157.7,32.2,159.5 M39.2,162.2c0.6,0,1.3,0,1.9-0.1
	c0.8-0.2,1.8-0.3,2.2-0.9c0.5-0.8-0.6-1.2-1-1.7c-0.9-1.4-1.3-2.8-1.1-4.5c0.2-1.3,0.7-2.3,1.9-2.8c1.3-0.4,2.3,0.2,3.2,1.1
	c1.3,1.5,2,3.2,1.6,5.2c-0.4,1.5,0.3,1.8,1.6,1.7c1.9-0.2,3.3-1,4.6-2.3c1.8-1.9,2.4-1.9,4.4-0.1c1.2,1.1,2.2,1.3,3.5,0.2
	c0.9-0.8,1.9-1.2,3.1-0.8c2.5,0.8,5,1,7.7,0.8c0.8-0.1,1.7-0.1,1.9,0.8c0.2,1-0.7,1.3-1.5,1.6c-2.6,0.7-5.1,0.2-7.6-0.5
	c-0.9-0.3-1.5-0.2-2.2,0.4c-2,1.4-4,1.4-5.9-0.2c-0.9-0.8-1.4-0.6-2.1,0.1c-2.1,2.3-4.8,2.8-7.8,2.4c-0.6-0.1-1.2-0.2-1.8,0.3
	c-3.9,3.1-8.1,2.4-12.4,0.8c-0.9-0.4-1.5-0.4-2.4,0c-4.9,2.2-10.2,0.7-13.1-3.8c-1.4-2.1-2.4-4.4-2.5-7c0-0.7,0-1.7,1-1.7
	c0.8,0,0.9,0.7,1.1,1.5c0.6,2.5,1.6,4.9,3.3,6.9c2.1,2.5,5.2,3.3,8.2,2.3c0.8-0.3,1.2-0.5,0.5-1.4c-1.4-1.9-2.1-4-1.9-6.3
	c0.1-2.1,1.5-3.9,3.1-4.3c2-0.4,4,0.7,4.9,2.7c1.2,2.6,0.9,5.2-0.6,7.5c-0.7,1.1-0.4,1.5,0.7,1.8C36.8,162,38,162.2,39.2,162.2
	 M168.1,138.3c0.1-1.8-1-2.5-2.5-1.7c-2.1,1.2-3.1,3.1-3.5,5.5c-0.1,0.6,0.1,0.7,0.7,0.8C165.2,143.1,168.1,140.7,168.1,138.3
	 M191.4,142.3c-0.8,1.3-1.8,2.4-3,3.3c-5.2,3.9-10.7,7-17.3,7.7c-4.9,0.5-10.4-2.1-11.3-7.2c-0.1-0.4-0.2-0.9-0.7-1
	c-4.5-1.7-5.8-5.7-6.8-9.7c-1.2-4.7-0.9-9.6-0.7-14.4c0-0.3,0.1-1.4-0.1-1.7c-1.4,1.1-3.5,6.2-4.3,5.8c-0.5-0.2-0.3-1.4-0.1-2.2
	c0.9-2.8,2.6-5,4.5-7.1c1.5-1.6,2.5-1.6,4.2-0.1c2.7,2.6,5.2,9.2,4.8,9.5c-1.3,0.8-3.8-4.5-6.1-6.8c-0.6,4.3-0.5,8.1-0.2,12.3
	c0.2,2.9,0.7,5.7,2.1,8.3c0.4,0.7,0.7,1.3,1.2,1.9c0.5,0.6,1.4,1.5,1.8,1.3c0.2-0.1,0.5-1.4,1-2.6c0.8-2.2,1.6-3.2,3.6-4.6
	c1.5-1,3.2-1.4,4.8-0.3c1.6,1.1,1.9,2.8,1.6,4.6c-0.5,3.2-3.3,5.7-6.9,6.3c-0.4,0.1-0.8,0.1-1.1,0.1c0,2.6,3.3,5.1,6.8,5.2
	c3.6,0.1,6.8-0.9,10-2.4c3.7-1.8,7.5-3.5,11-5.8C190.5,142.4,190.8,141.9,191.4,142.3 M32.3,174.5c0-0.5-0.1-1-0.2-1.4
	c-0.1-0.5-0.4-1.1-0.8-1.5c-0.5-0.4-0.8,0-1,0.4c-0.4,0.7-0.5,1.5-0.4,2.2s0.3,1.4,0.6,2c0.2,0.3,0.4,0.6,0.7,0.5
	c0.7-0.1,0.9-1,1-1.6C32.3,174.9,32.3,174.7,32.3,174.5 M43.7,175.5c-1.6,4-4.6,6.2-8.6,5.8c-1.5-0.1-2.7-1.3-4.2-1.3
	c-1.4,0-3,1.1-4.5,1.2c-2.4,0.1-4.5-1-6.2-2.7s-2.9-3.8-3.8-6c-0.3-0.7-0.7-1.7,0.4-2.1c0.9-0.4,1.4,0.3,1.8,1c1,1.8,2,3.5,3.4,4.9
	c1.8,1.7,3.8,2.6,6.5,1.9c-0.9-1.9-1.6-3.8-1-5.9c0.6-2.1,1.8-3.7,3.3-3.7c1.5-0.1,3.1,1.3,3.9,3.2c0.8,1.9,0.7,3.9-0.2,5.7
	c-0.7,1.3,0,1.4,1,1.3c2.3-0.3,4.3-1.1,5.3-3.4c0.2-0.5,0.5-1,0.8-1.5c1.2-1.9,2.8-2.1,4.3-0.4c0.6,0.7,1.2,1.5,1.9,2.1
	c1,0.9,2,1,3.1-0.2c1.8-2.2,2.4-2.2,4.8-1c2.9,1.5,4.1,1.3,6.3-1c1.2-1.2,2.3-1.3,3.7-0.4c3.8,2.7,5.8,2.6,8.9-0.8
	c0.5-0.6,1.1-0.9,1.8-0.5c0.9,0.5,0.7,1.2,0.4,2c-1.3,3.3-5.8,4.9-9.7,3.4c-1-0.4-2.9-2.9-5.3,0.4c-1.6,2.2-4.8,0.7-7.1-0.4
	c-0.5-0.2-0.9-0.6-1.6,0.1c-2.7,2.7-5.2,2.7-7.9-0.1C44.6,176.5,44.3,176.1,43.7,175.5 M329.7,120.3l-0.7,0.1
	c-1.3,0.1-2.7,0.3-4,0.4c-0.8,0-1.9,0.1-2-1.2c-0.1-1.3,1-1.5,1.9-1.6c3.1-0.4,6.3-0.7,9.4-1.1c16.1-2,32.3-4.1,48.4-6.1
	c5-0.6,10-1.2,15-1.8c0.6-0.1,1.1-0.1,1.7,0s1.1,0.5,1.1,1.1c0.1,0.7-0.3,1.2-1,1.4c-0.9,0.2-1.9,0.4-2.8,0.5
	c-11.4,1.3-22.8,2.8-34.2,4.2C351.7,117.6,340.7,119.5,329.7,120.3 M180.5,70c-0.3,4.9-0.1,9.8,0.3,14.7c0.2,2.6,0.4,5.1,1.2,7.6
	c0.2,0.5,0.4,1,1,0.9c0.6,0,0.9-0.4,1-1c0.3-1.1,0.2-2.2,0.2-3.4c-0.3-6.1-0.6-12.1-0.8-18.2c-0.1-2.2,0.1-4.4,0.1-6.6
	c0-1-0.4-2.2-1.5-2.3c-1-0.1-1.2,1.1-1.2,1.8C180.6,65.8,180.6,67.9,180.5,70 M177.8,75.6c0.2-4.4-0.3-8.3,0.4-12.2
	c0.3-1.6,0.7-3.3,2.5-4c2.1-0.8,4.3,0.6,4.8,3.2c0.3,1.8,0.5,3.6,0.5,5.4c0.2,7.3,0.7,14.7,0.6,22c0,1.1-0.3,2.2-0.6,3.3
	c-0.6,1.6-1.8,2.2-3.4,2.2c-1.4,0.1-2.4-0.8-2.9-2.1c-0.8-2-1.1-4.1-1.3-6.2C178.1,83.2,177.8,79.2,177.8,75.6 M254.2,241.4
	c-1.5-1.2-2.4-2.8-3.3-4.3c-5.6-9.1-8.9-19.1-11.3-29.5c-1.9-8.5-3.1-17.2-4.1-25.8c-0.2-1.4-0.1-2.8-0.1-4.1c0-0.8,0.2-1.6,1.2-1.6
	c0.9,0,1,0.8,1.1,1.5c0.7,5.5,1.5,10.9,2.3,16.4c2.1,16.1,6.7,31.5,14.1,46c0.1,0.3,0.4,0.5,0.3,0.8
	C254.3,241.1,254.2,241.2,254.2,241.4"/>
<path class="st3" d="M128.1,32.1c-7.7,0-15.4-0.1-23,0.5c-0.6,0-1.1,0.1-1.7,0.2c-4.6,0.8-5.3,1.6-5.4,6.3
	c-0.2,6.7-0.1,13.4,1.1,20.1c-2.3-0.6-3.2-1.8-3.3-4.5c-0.3-6.8-0.4-13.5-0.4-20.3c0-2,0.8-3,2.8-3.6c3.6-1,7.3-1,11-1.3
	c3.3-0.3,6.7-0.5,10-0.7C122.7,28.5,125.7,29.5,128.1,32.1"/>
<path class="st1" d="M364.9,61.3c-2.2,0.4-3.9-0.6-5.6-1.8c-2-1.5-2.7-1.3-4.2,0.7c-0.1,0.2-0.2,0.3-0.3,0.5
	c-2.3,3.5-4.2,3.9-7.8,1.8c-1.1-0.7-2.1-1.9-3.4-1.8c-1.5,0.1-1.7,1.8-2.5,2.8c-1.4,1.5-3.1,2-5,1.6s-3.3-1.8-4.2-3.5
	c-0.3-0.5-0.1-1.1,0.4-1.5c0.5-0.5,1.1-0.3,1.5,0.1c0.6,0.5,1.1,1,1.7,1.5c1.5,1.2,2.4,1,3.5-0.4c3.6-4.5,4.2-4.6,9.1-1.6
	c2.6,1.6,2.9,1.6,4.6-0.9c1.8-2.7,4.7-4.4,8.2-1.6c1.6,1.3,3.4,1.6,5.3,1.6c0.8,0,1.9-0.2,2,0.8c0.2,1.1-1,1.3-1.8,1.6
	C365.9,61.2,365.4,61.2,364.9,61.3"/>
<path class="st1" d="M370,66.8c0.2,2.6-7.1,1.4-9.4-0.1c-1.7-1.1-2.6-0.9-3.8,0.7c-2.6,3.4-6.1,4-9.6,1.7c-3.4-2.2-3.5-1.6-5.6,0.7
	c-2.9,3.2-8.9,1.9-10.5-2.1c-0.2-0.4-0.2-0.9,0.2-1.2c0.5-0.4,1.1-0.5,1.6-0.2c0.8,0.5,1.6,1.2,2.5,1.8c1.7,1.2,3.2,1.1,4.5-0.5
	c2.8-3.5,5.5-3.1,8.8-1.1c2.6,1.7,4.4,1.3,6.3-1.2c2.2-2.8,3.7-3.1,6.8-1.3c1.5,0.9,3.2,1.2,4.8,1.5C367.6,65.7,369.1,65.8,370,66.8
	 M104.8,223.4c-2.2,0.2-3.8-0.9-5.4-2.3c-1.8-1.6-2.5-1.6-4.2,0.3c-0.1,0.1-0.2,0.3-0.4,0.4c-2.6,3.2-4.6,3.5-8,1
	c-1.1-0.8-1.9-2.1-3.2-2.2c-1.5,0-1.9,1.7-2.8,2.5c-1.5,1.4-3.3,1.7-5.1,1.2c-1.9-0.6-3.1-2.1-3.8-3.9c-0.2-0.6,0-1.1,0.5-1.5
	c0.6-0.4,1.1-0.2,1.5,0.2c0.5,0.5,1,1.1,1.6,1.6c1.3,1.3,2.3,1.3,3.6,0c4.1-4.1,4.6-4.2,9.2-0.7c2.4,1.9,2.7,1.8,4.6-0.5
	c2.1-2.5,5.1-3.9,8.3-0.8c1.5,1.4,3.2,1.9,5.1,2.1c0.8,0.1,1.9,0,1.9,1c0.1,1.1-1.1,1.2-1.9,1.4
	C105.8,223.4,105.3,223.4,104.8,223.4"/>
<path class="st1" d="M109.4,229.4c0,2.6-7.2,0.7-9.4-1c-1.6-1.3-2.5-1.1-3.9,0.4c-2.9,3.2-6.5,3.4-9.8,0.8c-3.2-2.5-3.4-1.9-5.7,0.1
	c-3.2,2.9-9,1-10.3-3.1c-0.1-0.5-0.1-0.9,0.3-1.2c0.5-0.4,1.1-0.4,1.6,0c0.8,0.6,1.5,1.4,2.3,2c1.6,1.3,3.1,1.4,4.5,0
	c3.1-3.2,5.7-2.6,8.8-0.2c2.5,1.9,4.2,1.7,6.4-0.6c2.4-2.6,4-2.8,6.9-0.6c1.4,1.1,3,1.5,4.7,1.9C107,228.1,108.6,228.4,109.4,229.4
	 M144,91.2L144,91.2c-0.8-0.3,0.1-2.9,0.2-3.4c0.3-1.2,0.8-2.2,1.4-3.3c1-2,2.2-3.8,3.6-5.5c0.8-0.9,0.6-1.4-0.3-2
	c-1.9-1.2-3.8-2.5-5.7-3.8c-0.8-0.5-2.1-1-1.4-2.2c0.7-1.2,1.8-0.3,2.7,0.1c2.2,1.1,4.3,2.4,6.2,3.9c0.8,0.6,1.3,0.6,2-0.2
	c2-2.2,4.1-4.2,6.4-6.2c0.7-0.6,1.5-1.3,2.3-0.4c0.6,0.7,0,1.5-0.6,2.1c-1.9,1.9-3.8,3.9-5.8,5.7c-1.2,1.1-0.9,1.6,0.1,2.5
	c2.1,1.7,3.9,3.7,5.4,6c0.1,0.2,0.3,0.4,0.4,0.6c0.3,0.9,1.4,2.1,0.6,2.7c-0.8,0.6-2.4-1.7-2.8-2.2c-1.7-1.9-3.7-3.5-5.5-5.4
	c-1-1-1.6-0.7-2.3,0.3c-1.2,1.7-2.5,3.4-3.7,5.1c-0.7,1-1.4,2-1.8,3.2C145.2,89.6,144.8,91.4,144,91.2 M388.1,249.3
	c-2.6-0.3-5.4-1.4-7.7-2.5c-2.5-1.1-4.9-2.5-7.1-4.1c-3.3-2.5-4.5-6.4-5.6-10.2c-0.8-2.5-1.1-5.1-2.4-7.5c-0.2-0.4-0.3-0.7,0-1
	c0.4-0.4,0.7-0.4,1.2-0.1c1,0.6,1.5,1.5,1.9,2.5c0.5,1.3,0.9,2.7,1.3,4.1c1.9,7.8,7.4,12.2,14.2,15.4
	C385,246.4,388.5,247.5,388.1,249.3 M151.1,233.1c-4,2-8,2.3-12,0.8c-2.7-1-4.1-3.2-4.7-5.9c-0.2-0.7,0.1-1.3,0.8-1.5
	c0.7-0.3,1.1,0.3,1.3,0.8c1.4,4.7,5.3,5.4,9.4,5.6C147.5,232.9,149.3,233,151.1,233.1 M191,77.2c0,0.7,0.2,1.2,0.9,1.3
	c1,0.1,1.6-0.7,1.5-1.6c-0.1-0.6-0.6-1-1.1-1.1C191.5,75.5,191.2,76.1,191,77.2 M188.7,77.3c0.1-2.5,1.3-3.8,3.3-3.7
	c2.1,0.1,4.1,2.1,4,4c-0.1,1.8-2.1,3.5-4.1,3.4C189.8,80.8,188.6,79.3,188.7,77.3 M191.1,64.3c-0.1,0.7,0.2,1.3,1,1.3
	c0.9,0,1.4-0.7,1.5-1.5c0.1-0.6-0.5-1.3-1.1-1.3C191.5,62.8,191.1,63.4,191.1,64.3 M188.7,64c0.2-2.2,1.8-3.7,3.8-3.6
	c1.9,0.1,3.3,1.9,3.1,4s-1.9,3.7-3.9,3.6C189.8,67.9,188.6,66.2,188.7,64 M192.3,90.7c0.8,0.1,1.3-0.8,1.3-1.6
	c0-0.8-0.4-1.3-1.1-1.2c-0.8,0.1-0.9,0.9-1,1.6C191.5,90,191.6,90.5,192.3,90.7 M189.4,89.3c0.1-2.3,1.2-3.7,3-3.6
	c1.6,0.1,3.6,1.3,3.5,3.9c0,1.7-2,3.5-3.8,3.4C190.2,92.9,189.3,91.7,189.4,89.3 M303.3,21.6c-2.7-0.6-5.1-1.3-7.3-2.4
	c-0.6-0.3-1.2-0.8-0.8-1.6c0.3-0.7,0.9-0.8,1.6-0.6c2.3,0.8,4.6,1.6,6.9,2.5c0.6,0.2,1.2,0.6,1,1.4
	C304.4,21.4,303.8,21.6,303.3,21.6"/>
<g transform="translate(330 .235)">
	<path class="st1" d="M6.2,2.1c-1,2-2.2,4-4,5.7C1.8,8.1,1.2,8,0.8,7.7c-0.5-0.4-0.5-1-0.3-1.4c0.8-2,2-3.7,3.4-5.4
		c0.4-0.5,1-0.4,1.6-0.2C5.9,1,6.1,1.4,6.2,2.1"/>
</g>
<path class="st1" d="M402.5,138.4c0.1,0.8-4.5,7-5.1,7.2c-1,0.3-1.9-0.6-1.5-1.7c1.1-2.5,2.9-4.4,5.2-5.7
	C401.5,138,402.2,137.8,402.5,138.4 M309.2,11.9c-0.7-0.1-1.1-0.5-1.4-0.9c-1.2-1.6-2.4-3.2-3.5-4.9c-0.5-0.7-0.7-1.5,0-2
	s1.5-0.1,2,0.6c1.3,1.8,2.6,3.5,3.6,5.5C310.2,10.9,310.2,11.6,309.2,11.9 M340.5,41.9c-0.1-0.1-0.2-0.3-0.3-0.4
	c-0.5-0.8-1.6-1.7-0.6-2.7c1.1-1.2,1.8,0.3,2.6,0.7c0.9,1.1,1.8,2.3,2.7,3.4c0.6,0.7,0.9,1.5,0.1,2.1c-0.8,0.7-1.6,0.2-2.3-0.5
	C341.9,43.6,341.2,42.7,340.5,41.9 M329.1,46.9c0.1-0.8-0.2-1.8,0.9-2s1.4,0.7,1.7,1.4c0.2,1.7,0.9,3.2,0.8,4.9c0,0.6,0,1.3-0.9,1.4
	c-0.8,0.1-1.3-0.3-1.5-1.1C329.8,50.1,329.5,48.5,329.1,46.9 M343.4,29.4l-0.3-0.8c0.2-0.6,0.6-1.1,1.3-1.2c1.8,0,3.6,0,5.5,0
	c0.8,0,1.3,0.5,1.3,1.3c0,0.7-0.5,1.2-1.2,1.2C347.9,30,345.6,30.5,343.4,29.4 M400.6,149.4c-0.5,0-0.9,0.1-1.4,0.1
	c-0.6,0-1-0.2-1.1-0.8c-0.2-0.8,0.5-1.1,1.2-1.3c2-0.6,4.1-0.8,6.2-0.9c0.3,0,0.6,0,0.8,0.1c1.2,0.9-2.4,2-2.8,2.1
	C402.5,149.1,401.6,149.3,400.6,149.4 M345,12.5c0.7,0.1,1.2,0.1,1.4,0.6c0.2,0.6,0,1.2-0.5,1.5c-1.6,1-3.4,1.7-5.2,2.2
	c-0.5,0.1-1-0.1-1.2-0.6s-0.1-0.9,0.3-1.2C341.3,13.8,343.2,13,345,12.5 M406.8,156.2c0.7,1.5-5.4-0.3-7.7-1.3
	c-0.6-0.3-1-0.8-0.6-1.5c0.4-0.8,1.2-0.7,1.8-0.5C402.6,153.6,404.6,154.6,406.8,156.2 M392.4,249.3c1.2,0.1,3,1.6,3,2.5
	c0,0.7-0.5,0.8-1,0.8c-1,0-3.2-1.6-3.2-2.3C391.1,249.5,391.7,249.3,392.4,249.3 M80.5,176.8c-1.1,0.1-1.6-0.5-1.6-1.3
	c0-0.9,0.7-1.4,1.6-1.5c0.8,0,1.3,0.3,1.4,1.2C81.9,176.2,81.3,176.7,80.5,176.8 M78.5,160.2c-1.1,0.1-1.6-0.5-1.6-1.3
	c0-0.9,0.7-1.4,1.6-1.5c0.8,0,1.3,0.3,1.4,1.2C79.9,159.6,79.3,160.1,78.5,160.2 M133.9,221.4c0.5,0,1.1,0.3,1.2,1.2
	c0.1,0.9-0.4,1.4-1.3,1.6c-0.9,0.1-1.4-0.4-1.5-1.2C132.2,222.1,132.6,221.5,133.9,221.4 M365.4,160.4c0.7,0.1,1.3,0.3,1.3,1.2
	c0,0.7-0.3,1.2-1,1.3c-0.9,0.1-1.3-0.3-1.3-1.1C364.3,161,364.6,160.6,365.4,160.4 M359.4,154.6c0,0.7-0.3,1.2-1.1,1.3
	c-0.7,0.1-1.1-0.3-1.2-0.9c-0.1-0.6,0.1-1.3,0.9-1.4C358.8,153.6,359.2,154,359.4,154.6 M354.9,161.2c-0.7-0.2-1.3-0.4-1.3-1.2
	c0-0.7,0.4-1.3,1.1-1.3s1.2,0.4,1.2,1.2C356,160.7,355.5,161,354.9,161.2 M359.4,160.3c-0.7-0.1-1.3-0.2-1.4-1.1
	c-0.1-0.7,0.2-1.3,0.9-1.4c0.8-0.1,1.3,0.3,1.4,1.1C360.4,159.7,359.9,160.1,359.4,160.3 M362,162.9c0.1,0.8-0.2,1.4-0.9,1.5
	c-0.7,0.1-1.3-0.2-1.4-0.9s0.2-1.2,1-1.3C361.4,162,361.9,162.2,362,162.9 M380.7,159.7c0.1,0.8-0.2,1.3-0.8,1.3
	c-0.7,0.1-1.3-0.2-1.3-1c0-0.7,0.2-1.5,1.1-1.5C380.4,158.4,380.6,159.1,380.7,159.7 M371.9,147.5c0,0.8-0.5,1.3-1.2,1.3
	c-0.6,0-1.1-0.4-1.1-1c-0.1-0.8,0.4-1.2,1.1-1.3S371.7,146.9,371.9,147.5 M370.2,156.4c0,0.7-0.2,1.2-0.9,1.4
	c-0.7,0.1-1.3-0.2-1.4-0.9s0.2-1.2,0.9-1.4C369.5,155.4,370,155.7,370.2,156.4 M363.6,156.7c0.6,0.1,1.2,0.3,1.3,1.1
	c0,0.6-0.2,1.1-0.9,1.2c-0.7,0.1-1.3-0.1-1.4-0.9C362.6,157.5,362.9,156.9,363.6,156.7 M381.5,145.5c0,0.6-0.3,1.2-1,1.3
	c-0.6,0-1.1-0.1-1.2-0.9c-0.1-0.7,0.2-1.2,1-1.3C380.8,144.6,381.3,144.8,381.5,145.5 M386.8,144.7c-0.1,0.7-0.3,1.3-1,1.4
	c-0.7,0.1-1.2-0.2-1.3-1c0-0.6,0.2-1.1,0.9-1.2C386.1,143.7,386.5,144.1,386.8,144.7 M361.3,150.5c-0.8,0-1.3-0.3-1.3-0.9
	c-0.1-0.7,0.3-1.3,1-1.3c0.5,0,1.1,0.2,1.1,0.9C362.2,150,361.8,150.4,361.3,150.5 M363.7,153.4c0.1,0.7-0.2,1.1-1,1.2
	c-0.6,0-1.2-0.2-1.3-0.8c-0.1-0.7,0.2-1.3,0.9-1.3C363,152.3,363.7,152.5,363.7,153.4 M378.5,150.7c-0.1,0.7-0.4,1.2-1.2,1.3
	c-0.7,0-1.1-0.4-1.2-1c-0.1-0.7,0.2-1.3,1-1.3C377.9,149.6,378.3,150,378.5,150.7 M376.2,160.1c0.1,0.4-0.3,0.9-0.9,0.9
	c-0.6,0.1-1.1-0.2-1.1-1c0-0.7,0.2-1.1,0.9-1.2C375.7,158.8,376,159.2,376.2,160.1 M379.8,155c0,0.7-0.3,1.2-1.1,1.3
	c-0.8,0.1-1.2-0.2-1.3-1c-0.1-0.8,0.5-1.2,1.1-1.2C379.2,154.1,379.7,154.3,379.8,155 M367.9,151.6c0.8,0,1.3,0.2,1.3,1
	c0.1,0.8-0.4,1.2-1.1,1.2c-0.6,0-1.1-0.3-1.2-1C366.9,152.1,367.3,151.7,367.9,151.6 M388.4,154.4c-0.1,0.7-0.4,1.2-1.2,1.1
	c-0.7,0-1-0.4-1.1-1c-0.1-0.7,0.4-1.1,0.9-1.1C387.8,153.3,388.3,153.6,388.4,154.4 M384.4,155c0,0.7-0.4,1.2-1.1,1.2
	c-0.6,0-1.2-0.3-1.2-1.1c0-0.7,0.3-1,1-1.1C383.8,153.9,384.3,154.1,384.4,155 M351.6,149.9c0.6,0.1,1.1,0.3,1.1,1
	c0.1,0.8-0.3,1.2-1.1,1.2c-0.6,0-1-0.4-1.1-1C350.6,150.4,351,150,351.6,149.9 M389.6,158.2c-0.2,0.7-0.4,1.2-1.1,1.3
	c-0.7,0-1.2-0.4-1.2-1.1c0-0.6,0.4-1,1.1-1.1C389.1,157.3,389.4,157.8,389.6,158.2 M374.5,155.8c0,0.6-0.3,1.1-0.9,1.1
	c-0.5,0-1-0.1-1-0.8c-0.1-0.6,0-1.1,0.8-1.2C374,154.8,374.4,155.1,374.5,155.8 M371.6,160.9c0,0.6-0.3,1.1-1,1.1
	c-0.6,0-1.1-0.4-1.1-1c0-0.5,0.3-1,0.9-1C370.9,159.9,371.4,160.1,371.6,160.9 M387.6,149.2c-0.2,0.7-0.4,1.4-1.2,1.3
	c-0.6-0.1-1.1-0.4-1-1.1c0-0.7,0.4-1,1.1-1.1C387.1,148.3,387.3,148.8,387.6,149.2 M346.5,150.7c0.6,0,1.1,0.3,1.1,1
	c0,0.6-0.3,1.2-1,1.2c-0.6,0-1.1-0.3-1.1-1S345.8,150.8,346.5,150.7 M357.6,149.7c0,1.2-0.4,1.6-1.2,1.6c-0.7,0-1.1-0.3-1.1-1
	c0-0.8,0.5-1.1,1.2-1.1S357.6,149.4,357.6,149.7 M367.5,148.4c-0.1,0.7-0.4,1.2-1.2,1.2c-0.7,0-1-0.4-1-1.1c0-0.7,0.4-1.2,1.1-1.2
	C367.1,147.3,367.4,147.7,367.5,148.4 M376.1,147.5c-0.8,0.1-1.2-0.3-1.2-0.9c0-0.6,0.3-1,1-1s1.1,0.2,1.1,0.9
	C377.1,147.1,376.7,147.4,376.1,147.5 M348.9,155.5c0.6,0.1,1.2,0.3,1.2,0.9c0,0.6-0.3,1.1-0.9,1.2c-0.6,0.1-1.1-0.3-1.2-0.9
	C347.9,156,348.4,155.7,348.9,155.5 M356.4,165.3c-0.6-0.2-1.1-0.5-1.1-1.1c0-0.5,0.3-0.9,1-0.9c0.6,0,1,0.4,0.9,0.9
	C357.2,164.7,356.9,165.2,356.4,165.3 M372.1,150.7c0.6,0.1,1.1,0.3,1,0.9c0,0.5-0.3,1-0.9,1c-0.5,0-0.9-0.3-0.9-0.9
	C371.3,151.1,371.6,150.7,372.1,150.7 M385.4,158.5c-0.1,0.5-0.3,1-0.9,1s-0.9-0.3-1-0.9c0-0.6,0.2-0.9,0.8-1
	C385,157.6,385.2,157.9,385.4,158.5 M353.9,155.6c0.1,0.5-0.1,0.9-0.6,1c-0.6,0.1-1-0.1-1.2-0.7c-0.1-0.5,0.2-0.9,0.7-1
	C353.4,154.7,353.8,155,353.9,155.6 M381.8,149.2c0.6,0,0.9,0.4,0.9,0.9c0,0.6-0.4,0.9-0.9,0.9c-0.6,0-0.9-0.3-0.9-0.9
	C380.8,149.6,381.3,149.3,381.8,149.2 M83.9,40.8c-0.1,0.6-0.4,1.2-1.3,1.2c-0.7,0-1.2-0.4-1.2-1.1c0-0.9,0.4-1.2,1.3-1.2
	C83.4,39.7,83.9,40,83.9,40.8 M90.3,35.4c-0.7-0.1-1.2-0.4-1.2-1.2c0-0.7,0.4-1.1,1-1.1s1.2,0.2,1.3,1C91.4,35,91,35.3,90.3,35.4
	 M84.2,30.4c0.2-0.7,0.5-1.3,1.3-1.1c0.7,0.1,1.2,0.5,1.2,1.2c-0.1,0.7-0.5,1.1-1.3,1.1C84.6,31.5,84.4,30.9,84.2,30.4 M84.6,34.9
	c0.2-0.7,0.4-1.3,1.2-1.3c0.7,0,1.3,0.3,1.3,1c0,0.8-0.4,1.3-1.2,1.3C85.1,36,84.8,35.4,84.6,34.9 M81.8,37.2c-0.8,0-1.4-0.3-1.4-1
	s0.4-1.2,1.1-1.3s1.2,0.3,1.2,1.1C82.8,36.7,82.5,37.2,81.8,37.2 M83.2,56.1c-0.8,0-1.2-0.3-1.2-1s0.4-1.3,1.2-1.2
	c0.7,0.1,1.4,0.3,1.4,1.2C84.5,55.9,83.8,56,83.2,56.1 M96.3,48.5c-0.8-0.1-1.2-0.6-1.1-1.3c0.1-0.6,0.5-1,1.1-1
	c0.8,0,1.1,0.5,1.1,1.2C97.4,48.2,96.9,48.4,96.3,48.5 M87.5,45.9c-0.7,0-1.2-0.3-1.3-1.1c-0.1-0.7,0.3-1.2,1-1.3s1.2,0.4,1.3,1.1
	C88.5,45.3,88.3,45.9,87.5,45.9 M87.9,39.4c-0.2,0.6-0.4,1.2-1.2,1.2c-0.6,0-1.1-0.3-1.1-1s0.3-1.3,1-1.3
	C87.2,38.4,87.7,38.7,87.9,39.4 M97.3,58.2c-0.6-0.1-1.2-0.4-1.2-1.1c0-0.6,0.2-1.1,1-1.1s1.2,0.3,1.2,1.1
	C98.3,57.6,98,58.1,97.3,58.2 M97.6,63.5c-0.7-0.1-1.3-0.4-1.3-1.2c0-0.7,0.3-1.2,1.1-1.2c0.6,0,1.1,0.3,1.1,1
	C98.6,62.9,98.2,63.3,97.6,63.5 M94.3,37.7c0-0.8,0.4-1.2,1-1.2c0.7,0,1.2,0.4,1.2,1.2c0,0.5-0.3,1.1-1,1
	C94.7,38.7,94.3,38.3,94.3,37.7 M91.1,39.8c-0.7,0-1.1-0.3-1.1-1.1c0-0.6,0.3-1.1,1-1.2c0.7,0,1.2,0.4,1.3,1.1
	C92.3,39.2,92.1,39.9,91.1,39.8 M92.4,54.7c-0.7-0.2-1.2-0.5-1.1-1.3c0-0.7,0.5-1.1,1.1-1.1c0.7,0,1.2,0.3,1.2,1.1
	C93.6,54.3,93.1,54.6,92.4,54.7 M83.2,51.5c-0.4,0-0.8-0.4-0.8-1s0.3-1.1,1.1-1c0.7,0,1.1,0.3,1.1,1C84.5,51.2,84.1,51.5,83.2,51.5
	 M87.9,55.6c-0.7-0.1-1.2-0.4-1.2-1.2s0.3-1.2,1.1-1.2c0.8,0,1.1,0.6,1.1,1.3C89,55.1,88.6,55.6,87.9,55.6 M92.6,44.2
	c-0.1,0.8-0.4,1.3-1.2,1.2c-0.8,0-1.1-0.6-1.1-1.2c0-0.6,0.4-1.1,1.1-1.1C92.1,43.1,92.5,43.5,92.6,44.2 M87.7,64.2
	c-0.7-0.2-1.1-0.5-1-1.3c0.1-0.7,0.5-1,1.1-1c0.7,0,1.1,0.5,1,1C88.9,63.7,88.5,64.2,87.7,64.2 M87.5,60.2c-0.7-0.1-1.1-0.5-1.1-1.2
	c0.1-0.6,0.4-1.2,1.2-1.1c0.7,0.1,1,0.4,1,1.1C88.7,59.7,88.4,60.1,87.5,60.2 M95.8,28.2c-0.2,0.5-0.4,1-1.1,1
	c-0.8,0-1.1-0.4-1.1-1.2c0-0.6,0.5-1,1.1-0.9C95.4,27.2,95.8,27.5,95.8,28.2 M83.8,65c-0.7-0.2-1.2-0.5-1.2-1.2s0.5-1.1,1.3-1
	c0.6,0.1,1,0.5,0.9,1.2C84.8,64.6,84.3,64.8,83.8,65 M87.7,50.3c-0.6-0.1-1-0.4-1-1c0-0.5,0.2-0.9,0.9-0.9c0.6,0,1.1,0.2,1.1,0.9
	C88.7,49.9,88.4,50.2,87.7,50.3 M82.9,46.9c-0.6-0.1-1-0.4-1-1.1c0-0.6,0.5-1.1,1.1-1c0.5,0,1,0.4,1,1
	C83.9,46.3,83.6,46.8,82.9,46.9 M93,63.9c-0.7-0.3-1.3-0.6-1.2-1.3c0.1-0.6,0.5-1,1.2-0.9s1,0.5,1,1.2C94,63.5,93.4,63.7,93,63.9
	 M95.4,34.2c-1.2-0.1-1.5-0.6-1.5-1.3s0.4-1.1,1.1-1c0.8,0,1.1,0.6,1,1.3C96,33.8,95.7,34.2,95.4,34.2 M95.8,44.1
	c-0.7-0.1-1.2-0.5-1.1-1.3c0.1-0.7,0.5-1,1.2-0.9s1.2,0.5,1.1,1.2C96.9,43.7,96.4,44.1,95.8,44.1 M95.8,52.7c0-0.8,0.4-1.2,1-1.1
	c0.6,0,1,0.4,0.9,1.1c0,0.7-0.3,1.1-1,1C96.1,53.7,95.9,53.2,95.8,52.7 M80,31.4c0.2-0.6,0.6-1.1,1.2-1c0.5,0.1,0.9,0.4,0.8,1.1
	c-0.1,0.6-0.5,0.9-1,0.8C80.4,32.3,80,31.9,80,31.4 M93,48.4c-0.1,0.6-0.4,1-1,0.9c-0.5-0.1-1-0.4-0.9-1c0.1-0.5,0.4-0.9,1-0.8
	C92.7,47.6,93.1,47.9,93,48.4 M84,60.8c-0.5-0.2-0.9-0.4-0.9-1s0.4-0.9,1-0.9s0.9,0.3,0.9,0.9C84.9,60.5,84.5,60.7,84,60.8
	 M89.9,29.9c-0.5,0-0.9-0.2-0.9-0.7c-0.1-0.6,0.2-1,0.8-1.1c0.5-0.1,0.8,0.3,0.9,0.7C90.8,29.4,90.5,29.8,89.9,29.9 M93.6,58.2
	c-0.1,0.6-0.4,0.9-1,0.8c-0.6,0-0.9-0.5-0.8-1c0-0.6,0.4-0.9,1-0.8C93.3,57.2,93.5,57.6,93.6,58.2"/>
<path class="st1" d="M311.6,27.3c0-4.4,2.4-8.2,5.7-9.4c0.7-0.2,1.4-0.5,1.8,0.4c0.4,0.8-0.1,1.3-0.8,1.6c-2.8,1.2-3.8,3.7-4.4,6.4
	c-0.1,0.4-0.1,0.8-0.2,1.1c-0.2,0.6-0.3,1.5-1.2,1.4C311.7,28.6,311.6,27.8,311.6,27.3 M322.3,17.6c-0.8,0.1-1.4-0.2-1.3-1
	c0.2-1.3,1.3-1.4,2.3-1.4c0.8-0.1,1.5,0.3,1.4,1.1C324.6,17.8,323.2,17.4,322.3,17.6 M110.6,48.6c-0.1-0.7,0.3-1.3,1-1.8
	c2.6-2.2,5.3-4.3,7.9-6.5c0.7-0.6,1.6-1,2.3-0.1c0.8,0.9,0,1.7-0.7,2.2c-1.9,1.7-3.9,3.4-5.9,5c-1.4,1-1,1.5,0.3,2.1
	c2.6,1.3,5.1,2.8,7.6,4.2c0.9,0.5,1.7,1.1,1.2,2.2c-0.5,1.2-1.6,0.9-2.4,0.5c-3.3-1.8-6.5-3.6-9.7-5.5
	C111.3,50.4,110.6,49.8,110.6,48.6 M433,180.8c-2-0.8-3.8-1.6-5.6-2.3c-0.9-0.4-1.8-0.8-2.7-1.3c-0.7-0.4-0.9-1.1-0.6-1.8
	c0.3-0.8,1.1-1,1.7-0.7c3.1,1.2,6.2,2.4,9.2,3.8c1.5,0.7,1.7,2.2,0.8,3.5c-1.9,2.7-4.4,4.8-7,6.8c-0.6,0.5-1.5,0.5-2-0.2
	c-0.5-0.8-0.3-1.5,0.4-2.2C429.1,184.6,430.9,182.8,433,180.8"/>
<path class="st4" d="M122,101.7c0-0.6-0.2-1.2-0.7-1c-1,0.2-1.4,1.2-1.6,2.1c-0.1,0.5,0.3,0.9,0.8,0.8
	C121.4,103.3,121.9,102.5,122,101.7 M119.4,105.4c-0.1-0.2-0.2-0.6-0.4-0.6c-0.5-0.2-1,0-1.3,0.5c-2.7,3.9-5.5,7.7-8.2,11.6
	c-0.3,0.5-0.8,1.2-0.1,1.7c0.8,0.5,1.1-0.4,1.4-0.8c2.6-3.7,5.3-7.5,7.9-11.2C119,106.2,119.2,105.8,119.4,105.4 M111.9,125.1
	c0.6-1-0.3-1.4-0.8-1.8c-1.7-1.5-3.8-2.2-6.3-2.3c3.7-5.5,7.3-10.9,11-16.3c2.5-3.5,5-7.1,7.1-10.8c1-1.7,2-2,3.6-1.2
	c1,0.5,2.1,0.9,2.9,1.7c0.3,0.3,0.7,0.8,1.2,0.3c0.4-0.4,0.1-1-0.2-1.4c-1.2-1.6-2.9-2-4.7-2.4c-0.2-0.1-0.5,0-1-0.1
	c2-1.5,4.7-5.8,7.2-4.5c0.8,0.4,1,3.5,1,4.4c0.2,3.7-2.9,6.7-4.6,9.6c-0.1,0.1-0.3,0.2-0.4,0.3c-2.6,0.5-3.1,0.9-2.9,3.4
	c0.2,2.7-0.6,5-1.8,7.3c-2.9,5.6-5.6,11.3-8.4,16.9c-0.3,0.6-0.6,1.1-0.9,1.6L111.9,125.1"/>
<path class="st0" d="M101,134c-0.5,0.1-0.8,0.4-0.8,0.9s0.4,0.8,0.9,0.8s0.8-0.3,0.8-0.8C101.8,134.3,101.5,134,101,134
	 M107.2,139.5c-0.1-0.1-0.1-0.4-0.2-0.4c-1.5-0.7-2.6-1.9-3.8-3c-0.3-0.3-0.7-0.2-1,0s-0.3,0.5-0.2,0.9c0.3,1,3.2,3.2,4.2,3.2
	C106.6,140.3,107.1,140.2,107.2,139.5 M111.9,125.1c1.5,1.2,3.3,2.4,2.7,3.5c-0.9,2.5-2.6,5.8-3.8,8.2c-0.6,1.1-1.1,2.3-1.7,3.4
	c-0.9,1.8-2.4,2.3-4,1.2c-2.9-1.9-5.3-4.2-6.3-7.7c-0.2-0.7-0.6-1.5,0.1-2.1s1.5-0.5,2.3-0.2c2.4,0.9,4.1,2.6,5.7,4.5
	c0.4,0.5,0.8,1.5,1.5,1c0.9-0.6,0.1-1.4-0.2-2c-1.1-2.2-5-4.8-8.7-5.8c1.3-2,2.4-4,3.8-5.8c0.5-0.6,1.2-0.7,2-0.6
	c1.7,0.2,3.5,0.7,4.8,1.8C110.6,125,111.2,125.4,111.9,125.1"/>
<path class="st5" d="M115,101.4l0.5-0.5c0.1,0.1,0.2,0.2,0.3,0.2l-0.5,0.6L115,101.4"/>
<path class="st1" d="M119.4,105.4c0,0.4-0.4,0.8-0.6,1.1c-2.6,3.7-5.3,7.5-7.9,11.2c-0.3,0.5-0.6,1.3-1.4,0.8
	c-0.7-0.4-0.2-1.2,0.1-1.7c2.7-3.9,5.5-7.8,8.2-11.6c0.3-0.4,1-0.7,1.4-0.2C119.3,105.1,119.4,105.3,119.4,105.4 M122,101.7
	c-0.2,0.8-0.6,1.5-1.5,1.8c-0.5,0.1-0.9-0.3-0.8-0.8c0.2-0.9,0.6-1.9,1.6-2.1C121.9,100.6,122,101.1,122,101.7 M107.2,139.5
	c-0.1,0.7-0.6,0.8-1.1,0.8c-1,0-3.9-2.3-4.2-3.2c-0.1-0.3-0.1-0.6,0.2-0.9c0.3-0.3,0.8-0.3,1,0c1.2,1.1,2.3,2.2,3.8,3
	C107.1,139.1,107.2,139.4,107.2,139.5 M101,134c0.5,0,0.8,0.3,0.9,0.8c0,0.5-0.3,0.8-0.8,0.8s-0.9-0.3-0.9-0.8
	C100.2,134.4,100.5,134.1,101,134"/>
<path class="st1" d="M128.4,100.2c-0.1,0.1-0.3,0.2-0.4,0.3c-2.6,0.5-3.1,0.9-2.9,3.4c0.2,2.7-0.6,5-1.8,7.3
	c-2.9,5.6-5.6,11.3-8.4,16.9c-0.3,0.6-3,6.4-4.1,8.7c-0.6,1.1-1.1,2.3-1.7,3.4c-0.9,1.8-2.4,2.3-4,1.2c-2.9-1.9-5.3-4.2-6.3-7.7
	c-0.2-0.7-0.6-1.5,0.1-2.1s1.5-0.5,2.3-0.2c2.4,0.9,4.1,2.6,5.7,4.5c0.4,0.5,0.8,1.5,1.5,1c0.9-0.6,0.1-1.4-0.2-2
	c-1.1-2.2-5-4.8-8.7-5.8c1.3-2,2.4-4,3.8-5.8c0.9-1.1,5.9,0.5,6.7,1.2c0.6,0.5,1.1,0.9,1.8,0.6c0.6-1-0.3-1.4-0.8-1.8
	c-1.7-1.5-3.8-2.2-6.3-2.3c3.7-5.5,7.3-10.9,11-16.3c2.5-3.5,5-7.1,7.1-10.8c1-1.7,2-2,3.6-1.2c1,0.5,2.1,0.9,2.9,1.7
	c0.3,0.3,0.7,0.8,1.2,0.3c0.4-0.4,0.1-1-0.2-1.4c-1.2-1.6-2.9-2-4.7-2.4c-0.2-0.1-0.5,0-1-0.1l3.2-2.9c3.1-0.3,4.6,1.5,4.6,1.5
	s-0.1,2.4-0.5,3.8C131.5,95.7,129.8,97.8,128.4,100.2 M104.8,116.6c0.3-0.9,0.6-1.7,1-2.5c0.8-1.5,1.8-3,2.7-4.4
	c1.5-2.2,2.9-4.3,4.6-6.3c0.5-0.6,1-1.2,1.6-1.8c0.3-0.3,0.6-0.6,0.9-0.8c0.1-0.1,0.6-0.5,0.5-0.2c-0.1,0.2-0.2,0.3-0.3,0.4
	c-3.7,5.5-7.4,11.1-11,16.6c-0.2-0.2-0.2-0.5-0.1-0.7C104.7,116.8,104.8,116.7,104.8,116.6 M130.6,100.8c3-4.5,3.7-9.5,3.4-14.7
	c-0.1-2.2-1.3-3-3.2-2c-3.7,2.1-7.2,4.4-9.3,8.2c-0.9,1.6-2,3.2-3,4.8c-0.3,0.5-0.6,0.9-1.3,0.8c-1.5-0.3-2.5,0.6-3.5,1.5
	c-4,4.1-7.2,8.9-9.9,13.9c-1,1.9-1.6,4.1-1.3,6.3c0.1,0.9-0.2,1.7-0.7,2.4c-1.7,2.8-3.5,5.5-4.9,8.4c-1.1,2.4-0.1,5.3,1.2,7.4
	c1.4,2.4,3.5,4.4,6.1,5.6c3.1,1.4,5.5,0.4,7-2.7c0.7-1.4,1.3-2.8,2-4.4c1.1,1.7,1.1,2.3,2.2,4.1c1.9,0.7,0.7-3.1-0.4-4.6
	c-0.9-1.2-0.9-2.1-0.2-3.4c1.2-2.3,2.3-4.6,3.3-7c1.4-3.3,6.1-12.4,7-14c0.2,1,0.2,1.8-0.1,2.5c-0.2,0.4-0.5,0.8,0.1,1.1
	c0.5,0.2,1,0.1,1.3-0.5c0.5-0.9,0.6-1.9,0.7-2.9c0.1-3-1.5-9.4-0.3-9c1.3,0.1,1.5,1.1,1.8,1.9c1.6,4.3,3.1,10,2.1,17.1
	c-0.2,1.4,0.7,1,1.2,0.4c1.5-4.7,0.8-12.8-1.6-18.4C129.9,102.9,129.9,101.9,130.6,100.8 M87.6,101.6c-0.8-0.1-1.6-0.1-2.5-0.1
	c-8-0.1-15.9,0.3-23.9,0.7c-15.3,0.8-30.5,1.5-45.8,2.3c-1,0.1-2.2,0.2-2.2,1.5s1.2,1.2,2.2,1.1c5.1-0.2,10.2-0.5,15.3-0.7
	c12.2-0.6,24.5-1.2,36.7-1.7c6.4-0.3,12.8-0.4,19.1-0.5c1.4,0,2.2,0.4,2.1,2.1c-0.7,7.6-0.8,15.2-0.7,22.8c0,0.3,0,0.6-0.1,0.8
	c-0.1,3.5-0.6,8.5-2.5,8.8c-6.8,0.9-23.2,0.2-39.4,0.3c-20.4,0.2-40.6,1-40.9,0.1c-0.5-1.5-0.6-5.8-0.7-9.4l0,0
	c-0.1-1.4-0.1-2.7-0.2-4.1c-0.1-4-0.2-7.9-0.1-11.9c0-0.6,0.1-1.1,0-1.7s-0.4-1.2-1.2-1.2c-0.7,0-1.2,0.4-1.3,1.1
	c-0.1,0.6-0.1,1.3-0.1,1.9c0,6.5,0,13.1,0.1,19.6c0,2,0.2,4,0.5,6c0.3,1.9,1.4,2.6,3.4,2.8c8,0.6,15.9,0.1,23.9,0
	c18.8-0.3,37.6-1.1,56.5-0.5c3.4,0.1,4.9-1.6,4.9-5c0-2.5-0.1-5-0.2-7.5c-0.1-7.7,0.3-15.3,0.8-23C91.6,103.1,90.6,102.1,87.6,101.6
	"/>
<path class="st6" d="M97,99.9c-0.3-0.5-0.8-0.4-1.3-0.4c-2.1-0.2-4.2-0.3-6.2-0.5c-0.9-0.1-2-0.2-1.8-1.5c0.2-1.2,1.2-1.1,2.2-1.1
	c2.4,0.2,4.9,0.3,7.3,0.5c1.3,0.1,2.2,0.6,2.3,2.1c0.3,3.1-0.1,6.1-0.1,9.1c0,0.7-0.4,1.4-1.3,1.3c-0.9,0-1.4-0.7-1.3-1.5
	c0.1-2.1,0.2-4.3,0.3-6.4C97,101.1,97,100.5,97,99.9"/>
<path class="st2" d="M257.2,76.6c1.1,0,3.6,2.3,3.6,3.3c0,0.4-0.1,0.6-0.5,0.8c-0.4,0.3-0.8,0.1-1.1-0.2c-0.8-0.8-1.6-1.6-2.6-2.2
	c-0.5-0.3-0.5-0.8-0.2-1.3C256.6,76.8,256.9,76.6,257.2,76.6 M255,84.3c0.1-1,0.2-2,1.4-2.1c0.8-0.1,1.1,0.7,1,1.2
	c-0.2,0.8-0.1,1.9-1.4,2.1C255,85.5,255.1,84.8,255,84.3"/>
<g>
	<g>
		<path d="M133.6,77.5c1.2-0.1,0.9-1.2,0.9-1.9c-0.1-3-0.3-5.9-0.4-8.9c0-2.6,0.5-3.3,3.1-3.5c8.9-0.8,17.7-1.4,26.6-2.5
			c2.3-0.3,2.7,0.2,3.1,2.4c0.1,0.5,0.1,1,0.1,1.5c0.2,4.1,0.8,8.1,1.3,12.2c0.6,5.1,1.3,10.1,1,15.2c-0.1,1.5-0.7,2.2-2.2,2.5
			c-3,0.6-6.1,1-9.2,1.1c-5.8,0.1-11.6,0.3-17.4,0.4c-1,0-2.2,0.2-2.1,1.6c0.1,1.3,1.1,1.4,2.2,1.4c3.3,0,6.8,0,10.2,0
			c5.9,0,11.9-0.3,17.5-1.8c2.2-0.6,3.5-1.8,3.7-4.1c0.3-2.6,0.3-5.1,0.1-7.7c-0.6-7.3-1.9-14.6-2.5-21.9c-0.4-5-2.3-6.4-7.4-5.8
			c-0.2,0-0.4,0.1-0.6,0.1c-5.2,0.6-10.4,1.2-15.6,1.7c-3.3,0.4-6.5,0.7-9.8,1.1c-3.8,0.5-5.4,2.4-5.4,6.2c0,3,0.4,6,1,9
			C132.3,76.6,132.4,77.7,133.6,77.5z"/>
		<path d="M231.7,189.4c-1.2-0.4-1.2,0.9-1.5,1.5c-3.2,8.2-8.7,14.5-15.7,19.6c-8.2,6-17.6,8.4-27.6,8.6c-8.4,0.2-15.7,2.5-21.4,9.3
			c-4.5,5.4-10.8,8.5-17.6,10.3c-6.3,1.7-10.7,0-14.3-5.5c-0.9-1.4-1.8-2.8-2.5-4.3c-0.7-1.4-1-2.8-1.6-4.2c-0.1-0.3-0.3-0.7-0.5-1
			c-0.1-0.1-0.3-0.3-0.5-0.3c-0.1,0-0.2,0.1-0.2,0.1c-0.1,0.2,0,0.5,0,0.6c0.1,0.5,0.3,1.1,0.4,1.6c1,4,2.6,7.8,5,11.1
			c1.9,2.8,4.6,4.2,8,4.4c3.3,0.2,6.5-0.2,9.7-1.3c6.9-2.5,12.8-6.4,17.6-11.9c2.8-3.3,6.4-5.2,10.7-5.9c3.4-0.5,6.8-0.9,10.2-1.1
			c3-0.1,6-0.3,8.8-1c11.2-2.9,20.6-8.6,27.7-17.8c2.6-3.3,4.9-6.8,5.8-11.1C232.4,190.8,232.8,189.8,231.7,189.4z"/>
		<path d="M392.5,256c-0.4-0.1-0.8-0.1-1.2-0.1c-2.2-0.2-4.3-0.9-6.4-1.7c-13.2-4.5-21.1-13.6-24.2-27.1c-0.7-3.1-2.1-5.8-4.2-8.1
			c-3-3.3-7.1-4.2-11.3-4.2c-5.2,0-9.9-1.3-14.2-4.4c-3.4-2.5-4.6-5.7-4.3-9.6c0.6-6.5,1.1-13,1.2-19.6c0.1-5.2,0.2-10.4-0.3-15.6
			c-0.1-0.8-0.2-1.7-1.3-1.7c-1.3,0-1.2,1.1-1.2,1.9c0,1.4,0,2.9,0,4.3c0.2,8.7,0,17.4-0.8,26c-1.2,13.8-2.3,28-5.2,41.6
			c-0.2,0.8-1,4.6,0.1,4.5c3.3-10.9,4.9-21.7,6.5-32.6c4,4,8.2,7,13.6,7.8c2.6,0.4,5.2,0.3,7.7,0.5c3.6,0.2,6.7,1.6,8.8,4.7
			c1.2,1.9,1.9,4,2.4,6.1c3.7,13.7,11.5,23.5,25.7,27.5c2.8,0.8,6.8,2,9.6,0.5l0,0C393.4,256.3,392.9,256.1,392.5,256z"/>
		<path d="M153.9,193.7L153.9,193.7L153.9,193.7z"/>
		<path d="M391.2,211.2c-21.3-25.5-44.6-49.1-70.7-69.8c-3.1-2.5-6.1-5-9.2-7.5c-1.6-1.3-3.2-2.5-4.8-3.7c-1.8-1.4-4.1-2.4-5.4-4.3
			c0-0.1-0.1-0.2-0.1-0.2c-0.5-1.1-0.9-2.1-1.4-3.2c-1-2.2-2-4.4-2.8-6.7c-2.8-8.9-3-16.4-0.4-23.6c1.4-3.8,2.3-7.6,3.4-12.2
			c1.2-4.9,2.1-9.4,0.1-14.1c-2.9-7.1-8-10.6-14.7-10.3c-2.2,0.1-4.4,0.5-6.6,0.8c-1.7,0.3-3.4,0.5-5.1,0.7c-4.8,0.5-9,0.7-13-1.4
			l-0.3-0.1c-1.2-0.6-2.5-1.3-3.8-1.6c-2.7-0.7-4.6-0.6-5.8,0.4s-1.7,2.9-1.6,5.6c0.2,3.3,2.3,5.4,4.7,7.1c-0.8,0.6-1,1.5-1.1,1.9
			c-0.3,1.2-0.6,2.4-0.5,3.6c0.2,4.9-1.1,9-3.8,12.8c-0.6,0.8-1.1,1.7-1.6,2.6c-0.2,0.3-0.3,0.6-0.5,0.9c-1.2,2.1-1.5,3.7-1,5
			s1.8,2.2,4,2.9c0.7,0.2,0.7,0.3,0.7,0.8c-0.1,2.5,0.2,5,0.4,7.4c0.2,2.1,0.4,4.4,0.4,6.5c0,1.9,0.8,3.8,2.1,5s3.1,1.7,5.2,1.5
			c2.4-0.2,4.8-1.1,7.6-2.7l0.3-0.2c0.3-0.2,1-0.6,1.3-0.5c0.2,0.1,0.3,0.6,0.3,1c0,0.1,0,0.2,0,0.3c0.3,1.8,0.2,3.8,0.1,5.5
			c-0.1,1.1-0.1,2.1-0.3,3.2c-0.3,1.3-1.3,1.8-2.4,2.1c-1.3,0.4-2.5,0.9-3.7,1.4c-23.9,8.2-46.8,18.4-68.5,31.4
			c-11.3,6.8-22.4,13.9-31.3,23.8c-2.8,3.1-5.4,6.4-7.6,10c0.5,2.5,2.4-0.7,3-1.4c8.2-9,16.5-17.1,26.8-23.6
			c21.9-13.9,45-25.5,69.5-34.2c4.3-1.5,8.6-3.2,12.8-5.2c0.9-0.5,2.2-0.8,3.1-1.4c0.8-0.5,0.7-1.6,0.8-2.5c0.1-0.8,0.3-1.6,0.4-2.5
			c0.5-3.2,0.8-6.6-0.6-9.4c-0.1-0.2-0.1-0.3-0.2-0.4c0-0.1-0.1-0.1-0.1-0.2c0.1-0.1,0.2-0.2,0.4-0.3c3.1-2.6,4.2-5.9,3-9.9
			l-0.4-1.3c-0.5-1.7-0.9-3.4-1.4-5.1c-0.6-2.4-1-5.3,0.2-8.1c0.6-1.4,2.9-2.8,4-2.5c1.4,0.4,2.3,1.5,2.5,3.1
			c0.2,1.3-0.3,2.6-1.2,3.7c-1,1.1-1,2.2,0,3.4c0.5,0.6,1.1,1.1,2,1.6c2.9,1.7,6,3,9.3,4c1.2,0.3,2.5,0.7,4,0.6v0.7
			c0,1.1,0.1,2.1,0.1,3.2c0,0.3,0.1,0.7,0.2,1c0,0.2,0.1,0.5,0.1,0.7c0.8,6.9,3.5,13.3,6.3,19.1c0.3,0.6,1,1,1.1,1.1
			c0.2,0.4,0.7,0.7,1.1,1c2.9,2.2,5.8,4.5,8.6,6.7c15.8,12.5,31.1,25.5,45.3,39.7c12.5,12.4,24.1,25.7,35.9,38.8
			c1.7,1.8,3.3,3.7,5.2,5.7c0.3-0.8,0.1-1.2-0.1-1.6C394.6,215.7,393,213.4,391.2,211.2z M280.9,62.2L280.9,62.2
			c-1,0.2-2,0.3-3.4,0.2c6.8-4.1,14.4-3.5,18.7,3.9c0.5,0.8,0.9,1.7,1.2,2.7c0.2,0.6,0.3,1.4-0.6,1.7c-0.9,0.3-1.2-0.4-1.4-1.1
			c-0.4-1.2-1-2.2-1.7-3.2C290.5,62,286.9,60.8,280.9,62.2z M297.7,74L297.7,74c0.1,0.7-0.4,1.2-1,1.2c-0.7,0.1-1.2-0.4-1.3-1.2
			c0-0.7,0.5-0.9,1-1.1C297,73.1,297.6,73.2,297.7,74z M251.5,58.2c0.3-0.6,0.7-0.9,1.4-0.9c0.4,0,0.8,0,1,0.4s-0.1,0.6-0.3,0.8
			c-0.7,0.6-0.8,1.3-0.4,2.1c0.2,0.5,0.1,0.9-0.3,1.1c-0.5,0.3-0.8-0.1-1-0.5C251.3,60.3,251.1,59.3,251.5,58.2z M255.4,57.9
			c0-0.5,0.2-1,0.9-0.9l0,0c0.4,0.1,0.7,0.4,0.7,0.9c-0.1,0.5-0.4,0.8-0.8,0.8C255.7,58.8,255.4,58.4,255.4,57.9z M255.7,69.5
			c0.1-0.3,0.2-0.6,0.2-0.9c3.8,2,6.2,4.3,6.4,8.6c0,1.1,0.1,2.2,0.1,3.4c0,2.1,0.1,4.3,0.2,6.4c0.3,3.2-1.3,5.3-5.2,7.1
			c-2.9,1.3-6,0.7-8.1,0c-0.7-0.2-1.1-0.5-1.2-0.9c-0.1-0.4,0-0.9,0.4-1.6c1.4-2.6,2.7-4.8,3.9-6.8c1.9-3.1,2.8-6.2,2.7-9.4
			C254.9,73.2,255.2,71.3,255.7,69.5z M252.9,104.8c1.4-0.2,2.6-0.8,3.8-1.6c0.5-0.4,1.1-0.4,1.5,0.2c-0.3,0.4-0.4,0.6-0.6,0.8
			c-1.1,1.3-2.7,1.7-4.3,2.1c-0.5,0.1-1-0.1-1.1-0.7C252.1,105.1,252.4,104.9,252.9,104.8z M263,68.8c-0.2-0.2-0.1-0.6,0.3-0.8
			c0.5-0.2,1-0.1,1.3,0.4c0.6,0.7,1,1.6,1.3,2.5c0.2,0.7-0.7,1.2-1.2,0.6C264.1,70.6,263.7,69.6,263,68.8z M265.8,68.7
			c-0.2-0.3-0.4-0.7,0-1c0.3-0.2,0.8-0.2,1.1,0.2c0.3,0.4,0.6,0.8,0.9,1.3c0.4,0.8-0.8,1.3-1.2,0.6C266.2,69.4,266,69.1,265.8,68.7z
			"/>
	</g>
	<path d="M465,140.7c-0.5-0.3-0.5-0.7-0.4-1.2c0.7-4.3-1.1-7.7-5-9.8c-2.9-1.5-6.1-2.2-9.4-2.6c-8.1-1-16,0.3-23.9,1.3
		c-2.5,0.3-5,0.9-7.2,2.1c-0.7,0.4-1.2,0.8-0.9,1.6c0.3,0.7,0.9,0.4,1.5,0.3c8.2-2.3,16.6-3,25.1-3.1c4.2-0.1,8.4,0.5,12.4,2.2
		c2.4,1,4.2,2.5,4.9,5.1c0.5,2,0,2.4-1.9,1.9c-4.5-1.2-9-1.5-13.4,0.3c-3.3,1.4-3.6,5-0.7,7c0.7,0.5,1.4,0.8,2.2,1
		c4.8,1.2,9.3,0.3,13.2-2.8c1.8-1.5,2.3-1.4,3.7,0.5c0.7,1,1.2,2.1,1.2,3.3c0.4,7-2.8,11.4-10.8,13l0,0c0.5-1.8,1.6-3,2.4-4.4
		c0.4-0.7,0.8-1.6-0.1-2.2c-0.8-0.5-1.4,0-1.9,0.6c-1.7,2-2.9,4.3-4,6.6c-0.6,1.2-0.6,2.7,0.6,3.6c2,1.7,4.4,2.8,7.1,2.4
		c0.3,0,0.8,0.1,1-0.4s-0.3-0.8-0.6-1l-3.9-2.3c2.4-0.9,4.6-1.5,6.7-2.6C470.3,157.3,471.5,144.3,465,140.7z M449.4,144.3
		c-0.5-0.1-1.1-0.3-1.6-0.6c-0.6-0.3-1-0.8-1-1.5c0-0.8,0.7-1,1.3-1.2c3.1-1.1,6.3-1.1,9.5-0.5c0.8,0.1,1.5,0.4,2.7,0.7
		C456.9,144.2,453.4,145.1,449.4,144.3z"/>
	<path d="M395.9,219.8L395.9,219.8L395.9,219.8z"/>
	<path d="M253,56.8c-0.8,0-1.5,0.4-1.9,1.2c-0.6,1.4-0.1,2.6,0.3,3.4c0.4,0.7,0.8,0.8,1.1,0.8c0.2,0,0.4-0.1,0.6-0.1
		c0.7-0.4,0.9-1,0.6-1.7c-0.3-0.6-0.2-1.1,0.3-1.5l0,0c0.2-0.2,0.8-0.7,0.4-1.4C254.1,56.8,253.5,56.8,253,56.8z M253.3,58.1
		c-0.9,0.7-1,1.7-0.5,2.7c0.1,0.2,0.1,0.3-0.1,0.4c-0.1,0-0.2,0.1-0.4-0.3c-0.5-1-0.6-1.7-0.3-2.5c0.2-0.4,0.5-0.6,0.9-0.6
		c0,0,0,0,0.1,0h0.1c0.3,0,0.4,0,0.4,0.1C253.5,57.9,253.4,58,253.3,58.1z"/>
	<path d="M256.4,102.8c-1,0.8-2.2,1.3-3.6,1.5c-0.3,0.1-0.7,0.2-1,0.5c-0.2,0.2-0.2,0.5-0.1,0.9c0.1,0.5,0.4,0.8,0.6,0.9
		c0.2,0.1,0.5,0.2,0.7,0.2c0.1,0,0.3,0,0.4,0c1.5-0.4,3.3-0.8,4.6-2.2c0.1-0.2,0.3-0.3,0.4-0.6l0.5-0.6l-0.2-0.3
		C258.1,102.4,257.2,102.3,256.4,102.8z M257.3,103.9L257.3,103.9c-1.1,1.2-2.6,1.6-4,1.9c-0.1,0-0.3,0-0.3,0
		c-0.1-0.1-0.1-0.2-0.1-0.3c0-0.1,0-0.1,0-0.1s0.1-0.1,0.3-0.1c1.5-0.3,2.8-0.8,4-1.7c0.2-0.2,0.4-0.2,0.6-0.1
		C257.5,103.6,257.4,103.8,257.3,103.9z"/>
	<path d="M296.9,72.6c-0.1,0-0.2,0-0.3-0.1l-0.2-0.1h-0.2c-0.5,0.1-1.4,0.4-1.4,1.6c0,0.5,0.2,1,0.6,1.3c0.3,0.3,0.7,0.4,1.1,0.4
		c0.1,0,0.1,0,0.2,0c0.5,0,0.9-0.2,1.1-0.5c0.3-0.3,0.4-0.8,0.4-1.2C298.1,72.9,297.3,72.7,296.9,72.6z M297.2,74
		c0,0.2,0,0.4-0.1,0.5s-0.3,0.2-0.4,0.2c-0.2,0-0.4,0-0.5-0.1c-0.2-0.1-0.2-0.4-0.2-0.6s0-0.4,0.5-0.5c0.1,0,0.1,0,0.2,0
		C297.1,73.7,297.2,73.7,297.2,74L297.2,74z"/>
	<path d="M267.1,67.6c-0.5-0.5-1.2-0.6-1.7-0.2c-0.2,0.2-0.4,0.4-0.4,0.7l0,0c-0.5-0.6-1.2-0.8-1.9-0.5c-0.3,0.1-0.6,0.4-0.7,0.7
		c-0.1,0.3,0,0.6,0.2,0.8c0.3,0.4,0.6,0.9,0.9,1.4c0.2,0.4,0.5,0.8,0.8,1.2l0,0c0.2,0.3,0.6,0.5,0.9,0.5c0.2,0,0.4,0,0.5-0.1
		c0.5-0.3,0.8-0.8,0.6-1.4c0-0.2-0.1-0.3-0.2-0.5c0.4,0.3,0.9,0.4,1.3,0.2c0.6-0.3,0.8-0.9,0.5-1.5C267.8,68.5,267.5,68,267.1,67.6z
		"/>
	<path d="M256.4,56.5L256.4,56.5c-0.5-0.1-0.8,0.1-1,0.2c-0.3,0.2-0.5,0.6-0.5,1.1c0,0.4,0.1,0.8,0.4,1c0.2,0.2,0.5,0.3,0.8,0.3h0.1
		c0.7-0.1,1.2-0.5,1.3-1.3C257.6,57.2,257.1,56.7,256.4,56.5z M256.2,58.2c-0.1,0-0.2,0-0.2,0s-0.1-0.1-0.1-0.2
		c0-0.2,0.1-0.3,0.1-0.4h0.1c0,0,0,0,0.1,0c0.2,0,0.3,0.2,0.3,0.3C256.5,58.1,256.4,58.2,256.2,58.2z"/>
	<path d="M296.3,71.2c0.2,0,0.3,0,0.5-0.1c1-0.3,1.3-1.1,0.9-2.3c-0.3-0.9-0.7-1.8-1.2-2.8c-1.9-3.3-4.5-5.5-7.7-6.3
		c-3.6-0.9-7.7-0.2-11.6,2.2l-1.3,0.8l1.5,0.2c1.4,0.1,2.5,0.1,3.6-0.2c5.8-1.4,9.2-0.3,12.2,4c0.7,1,1.2,2,1.6,3.1
		C294.9,70.2,295.3,71.2,296.3,71.2z M285.2,61.2c-1.3,0-2.8,0.2-4.4,0.6c-0.5,0.1-1,0.2-1.5,0.2c3.2-1.5,6.4-2,9.3-1.2
		s5.3,2.7,7.1,5.8c0.5,0.9,0.9,1.7,1.1,2.6s0.1,1-0.2,1.1c-0.3,0.1-0.5,0.1-0.8-0.7c-0.4-1.2-1-2.3-1.7-3.4
		C291.6,62.7,288.9,61.2,285.2,61.2z"/>
</g>
</svg>
